<svg width="24" height="24" viewBox="0 0 24 24" fill="none" xmlns="http://www.w3.org/2000/svg">
<path d="M15.924 2C18.2647 2 20.0747 3.97206 20.0747 6.29442C20.0747 6.29442 20.0571 7.02742 19.2146 7.02761C17.9504 7.02761 18.0788 6.29442 18.0788 6.29442C18.0786 4.96948 17.0657 3.98451 15.924 3.98436H6.15068C5.0091 3.98458 3.99602 4.96953 3.99591 6.29442V17.7056C3.99602 19.0304 5.0091 20.0154 6.15068 20.0156H15.924C17.0657 20.0154 18.0786 19.0305 18.0788 17.7056V14.8996C18.0789 14.4613 18.4362 14.1059 18.8771 14.1059H19.2764C19.7172 14.1059 20.0747 14.4613 20.0747 14.8996V17.8324H20.0731C20.0085 20.0992 18.222 22 15.924 22H6.15068C3.81002 21.9998 2 20.0278 2 17.7056V6.29442C2 3.97211 3.81002 2.00021 6.15068 2H15.924ZM20.5949 7.68715C20.8812 7.35382 21.3846 7.31427 21.72 7.59875C22.0554 7.88339 22.0951 8.38389 21.8088 8.71739L21.0031 9.65596L14.966 16.69L14.9503 16.6769C14.9269 16.7028 14.9022 16.7282 14.8746 16.7514L13.4787 17.924C13.4348 17.9609 13.3847 17.99 13.3306 18.0092C12.9822 18.1326 12.63 17.8338 12.6976 17.4723C12.7082 17.4161 12.7287 17.3617 12.7586 17.3128L13.7034 15.7588C13.7224 15.7276 13.7436 15.698 13.766 15.6705L13.752 15.659L19.7883 8.62572L19.7907 8.62329L20.5949 7.68715ZM13.6014 11.6452C13.9321 11.6452 14.2005 11.9122 14.2005 12.241C14.2004 12.5696 13.9319 12.8358 13.6014 12.8358H8.41194C8.08139 12.8358 7.81295 12.5696 7.81278 12.241C7.81278 11.9122 8.08122 11.6452 8.41194 11.6452H13.6014ZM11.007 6.96133C11.8888 6.96155 12.6037 7.67223 12.6038 8.5488C12.6038 9.42553 11.8888 10.1361 11.007 10.1363C10.1252 10.1362 9.41033 9.42561 9.41033 8.5488C9.41042 7.67215 10.1253 6.96142 11.007 6.96133ZM11.007 8.05048C10.7303 8.05056 10.5059 8.2737 10.5058 8.5488C10.5058 8.82398 10.7303 9.04703 11.007 9.0472C11.2837 9.04695 11.5083 8.82389 11.5083 8.5488C11.5082 8.27379 11.2836 8.05073 11.007 8.05048Z" fill="black"/>
</svg>
