<svg width="24" height="24" viewBox="0 0 24 24" fill="none" xmlns="http://www.w3.org/2000/svg">
<path d="M5.91895 8.48633C6.71217 6.47328 9.30985 5.9331 10.8398 7.46289L16.5391 13.1621C18.069 14.6921 17.5287 17.289 15.5156 18.082L6.11133 21.7861C3.6679 22.7485 1.25137 20.3335 2.21387 17.8896L5.91895 8.48633ZM9.42481 8.87793C8.91314 8.3664 8.04544 8.54681 7.78027 9.21973L4.0752 18.6221C3.75342 19.4387 4.56042 20.2468 5.37793 19.9248L14.7822 16.2207C15.4554 15.9556 15.6363 15.0876 15.125 14.5762L9.42481 8.87793ZM18.0381 10.0205C18.0391 10.0206 18.0406 10.0214 18.042 10.0215C18.0449 10.0216 18.0485 10.0213 18.0527 10.0215C18.0614 10.0219 18.0728 10.0226 18.0869 10.0234C18.1155 10.0252 18.1554 10.0283 18.2041 10.0322C18.3013 10.0401 18.4368 10.0527 18.5977 10.0742C18.9147 10.1166 19.353 10.1946 19.8008 10.3379C20.2243 10.4734 20.6641 10.6911 20.9717 10.8555C21.1313 10.9408 21.2682 11.0184 21.3652 11.0752C21.4137 11.1036 21.4528 11.1268 21.4805 11.1436C21.4943 11.1519 21.5057 11.1592 21.5137 11.1641C21.5175 11.1664 21.5211 11.1685 21.5234 11.1699C21.5244 11.1705 21.5257 11.1714 21.5264 11.1719H21.5273V11.1729C21.9964 11.4643 22.141 12.0807 21.8496 12.5498C21.5582 13.0189 20.9418 13.1625 20.4727 12.8711C20.4719 12.8706 20.4701 12.8696 20.4678 12.8682C20.4632 12.8654 20.4554 12.8615 20.4453 12.8555C20.425 12.8432 20.3942 12.824 20.3545 12.8008C20.2748 12.7541 20.1613 12.6897 20.0293 12.6191C19.7531 12.4715 19.44 12.3227 19.1914 12.2432C18.8938 12.148 18.5801 12.0898 18.332 12.0566C18.2106 12.0404 18.1101 12.0309 18.042 12.0254C18.0081 12.0226 17.9826 12.0205 17.9668 12.0195C17.9589 12.0191 17.9529 12.0187 17.9502 12.0186C17.3987 11.9949 16.9708 11.5291 16.9941 10.9775C17.0175 10.4258 17.4834 9.99722 18.0352 10.0205H18.0381ZM15.7822 6.80469C16.1727 6.41436 16.8058 6.41451 17.1963 6.80469C17.5868 7.19524 17.5868 7.82923 17.1963 8.21973L16.1943 9.22168C15.8039 9.61205 15.1708 9.61193 14.7803 9.22168C14.3898 8.83117 14.3898 8.19812 14.7803 7.80762L15.7822 6.80469ZM20.5527 6.61816C21.0467 6.3712 21.6476 6.57144 21.8945 7.06543C22.1411 7.55927 21.941 8.15929 21.4473 8.40625L20.4453 8.90723C19.9513 9.15419 19.3505 8.95395 19.1035 8.45996C18.8567 7.96601 19.0569 7.36606 19.5508 7.11914L20.5527 6.61816ZM12.2148 5.36621C12.2179 5.36245 12.2243 5.35503 12.2324 5.34473C12.2488 5.32407 12.2744 5.29071 12.3066 5.24707C12.3717 5.15892 12.4618 5.03051 12.5566 4.875C12.7557 4.54863 12.936 4.16765 13 3.82226C13.0686 3.45181 13.0716 3.03993 13.0518 2.70019C13.0421 2.53502 13.0284 2.39609 13.0166 2.30078C13.0108 2.25357 13.0053 2.21715 13.002 2.19433C13.0003 2.18295 12.9987 2.17426 12.998 2.16992V2.16894L12.9854 2.0664C12.9511 1.56092 13.3052 1.10187 13.8154 1.01465C14.3596 0.921754 14.8765 1.28694 14.9697 1.83105L13.9834 2L14.9697 1.83203V1.83496C14.9699 1.83626 14.9704 1.83808 14.9707 1.83984C14.9713 1.84346 14.9718 1.84805 14.9727 1.85351C14.9745 1.86491 14.9776 1.88042 14.9805 1.89941C14.9861 1.93737 14.9929 1.99045 15.001 2.05566C15.017 2.18582 15.0362 2.36773 15.0488 2.58301C15.0735 3.00488 15.0764 3.595 14.9668 4.18652C14.8389 4.87731 14.5188 5.49925 14.2646 5.91601C14.1331 6.13175 14.0078 6.30986 13.915 6.43555C13.8685 6.49852 13.8295 6.54964 13.8008 6.58594C13.7866 6.60389 13.7745 6.61806 13.7656 6.6289C13.7613 6.63423 13.7578 6.63904 13.7549 6.64258C13.7535 6.64431 13.752 6.64618 13.751 6.64746L13.749 6.64941V6.65039H13.748C13.3936 7.07385 12.7633 7.12977 12.3398 6.77539C11.9165 6.42102 11.8598 5.79069 12.2139 5.36719L12.2148 5.36621ZM17.8037 3.16406C17.9909 2.64468 18.5645 2.37545 19.084 2.5625C19.6032 2.74973 19.8724 3.32237 19.6855 3.8418L19.2344 5.09473C19.0473 5.61428 18.4746 5.88419 17.9551 5.69726C17.4354 5.51017 17.1654 4.93662 17.3525 4.41699L17.8037 3.16406Z" fill="black"/>
</svg>
