<svg width="24" height="24" viewBox="0 0 24 24" fill="none" xmlns="http://www.w3.org/2000/svg">
<path d="M12 7.99999C14.2662 7.99999 16.3516 8.22828 17.8994 8.61522C18.6655 8.80674 19.3564 9.05099 19.8799 9.36034C20.3365 9.63022 21 10.152 21 11C21 11.848 20.3365 12.3698 19.8799 12.6396C19.6232 12.7913 19.3262 12.927 19 13.0488V19.3223C19 20.1091 18.5281 20.8852 17.7051 21.166C16.1589 21.6935 14.1575 22 12 22C9.84249 22 7.84111 21.6935 6.29492 21.166C5.47192 20.8852 5 20.1091 5 19.3223V13.0488C4.67376 12.927 4.37676 12.7913 4.12012 12.6396C3.66352 12.3698 3 11.848 3 11C3.00001 10.152 3.66353 9.63022 4.12012 9.36034C4.64361 9.05099 5.33453 8.80674 6.10059 8.61522C7.6484 8.22828 9.73377 7.99999 12 7.99999ZM17 13.5771C15.5839 13.8443 13.8527 14 12 14C10.1473 14 8.41605 13.8443 7 13.5771V19.291C8.29059 19.7219 10.0422 20 12 20C13.9578 20 15.7094 19.7219 17 19.291V13.5771ZM12 9.99999C9.84816 9.99999 7.93353 10.2188 6.58594 10.5557C6.01717 10.6978 5.58949 10.8547 5.29688 11C5.58949 11.1453 6.01716 11.3021 6.58594 11.4443C7.93353 11.7812 9.84816 12 12 12C14.1518 12 16.0665 11.7812 17.4141 11.4443C17.9823 11.3023 18.4095 11.1452 18.7021 11C18.4095 10.8548 17.9823 10.6977 17.4141 10.5557C16.0665 10.2188 14.1518 9.99999 12 9.99999ZM8.64258 3.2158C8.78999 2.92101 9.21001 2.92101 9.35742 3.2158L9.77344 4.04784C9.81211 4.12505 9.87494 4.18787 9.95215 4.22655L10.3066 4.40331L10.7842 4.64256C11.079 4.78997 11.079 5.20999 10.7842 5.35741L10.3066 5.59569L9.95215 5.77342C9.87494 5.8121 9.81211 5.87493 9.77344 5.95214L9.5957 6.30663L9.35742 6.78417C9.21917 7.06067 8.84098 7.07806 8.67285 6.83593L8.64258 6.78417L8.40332 6.30663L8.22656 5.95214C8.18789 5.87493 8.12506 5.8121 8.04785 5.77342L7.21582 5.35741C6.92101 5.20999 6.921 4.78997 7.21582 4.64256L8.04785 4.22655C8.12506 4.18787 8.18789 4.12505 8.22656 4.04784L8.64258 3.2158ZM13.5527 1.89451C13.737 1.52602 14.263 1.52602 14.4473 1.89451L14.9258 2.85057C14.9742 2.94733 15.0527 3.02582 15.1494 3.0742L16.1055 3.55272C16.474 3.73698 16.474 4.26298 16.1055 4.44725L15.5088 4.7451L15.1494 4.92577C15.0527 4.97415 14.9742 5.05265 14.9258 5.1494L14.4473 6.10546L14.4092 6.16991C14.1991 6.47269 13.7256 6.45112 13.5527 6.10546L13.0742 5.1494C13.0379 5.07677 12.9852 5.01381 12.9199 4.96678L12.8506 4.92577L11.8945 4.44725C11.526 4.26298 11.526 3.73698 11.8945 3.55272L12.8506 3.0742C12.9473 3.02582 13.0258 2.94733 13.0742 2.85057L13.5527 1.89451Z" fill="black"/>
</svg>
