<svg width="24" height="24" viewBox="0 0 24 24" fill="none" xmlns="http://www.w3.org/2000/svg">
<path d="M18.741 9.74989C18.741 10.9514 18.2723 12.0817 17.4225 12.9314L12.9312 17.4314C12.0784 18.2812 10.8881 18.7499 9.74959 18.7499C9.07007 18.7499 8.41976 18.5827 7.82199 18.2984L9.9971 16.0604C10.5829 15.4747 10.5829 14.5252 9.9971 13.9394C9.47433 13.3536 8.52476 13.3536 7.93899 13.9394L5.70087 16.1774C5.41359 15.5827 5.24936 14.9324 5.24936 14.2499C5.24936 13.0484 5.71813 11.9181 6.5679 11.0684L11.0051 6.56835C11.8549 5.7186 13.0482 5.24983 14.2498 5.24983C14.9293 5.24983 15.5766 5.41709 16.1744 5.70134L13.892 7.98663C13.3063 8.57238 13.3063 9.52189 13.892 10.1077C14.1853 10.4009 14.5686 10.5472 14.9526 10.5472C15.3336 10.5472 15.7176 10.4009 16.0101 10.1077L18.2895 7.82238C18.5768 8.41712 18.741 9.06738 18.741 9.74989ZM21.4307 0.439308L18.378 3.49483C17.127 2.66308 15.6914 2.24982 14.2498 2.24982C12.3304 2.24982 10.3488 2.98257 8.94702 4.44734L4.44679 8.94738C1.88016 11.5109 1.56364 15.4747 3.49199 18.384L0.439329 21.4395C-0.146443 22.0252 -0.146443 22.9747 0.439329 23.5605C0.731843 23.8538 1.1151 24 1.49913 24C1.88316 24 2.26641 23.8537 2.55967 23.5605L5.61233 20.505C6.86339 21.3367 8.30796 21.75 9.74956 21.75C11.6059 21.75 13.5875 21.0173 15.0523 19.5525L19.5436 15.0524C22.1102 12.4889 22.4267 8.52512 20.4984 5.61586L23.56 2.56034C24.1465 1.9746 24.1465 1.02508 23.5608 0.439308C22.975 -0.146436 22.0164 -0.146436 21.4307 0.439308Z" fill="#787880" fill-opacity="0.08"/>
</svg>
