<svg width="17" height="17" viewBox="0 0 17 17" fill="none" xmlns="http://www.w3.org/2000/svg">
<path d="M8.50008 4.95832C8.89128 4.95832 9.20842 5.27545 9.20842 5.66666V7.79166H11.3334C11.7246 7.79166 12.0417 8.10879 12.0417 8.49999C12.0417 8.89119 11.7246 9.20832 11.3334 9.20832H9.20842V11.3333C9.20842 11.7245 8.89128 12.0417 8.50008 12.0417C8.10888 12.0417 7.79175 11.7245 7.79175 11.3333V9.20832H5.66675C5.27555 9.20832 4.95842 8.89119 4.95842 8.49999C4.95842 8.10879 5.27555 7.79166 5.66675 7.79166H7.79175V5.66666C7.79175 5.27545 8.10888 4.95832 8.50008 4.95832Z" fill="black"/>
<path fill-rule="evenodd" clip-rule="evenodd" d="M13.4584 1.41666C14.632 1.41666 15.5834 2.36805 15.5834 3.54166V13.4583C15.5834 14.6319 14.632 15.5833 13.4584 15.5833H3.54175C2.36814 15.5833 1.41675 14.6319 1.41675 13.4583V3.54166C1.41675 2.36805 2.36814 1.41666 3.54175 1.41666H13.4584ZM3.54175 2.83332C3.15055 2.83332 2.83341 3.15045 2.83341 3.54166V13.4583C2.83341 13.8495 3.15055 14.1667 3.54175 14.1667H13.4584C13.8496 14.1667 14.1667 13.8495 14.1667 13.4583V3.54166C14.1667 3.15045 13.8496 2.83332 13.4584 2.83332H3.54175Z" fill="black"/>
</svg>
