<svg width="16" height="16" viewBox="0 0 16 16" fill="none" xmlns="http://www.w3.org/2000/svg">
<path fill-rule="evenodd" clip-rule="evenodd" d="M14 9.42679L13.9832 9.52221L13.9821 9.52766C13.9575 9.66924 13.9341 9.80487 13.9053 9.93939C13.6061 11.3384 12.8335 12.394 11.5795 13.0326C10.0503 13.8112 8.53106 13.7131 7.08822 12.7732C6.7641 12.5621 6.47866 12.2812 6.20236 12.0049C5.57431 11.3769 4.95027 10.7449 4.32622 10.1128L4.32222 10.1088C3.82107 9.60114 3.31993 9.09349 2.81669 8.58796C2.49714 8.26707 2.33117 7.90049 2.41311 7.44286C2.48666 7.03158 2.73037 6.74938 3.11109 6.55848L2.98647 6.43047C2.8931 6.33417 2.80145 6.23975 2.70751 6.14788C2.53182 5.976 2.39139 5.78378 2.33175 5.53854C2.17397 4.89041 2.52591 4.26728 3.15739 4.0782C3.17473 4.073 3.19188 4.06719 3.21094 4.06074L3.24428 4.04959C3.18426 3.55827 3.3327 3.14984 3.73056 2.85813C4.13167 2.56422 4.55983 2.56394 4.98304 2.76975C5.01772 2.72401 5.05088 2.67683 5.08384 2.62973L5.0867 2.62529C5.16006 2.51999 5.23304 2.41533 5.3226 2.32835C5.76963 1.89476 6.46913 1.88749 6.9112 2.325C7.45598 2.86411 7.99352 3.41083 8.53087 3.95752C8.75629 4.18678 8.98171 4.41604 9.2077 4.64473C9.46075 4.90079 9.71379 5.15674 9.96722 5.41244C9.98895 5.4345 10.0131 5.45423 10.0608 5.46381L10.0305 5.33043C10.0078 5.23057 9.98514 5.13056 9.9617 5.03091C9.93102 4.9008 9.89901 4.77099 9.86681 4.64119C9.79916 4.36788 9.73152 4.09456 9.67797 3.81846C9.54649 3.14186 9.99066 2.47227 10.6496 2.32609C11.3336 2.17433 12.0131 2.58368 12.1704 3.26554C12.391 4.22203 12.6707 5.15753 13.0749 6.05147C13.1629 6.24622 13.2563 6.43847 13.3498 6.63071C13.4341 6.804 13.5183 6.9773 13.5985 7.15243C13.8112 7.61589 13.9327 8.10555 13.9907 8.61807C14 8.88649 14 9.15084 14 9.42679ZM8.25 6.01981C8.35995 6.1311 8.4011 6.26101 8.35461 6.41461C8.31193 6.55549 8.21151 6.63327 8.0747 6.65905C7.93483 6.68539 7.82431 6.62413 7.72637 6.52451C6.73876 5.52145 5.75 4.51944 4.76086 3.51796C4.55564 3.31005 4.28392 3.30494 4.0886 3.50105C3.89787 3.69252 3.90663 3.97608 4.1109 4.1826L7.08003 7.18394C7.25095 7.35677 7.26658 7.58049 7.11814 7.73163C6.96894 7.88367 6.74524 7.87433 6.57622 7.70552C6.34756 7.47703 6.12081 7.24643 5.89348 7.01666L5.09261 6.20762C4.66578 5.77634 4.23914 5.34512 3.81193 4.91437C3.62252 4.72357 3.36357 4.70989 3.17626 4.876C2.95332 5.07378 2.95655 5.36942 3.18598 5.60124L4.43902 6.86703C5.04306 7.477 5.6471 8.08697 6.25057 8.69736C6.41959 8.86814 6.42854 9.08296 6.27896 9.23514C6.13014 9.38657 5.91425 9.38138 5.74752 9.21758C5.63719 9.10924 5.52858 8.99902 5.41997 8.88877L5.27172 8.73827L4.86719 8.32995C4.54687 8.00682 4.22656 7.68366 3.90739 7.35956C3.76029 7.21027 3.58937 7.15959 3.39577 7.23693C3.08327 7.36177 3.01467 7.74914 3.26029 7.99979C3.53487 8.28002 3.81117 8.55846 4.08765 8.83691C4.23799 8.98837 4.38834 9.13983 4.5383 9.29157C4.79764 9.55385 5.0564 9.81682 5.31498 10.0798C5.86566 10.6397 6.41635 11.1996 6.9737 11.7526C8.07203 12.8425 9.78658 13.1181 11.1578 12.4407C13.0711 11.4956 13.8312 9.19198 12.8546 7.27288C12.2407 6.06641 11.7692 4.80923 11.4829 3.48161C11.4644 3.39605 11.4224 3.30895 11.3702 3.23889C11.2121 3.02697 10.9255 2.9658 10.6909 3.08203C10.4396 3.20663 10.3277 3.47225 10.399 3.76951C10.6237 4.70542 10.8481 5.64135 11.0699 6.57795C11.0856 6.64375 11.0941 6.71882 11.0791 6.78318C11.0196 7.03856 10.7045 7.20322 10.4402 6.92996C10.1654 6.64593 9.88758 6.36503 9.60976 6.08413L9.60747 6.08206L9.29554 5.76634C8.35613 4.81384 7.41673 3.86138 6.47713 2.90918C6.26029 2.68938 5.99295 2.67528 5.79745 2.8719C5.60118 3.06909 5.61147 3.34315 5.82527 3.5605C6.21989 3.96173 6.6149 4.36251 7.01524 4.76857L8.25 6.01981Z" fill="black"/>
<path d="M2 11.4778C2.01162 11.4612 2.02268 11.4445 2.03354 11.4281L2.03411 11.4275C2.07317 11.3685 2.11033 11.3124 2.16101 11.2745C2.34699 11.1357 2.60118 11.2215 2.70293 11.4545C2.8628 11.8196 3.07603 12.1477 3.34813 12.4362C3.71341 12.8238 4.14463 13.1092 4.6412 13.2937C4.78963 13.3489 4.87062 13.4632 4.87995 13.6206C4.8891 13.7748 4.81688 13.8919 4.68274 13.9623C4.57088 14.0212 4.4556 14.0042 4.34108 13.9587C3.29344 13.5428 2.53296 12.8176 2.05907 11.7829C2.04535 11.7531 2.03087 11.7238 2.00838 11.6917C2 11.6225 2 11.5557 2 11.4778Z" fill="black"/>
<path d="M5.53201 12.4456C5.52553 12.2653 5.41768 12.1464 5.1875 12.0711C4.8529 11.9378 4.56764 11.7464 4.32279 11.4922C4.11319 11.2747 3.95484 11.0236 3.83022 10.7479C3.74828 10.5665 3.56688 10.4903 3.38434 10.5499C3.21799 10.6042 3.1149 10.7781 3.14958 10.9599C3.16178 11.0231 3.19112 11.0841 3.21932 11.1428C3.60232 11.9391 4.20236 12.4912 5.02801 12.7861C5.28963 12.8795 5.54135 12.7067 5.53201 12.4456Z" fill="black"/>
</svg>
