<svg width="20" height="20" viewBox="0 0 20 20" fill="none" xmlns="http://www.w3.org/2000/svg">
<path d="M9.16669 4.1665C9.62692 4.1665 10 4.5396 10 4.99984C10 5.46007 9.62692 5.83317 9.16669 5.83317H4.16669C3.94567 5.83317 3.73377 5.92103 3.57749 6.07731C3.42121 6.23359 3.33335 6.44549 3.33335 6.6665V15.8332C3.33335 16.0542 3.42121 16.2661 3.57749 16.4224C3.73378 16.5786 3.94567 16.6665 4.16669 16.6665H13.3334C13.5544 16.6665 13.7663 16.5786 13.9225 16.4224C14.0788 16.2661 14.1667 16.0542 14.1667 15.8332V10.8332C14.1667 10.3729 14.5398 9.99984 15 9.99984C15.4603 9.99984 15.8334 10.3729 15.8334 10.8332V15.8332C15.8334 16.4962 15.5698 17.1319 15.1009 17.6007C14.6321 18.0696 13.9964 18.3332 13.3334 18.3332H4.16669C3.50365 18.3332 2.86795 18.0696 2.39911 17.6007C1.93027 17.1319 1.66669 16.4962 1.66669 15.8332V6.6665C1.66669 6.00346 1.93027 5.36777 2.39911 4.89893C2.86795 4.43008 3.50365 4.1665 4.16669 4.1665H9.16669Z" fill="#007AFF"/>
<path d="M17.5 1.6665C17.5469 1.6665 17.5928 1.67127 17.6376 1.67871C17.6449 1.67993 17.6523 1.68055 17.6595 1.68197L17.6677 1.68359C17.6759 1.68527 17.684 1.68737 17.6921 1.68929C17.7092 1.69333 17.7264 1.69717 17.7433 1.70231C17.784 1.7147 17.8228 1.73134 17.8605 1.74951C17.8722 1.75512 17.8841 1.76041 17.8955 1.7666C18.0169 1.83223 18.1201 1.92696 18.1958 2.04167C18.2164 2.07291 18.2344 2.10535 18.2503 2.13851C18.2685 2.17616 18.2843 2.21515 18.2967 2.2557C18.3019 2.2726 18.3057 2.28982 18.3098 2.30697C18.3245 2.36895 18.3334 2.43335 18.3334 2.49984V7.49984C18.3334 7.96007 17.9603 8.33317 17.5 8.33317C17.0398 8.33317 16.6667 7.96007 16.6667 7.49984V4.51156L8.92255 12.2557C8.59711 12.5811 8.0696 12.5811 7.74416 12.2557C7.41872 11.9303 7.41872 11.4027 7.74416 11.0773L15.4883 3.33317H12.5C12.0398 3.33317 11.6667 2.96007 11.6667 2.49984C11.6667 2.0396 12.0398 1.6665 12.5 1.6665H17.5Z" fill="#007AFF"/>
</svg>
