<svg width="16" height="16" viewBox="0 0 16 16" fill="none" xmlns="http://www.w3.org/2000/svg">
<path fill-rule="evenodd" clip-rule="evenodd" d="M12.6666 1.33334C13.7712 1.33334 14.6666 2.22877 14.6666 3.33334V12.6667C14.6666 13.7712 13.7712 14.6667 12.6666 14.6667H3.33331C2.22874 14.6667 1.33331 13.7712 1.33331 12.6667V3.33334C1.33331 2.22877 2.22874 1.33334 3.33331 1.33334H12.6666ZM2.66665 12.6667C2.66665 13.0349 2.96512 13.3333 3.33331 13.3333H12.6666C13.0348 13.3333 13.3333 13.0349 13.3333 12.6667V8.00001H12.0664C11.7366 8.0001 11.3665 8.1765 11.138 8.40496C11.1224 8.42057 11.1056 8.43524 11.0885 8.44923L10.3802 9.02931C9.06038 10.3235 7.00664 10.3235 5.68683 9.02931L4.97784 8.44923C4.9451 8.42244 4.91508 8.39253 4.888 8.36004C4.70863 8.14479 4.38248 8.00001 3.99998 8.00001H2.66665V12.6667ZM3.33331 5.33334C3.1565 5.33334 2.98698 5.40363 2.86196 5.52866C2.73693 5.65368 2.66665 5.8232 2.66665 6.00001V6.66668H3.99998C4.66318 6.66668 5.37938 6.90648 5.86652 7.45379L6.55532 8.01759C6.57246 8.03161 6.58914 8.0462 6.6048 8.06186C7.41111 8.86818 8.6559 8.86818 9.46222 8.06186C9.47777 8.04632 9.49403 8.03152 9.51105 8.01759L10.2207 7.43686C10.66 7.01036 11.3438 6.66676 12.0664 6.66668H13.3333V6.00001C13.3333 5.8232 13.263 5.65368 13.138 5.52866C13.013 5.40363 12.8435 5.33334 12.6666 5.33334H3.33331ZM3.33331 2.66668C2.96512 2.66668 2.66665 2.96515 2.66665 3.33334V4.11655C2.87898 4.04138 3.10377 4.00001 3.33331 4.00001H12.6666C12.8962 4.00001 13.121 4.04138 13.3333 4.11655V3.33334C13.3333 2.96515 13.0348 2.66668 12.6666 2.66668H3.33331Z" fill="black"/>
</svg>
