<svg width="16" height="16" viewBox="0 0 16 16" fill="none" xmlns="http://www.w3.org/2000/svg">
<path fill-rule="evenodd" clip-rule="evenodd" d="M7.33331 1.3335C10.647 1.3335 13.3333 4.01979 13.3333 7.3335C13.3333 8.75014 12.8412 10.0512 12.0202 11.0776L14.4713 13.5288C14.7317 13.7892 14.7317 14.2112 14.4713 14.4715C14.211 14.7319 13.789 14.7318 13.5286 14.4715L11.0775 12.0203C10.051 12.8414 8.74996 13.3335 7.33331 13.3335C4.0196 13.3335 1.33331 10.6472 1.33331 7.3335C1.33331 4.01979 4.0196 1.3335 7.33331 1.3335ZM7.33331 2.66683C4.75598 2.66683 2.66665 4.75617 2.66665 7.3335C2.66665 9.91083 4.75598 12.0002 7.33331 12.0002C9.91064 12.0002 12 9.91083 12 7.3335C12 4.75617 9.91064 2.66683 7.33331 2.66683Z" fill="#DCDCDD"/>
</svg>
