<svg width="24" height="24" viewBox="0 0 24 24" fill="none" xmlns="http://www.w3.org/2000/svg">
<path d="M12 8.00001C14.2662 8.00001 16.3516 8.2283 17.8994 8.61525C18.6655 8.80676 19.3564 9.05101 19.8799 9.36036C20.3365 9.63024 21 10.1521 21 11C21 11.848 20.3365 12.3698 19.8799 12.6397C19.6232 12.7913 19.3262 12.927 19 13.0488V19.3223C19 20.1091 18.5281 20.8852 17.7051 21.166C16.1589 21.6936 14.1575 22 12 22C9.84249 22 7.84111 21.6936 6.29492 21.166C5.47192 20.8852 5 20.1091 5 19.3223V13.0488C4.67376 12.927 4.37676 12.7913 4.12012 12.6397C3.66352 12.3698 3 11.848 3 11C3.00001 10.1521 3.66353 9.63024 4.12012 9.36036C4.64361 9.05101 5.33453 8.80676 6.10059 8.61525C7.6484 8.2283 9.73377 8.00001 12 8.00001ZM17 13.5772C15.5839 13.8443 13.8527 14 12 14C10.1473 14 8.41605 13.8443 7 13.5772V19.291C8.29059 19.7219 10.0422 20 12 20C13.9578 20 15.7094 19.7219 17 19.291V13.5772ZM12 10C9.84816 10 7.93353 10.2188 6.58594 10.5557C6.01717 10.6979 5.58949 10.8547 5.29688 11C5.58949 11.1453 6.01716 11.3022 6.58594 11.4444C7.93353 11.7812 9.84816 12 12 12C14.1518 12 16.0665 11.7812 17.4141 11.4444C17.9823 11.3023 18.4095 11.1452 18.7021 11C18.4095 10.8548 17.9823 10.6977 17.4141 10.5557C16.0665 10.2188 14.1518 10 12 10ZM8.64258 3.21583C8.78999 2.92104 9.21001 2.92104 9.35742 3.21583L9.77344 4.04786C9.81211 4.12507 9.87494 4.1879 9.95215 4.22657L10.3066 4.40333L10.7842 4.64259C11.079 4.78999 11.079 5.21002 10.7842 5.35743L10.3066 5.59571L9.95215 5.77345C9.87494 5.81212 9.81211 5.87495 9.77344 5.95216L9.5957 6.30665L9.35742 6.78419C9.21917 7.06069 8.84098 7.07808 8.67285 6.83595L8.64258 6.78419L8.40332 6.30665L8.22656 5.95216C8.18789 5.87495 8.12506 5.81212 8.04785 5.77345L7.21582 5.35743C6.92101 5.21002 6.921 4.78999 7.21582 4.64259L8.04785 4.22657C8.12506 4.1879 8.18789 4.12507 8.22656 4.04786L8.64258 3.21583ZM13.5527 1.89454C13.737 1.52604 14.263 1.52604 14.4473 1.89454L14.9258 2.85059C14.9742 2.94735 15.0527 3.02584 15.1494 3.07423L16.1055 3.55274C16.474 3.737 16.474 4.26301 16.1055 4.44727L15.5088 4.74513L15.1494 4.92579C15.0527 4.97417 14.9742 5.05267 14.9258 5.14942L14.4473 6.10548L14.4092 6.16993C14.1991 6.47271 13.7256 6.45114 13.5527 6.10548L13.0742 5.14942C13.0379 5.0768 12.9852 5.01383 12.9199 4.96681L12.8506 4.92579L11.8945 4.44727C11.526 4.26301 11.526 3.737 11.8945 3.55274L12.8506 3.07423C12.9473 3.02584 13.0258 2.94735 13.0742 2.85059L13.5527 1.89454Z" fill="black"/>
</svg>
