<svg width="20" height="20" viewBox="0 0 20 20" fill="none" xmlns="http://www.w3.org/2000/svg">
<rect width="20" height="20" fill="black"/>
<path fill-rule="evenodd" clip-rule="evenodd" d="M5.52327 2.69603C6.98738 2.22863 8.81984 2.59615 10.0008 3.99567C11.1466 2.63224 12.8733 2.26231 14.3058 2.64801L14.4678 2.69521L14.4718 2.69684C17.6693 3.72689 18.7228 7.17273 17.8027 10.0471C17.0927 12.3007 15.4627 14.1478 13.9103 15.419C13.1292 16.0586 12.3512 16.5658 11.6894 16.9164C11.3589 17.0915 11.0499 17.232 10.778 17.3298C10.5206 17.4224 10.2455 17.4958 10.0008 17.4958C9.75754 17.4958 9.48379 17.4238 9.22688 17.3323C8.95606 17.2358 8.64841 17.0978 8.31949 16.9245C7.66074 16.5776 6.88635 16.0746 6.10758 15.4377C4.55842 14.1708 2.9304 12.3236 2.19807 10.0479V10.0463C1.27957 7.17379 2.32289 3.72731 5.52164 2.69684L5.52327 2.69603Z" fill="#FF2D55"/>
</svg>
