<svg width="16" height="16" viewBox="0 0 16 16" fill="none" xmlns="http://www.w3.org/2000/svg">
<path d="M8.3125 15.1648C7.13826 15.1648 6.09659 15.0038 5.1875 14.6818C4.2822 14.3636 3.51894 13.8939 2.89773 13.2727C2.27652 12.6553 1.80492 11.8977 1.48295 11C1.16098 10.1023 1 9.07764 1 7.92612C1 6.80491 1.16288 5.79734 1.48864 4.9034C1.81439 4.00946 2.28788 3.24809 2.90909 2.6193C3.53409 1.98673 4.29356 1.50377 5.1875 1.17044C6.08144 0.837107 7.09659 0.670441 8.23295 0.670441C9.32008 0.670441 10.2784 0.840895 11.108 1.1818C11.9375 1.52271 12.6345 1.99052 13.1989 2.58521C13.767 3.17991 14.1951 3.86173 14.483 4.63067C14.7708 5.39961 14.9148 6.21211 14.9148 7.06817C14.9148 7.66665 14.8769 8.25188 14.8011 8.82385C14.7254 9.39203 14.5852 9.90718 14.3807 10.3693C14.1799 10.8276 13.8883 11.1951 13.5057 11.4716C13.1269 11.7443 12.6345 11.8864 12.0284 11.8977C11.7064 11.9091 11.3939 11.8712 11.0909 11.7841C10.7879 11.697 10.5303 11.5568 10.3182 11.3636C10.1061 11.1667 9.97727 10.9167 9.93182 10.6136H9.86364C9.77273 10.8371 9.62121 11.0454 9.40909 11.2386C9.19697 11.428 8.92614 11.5795 8.59659 11.6932C8.27083 11.803 7.89205 11.8485 7.46023 11.8295C6.98295 11.8106 6.55303 11.7026 6.17045 11.5057C5.78788 11.3087 5.46023 11.036 5.1875 10.6875C4.91856 10.339 4.71212 9.92612 4.56818 9.44885C4.42424 8.97158 4.35227 8.44128 4.35227 7.85794C4.35227 7.29734 4.43371 6.79544 4.59659 6.35226C4.75947 5.90529 4.98106 5.52082 5.26136 5.19885C5.54545 4.87309 5.87121 4.61552 6.23864 4.42612C6.60606 4.23673 6.99432 4.11741 7.40341 4.06817C7.80114 4.02271 8.16667 4.03408 8.5 4.10226C8.83333 4.17044 9.10985 4.27461 9.32955 4.41476C9.55303 4.55491 9.69318 4.70832 9.75 4.87499H9.82386C9.82386 4.52353 10.1088 4.23862 10.4602 4.23862H10.5227C10.9087 4.23862 11.2216 4.55152 11.2216 4.93749V9.51135C11.2216 9.81059 11.2992 10.0644 11.4545 10.2727C11.6136 10.481 11.839 10.5852 12.1307 10.5852C12.4754 10.5852 12.7443 10.4583 12.9375 10.2045C13.1345 9.95074 13.2727 9.56059 13.3523 9.03408C13.4356 8.50756 13.4773 7.83332 13.4773 7.01135C13.4773 6.43559 13.3996 5.89393 13.2443 5.38635C13.0928 4.87499 12.8674 4.41287 12.5682 3.99999C12.2727 3.58332 11.9091 3.22537 11.4773 2.92612C11.0455 2.62688 10.553 2.39582 10 2.23294C9.45076 2.07006 8.8428 1.98862 8.17614 1.98862C7.27083 1.98862 6.46591 2.12877 5.76136 2.40908C5.05682 2.68559 4.46212 3.08521 3.97727 3.60794C3.49621 4.13067 3.13068 4.75756 2.88068 5.48862C2.63447 6.2159 2.51136 7.03218 2.51136 7.93749C2.51136 8.88067 2.63826 9.71779 2.89205 10.4489C3.14583 11.1761 3.52083 11.7898 4.01705 12.2898C4.51326 12.7898 5.12689 13.1685 5.85795 13.4261C6.58902 13.6875 7.43182 13.8182 8.38636 13.8182C8.81061 13.8182 9.22727 13.7803 9.63636 13.7045C10.0455 13.6326 10.4091 13.5492 10.7273 13.4545C10.7432 13.45 10.7589 13.4456 10.7744 13.4412C11.1457 13.3356 11.5463 13.5377 11.6638 13.9054C11.7683 14.2324 11.6129 14.5861 11.2858 14.6905C11.1695 14.7276 11.044 14.7645 10.9091 14.8011C10.5227 14.9072 10.1023 14.9943 9.64773 15.0625C9.19697 15.1307 8.75189 15.1648 8.3125 15.1648ZM7.78977 10.4375C8.2822 10.4375 8.67803 10.339 8.97727 10.142C9.2803 9.94506 9.49811 9.6515 9.63068 9.26135C9.76705 8.86741 9.83523 8.37499 9.83523 7.78408C9.83144 7.20832 9.75758 6.74999 9.61364 6.40908C9.47349 6.06438 9.25379 5.81817 8.95455 5.67044C8.65909 5.51893 8.27841 5.44317 7.8125 5.44317C7.38447 5.44317 7.01894 5.54734 6.71591 5.75567C6.41667 5.964 6.1875 6.2462 6.02841 6.60226C5.87311 6.95832 5.79356 7.35415 5.78977 7.78976C5.79356 8.24809 5.85795 8.67991 5.98295 9.08521C6.11174 9.48673 6.32008 9.81249 6.60795 10.0625C6.89962 10.3125 7.29356 10.4375 7.78977 10.4375Z" fill="black"/>
</svg>
