<svg width="20" height="20" viewBox="0 0 20 20" fill="none" xmlns="http://www.w3.org/2000/svg">
<path fill-rule="evenodd" clip-rule="evenodd" d="M13.5264 5.80273C13.7189 5.7065 13.9513 5.74433 14.1035 5.89648C14.2557 6.04866 14.2935 6.28114 14.1973 6.47363L11.6973 11.4736C11.6489 11.5704 11.5704 11.6489 11.4736 11.6973L6.47363 14.1973C6.28114 14.2935 6.04866 14.2557 5.89648 14.1035C5.74432 13.9513 5.70649 13.7189 5.80273 13.5264L8.30273 8.52637C8.35112 8.42962 8.42961 8.35111 8.52637 8.30273L13.5264 5.80273ZM9.12256 9.12256L7.36816 12.6318L10.877 10.877L12.6318 7.36816L9.12256 9.12256Z" fill="#8E8E93"/>
<path fill-rule="evenodd" clip-rule="evenodd" d="M10 1.5C14.6944 1.5 18.5 5.30558 18.5 10C18.5 14.6944 14.6944 18.5 10 18.5C5.30558 18.5 1.5 14.6944 1.5 10C1.5 5.30558 5.30558 1.5 10 1.5ZM10 2.5C5.85786 2.5 2.5 5.85786 2.5 10C2.5 14.1421 5.85786 17.5 10 17.5C14.1421 17.5 17.5 14.1421 17.5 10C17.5 5.85786 14.1421 2.5 10 2.5Z" fill="#8E8E93"/>
</svg>
