<svg width="20" height="20" viewBox="0 0 20 20" fill="none" xmlns="http://www.w3.org/2000/svg">
<g clip-path="url(#clip0_16021_937)">
<path fill-rule="evenodd" clip-rule="evenodd" d="M15.2908 2.46969C16.4097 2.1254 17.4581 3.17375 17.1138 4.2927L13.1881 17.0503C12.8011 18.3076 11.0789 18.4501 10.4904 17.2736L7.76396 11.8195L2.31047 9.09363C1.13376 8.50528 1.27581 6.78237 2.53316 6.39537L15.2908 2.46969ZM15.9186 3.92499C15.9678 3.76514 15.8183 3.6157 15.6585 3.66489L2.90087 7.59057C2.7214 7.64595 2.70117 7.89151 2.86922 7.97554L8.10577 10.5938L10.9122 7.78737C11.1563 7.54333 11.552 7.54333 11.7961 7.78737C12.0402 8.03144 12.0402 8.42718 11.7961 8.67126L8.98966 11.4777L11.6079 16.7143C11.6919 16.8822 11.9379 16.8623 11.9935 16.6832L15.9186 3.92499Z" fill="#8A8A8E"/>
</g>
<defs>
<clipPath id="clip0_16021_937">
<rect width="20" height="20" fill="white"/>
</clipPath>
</defs>
</svg>
