<svg width="20" height="20" viewBox="0 0 20 20" fill="none" xmlns="http://www.w3.org/2000/svg">
<g clip-path="url(#clip0_16021_4559)">
<path fill-rule="evenodd" clip-rule="evenodd" d="M10.0002 0.833313C10.1772 0.833313 10.353 0.839688 10.5275 0.849589C10.5359 0.850067 10.5451 0.850716 10.5535 0.851217C10.8455 0.868604 11.1338 0.898278 11.4178 0.942362C11.4928 0.953946 11.5672 0.968842 11.6416 0.982239C11.7123 0.995017 11.7831 1.0061 11.8532 1.02049C11.9859 1.04764 12.1173 1.07873 12.2479 1.11163C16.2237 2.11393 19.1668 5.71293 19.1668 9.99998C19.1668 15.0626 15.0628 19.1666 10.0002 19.1666C4.93755 19.1666 0.833496 15.0626 0.833496 9.99998C0.833496 8.12584 1.39653 6.38346 2.36182 4.93162C2.3654 4.92623 2.3688 4.92072 2.3724 4.91534C2.42761 4.83268 2.48549 4.75195 2.54329 4.6712C2.57331 4.62926 2.60212 4.58647 2.63281 4.54506C4.303 2.29304 6.98103 0.833313 10.0002 0.833313ZM12.6051 13.6946L12.6043 13.6955L10.4225 17.487C12.5028 17.3715 14.3549 16.4078 15.6431 14.9365L13.7648 11.6699L12.6051 13.6946ZM3.72982 14.1137C4.82068 15.7731 6.55145 16.9728 8.57194 17.3624L10.4412 14.1137H3.72982ZM13.3205 7.54718L14.4858 9.58169L16.6831 13.4017C17.204 12.3804 17.5002 11.2251 17.5002 9.99998C17.5002 9.14083 17.3543 8.31589 17.0884 7.54718H13.3205ZM3.31803 6.59422C2.796 7.6164 2.50016 8.77345 2.50016 9.99998C2.50016 10.857 2.64559 11.68 2.91032 12.4471H6.68066L5.51449 10.4126L3.31803 6.59422ZM7.19661 9.99673L8.60124 12.4471H11.3991L12.8029 9.99673L11.3991 7.54718H8.60124L7.19661 9.99673ZM9.57129 2.513C7.49473 2.63008 5.64479 3.59173 4.35807 5.0602L6.2347 8.32273L7.39518 6.29881L7.396 6.29799L9.57129 2.513ZM9.55827 5.88051H16.2664C15.1745 4.22281 13.4438 3.02405 11.4235 2.63588L9.55827 5.88051Z" fill="black"/>
</g>
<defs>
<clipPath id="clip0_16021_4559">
<rect width="20" height="20" fill="white"/>
</clipPath>
</defs>
</svg>
