<svg width="58" height="58" viewBox="0 0 58 58" fill="none" xmlns="http://www.w3.org/2000/svg">
<g filter="url(#filter0_d_15202_8195)">
<g clip-path="url(#clip0_15202_8195)">
<path d="M-0.000488281 0H57.9995V58H-0.000488281V0Z" fill="black"/>
<path d="M43.4531 20.2361C39.3094 20.2361 35.9501 16.8891 35.9501 12.7606H29.6976V35.8103C29.6976 38.2188 27.7379 40.1711 25.3209 40.1711C22.9038 40.1711 20.9441 38.2188 20.9441 35.8103C20.9441 33.4018 22.9035 31.4496 25.3209 31.4496H27.1965V25.22H25.3209C19.4505 25.22 14.6916 29.9615 14.6916 35.8103C14.6916 41.6592 19.4505 46.4006 25.3209 46.4006C31.1912 46.4006 35.9498 41.6592 35.9498 35.8103V24.2494C38.1812 25.6995 40.7887 26.4697 43.4528 26.4657H44.0783V20.2361H43.4531Z" fill="#FA1E5C"/>
<path d="M42.2917 19.0776C38.1477 19.0776 34.7888 15.7306 34.7888 11.6021H28.5362V34.6518C28.5362 37.0599 26.5768 39.0125 24.1595 39.0125C21.7422 39.0125 19.7828 37.0599 19.7828 34.6518C19.7828 32.2436 21.7425 30.291 24.1595 30.291H26.0354V24.0615H24.1595C18.2896 24.0615 13.5305 28.8029 13.5305 34.6518C13.5305 40.5006 18.2892 45.2421 24.1595 45.2421C30.0297 45.2421 34.7892 40.5006 34.7892 34.6518V23.0905C37.0206 24.5405 39.628 25.3107 42.292 25.3068H42.9171V19.0776H42.2917Z" fill="#5FFDFF"/>
<path d="M42.9183 20.2303C40.7766 20.0543 38.8894 18.9854 37.6324 17.3987C36.1645 16.2482 35.1791 14.5948 34.8681 12.7606H29.7458V35.8712C29.7458 38.2861 27.7797 40.2435 25.3549 40.2435C24.6275 40.2439 23.9113 40.0642 23.2709 39.7206C22.6305 39.3769 22.0859 38.88 21.6863 38.2747C21.0785 37.8768 20.5797 37.3345 20.2346 36.6969C19.8896 36.0593 19.7091 35.3462 19.7095 34.6219C19.7095 32.2073 21.6756 30.2496 24.1004 30.2496H25.9824V25.2531H25.3549C19.4657 25.2531 14.6916 30.0068 14.6916 35.8712C14.6878 38.3826 15.5816 40.8135 17.2131 42.7287C19.1366 44.3539 21.5781 45.2444 24.1007 45.2406C29.9896 45.2406 34.7641 40.4866 34.7641 34.6219V23.0306C37.0027 24.4845 39.6185 25.2568 42.2911 25.2528H42.9183V20.2303Z" fill="white"/>
</g>
</g>
<defs>
<filter id="filter0_d_15202_8195" x="0" y="0" width="66" height="66" filterUnits="userSpaceOnUse" color-interpolation-filters="sRGB">
<feFlood flood-opacity="0" result="BackgroundImageFix"/>
<feColorMatrix in="SourceAlpha" type="matrix" values="0 0 0 0 0 0 0 0 0 0 0 0 0 0 0 0 0 0 127 0" result="hardAlpha"/>
<feOffset dx="4" dy="4"/>
<feGaussianBlur stdDeviation="2"/>
<feComposite in2="hardAlpha" operator="out"/>
<feColorMatrix type="matrix" values="0 0 0 0 0 0 0 0 0 0 0 0 0 0 0 0 0 0 0.02 0"/>
<feBlend mode="normal" in2="BackgroundImageFix" result="effect1_dropShadow_15202_8195"/>
<feBlend mode="normal" in="SourceGraphic" in2="effect1_dropShadow_15202_8195" result="shape"/>
</filter>
<clipPath id="clip0_15202_8195">
<path d="M0 16C0 7.16345 7.16344 0 16 0H42C50.8366 0 58 7.16344 58 16V42C58 50.8366 50.8366 58 42 58H16C7.16345 58 0 50.8366 0 42V16Z" fill="white"/>
</clipPath>
</defs>
</svg>
