<svg width="112" height="112" viewBox="0 0 112 112" fill="none" xmlns="http://www.w3.org/2000/svg">
<path d="M100.102 89.7313C100.102 95.4591 95.4581 100.102 89.7312 100.102C84.0043 100.102 79.3607 95.4582 79.3607 89.7313C79.3607 84.0045 84.0043 79.3608 89.7312 79.3608C95.4581 79.3608 100.102 84.0045 100.102 89.7313Z" fill="#09C061"/>
<path d="M96.0443 84.3808C96.7635 85.1552 97.2422 86.5683 97.0129 87.6069C96.9324 87.9709 96.4888 88.9737 96.2202 89.2204C95.8369 89.5722 94.7598 90.3037 94.2549 90.4489C93.3799 90.7 92.2144 90.4857 92.7359 89.3665C93.1839 88.4032 94.7353 88.5362 95.0057 87.0845C95.1439 86.3425 94.3162 85.4045 93.6275 85.1788C92.5364 84.8209 90.8022 85.3975 90.6482 86.6672C90.3839 88.8442 91.1924 92.3328 90.1398 94.2088C89.158 95.9579 86.9784 96.559 85.1173 95.964C83.1967 95.3498 81.9375 93.2305 82.6507 91.2697C82.809 90.8339 83.5327 89.6772 83.8905 89.4278C84.5144 88.992 85.9625 88.3445 86.6214 88.9483C87.2637 89.5372 86.7885 90.2118 86.2338 90.651C85.9214 90.8987 84.9362 91.2347 84.748 91.6127C84.6772 91.7553 84.7314 91.8988 84.6964 91.9854C84.636 92.1324 84.468 92.0178 84.5205 92.5367C84.615 93.4598 85.1077 93.7127 85.8575 93.983C85.938 94.0119 85.8995 94.137 86.0518 94.1563C87.0318 94.2814 88.4082 93.815 88.5552 92.7099C88.8903 90.1899 87.7335 86.3618 89.6305 84.379C91.307 82.6273 94.3818 82.5905 96.0452 84.3799L96.0443 84.3808Z" fill="white"/>
<path d="M51.9531 101.434C52.6496 101.392 53.1685 102.11 53.1195 102.769L52.4606 108.943C51.9348 110.312 50.2854 109.902 50.3047 108.457L50.9635 102.283C51.0851 101.881 51.52 101.461 51.9531 101.435V101.434Z" fill="black"/>
<path d="M42.8531 104.058C43.6275 104.016 44.0606 104.654 44.0072 105.38C43.9853 105.685 43.54 107.31 43.4044 107.585C42.9214 108.557 41.4471 108.382 41.321 107.206C41.2808 106.831 41.7069 105.126 41.8775 104.745C42.0481 104.365 42.4279 104.081 42.8531 104.058Z" fill="black"/>
<path d="M60.3313 103.531C60.9252 103.531 61.4067 104.012 61.4067 104.606C61.4066 105.2 60.9252 105.682 60.3313 105.682C59.7374 105.682 59.2559 105.2 59.2559 104.606C59.2559 104.012 59.7374 103.531 60.3313 103.531Z" fill="black"/>
<path d="M68.0531 100.033C68.5029 100.009 68.9307 100.265 69.1294 100.664C69.314 101.035 69.7576 102.8 69.7174 103.181C69.5913 104.357 68.117 104.531 67.634 103.56C67.4494 103.189 67.0058 101.424 67.046 101.043C67.1064 100.476 67.4686 100.065 68.054 100.033H68.0531Z" fill="black"/>
<path d="M47.1406 88.0467C47.8467 88.0038 48.4155 88.772 48.2799 89.444L45.0442 101.35C44.4369 102.761 42.7507 102.195 42.8951 100.781L46.1082 88.9392C46.2604 88.5271 46.6804 88.0747 47.1406 88.0467Z" fill="black"/>
<path d="M36.2906 97.2343C36.9259 97.1966 37.4272 97.6726 37.4325 98.3052C37.4369 98.7716 36.6144 100.664 36.2723 100.978C35.5723 101.621 34.4129 101.243 34.405 100.232C34.4015 99.847 35.1181 98.1119 35.3622 97.7934C35.5399 97.5624 35.9975 97.2518 36.2906 97.2343Z" fill="black"/>
<path d="M29.2031 93.2093C30.1464 93.1498 30.527 94.1324 30.1481 94.9417C29.8104 95.6619 27.2178 99.3273 26.6473 99.9284C26.082 100.524 25.2271 100.65 24.7607 99.8837C24.5149 99.4795 24.6146 99.0971 24.8028 98.6954C25.5395 97.124 27.4251 95.3617 28.2634 93.7561C28.5294 93.519 28.8304 93.2329 29.204 93.2093H29.2031Z" fill="black"/>
<path d="M52.4781 95.2218C53.2648 95.1745 53.6577 95.9392 53.6437 96.6445C53.6358 97.0514 53.5062 98.496 53.3549 98.811C52.7887 99.9922 51.24 99.4882 51.2689 98.0418C51.2776 97.614 51.3923 96.2937 51.5305 95.9358C51.6583 95.6059 52.1229 95.2418 52.4781 95.2208V95.2218Z" fill="black"/>
<path d="M75.7313 97.2308C76.3252 97.2308 76.8066 97.7122 76.8066 98.3061C76.8066 98.9 76.3252 99.3815 75.7313 99.3815C75.1374 99.3815 74.6559 98.9 74.6559 98.3061C74.6559 97.7122 75.1374 97.2308 75.7313 97.2308Z" fill="black"/>
<path d="M59.3031 93.2093C59.7074 93.1848 60.1842 93.5067 60.3549 93.8629C60.5745 94.3214 60.732 96.3776 60.4642 96.8204C60.0031 97.5851 58.9365 97.5037 58.5567 96.711C58.4141 96.4134 58.2759 95.0153 58.268 94.632C58.2549 93.9784 58.5857 93.253 59.3023 93.2093H59.3031Z" fill="black"/>
<path d="M38.1063 93.4683C38.7002 93.4683 39.1817 93.9497 39.1817 94.5436C39.1816 95.1375 38.7002 95.619 38.1063 95.619C37.5124 95.619 37.0309 95.1375 37.0309 94.5436C37.0309 93.9497 37.5124 93.4683 38.1063 93.4683Z" fill="black"/>
<path d="M72.1656 89.7092C72.6434 89.6803 73.0582 90.0723 73.3102 90.4451C73.6497 90.9473 74.7749 93.3877 74.9403 93.9766C75.1153 94.597 75.0583 95.2225 74.3942 95.5253C73.7984 95.7974 73.2734 95.409 72.9356 94.9312C72.5979 94.4535 71.4315 91.9194 71.2705 91.3472C71.0684 90.6288 71.2924 89.7617 72.1647 89.7092H72.1656Z" fill="black"/>
<path d="M65.9313 92.0683C66.5252 92.0683 67.0066 92.5497 67.0066 93.1436C67.0066 93.7375 66.5252 94.219 65.9313 94.219C65.3374 94.219 64.8559 93.7375 64.8559 93.1436C64.8559 92.5497 65.3374 92.0683 65.9313 92.0683Z" fill="black"/>
<path d="M23.0563 88.0747C23.5844 88.0747 24.0126 88.5029 24.0126 89.0311C24.0126 89.5592 23.5845 89.9875 23.0563 89.9875C22.5281 89.9875 22.0998 89.5592 22.0998 89.0311C22.0998 88.5029 22.5281 88.0747 23.0563 88.0747Z" fill="black"/>
<path fill-rule="evenodd" clip-rule="evenodd" d="M23.0563 83.852C25.9166 83.852 28.2353 86.1707 28.2353 89.0311C28.2353 91.8914 25.9166 94.2102 23.0563 94.2102C20.1959 94.2102 17.8771 91.8914 17.8771 89.0311C17.8771 86.1707 20.1959 83.852 23.0563 83.852ZM23.0563 85.5311C21.1234 85.5311 19.5563 87.0982 19.5563 89.0311C19.5563 90.9639 21.1234 92.5311 23.0563 92.5311C24.9891 92.531 26.5563 90.9639 26.5563 89.0311C26.5563 87.0982 24.9891 85.5311 23.0563 85.5311Z" fill="black"/>
<path d="M52.8938 91.1057C53.4877 91.1057 53.9691 91.5872 53.9692 92.1811C53.9692 92.775 53.4877 93.2564 52.8938 93.2564C52.2999 93.2564 51.8184 92.775 51.8184 92.1811C51.8184 91.5872 52.2999 91.1057 52.8938 91.1057Z" fill="black"/>
<path d="M59.0188 89.0932C59.6127 89.0932 60.0941 89.5747 60.0942 90.1686C60.0942 90.7625 59.6127 91.2439 59.0188 91.2439C58.4249 91.2439 57.9434 90.7625 57.9434 90.1686C57.9434 89.5746 58.4249 89.0932 59.0188 89.0932Z" fill="black"/>
<path d="M41.5406 85.9458C42.1768 85.9117 42.6773 86.3816 42.6825 87.0177C42.6869 87.4841 41.8644 89.3766 41.5223 89.6908C40.8223 90.3331 39.6628 89.9559 39.655 88.9444C39.6515 88.513 40.3777 86.8279 40.6498 86.456C40.8563 86.1742 41.1845 85.9659 41.5415 85.9467L41.5406 85.9458Z" fill="black"/>
<path d="M53.2438 86.9932C53.8377 86.9932 54.3191 87.4747 54.3191 88.0686C54.3191 88.6625 53.8377 89.1439 53.2438 89.1439C52.6499 89.1439 52.1684 88.6625 52.1684 88.0686C52.1684 87.4746 52.6499 86.9932 53.2438 86.9932Z" fill="black"/>
<path d="M33.9938 86.3807C34.5877 86.3807 35.0691 86.8622 35.0692 87.4561C35.0692 88.05 34.5877 88.5314 33.9938 88.5314C33.3999 88.5314 32.9184 88.05 32.9184 87.4561C32.9184 86.8621 33.3999 86.3807 33.9938 86.3807Z" fill="black"/>
<path d="M69.5406 84.1083C70.5119 84.0559 71.2083 85.6535 71.4428 86.4498C71.9136 88.0475 70.2503 88.6679 69.4575 87.4727C68.9141 86.6537 67.7495 84.2054 69.5406 84.1083Z" fill="black"/>
<path d="M72.0781 77.8967C72.5165 77.8704 72.8508 78.1688 73.15 78.4436L77.7166 85.077C78.4778 86.3912 76.937 87.5199 75.9028 86.3658L71.2959 79.6852C70.7892 79.0071 71.2434 77.9474 72.0781 77.8975V77.8967Z" fill="black"/>
<path d="M63.2406 82.0083C63.6904 81.9838 64.1183 82.2402 64.3169 82.6392C64.5015 83.0102 64.9451 84.775 64.9049 85.1557C64.7789 86.3317 63.3045 86.5058 62.8215 85.5346C62.6369 85.1636 62.1932 83.3987 62.2335 83.0181C62.2938 82.4511 62.6561 82.0398 63.2415 82.0083H63.2406Z" fill="black"/>
<path d="M17.0704 81.9514C18.2525 81.3984 19.3427 82.2892 18.7127 83.4188C18.4344 83.9193 16.7904 85.0839 16.2094 85.1154C15.3536 85.1627 14.84 84.3297 15.1891 83.5693C15.2049 83.5351 15.4936 83.0846 15.5138 83.0627L15.5146 83.0635C15.6756 82.8903 16.8438 82.0582 17.0704 81.9514Z" fill="black"/>
<path d="M53.5938 82.8807C54.1877 82.8807 54.6691 83.3622 54.6692 83.9561C54.6692 84.55 54.1877 85.0314 53.5938 85.0314C52.9999 85.0314 52.5184 84.55 52.5184 83.9561C52.5184 83.3621 52.9999 82.8807 53.5938 82.8807Z" fill="black"/>
<path d="M58.4938 82.8807C59.0877 82.8807 59.5691 83.3622 59.5691 83.9561C59.5691 84.55 59.0877 85.0314 58.4938 85.0314C57.8999 85.0314 57.4184 84.55 57.4184 83.9561C57.4184 83.3621 57.8999 82.8807 58.4938 82.8807Z" fill="black"/>
<path d="M48.7813 82.0057C49.3752 82.0057 49.8566 82.4872 49.8567 83.0811C49.8567 83.675 49.3752 84.1564 48.7813 84.1564C48.1874 84.1564 47.7059 83.675 47.7059 83.0811C47.7059 82.4871 48.1874 82.0057 48.7813 82.0057Z" fill="black"/>
<path d="M39.8781 77.8967C40.7802 77.8398 41.1993 78.7795 40.8529 79.5714C40.6367 80.0649 38.9306 82.5499 38.5473 82.9533C38.164 83.3567 37.6215 83.6122 37.1061 83.3365C36.4875 83.0058 36.4122 82.3714 36.6721 81.7782C36.8987 81.2593 38.5341 78.8854 38.9375 78.4436C39.1519 78.2082 39.5579 77.9168 39.8781 77.8967Z" fill="black"/>
<path d="M44.2313 80.3432C44.8252 80.3432 45.3066 80.8247 45.3067 81.4186C45.3067 82.0125 44.8252 82.4939 44.2313 82.4939C43.6374 82.4939 43.1559 82.0125 43.1559 81.4186C43.1559 80.8246 43.6374 80.3432 44.2313 80.3432Z" fill="black"/>
<path d="M67.8563 80.3432C68.4502 80.3432 68.9316 80.8247 68.9316 81.4186C68.9316 82.0125 68.4502 82.4939 67.8563 82.4939C67.2624 82.4939 66.7809 82.0125 66.7809 81.4186C66.7809 80.8246 67.2624 80.3432 67.8563 80.3432Z" fill="black"/>
<path d="M36.2031 74.7467C36.9845 74.7003 37.6399 75.6541 37.1892 76.3462L33.8205 79.715C32.9254 80.2644 31.822 79.162 32.3724 78.2668L35.6947 74.9392C35.8233 74.8316 36.0413 74.7572 36.2031 74.7475V74.7467Z" fill="black"/>
<path d="M75.7531 74.7467C75.9649 74.7336 76.2239 74.8036 76.3927 74.9383L79.7151 78.2659C80.2646 79.161 79.1612 80.2636 78.267 79.7141L74.8982 76.3453C74.4695 75.704 75.0426 74.7887 75.754 74.7458L75.7531 74.7467Z" fill="black"/>
<path d="M24.6313 77.0182C25.2252 77.0182 25.7066 77.4997 25.7066 78.0936C25.7066 78.6875 25.2252 79.1689 24.6313 79.1689C24.0374 79.1689 23.5559 78.6875 23.5559 78.0936C23.5559 77.4996 24.0374 77.0182 24.6313 77.0182Z" fill="black"/>
<path d="M83.454 76.6516C82.3751 75.6742 83.2186 74.0467 84.7787 74.7774C84.9721 74.8675 86.303 75.7617 86.4238 75.8885V75.8877C86.5384 76.0085 86.8297 76.565 86.8525 76.7356C86.9968 77.8354 85.9197 78.1391 85.0579 77.7357C84.7858 77.6079 83.678 76.8555 83.454 76.6516Z" fill="black"/>
<path d="M13.7165 74.66C14.7394 74.6285 15.1821 75.7319 14.5713 76.4775C14.2572 76.8607 12.292 77.7068 11.7906 77.6779C10.8378 77.6228 10.5052 76.5439 11.0661 75.8597C11.3558 75.5061 13.2492 74.6749 13.7174 74.66H13.7165Z" fill="black"/>
<path d="M92.6406 72.0342C92.8078 72.0237 93.0396 72.0823 93.2059 72.126C93.9707 72.3256 97.9676 74.1963 98.6423 74.6522C99.1576 75.0004 99.6004 75.5735 99.2618 76.2062C98.9511 76.7871 98.3859 76.8624 97.8066 76.7111C97.041 76.5107 93.0441 74.6408 92.3703 74.1849C92.2285 74.0887 91.8225 73.715 91.7508 73.5803C91.4043 72.9337 91.9345 72.0788 92.6406 72.0342Z" fill="black"/>
<path d="M33.0531 71.0717C33.6079 71.0393 34.1958 71.5871 34.1959 72.1436C34.1959 72.469 33.9229 72.8899 33.691 73.1096C33.1258 73.6459 29.3326 76.2526 28.6466 76.5527C27.2895 77.146 26.39 75.6453 27.4715 74.6776C29.0903 73.7492 30.6767 72.2258 32.2945 71.3631C32.5211 71.2423 32.7906 71.0866 33.0522 71.0708L33.0531 71.0717Z" fill="black"/>
<path d="M78.0141 72.6169C77.4673 71.4252 78.6669 70.7865 79.7711 71.2966C80.0302 71.4165 81.1536 72.1235 81.347 72.302H81.3478C82.3812 73.2575 81.5622 74.8665 79.9146 74.128C79.3984 73.897 78.2434 73.1166 78.0141 72.6169Z" fill="black"/>
<path d="M19.3813 72.0307C19.9752 72.0307 20.4566 72.5122 20.4566 73.1061C20.4566 73.7 19.9752 74.1814 19.3813 74.1814C18.7874 74.1814 18.3059 73.7 18.3059 73.1061C18.3059 72.5121 18.7874 72.0307 19.3813 72.0307Z" fill="black"/>
<path d="M86.9531 69.4092C87.4344 69.3812 89.292 70.1783 89.6473 70.5213C90.3271 71.1767 90.0095 72.3702 89.0094 72.4279C88.5264 72.4559 86.6688 71.6579 86.3153 71.3158C85.638 70.6622 85.9495 69.4669 86.9531 69.4092Z" fill="black"/>
<path d="M26.8424 68.536C27.6045 68.5062 28.2424 69.3716 27.8618 70.0812C27.8005 70.1959 27.4146 70.566 27.2947 70.6508C26.83 70.9799 24.2017 72.1908 23.6434 72.3361C22.2058 72.7114 21.4638 71.2249 22.7552 70.3113C23.3109 69.9185 25.1422 69.1231 25.8405 68.8466C26.1362 68.7293 26.5265 68.5473 26.8415 68.535L26.8424 68.536Z" fill="black"/>
<path d="M105.068 68.0958C105.483 68.0512 106.965 68.4362 107.402 68.6051C108.678 69.0969 108.389 70.8284 106.972 70.7908C106.649 70.7821 105.218 70.3909 104.873 70.2588C103.711 69.8108 103.813 68.2306 105.068 68.0967V68.0958Z" fill="black"/>
<path d="M41.9746 63.544C42.1479 63.5047 42.4716 63.4942 42.6388 63.544C43.008 63.6543 43.7868 65.2975 44.1149 65.742C44.7869 66.6538 45.7529 67.4711 46.7539 68.0031C47.4626 68.3802 48.3945 68.403 48.3945 69.3444C48.3945 71.3175 45.4974 69.4468 44.772 68.9349C43.6782 68.1614 42.7735 67.1683 42.0857 66.0212C41.7279 65.4253 40.7645 63.8223 41.9746 63.545V63.544Z" fill="black"/>
<path d="M95.0067 65.4708C95.1379 65.4551 95.263 65.428 95.3942 65.4708C97.1355 66.1586 99.7841 66.3064 101.413 67.0686C102.711 67.6758 102.206 69.2648 100.856 69.2079C99.0946 68.5211 96.4075 68.3653 94.7607 67.5962C93.6285 67.0668 93.8491 65.6099 95.0058 65.4717L95.0067 65.4708Z" fill="black"/>
<path d="M22.6432 63.8075C24.0257 63.6613 24.612 65.266 23.2759 65.9319L11.3067 69.1922C9.92951 69.3252 9.32926 67.738 10.6741 67.0677L22.6432 63.8075Z" fill="black"/>
<path fill-rule="evenodd" clip-rule="evenodd" d="M48.678 43.3176C49.6256 41.5221 51.6609 40.9805 53.2892 42.3043C55.7672 44.3195 58.0011 47.3671 60.4625 49.4811L60.7239 49.6109C60.5641 47.5332 59.0585 45.4127 60.5133 43.4952C61.9684 41.5772 65.0238 41.9823 65.912 44.2057C66.5087 45.6993 66.7913 47.6549 67.396 49.2842C68.3672 51.903 70.2283 54.5517 70.4357 57.3569C71.1646 67.2199 59.7887 72.8987 52.3661 66.3266C49.1146 63.4478 46.1877 59.8629 42.9642 56.9159C42.049 55.8388 42.1278 54.0599 43.1332 53.0642C43.3021 52.8971 43.9504 52.5567 43.9189 52.3799C43.8995 52.2713 42.9922 51.4743 42.8303 51.2757C41.3534 49.4618 42.1462 47.0757 44.3512 46.4501C44.2392 45.0527 44.8595 43.7865 46.2017 43.2694C47.1493 42.9045 47.7391 43.0726 48.678 43.3176ZM52.1517 43.7043C51.8411 43.4278 51.4867 43.3368 51.0755 43.4208L51.0764 43.42C50.4394 43.5504 50.0229 44.4569 50.4131 45.0055L56.6134 51.2302C57.2994 52.0667 56.3377 53.1465 55.4286 52.5891L48.0392 45.1909C46.7994 44.2372 45.563 45.6547 46.5133 46.8044L53.7705 53.9847C54.5335 54.8369 53.5264 56.0305 52.5927 55.3375L45.85 48.6052C44.9015 47.6479 43.4333 48.6647 44.0414 49.8888C45.3994 51.4437 46.9752 52.8017 48.433 54.2472C49.0997 54.9078 51.6311 57.2266 51.9208 57.8461C52.3197 58.6992 51.4071 59.4936 50.6328 58.9599C49.0377 57.7026 47.5965 55.5755 46.0259 54.3793C44.912 53.5306 43.7001 54.438 44.2872 55.6805C47.4136 58.5715 50.2854 62.081 53.4607 64.8819C60.1028 70.74 70.007 65.2573 68.488 56.5922C68.1975 54.9367 67.2437 53.5359 66.5709 52.0344C65.877 50.4847 65.2916 48.8633 64.8095 47.2332C64.5522 46.3635 64.4525 44.4787 63.5005 44.1672C62.3402 43.7866 61.5466 44.6397 61.7076 45.786C62.0025 47.8798 63.1855 50.5092 63.3482 52.5444C63.4296 53.5568 62.6832 54.0844 61.8599 53.4212L52.1517 43.7043Z" fill="black"/>
<path d="M30.6688 66.7807C31.2627 66.7807 31.7441 67.2622 31.7442 67.8561C31.7442 68.45 31.2627 68.9314 30.6688 68.9314C30.0749 68.9314 29.5934 68.45 29.5934 67.8561C29.5934 67.2621 30.0749 66.7807 30.6688 66.7807Z" fill="black"/>
<path d="M81.4188 66.7807C82.0127 66.7807 82.4941 67.2622 82.4941 67.8561C82.4941 68.45 82.0127 68.9314 81.4188 68.9314C80.8249 68.9314 80.3434 68.45 80.3434 67.8561C80.3434 67.2621 80.8249 66.7807 81.4188 66.7807Z" fill="black"/>
<path d="M44.8647 61.8807C45.7948 61.6987 46.193 63.1538 46.6883 63.7794C47.6481 64.9939 48.4225 65.0167 49.5556 65.7246C50.3308 66.2085 49.9669 67.4597 49.056 67.4317C48.0252 67.3993 46.1309 65.9617 45.4545 65.1882C44.8848 64.5371 43.1944 62.2079 44.8639 61.8807H44.8647Z" fill="black"/>
<path d="M83.0191 62.2333C83.1504 62.2176 83.2755 62.1905 83.4067 62.2333C85.148 62.9211 87.7966 63.0689 89.4259 63.8311C90.7235 64.4383 90.2186 66.0273 88.8685 65.9704C87.1071 65.2836 84.42 65.1278 82.7732 64.3587C81.641 63.8293 81.8615 62.3725 83.0182 62.2342L83.0191 62.2333Z" fill="black"/>
<path d="M28.6807 62.2325C30.2417 62.068 30.5523 63.8757 29.33 64.3736C28.9851 64.5145 27.5905 64.8942 27.244 64.9196C25.7687 65.0272 25.459 63.257 26.67 62.7635C27.0323 62.6157 28.3027 62.2727 28.6807 62.2325Z" fill="black"/>
<path d="M106.642 59.436C107.056 59.3747 108.853 59.5374 109.193 59.7256C110.263 60.3179 109.766 61.6987 108.629 61.7748C108.23 61.801 106.545 61.6348 106.233 61.4615C105.256 60.9199 105.572 59.5944 106.642 59.436H106.642Z" fill="black"/>
<path d="M102.506 58.9932C103.1 58.9932 103.582 59.4747 103.582 60.0686C103.582 60.6625 103.1 61.1439 102.506 61.1439C101.912 61.1439 101.431 60.6625 101.431 60.0686C101.431 59.4746 101.912 58.9932 102.506 58.9932Z" fill="black"/>
<path d="M13.1067 58.651C13.272 58.6467 13.419 58.6134 13.6036 58.6257C14.9721 58.7158 15.1847 60.4457 13.846 60.7913C13.4373 60.8972 12.1992 61.0066 11.7678 60.9943C10.598 60.9593 10.0257 59.6441 11.0678 58.9757C11.4187 58.7508 12.6455 58.6651 13.1067 58.652V58.651Z" fill="black"/>
<path d="M98.3938 58.6432C98.9877 58.6432 99.4691 59.1247 99.4691 59.7186C99.4691 60.3125 98.9877 60.7939 98.3938 60.7939C97.7999 60.7939 97.3184 60.3125 97.3184 59.7186C97.3184 59.1246 97.7999 58.6432 98.3938 58.6432Z" fill="black"/>
<path d="M94.2813 58.2932C94.8752 58.2932 95.3566 58.7747 95.3567 59.3686C95.3567 59.9625 94.8752 60.4439 94.2813 60.4439C93.6874 60.4439 93.2059 59.9625 93.2059 59.3686C93.2059 58.7746 93.6874 58.2932 94.2813 58.2932Z" fill="black"/>
<path d="M21.3316 57.951C21.4988 57.9449 21.644 57.9134 21.8286 57.9257C23.1971 58.0158 23.4097 59.7457 22.071 60.0913C21.6789 60.1928 20.4924 60.3057 20.0803 60.2935C18.9105 60.2584 18.3383 58.9433 19.3803 58.2748C19.7198 58.0569 20.8845 57.9677 21.3316 57.951Z" fill="black"/>
<path d="M83.8915 57.4235C84.3027 57.3631 84.9948 57.4575 85.4428 57.4882C86.4115 57.5538 87.3959 57.6947 88.361 57.8076C89.6184 58.3667 89.2404 59.9032 87.8938 59.9435C86.6591 59.6705 84.8198 59.8962 83.6631 59.5305C82.5064 59.1647 82.677 57.6037 83.8906 57.4243L83.8915 57.4235Z" fill="black"/>
<path d="M27.5442 57.426C27.7113 57.4199 27.8565 57.3884 28.0411 57.4007C29.4096 57.4908 29.6222 59.2207 28.2835 59.5663C27.8914 59.6678 26.7049 59.7807 26.2928 59.7685C25.123 59.7334 24.5507 58.4183 25.5928 57.7498C25.9323 57.5319 27.097 57.4427 27.5442 57.426Z" fill="black"/>
<path d="M26.054 52.3485C26.4688 52.2872 28.2651 52.4499 28.6055 52.6381C29.6756 53.2304 29.1786 54.6112 28.042 54.6873C27.6429 54.7135 25.9578 54.5473 25.6454 54.374C24.668 53.8324 24.9847 52.5069 26.0549 52.3485H26.054Z" fill="black"/>
<path d="M83.9563 52.5182C84.5502 52.5182 85.0316 52.9997 85.0316 53.5936C85.0316 54.1875 84.5502 54.6689 83.9563 54.6689C83.3624 54.6689 82.8809 54.1875 82.8809 53.5936C82.8809 52.9996 83.3624 52.5182 83.9563 52.5182Z" fill="black"/>
<path d="M89.5816 52.001C89.747 51.9967 89.894 51.9634 90.0786 51.9757C91.4471 52.0658 91.6597 53.7956 90.321 54.1413C89.9124 54.2472 88.6743 54.3566 88.2429 54.3443C87.073 54.3093 86.5008 52.9942 87.5429 52.3257C87.8939 52.1008 89.1205 52.0151 89.5816 52.002V52.001Z" fill="black"/>
<path d="M17.7415 51.6485C18.0933 51.5968 18.9193 51.6668 19.2929 51.7132C19.8993 51.7884 20.5975 51.8419 20.8889 52.4797C21.231 53.2296 20.5668 53.9374 19.817 53.9873C19.5011 54.0083 18.753 53.9409 18.4196 53.8998C17.8404 53.8281 17.1623 53.7764 16.8508 53.1946C16.4842 52.5077 17.031 51.7543 17.7415 51.6493V51.6485Z" fill="black"/>
<path d="M94.2813 51.6432C94.8752 51.6432 95.3566 52.1247 95.3567 52.7186C95.3567 53.3125 94.8752 53.7939 94.2813 53.7939C93.6874 53.7939 93.2059 53.3125 93.2059 52.7186C93.2059 52.1246 93.6874 51.6432 94.2813 51.6432Z" fill="black"/>
<path d="M13.6938 51.2932C14.2877 51.2932 14.7691 51.7747 14.7692 52.3686C14.7692 52.9625 14.2877 53.4439 13.6938 53.4439C13.0999 53.4439 12.6184 52.9625 12.6184 52.3686C12.6184 51.7746 13.0999 51.2932 13.6938 51.2932Z" fill="black"/>
<path d="M7.41736 50.685C7.82248 50.6317 9.72039 50.8758 10.0555 51.0631C11.1125 51.6528 10.6295 53.0764 9.48847 53.1158C9.09905 53.1289 7.31058 52.8821 7.00609 52.7124C6.02965 52.1673 6.35338 50.8242 7.41736 50.685Z" fill="black"/>
<path d="M104.513 50.6597C105.655 50.699 106.137 52.1226 105.081 52.7124C104.777 52.8822 102.988 53.1289 102.598 53.1158C101.463 53.0764 100.97 51.6554 102.031 51.0631C102.364 50.8767 103.761 50.7087 104.195 50.6877H104.196C104.298 50.6824 104.394 50.6553 104.513 50.6597Z" fill="black"/>
<path d="M29.0063 47.7057C29.6002 47.7057 30.0816 48.1872 30.0817 48.7811C30.0817 49.375 29.6002 49.8564 29.0063 49.8564C28.4124 49.8564 27.9309 49.375 27.9309 48.7811C27.9309 48.1871 28.4124 47.7057 29.0063 47.7057Z" fill="black"/>
<path d="M83.0813 47.7057C83.6752 47.7057 84.1566 48.1872 84.1566 48.7811C84.1566 49.375 83.6752 49.8564 83.0813 49.8564C82.4874 49.8564 82.0059 49.375 82.0059 48.7811C82.0059 48.1871 82.4874 47.7057 83.0813 47.7057Z" fill="black"/>
<path d="M18.8816 45.0833C19.0129 45.0676 19.138 45.0405 19.2692 45.0833C21.0105 45.7711 23.6591 45.9189 25.2884 46.6811C26.586 47.2883 26.0811 48.8773 24.731 48.8204C22.9696 48.1336 20.2825 47.9778 18.6357 47.2087C17.5035 46.6793 17.724 45.2225 18.8807 45.0842L18.8816 45.0833Z" fill="black"/>
<path d="M92.8182 45.0825C94.1438 44.9223 94.794 46.5104 93.5121 47.1807C91.994 47.9734 89.0347 48.124 87.3565 48.8196C86.0519 48.8808 85.4989 47.3539 86.7388 46.7073C88.2438 45.9216 91.1592 45.7798 92.8182 45.0825Z" fill="black"/>
<path d="M97.0813 43.9432C97.6752 43.9432 98.1566 44.4247 98.1566 45.0186C98.1566 45.6125 97.6752 46.0939 97.0813 46.0939C96.4874 46.0939 96.0059 45.6125 96.0059 45.0186C96.0059 44.4246 96.4874 43.9432 97.0813 43.9432Z" fill="black"/>
<path d="M81.4188 43.1557C82.0127 43.1557 82.4941 43.6372 82.4941 44.2311C82.4941 44.825 82.0127 45.3064 81.4188 45.3064C80.8249 45.3064 80.3434 44.825 80.3434 44.2311C80.3434 43.6371 80.8249 43.1557 81.4188 43.1557Z" fill="black"/>
<path d="M28.6781 42.2842C29.1594 42.2562 31.017 43.0533 31.3723 43.3963C32.0521 44.0517 31.7345 45.2452 30.7344 45.3029C30.2514 45.3309 28.3938 44.5329 28.0403 44.1908C27.363 43.5372 27.6745 42.3419 28.6781 42.2842Z" fill="black"/>
<path d="M101.106 42.8932C101.7 42.8932 102.182 43.3747 102.182 43.9686C102.182 44.5625 101.7 45.0439 101.106 45.0439C100.512 45.0439 100.031 44.5625 100.031 43.9686C100.031 43.3746 100.512 42.8932 101.106 42.8932Z" fill="black"/>
<path d="M4.88071 41.3208C5.29545 41.2762 6.77767 41.6612 7.21433 41.8301C8.49094 42.3218 8.20137 44.0534 6.78478 44.0158C6.46103 44.0071 5.03038 43.6159 4.68563 43.4838C3.52364 43.0358 3.62512 41.4556 4.88071 41.3217V41.3208Z" fill="black"/>
<path d="M106.818 41.32C108.379 41.1555 108.69 42.9632 107.467 43.4611C107.123 43.602 105.728 43.9817 105.381 44.0071C103.906 44.1147 103.597 42.3445 104.808 41.851C105.17 41.7032 106.44 41.3602 106.818 41.32Z" fill="black"/>
<path d="M88.8799 39.661C89.642 39.6312 90.2799 40.4966 89.8993 41.2062C89.838 41.3209 89.4521 41.691 89.3322 41.7758C88.8675 42.1049 86.2392 43.3158 85.6809 43.4611C84.2433 43.8364 83.5013 42.3499 84.7927 41.4364C85.3484 41.0435 87.1797 40.2481 87.878 39.9716C88.1737 39.8543 88.564 39.6723 88.879 39.66L88.8799 39.661Z" fill="black"/>
<path d="M25.0688 40.5307C25.6627 40.5307 26.1441 41.0122 26.1441 41.6061C26.1441 42.2 25.6627 42.6814 25.0688 42.6814C24.4749 42.6814 23.9934 42.2 23.9934 41.6061C23.9934 41.0121 24.4749 40.5307 25.0688 40.5307Z" fill="black"/>
<path d="M31.3688 37.7281C31.8649 37.7299 33.3742 38.6135 33.7443 38.967L33.7453 38.968C34.4872 39.6767 34.2545 41.0242 33.1188 41.0216C32.5255 41.0198 30.6749 39.8972 30.4317 39.3494C30.0965 38.5952 30.4833 37.7255 31.3688 37.7281Z" fill="black"/>
<path d="M85.7281 34.1467C86.8481 34.0811 87.2489 35.5869 86.3188 36.2248L79.5716 40.8527C78.2268 41.4722 77.2792 39.8919 78.4438 38.9373C80.6365 37.6992 82.789 35.5992 84.9695 34.4381C85.197 34.3173 85.4656 34.1616 85.7272 34.1458L85.7281 34.1467Z" fill="black"/>
<path d="M21.3063 38.7807C21.9002 38.7807 22.3816 39.2622 22.3816 39.8561C22.3816 40.45 21.9002 40.9314 21.3063 40.9314C20.7124 40.9314 20.2309 40.45 20.2309 39.8561C20.2309 39.2621 20.7124 38.7807 21.3063 38.7807Z" fill="black"/>
<path d="M92.7063 37.9057C93.3002 37.9057 93.7816 38.3872 93.7816 38.9811C93.7816 39.575 93.3002 40.0564 92.7063 40.0564C92.1124 40.0564 91.6309 39.575 91.6309 38.9811C91.6309 38.3871 92.1124 37.9057 92.7063 37.9057Z" fill="black"/>
<path d="M13.7156 35.2842C14.0726 35.2614 14.5154 35.4662 14.8461 35.5966C15.5444 35.8722 17.3766 36.6685 17.9314 37.0614C18.4537 37.4306 18.844 38.0098 18.4642 38.6337C18.13 39.1814 17.6094 39.2339 17.0441 39.0861C16.4789 38.9382 13.8574 37.729 13.3927 37.4008C13.2729 37.316 12.887 36.9458 12.8258 36.8312C12.4793 36.1845 13.0095 35.3297 13.7156 35.285V35.2842Z" fill="black"/>
<path d="M24.5656 32.9217C24.8518 32.9042 25.1545 33.0477 25.4013 33.1798C25.9709 33.4826 28.2247 35.0846 28.6588 35.5222C29.2022 36.0699 29.3239 36.8531 28.6169 37.3239C28.182 37.6135 27.8259 37.5312 27.3832 37.3239C26.9045 37.099 24.395 35.2982 24.0153 34.9167C23.8 34.7005 23.555 34.3059 23.5541 33.9944C23.5541 33.4922 24.0722 32.9523 24.5656 32.9225V32.9217Z" fill="black"/>
<path d="M100.167 34.41C101.189 34.3785 101.632 35.482 101.021 36.2275C100.707 36.6107 98.7421 37.4568 98.2406 37.4279C97.2256 37.3693 96.9421 36.1872 97.6036 35.5213C97.9108 35.2124 99.7359 34.4232 100.167 34.4092L100.167 34.41Z" fill="black"/>
<path d="M78.7281 32.2217C79.5095 32.1753 80.1648 33.1291 79.7142 33.8212L76.3455 37.19C75.4504 37.7394 74.347 36.637 74.8974 35.7418L78.2197 32.4142C78.3484 32.3066 78.5663 32.2322 78.7281 32.2225V32.2217Z" fill="black"/>
<path d="M33.2281 32.2217C33.4399 32.2086 33.6989 32.2786 33.8677 32.4133L37.1901 35.7409C37.7396 36.636 36.6362 37.7386 35.742 37.1891L32.3732 33.8203C31.9445 33.179 32.5176 32.2637 33.229 32.2208L33.2281 32.2217Z" fill="black"/>
<path d="M72.7388 30.4306C73.9979 29.8715 74.6418 31.0072 74.1291 32.1709C74.0329 32.3888 73.2664 33.613 73.1246 33.7477V33.7486C73.0284 33.8404 72.4947 34.1292 72.3477 34.1598C71.6704 34.3016 71.0648 33.8037 71.0666 33.1177C71.0684 32.5113 72.1858 30.6765 72.7388 30.4306Z" fill="black"/>
<path d="M36.3781 26.9717C36.8165 26.9454 37.1508 27.2438 37.45 27.5186C38.3154 29.1338 40.0128 30.8016 40.7916 32.402C41.4872 33.8317 40.0444 34.7959 38.9778 33.6908C38.0949 32.0677 36.3807 30.3737 35.5959 28.7602C35.5057 28.5747 35.3832 28.3122 35.371 28.11C35.3395 27.5772 35.8514 27.0041 36.3772 26.9725L36.3781 26.9717Z" fill="black"/>
<path d="M18.9674 31.5016C17.8552 30.4918 18.7854 28.8634 20.3621 29.6448C20.5652 29.7454 21.6922 30.5085 21.8453 30.6555C22.5872 31.3642 22.3545 32.7126 21.2188 32.7091C20.7349 32.7073 19.3427 31.8429 18.9674 31.5016Z" fill="black"/>
<path d="M99.2906 24.6092C100.411 24.5436 100.811 26.0494 99.8813 26.6873L91.5294 32.5104C90.1775 33.2069 89.152 31.6101 90.3438 30.6248C92.9906 28.9562 95.4774 26.8387 98.112 25.1806C98.462 24.9601 98.8601 24.6346 99.2906 24.6092Z" fill="black"/>
<path d="M44.2313 29.5932C44.8252 29.5932 45.3066 30.0747 45.3067 30.6686C45.3067 31.2625 44.8252 31.7439 44.2313 31.7439C43.6374 31.7439 43.1559 31.2625 43.1559 30.6686C43.1559 30.0746 43.6374 29.5932 44.2313 29.5932Z" fill="black"/>
<path d="M70.4156 23.9967C71.3414 23.9407 71.6616 24.8498 71.4411 25.6347C71.225 26.402 69.3499 30.4208 68.901 31.0562C68.5632 31.5339 68.0374 31.9224 67.4424 31.6503C66.7783 31.3475 66.7222 30.722 66.8963 30.1016C67.1247 29.2905 68.9282 25.4334 69.4015 24.7326C69.6177 24.4132 70.0175 24.0203 70.4156 23.9967Z" fill="black"/>
<path d="M48.7813 27.9307C49.3752 27.9307 49.8566 28.4122 49.8567 29.0061C49.8567 29.6 49.3752 30.0814 48.7813 30.0814C48.1874 30.0814 47.7059 29.6 47.7059 29.0061C47.7059 28.4121 48.1874 27.9307 48.7813 27.9307Z" fill="black"/>
<path d="M63.3063 27.9307C63.9002 27.9307 64.3816 28.4122 64.3816 29.0061C64.3816 29.6 63.9002 30.0814 63.3063 30.0814C62.7124 30.0814 62.2309 29.6 62.2309 29.0061C62.2309 28.4121 62.7124 27.9307 63.3063 27.9307Z" fill="black"/>
<path d="M28.9188 27.8432C29.5127 27.8432 29.9941 28.3247 29.9942 28.9186C29.9942 29.5125 29.5127 29.9939 28.9188 29.9939C28.3249 29.9939 27.8434 29.5125 27.8434 28.9186C27.8434 28.3246 28.3249 27.8432 28.9188 27.8432Z" fill="black"/>
<path d="M83.1688 27.8432C83.7627 27.8432 84.2441 28.3247 84.2441 28.9186C84.2441 29.5125 83.7627 29.9939 83.1688 29.9939C82.5749 29.9939 82.0934 29.5125 82.0934 28.9186C82.0934 28.3246 82.5749 27.8432 83.1688 27.8432Z" fill="black"/>
<path d="M53.5938 27.0557C54.1877 27.0557 54.6691 27.5372 54.6692 28.1311C54.6692 28.725 54.1877 29.2064 53.5938 29.2064C52.9999 29.2064 52.5184 28.725 52.5184 28.1311C52.5184 27.5371 52.9999 27.0557 53.5938 27.0557Z" fill="black"/>
<path d="M58.4938 27.0557C59.0877 27.0557 59.5691 27.5372 59.5691 28.1311C59.5691 28.725 59.0877 29.2064 58.4938 29.2064C57.8999 29.2064 57.4184 28.725 57.4184 28.1311C57.4184 27.5371 57.8999 27.0557 58.4938 27.0557Z" fill="black"/>
<path d="M12.6656 24.6092C12.9561 24.5917 13.251 24.737 13.5013 24.8665C14.0998 25.1754 16.2478 26.633 16.7151 27.0776C17.1605 27.5011 17.3941 28.0602 17.0231 28.6176C16.6723 29.1435 16.1551 29.1994 15.6004 28.9798C15.155 28.8039 12.5345 27.005 12.1582 26.6471C11.8467 26.3513 11.5955 25.9278 11.6891 25.4781C11.7749 25.0642 12.2299 24.6354 12.6656 24.6092Z" fill="black"/>
<path d="M23.0563 22.0997C23.5844 22.0997 24.0126 22.5279 24.0126 23.0561C24.0126 23.5842 23.5845 24.0125 23.0563 24.0125C22.5281 24.0125 22.0998 23.5842 22.0998 23.0561C22.0998 22.5279 22.5281 22.0997 23.0563 22.0997Z" fill="black"/>
<path fill-rule="evenodd" clip-rule="evenodd" d="M23.0563 17.877C25.9166 17.877 28.2353 20.1957 28.2353 23.0561C28.2353 25.9164 25.9166 28.2352 23.0563 28.2352C20.1959 28.2352 17.8771 25.9164 17.8771 23.0561C17.8771 20.1957 20.1959 17.877 23.0563 17.877ZM23.0563 19.5561C21.1234 19.5561 19.5563 21.1232 19.5563 23.0561C19.5563 24.9889 21.1234 26.5561 23.0563 26.5561C24.9891 26.556 26.5563 24.9889 26.5563 23.0561C26.5563 21.1232 24.9891 19.5561 23.0563 19.5561Z" fill="black"/>
<path d="M89.0313 22.0997C89.5594 22.0997 89.9876 22.5279 89.9876 23.0561C89.9876 23.5842 89.5595 24.0125 89.0313 24.0125C88.5031 24.0125 88.0748 23.5842 88.0748 23.0561C88.0748 22.5279 88.5031 22.0997 89.0313 22.0997Z" fill="black"/>
<path fill-rule="evenodd" clip-rule="evenodd" d="M89.0313 17.877C91.8916 17.877 94.2103 20.1957 94.2104 23.0561C94.2104 25.9164 91.8916 28.2352 89.0313 28.2352C86.1709 28.2352 83.8521 25.9164 83.8521 23.0561C83.8521 20.1957 86.1709 17.877 89.0313 17.877ZM89.0313 19.5561C87.0984 19.5561 85.5313 21.1232 85.5313 23.0561C85.5313 24.9889 87.0984 26.5561 89.0313 26.5561C90.9641 26.556 92.5313 24.9889 92.5313 23.0561C92.5313 21.1232 90.9641 19.5561 89.0313 19.5561Z" fill="black"/>
<path d="M38.0406 16.4717C38.5892 16.4384 38.9182 16.8707 39.2166 17.2635C40.4145 20.1467 42.0656 22.9633 43.2399 25.8403C43.4446 26.3426 43.7167 26.9175 43.4017 27.4328C42.8662 28.3104 41.8705 28.0164 41.4015 27.2412C40.187 24.3432 38.5288 21.5038 37.3467 18.6084C37.163 18.1587 36.9058 17.6048 37.1228 17.1288C37.2636 16.8208 37.6985 16.4918 38.0397 16.4708L38.0406 16.4717Z" fill="black"/>
<path d="M47.7313 23.9057C48.3252 23.9057 48.8066 24.3872 48.8067 24.9811C48.8067 25.575 48.3252 26.0564 47.7313 26.0564C47.1374 26.0564 46.6559 25.575 46.6559 24.9811C46.6559 24.3871 47.1374 23.9057 47.7313 23.9057Z" fill="black"/>
<path d="M64.8156 21.8958C65.59 21.8538 66.0231 22.4917 65.9697 23.218C65.9478 23.5226 65.5025 25.1473 65.3669 25.4221C64.8839 26.3942 63.4095 26.2192 63.2835 25.0432C63.2432 24.6686 63.6694 22.9633 63.84 22.5827C64.0106 22.2021 64.3904 21.9186 64.8156 21.8958Z" fill="black"/>
<path d="M31.7791 22.8811C31.7774 22.1951 32.382 21.6972 33.0602 21.8389C33.2081 21.8696 33.7409 22.1583 33.8371 22.2502V22.251C33.9789 22.3858 34.7453 23.61 34.8416 23.8278C35.3543 24.9916 34.7104 26.1273 33.4513 25.5682C32.9035 25.3249 31.7808 23.4752 31.7791 22.8811Z" fill="black"/>
<path d="M78.0938 23.5557C78.6877 23.5557 79.1691 24.0372 79.1692 24.6311C79.1692 25.225 78.6877 25.7064 78.0938 25.7064C77.4999 25.7064 77.0184 25.225 77.0184 24.6311C77.0184 24.0371 77.4999 23.5557 78.0938 23.5557Z" fill="black"/>
<path d="M58.8438 22.9432C59.4377 22.9432 59.9191 23.4247 59.9192 24.0186C59.9192 24.6125 59.4377 25.0939 58.8438 25.0939C58.2499 25.0939 57.7684 24.6125 57.7684 24.0186C57.7684 23.4246 58.2499 22.9432 58.8438 22.9432Z" fill="black"/>
<path d="M52.3031 12.6217C52.8316 12.5893 53.3225 13.0504 53.4406 13.5404C53.557 16.1401 54.0951 18.9025 54.1625 21.4828C54.2054 23.1191 52.5998 23.5968 51.9969 22.0717C51.8805 19.4721 51.3424 16.7097 51.275 14.1293C51.2575 13.4512 51.5235 12.6689 52.3031 12.6217Z" fill="black"/>
<path d="M73.0406 18.3083C73.6768 18.2742 74.1773 18.7441 74.1825 19.3802C74.1869 19.8466 73.3644 21.7391 73.0223 22.0533C72.3223 22.6956 71.1629 22.3184 71.155 21.3069C71.1516 20.8755 71.8777 19.1904 72.1498 18.8185C72.3563 18.5367 72.6845 18.3284 73.0415 18.3092L73.0406 18.3083Z" fill="black"/>
<path d="M80.4563 20.1432C81.0502 20.1432 81.5316 20.6247 81.5316 21.2186C81.5316 21.8125 81.0502 22.2939 80.4563 22.2939C79.8624 22.2939 79.3809 21.8125 79.3809 21.2186C79.3809 20.6246 79.8624 20.1432 80.4563 20.1432Z" fill="black"/>
<path d="M59.4781 14.7217C60.2647 14.6744 60.6576 15.4392 60.6436 16.1444C60.6173 17.4385 60.3278 18.8937 60.2298 20.1983C59.5499 21.5475 58.0641 21.0156 58.0939 19.5543C58.1192 18.2786 58.415 16.8575 58.4876 15.5678C58.5909 15.1741 59.0625 14.7462 59.4781 14.7208V14.7217Z" fill="black"/>
<path d="M66.4781 15.9458C67.795 15.8741 67.6419 17.1533 67.4179 18.024C67.172 18.9821 66.7004 20.5273 65.387 19.8807C64.6407 19.5123 64.8935 18.5725 65.0563 17.9382C65.2514 17.1787 65.5419 15.9974 66.4773 15.9467L66.4781 15.9458Z" fill="black"/>
<path d="M83.9781 15.0708C84.9922 15.0157 85.3238 16.0105 84.9424 16.8225C84.7997 17.1262 83.7341 18.5156 83.4715 18.6776C82.3874 19.346 81.3663 18.3066 81.9201 17.1262C82.194 16.5426 83.3035 15.1076 83.9781 15.0708Z" fill="black"/>
<path d="M44.4281 11.9217C44.87 11.8946 45.3198 12.2481 45.5175 12.6252C45.7345 13.0382 46.5631 16.1786 46.6174 16.6922C46.7608 18.0537 45.1806 18.646 44.5191 17.3861C44.3022 16.9731 43.4735 13.8327 43.4192 13.319C43.3519 12.6829 43.736 11.9637 44.4272 11.9217H44.4281Z" fill="black"/>
<path d="M25.6156 11.6592C25.9814 11.6373 26.4032 11.9016 26.6473 12.1588C27.0445 12.5779 28.6816 14.9614 28.9231 15.4829C29.5592 16.8549 28.126 17.8192 27.0778 16.7158C26.6796 16.2967 25.0443 13.914 24.8019 13.3917C24.4528 12.6392 24.7232 11.7134 25.6156 11.6592Z" fill="black"/>
<path d="M35.4813 10.7807C36.0752 10.7807 36.5566 11.2622 36.5567 11.8561C36.5567 12.45 36.0752 12.9314 35.4813 12.9314C34.8874 12.9314 34.4059 12.45 34.4059 11.8561C34.4059 11.2621 34.8874 10.7807 35.4813 10.7807Z" fill="black"/>
<path d="M76.6063 10.7807C77.2002 10.7807 77.6816 11.2622 77.6816 11.8561C77.6816 12.45 77.2002 12.9314 76.6063 12.9314C76.0124 12.9314 75.5309 12.45 75.5309 11.8561C75.5309 11.2621 76.0124 10.7807 76.6063 10.7807Z" fill="black"/>
<path d="M68.1188 9.90568C68.7127 9.90569 69.1941 10.3872 69.1942 10.9811C69.1942 11.575 68.7127 12.0564 68.1188 12.0564C67.5249 12.0564 67.0434 11.575 67.0434 10.9811C67.0434 10.3871 67.5249 9.90568 68.1188 9.90568Z" fill="black"/>
<path d="M60.6156 2.29668C61.3121 2.2547 61.831 2.97219 61.782 3.63105L61.1231 9.8051C60.5972 11.1744 58.9479 10.764 58.9672 9.31941L59.626 3.14545C59.7476 2.74382 60.1825 2.32378 60.6156 2.29753V2.29668Z" fill="black"/>
<path d="M43.4438 7.89318C44.0377 7.89319 44.5191 8.37466 44.5191 8.96855C44.5191 9.56246 44.0377 10.0439 43.4438 10.0439C42.8499 10.0439 42.3684 9.56247 42.3684 8.96855C42.3684 8.37465 42.8499 7.89318 43.4438 7.89318Z" fill="black"/>
<path d="M69.6281 3.87083C70.4025 3.82884 70.8356 4.46674 70.7822 5.19298C70.7603 5.49757 70.315 7.12227 70.1794 7.39706C69.6964 8.36918 68.222 8.19418 68.096 7.01818C68.0557 6.64363 68.4819 4.93828 68.6525 4.55767C68.8231 4.17705 69.2029 3.89357 69.6281 3.87083Z" fill="black"/>
<path d="M51.3406 2.29668C51.7449 2.27219 52.2217 2.59418 52.3924 2.95028C52.612 3.40878 52.7695 5.4651 52.5017 5.90785C52.0406 6.67256 50.974 6.59119 50.5942 5.79847C50.4516 5.50097 50.3134 4.10266 50.3055 3.71941C50.2924 3.06579 50.6232 2.34043 51.3398 2.29668H51.3406Z" fill="black"/>
</svg>
