<svg width="37" height="29" viewBox="0 0 37 29" fill="none" xmlns="http://www.w3.org/2000/svg">
<g clip-path="url(#clip0_15202_8106)">
<path d="M18.0389 7.01489L22.3838 3.52661L18.0389 0.00725L18.0359 0L13.6982 3.51936L18.0359 7.00971L18.0389 7.01489ZM18.0389 18.0162H18.042L29.2488 9.08839L26.2097 6.62339L18.042 13.1339H18.0379L18.0348 13.138L9.86721 6.62961L6.83115 9.09461L18.0338 18.0194L18.0379 18.0152L18.0389 18.0162ZM18.0348 24.1207L18.0389 24.1166L33.0408 12.1645L36.081 14.6295L29.257 20.067L18.0379 29L0.292324 14.8698L0 14.6346L3.03607 12.1738L18.0348 24.1218V24.1207Z" fill="white"/>
</g>
<defs>
<clipPath id="clip0_15202_8106">
<rect width="36.9091" height="29" fill="white"/>
</clipPath>
</defs>
</svg>
