<svg width="50" height="50" viewBox="0 0 50 50" fill="none" xmlns="http://www.w3.org/2000/svg">
<path d="M32.1946 6.02807V28.6277C32.1946 28.6277 31.4458 35.4121 27.2524 37.6086C24.6614 39.1313 20.9697 40.901 16.1048 41.0508L18.9503 43.8963C18.9503 43.8963 27.4795 43.1475 31.3709 39.628C35.2648 36.111 35.4146 31.8327 35.4146 30.1553V8.42182L32.1946 6.02557V6.02807Z" fill="#DCDCDD"/>
<path d="M32.1946 6.02806V28.6277C32.1946 28.6277 31.4458 35.4121 27.2523 37.6086C24.6614 39.1313 20.9697 40.901 16.1048 41.0508L14.5073 34.2639C14.5073 34.2639 17.9519 33.6149 20.2483 32.8686C22.5422 32.1197 23.7578 28.2258 23.7578 28.2258V6.03056H32.1946V6.02806Z" fill="#C4C4C7"/>
</svg>
