<svg width="20" height="20" viewBox="0 0 20 20" fill="none" xmlns="http://www.w3.org/2000/svg">
<path d="M4.16667 8.33334C5.08714 8.33334 5.83333 9.07953 5.83333 10C5.83333 10.9205 5.08714 11.6667 4.16667 11.6667C3.24619 11.6667 2.5 10.9205 2.5 10C2.5 9.07953 3.24619 8.33334 4.16667 8.33334Z" fill="#8A8A8E"/>
<path d="M10 8.33334C10.9205 8.33334 11.6667 9.07953 11.6667 10C11.6667 10.9205 10.9205 11.6667 10 11.6667C9.07952 11.6667 8.33333 10.9205 8.33333 10C8.33333 9.07953 9.07952 8.33334 10 8.33334Z" fill="#8A8A8E"/>
<path d="M15.8333 8.33334C16.7538 8.33334 17.5 9.07953 17.5 10C17.5 10.9205 16.7538 11.6667 15.8333 11.6667C14.9129 11.6667 14.1667 10.9205 14.1667 10C14.1667 9.07953 14.9129 8.33334 15.8333 8.33334Z" fill="#8A8A8E"/>
</svg>
