<svg width="14" height="14" viewBox="0 0 14 14" fill="none" xmlns="http://www.w3.org/2000/svg">
<path d="M2.91667 5.8335C3.561 5.8335 4.08333 6.35583 4.08333 7.00016C4.08333 7.64449 3.561 8.16683 2.91667 8.16683C2.27233 8.16683 1.75 7.64449 1.75 7.00016C1.75 6.35583 2.27233 5.8335 2.91667 5.8335Z" fill="#8A8A8E"/>
<path d="M7 5.8335C7.64433 5.8335 8.16667 6.35583 8.16667 7.00016C8.16667 7.64449 7.64433 8.16683 7 8.16683C6.35567 8.16683 5.83333 7.64449 5.83333 7.00016C5.83333 6.35583 6.35567 5.8335 7 5.8335Z" fill="#8A8A8E"/>
<path d="M11.0833 5.8335C11.7277 5.8335 12.25 6.35583 12.25 7.00016C12.25 7.64449 11.7277 8.16683 11.0833 8.16683C10.439 8.16683 9.91667 7.64449 9.91667 7.00016C9.91667 6.35583 10.439 5.8335 11.0833 5.8335Z" fill="#8A8A8E"/>
</svg>
