<svg width="14" height="14" viewBox="0 0 14 14" fill="none" xmlns="http://www.w3.org/2000/svg">
<path d="M8.32161 2.12085C9.30408 1.13839 10.8967 1.13839 11.8792 2.12085C12.8616 3.10332 12.8616 4.69592 11.8792 5.67839L5.47843 12.0791C5.36905 12.1884 5.22066 12.25 5.066 12.25H2.33333C2.01117 12.25 1.75 11.9888 1.75 11.6667V8.934L1.75285 8.8759C1.76615 8.7425 1.8253 8.61722 1.9209 8.52157L8.32161 2.12085ZM11.0543 2.94572C10.5274 2.41887 9.67334 2.41887 9.14648 2.94572L2.91667 9.17554V11.0833H4.82446L11.0543 4.85352C11.5811 4.32666 11.5811 3.47258 11.0543 2.94572Z" fill="#8A8A8E"/>
</svg>
