<svg width="58" height="58" viewBox="0 0 58 58" fill="none" xmlns="http://www.w3.org/2000/svg">
<g filter="url(#filter0_d_15202_8138)">
<g clip-path="url(#clip0_15202_8138)">
<path d="M0.000366211 0H58.0004V58H0.000366211V0Z" fill="#EA4C89"/>
<path d="M29.0005 46.4C19.409 46.4 11.6005 38.5916 11.6005 29C11.6005 19.4084 19.409 11.6 29.0005 11.6C38.5921 11.6 46.4005 19.4084 46.4005 29C46.4005 38.5916 38.5921 46.4 29.0005 46.4ZM43.6744 31.3808C43.1671 31.2215 39.0781 29.999 34.4176 30.7457C36.3607 36.0875 37.1539 40.4375 37.306 41.3423C38.9917 40.2045 40.4268 38.7338 41.5228 37.0207C42.6188 35.3075 43.3526 33.3882 43.6789 31.3808H43.6744ZM34.808 42.7025C34.5859 41.3975 33.7205 36.8561 31.6325 31.436L31.5364 31.4651C23.1413 34.3868 20.1394 40.2011 19.8784 40.745C22.48 42.7857 25.6925 43.8919 28.999 43.8857C30.9923 43.8882 32.9654 43.4867 34.7993 42.7055L34.808 42.7025ZM17.9587 38.9615C18.2954 38.3816 22.3742 31.6319 30.0404 29.1524C30.2341 29.0881 30.4299 29.0301 30.6274 28.9784C30.2475 28.127 29.8451 27.2857 29.4208 26.4554C21.997 28.6739 14.7991 28.5794 14.1466 28.565L14.1409 29.0174C14.1409 32.8352 15.5882 36.3209 17.9602 38.9573L17.9587 38.9615ZM14.45 25.9769C15.1168 25.9883 21.2401 26.0148 28.1914 24.1673C26.509 21.2061 24.6696 18.3368 22.6813 15.5717C20.6002 16.5519 18.7742 18.0005 17.3464 19.8041C15.9185 21.6077 14.9276 23.7174 14.4511 25.9679L14.45 25.9769ZM25.5205 14.5754C25.9294 15.1265 28.6306 18.8006 31.0624 23.2754C36.3479 21.296 38.5879 18.2873 38.8531 17.9075C36.141 15.4898 32.6338 14.1551 29.0005 14.1578C27.8045 14.1578 26.6372 14.3027 25.5205 14.5712V14.5754ZM40.5061 19.6259C40.1902 20.0462 37.7005 23.2406 32.2063 25.4837C32.5543 26.1944 32.8879 26.912 33.1924 27.6386C33.3085 27.8996 33.4099 28.1606 33.5117 28.4069C38.4559 27.7835 43.3714 28.784 43.8643 28.8854C43.843 25.5086 42.6603 22.242 40.5148 19.6343L40.5061 19.6259Z" fill="white"/>
</g>
</g>
<defs>
<filter id="filter0_d_15202_8138" x="0" y="0" width="66" height="66" filterUnits="userSpaceOnUse" color-interpolation-filters="sRGB">
<feFlood flood-opacity="0" result="BackgroundImageFix"/>
<feColorMatrix in="SourceAlpha" type="matrix" values="0 0 0 0 0 0 0 0 0 0 0 0 0 0 0 0 0 0 127 0" result="hardAlpha"/>
<feOffset dx="4" dy="4"/>
<feGaussianBlur stdDeviation="2"/>
<feComposite in2="hardAlpha" operator="out"/>
<feColorMatrix type="matrix" values="0 0 0 0 0 0 0 0 0 0 0 0 0 0 0 0 0 0 0.02 0"/>
<feBlend mode="normal" in2="BackgroundImageFix" result="effect1_dropShadow_15202_8138"/>
<feBlend mode="normal" in="SourceGraphic" in2="effect1_dropShadow_15202_8138" result="shape"/>
</filter>
<clipPath id="clip0_15202_8138">
<path d="M0 16C0 7.16345 7.16344 0 16 0H42C50.8366 0 58 7.16344 58 16V42C58 50.8366 50.8366 58 42 58H16C7.16345 58 0 50.8366 0 42V16Z" fill="white"/>
</clipPath>
</defs>
</svg>
