<svg width="18" height="18" viewBox="0 0 18 18" fill="none" xmlns="http://www.w3.org/2000/svg">
<g clip-path="url(#clip0_15884_6815)">
<path d="M2.88886 6.46593C2.7794 5.97282 2.79621 5.46006 2.93773 4.97518C3.07926 4.4903 3.34093 4.04901 3.69847 3.69222C4.05601 3.33543 4.49785 3.07469 4.98302 2.93417C5.46819 2.79366 5.98099 2.77793 6.47387 2.88843C6.74515 2.46415 7.11887 2.115 7.56058 1.87314C8.00229 1.63129 8.49778 1.50452 9.00136 1.50452C9.50495 1.50452 10.0004 1.63129 10.4422 1.87314C10.8839 2.115 11.2576 2.46415 11.5289 2.88843C12.0225 2.77745 12.5362 2.79311 13.0221 2.93396C13.5081 3.07482 13.9505 3.33628 14.3082 3.69404C14.666 4.0518 14.9275 4.49423 15.0683 4.98018C15.2092 5.46613 15.2248 5.9798 15.1139 6.47343C15.5381 6.74471 15.8873 7.11843 16.1292 7.56014C16.371 8.00185 16.4978 8.49734 16.4978 9.00093C16.4978 9.50452 16.371 10 16.1292 10.4417C15.8873 10.8834 15.5381 11.2571 15.1139 11.5284C15.2244 12.0213 15.2086 12.5341 15.0681 13.0193C14.9276 13.5044 14.6669 13.9463 14.3101 14.3038C13.9533 14.6614 13.512 14.923 13.0271 15.0646C12.5422 15.2061 12.0295 15.2229 11.5364 15.1134C11.2654 15.5393 10.8914 15.89 10.449 16.1329C10.0065 16.3759 9.50988 16.5032 9.00512 16.5032C8.50034 16.5032 8.00373 16.3759 7.56127 16.1329C7.11881 15.89 6.74479 15.5393 6.47387 15.1134C5.98099 15.2239 5.46819 15.2082 4.98302 15.0677C4.49785 14.9272 4.05601 14.6664 3.69847 14.3096C3.34093 13.9528 3.07926 13.5116 2.93773 13.0267C2.79621 12.5418 2.7794 12.029 2.88886 11.5359C2.46133 11.2654 2.10918 10.8911 1.86515 10.4478C1.62113 10.0046 1.49316 9.50688 1.49316 9.00093C1.49316 8.49497 1.62113 7.99724 1.86515 7.55402C2.10918 7.1108 2.46133 6.7365 2.88886 6.46593Z" fill="white" stroke="#007AFF" stroke-width="1.5" stroke-linecap="round" stroke-linejoin="round"/>
<path d="M6.75 8.99786L8.25 10.4979L11.25 7.49786" stroke="#007AFF" stroke-width="1.5" stroke-linecap="round" stroke-linejoin="round"/>
</g>
<defs>
<clipPath id="clip0_15884_6815">
<rect width="18" height="18" fill="white"/>
</clipPath>
</defs>
</svg>
