<svg width="20" height="20" viewBox="0 0 20 20" fill="none" xmlns="http://www.w3.org/2000/svg">
<g clip-path="url(#clip0_16021_4568)">
<path fill-rule="evenodd" clip-rule="evenodd" d="M15.9846 0.833313C16.8285 0.833419 17.638 1.16833 18.2347 1.76512C18.8315 2.36201 19.1667 3.17207 19.1666 4.01609C19.1664 4.85996 18.8307 5.66959 18.2339 6.26626L7.11089 17.3909C6.82111 17.6798 6.46474 17.8928 6.07329 18.0119L6.07248 18.0127L2.44536 19.1121L2.44292 19.1129C2.22696 19.1778 1.99753 19.1833 1.77886 19.1284C1.56001 19.0734 1.35994 18.9599 1.20024 18.8004C1.04059 18.641 0.926826 18.4414 0.871466 18.2226C0.816121 18.0039 0.821512 17.7739 0.886115 17.5578C0.886422 17.5567 0.886617 17.5555 0.886929 17.5545L1.988 13.9282V13.9258C2.10805 13.5343 2.32314 13.1782 2.613 12.889L13.7344 1.76512C14.3313 1.16839 15.1406 0.833219 15.9846 0.833313ZM15.9846 2.49998C15.5826 2.49993 15.1971 2.65935 14.9128 2.9435L3.79139 14.0674L3.78976 14.0682C3.69331 14.1644 3.62235 14.2831 3.58224 14.4132L3.58143 14.414L2.70822 17.2908L5.58826 16.4176C5.71859 16.378 5.8376 16.307 5.93413 16.2109L17.0555 5.08706C17.3398 4.80284 17.4998 4.41728 17.4999 4.01528C17.4999 3.6134 17.3405 3.22772 17.0564 2.9435C16.7722 2.65926 16.3865 2.50007 15.9846 2.49998Z" fill="black"/>
</g>
<defs>
<clipPath id="clip0_16021_4568">
<rect width="20" height="20" fill="white"/>
</clipPath>
</defs>
</svg>
