<svg width="58" height="58" viewBox="0 0 58 58" fill="none" xmlns="http://www.w3.org/2000/svg">
<g filter="url(#filter0_d_15202_8086)">
<g clip-path="url(#clip0_15202_8086)">
<path d="M0.0012207 0H58.0012V58H0.0012207V0Z" fill="#FF4500"/>
<path d="M20.4924 32.1786C20.4924 33.5861 21.637 34.7318 23.0429 34.7318C24.4488 34.7318 25.5937 33.5861 25.5937 32.1786C25.5937 30.7711 24.4492 29.6254 23.0429 29.6254C21.637 29.6254 20.4924 30.7711 20.4924 32.1786ZM35.4634 39.2244C35.6795 38.9901 35.6614 38.6112 35.427 38.3946C35.3475 38.3237 35.2503 38.2753 35.1457 38.2547C35.0411 38.2341 34.9329 38.242 34.8323 38.2775C33.1356 39.5007 31.097 40.1589 29.0053 40.1589C26.9136 40.1589 24.875 39.5007 23.1782 38.2775C23.1054 38.2519 23.0283 38.2409 22.9512 38.2452C22.8742 38.2495 22.7987 38.269 22.7292 38.3025C22.6597 38.336 22.5975 38.3829 22.5461 38.4405C22.4948 38.4981 22.4553 38.5653 22.43 38.6382C22.3581 38.8455 22.4029 39.0713 22.5472 39.2244C26.3961 42.0394 31.6238 42.0394 35.4634 39.2244ZM32.4257 32.1786C32.4257 33.5861 33.5703 34.7318 34.9766 34.7318C36.3825 34.7318 37.5274 33.5861 37.5274 32.1786C37.5274 30.7711 36.3829 29.6254 34.9766 29.6254C33.5707 29.6254 32.4257 30.7711 32.4257 32.1786ZM30.3076 14.1352C30.3552 13.9356 30.479 13.7626 30.6524 13.653C30.8259 13.5434 31.0353 13.506 31.236 13.5486L37.6175 14.965C37.808 14.5912 38.0895 14.2714 38.436 14.0349C38.7825 13.7984 39.1829 13.6529 39.6003 13.6116C40.9885 13.4674 42.2231 14.4778 42.3673 15.8671C42.5115 17.2563 41.502 18.4925 40.1142 18.6368C38.7265 18.781 37.4911 17.7706 37.3468 16.3813L31.5515 15.1007L29.5868 23.5358C33.363 23.5718 37.0313 24.7898 40.096 27.0092C40.2492 26.8468 40.4205 26.7025 40.6099 26.5762C42.2861 25.3852 44.6115 25.782 45.8013 27.4601C45.8736 27.5773 45.9366 27.6859 45.9997 27.812C46.9462 29.7155 46.171 32.0251 44.2601 32.9724C44.4419 34.597 44.1781 36.2405 43.4969 37.7266C42.8157 39.2126 41.7428 40.4852 40.3934 41.4079C37.0606 43.7415 33.0679 44.946 29.0006 44.845C24.9341 44.9416 20.9429 43.7374 17.6083 41.4079C16.2588 40.4852 15.186 39.2126 14.5048 37.7266C13.8236 36.2405 13.5598 34.597 13.7416 32.9724C13.6245 32.9094 13.5073 32.8464 13.3897 32.7741C11.5964 31.6373 11.0643 29.2554 12.2 27.4601C12.3264 27.2799 12.4795 27.1082 12.633 26.9458C14.102 25.5113 16.4634 25.5384 17.8963 27.0092C20.8666 24.8452 24.4254 23.6367 28.0993 23.5447L30.3076 14.1352Z" fill="white"/>
</g>
</g>
<defs>
<filter id="filter0_d_15202_8086" x="0" y="0" width="66" height="66" filterUnits="userSpaceOnUse" color-interpolation-filters="sRGB">
<feFlood flood-opacity="0" result="BackgroundImageFix"/>
<feColorMatrix in="SourceAlpha" type="matrix" values="0 0 0 0 0 0 0 0 0 0 0 0 0 0 0 0 0 0 127 0" result="hardAlpha"/>
<feOffset dx="4" dy="4"/>
<feGaussianBlur stdDeviation="2"/>
<feComposite in2="hardAlpha" operator="out"/>
<feColorMatrix type="matrix" values="0 0 0 0 0 0 0 0 0 0 0 0 0 0 0 0 0 0 0.02 0"/>
<feBlend mode="normal" in2="BackgroundImageFix" result="effect1_dropShadow_15202_8086"/>
<feBlend mode="normal" in="SourceGraphic" in2="effect1_dropShadow_15202_8086" result="shape"/>
</filter>
<clipPath id="clip0_15202_8086">
<path d="M0 16C0 7.16345 7.16344 0 16 0H42C50.8366 0 58 7.16344 58 16V42C58 50.8366 50.8366 58 42 58H16C7.16345 58 0 50.8366 0 42V16Z" fill="white"/>
</clipPath>
</defs>
</svg>
