<svg width="378" height="68" viewBox="0 0 378 68" fill="none" xmlns="http://www.w3.org/2000/svg">
<mask id="path-1-outside-1_16021_4031" maskUnits="userSpaceOnUse" x="0" y="-1" width="378" height="69" fill="black">
<rect fill="white" y="-1" width="378" height="69"/>
<path d="M0 0H378V36C378 53.6731 363.673 68 346 68H32C14.3269 68 0 53.6731 0 36V0Z"/>
</mask>
<path d="M0 0H378V36C378 53.6731 363.673 68 346 68H32C14.3269 68 0 53.6731 0 36V0Z" fill="white"/>
<path d="M2.01074 -1V1H0V-1H2.01074ZM10.0527 -1V1H6.03223V-1H10.0527ZM18.0957 -1V1H14.0742V-1H18.0957ZM26.1387 -1V1H22.1172V-1H26.1387ZM34.1807 -1V1H30.1592V-1H34.1807ZM42.2236 -1V1H38.2021V-1H42.2236ZM50.2656 -1V1H46.2451V-1H50.2656ZM58.3086 -1V1H54.2871V-1H58.3086ZM66.3506 -1V1H62.3301V-1H66.3506ZM74.3936 -1V1H70.3721V-1H74.3936ZM82.4365 -1V1H78.415V-1H82.4365ZM90.4785 -1V1H86.457V-1H90.4785ZM98.5215 -1V1H94.5V-1H98.5215ZM106.563 -1V1H102.543V-1H106.563ZM114.606 -1V1H110.585V-1H114.606ZM122.649 -1V1H118.628V-1H122.649ZM130.691 -1V1H126.67V-1H130.691ZM138.734 -1V1H134.713V-1H138.734ZM146.776 -1V1H142.755V-1H146.776ZM154.819 -1V1H150.798V-1H154.819ZM162.861 -1V1H158.841V-1H162.861ZM170.904 -1V1H166.883V-1H170.904ZM178.946 -1V1H174.926V-1H178.946ZM186.989 -1V1H182.968V-1H186.989ZM195.032 -1V1H191.011V-1H195.032ZM203.074 -1V1H199.053V-1H203.074ZM211.117 -1V1H207.096V-1H211.117ZM219.159 -1V1H215.139V-1H219.159ZM227.202 -1V1H223.181V-1H227.202ZM235.244 -1V1H231.224V-1H235.244ZM243.287 -1V1H239.266V-1H243.287ZM251.33 -1V1H247.309V-1H251.33ZM259.372 -1V1H255.351V-1H259.372ZM267.415 -1V1H263.394V-1H267.415ZM275.457 -1V1H271.436V-1H275.457ZM283.5 -1V1H279.479V-1H283.5ZM291.542 -1V1H287.521V-1H291.542ZM299.585 -1V1H295.563V-1H299.585ZM307.627 -1V1H303.606V-1H307.627ZM315.67 -1V1H311.648V-1H315.67ZM323.713 -1V1H319.691V-1H323.713ZM331.755 -1V1H327.733V-1H331.755ZM339.798 -1V1H335.776V-1H339.798ZM347.84 -1V1H343.819V-1H347.84ZM355.883 -1V1H351.861V-1H355.883ZM363.925 -1V1H359.904V-1H363.925ZM371.968 -1V1H367.946V-1H371.968ZM378 -1V1H375.989V-1H378Z" fill="#787880" fill-opacity="0.16" mask="url(#path-1-outside-1_16021_4031)"/>
<path fill-rule="evenodd" clip-rule="evenodd" d="M45.7486 34.9975L45.7241 35.1392V35.1465C45.6867 35.3568 45.6522 35.5569 45.609 35.7555C45.166 37.828 44.0239 39.3907 42.1684 40.3356C39.9072 41.4894 37.6604 41.3434 35.5258 39.953C35.0468 39.639 34.6253 39.2242 34.2154 38.8152C33.2876 37.8849 32.3641 36.9487 31.4407 36.0126L31.4349 36.0067C30.6941 35.256 29.9533 34.5039 29.2082 33.7546C28.7364 33.28 28.4905 32.7367 28.6113 32.059C28.7206 31.45 29.0802 31.0323 29.6441 30.7504L29.46 30.5605C29.3219 30.4174 29.1852 30.2787 29.0471 30.1414C28.7868 29.8873 28.5797 29.6025 28.4905 29.2403C28.2575 28.2807 28.7782 27.3577 29.7117 27.0773C29.7376 27.07 29.7635 27.0612 29.7922 27.051L29.8412 27.0349C29.752 26.3076 29.972 25.7029 30.5604 25.2706C31.153 24.8354 31.7873 24.8354 32.413 25.1392C32.4634 25.072 32.5123 25.0019 32.5612 24.9333L32.5655 24.926C32.6748 24.7697 32.7827 24.6149 32.915 24.4864C33.5753 23.8437 34.6109 23.8335 35.264 24.482C36.0695 25.2794 36.8649 26.0885 37.6604 26.8991C37.9941 27.2379 38.3264 27.5782 38.6615 27.9156C39.0355 28.2953 39.4095 28.6751 39.7849 29.0533C39.8166 29.0854 39.8525 29.1147 39.923 29.1293L39.8784 28.9321C39.8439 28.7831 39.8108 28.6356 39.7763 28.4881C39.7303 28.2953 39.6842 28.1025 39.6353 27.9112C39.5361 27.5067 39.4354 27.1021 39.3563 26.6932C39.1621 25.6913 39.8194 24.6996 40.7932 24.4834C41.8059 24.2585 42.8099 24.8646 43.0429 25.8738C43.3694 27.2905 43.7837 28.6751 44.3806 29.9997C44.5115 30.2874 44.6496 30.5722 44.7877 30.857C44.9114 31.1141 45.0366 31.3697 45.1559 31.6296C45.4695 32.3161 45.6493 33.0405 45.7356 33.7999C45.7486 34.1972 45.7486 34.5886 45.7486 34.9975ZM37.2447 29.953C37.4072 30.1166 37.4676 30.3093 37.3986 30.5372C37.3367 30.746 37.1871 30.8614 36.9858 30.8994C36.7786 30.9374 36.6146 30.8468 36.4708 30.6993C35.0094 29.214 33.5465 27.7301 32.0836 26.2477C31.7801 25.9395 31.3788 25.9322 31.0897 26.2229C30.8078 26.5062 30.8207 26.9268 31.1228 27.2321L35.5143 31.6764C35.7674 31.9319 35.7904 32.2635 35.5704 32.4869C35.3503 32.7119 35.0194 32.6987 34.7692 32.449C34.4311 32.1101 34.096 31.7684 33.7594 31.4281L32.5741 30.2305C31.9427 29.5922 31.3126 28.954 30.6797 28.3158C30.4007 28.0324 30.0166 28.0134 29.7405 28.2588C29.4111 28.5509 29.4154 28.9891 29.7548 29.3323L31.6075 31.2075C32.5008 32.1101 33.394 33.0127 34.2873 33.9168C34.5376 34.1694 34.5505 34.4878 34.329 34.7127C34.1089 34.9376 33.7896 34.9303 33.5436 34.6879C33.3797 34.5272 33.22 34.3637 33.0589 34.2001L32.8402 33.9781L32.2419 33.3735C31.7672 32.8944 31.294 32.4154 30.8222 31.9363C30.6035 31.7158 30.3518 31.6398 30.0655 31.7552C29.6024 31.9393 29.5017 32.5132 29.8642 32.8842C30.2712 33.299 30.6797 33.7108 31.0883 34.1241C31.3112 34.3476 31.5327 34.5725 31.7542 34.7974C32.1383 35.1859 32.5209 35.5744 32.9035 35.9644C33.7177 36.7925 34.5318 37.622 35.3575 38.4414C36.9814 40.0552 39.5174 40.4627 41.5455 39.4593C44.3749 38.0602 45.4997 34.6499 44.0556 31.8078C43.1465 30.0216 42.4503 28.1595 42.026 26.1937C41.9986 26.0666 41.9368 25.9381 41.8591 25.8344C41.6261 25.5204 41.2017 25.4298 40.8551 25.6022C40.4825 25.7862 40.3171 26.1805 40.4236 26.6201C40.7558 28.0061 41.0867 29.3922 41.4161 30.7782C41.4391 30.876 41.4506 30.987 41.429 31.0834C41.3413 31.4602 40.8752 31.7041 40.484 31.2996C40.0769 30.8789 39.667 30.4642 39.2556 30.0479L39.2527 30.045L38.791 29.5776C37.4015 28.1668 36.0119 26.756 34.6224 25.3466C34.3017 25.0209 33.9061 25.0005 33.617 25.2911C33.3264 25.5832 33.3423 25.9892 33.6587 26.3105C34.2413 26.9049 34.8267 27.4979 35.4179 28.0996L37.2447 29.953Z" fill="#040404"/>
<path d="M28 38.0338C28.0173 38.009 28.0345 37.9842 28.0503 37.9608C28.1093 37.8717 28.164 37.7885 28.2388 37.733C28.5135 37.527 28.8904 37.6541 29.04 38.0002C29.2773 38.5406 29.5923 39.0255 29.9951 39.4534C30.5345 40.0274 31.1731 40.4495 31.9067 40.7226C32.1268 40.8044 32.2462 40.9738 32.2606 41.2075C32.2735 41.4353 32.1671 41.6091 31.9686 41.7128C31.8032 41.8004 31.632 41.7756 31.4637 41.707C29.9131 41.0921 28.7883 40.0186 28.0877 38.4866C28.0676 38.4413 28.046 38.399 28.0129 38.3508C28 38.2485 28 38.1492 28 38.0338Z" fill="#040404"/>
<path d="M33.2243 39.4667C33.2143 39.2009 33.056 39.0242 32.7151 38.9132C32.2203 38.716 31.7989 38.4312 31.4364 38.0559C31.1257 37.7331 30.8912 37.3621 30.7071 36.9532C30.5863 36.6845 30.3187 36.572 30.0483 36.6596C29.8023 36.7414 29.6499 36.9985 29.7002 37.2672C29.7189 37.3607 29.7621 37.4512 29.8038 37.5388C30.3705 38.7175 31.258 39.5353 32.4792 39.972C32.8662 40.1093 33.2387 39.8537 33.2243 39.4667Z" fill="#040404"/>
<path d="M115.657 40.1371V29.8319H118.807V31.7101H118.914C119.099 31.0309 119.401 30.5256 119.821 30.1941C120.241 29.8596 120.73 29.6917 121.287 29.6917C121.438 29.6917 121.592 29.7019 121.752 29.7252C121.911 29.7428 122.059 29.772 122.196 29.8114V32.6638C122.041 32.6097 121.838 32.5674 121.586 32.5352C121.339 32.5046 121.117 32.4885 120.923 32.4885C120.538 32.4885 120.191 32.5761 119.882 32.7499C119.577 32.9208 119.335 33.1603 119.158 33.4685C118.985 33.7723 118.899 34.1301 118.899 34.5419V40.1371H115.657Z" fill="black"/>
<path d="M110.543 35.6884V29.8318H113.78V40.137H110.69V38.2179H110.584C110.358 38.8489 109.974 39.3498 109.43 39.7208C108.891 40.0874 108.238 40.2714 107.474 40.2714C106.779 40.2714 106.169 40.1093 105.643 39.788C105.116 39.4652 104.708 39.0168 104.416 38.4399C104.124 37.8572 103.976 37.1781 103.971 36.3996V29.8318H107.215V35.7555C107.219 36.3149 107.365 36.756 107.652 37.0773C107.94 37.4001 108.331 37.5607 108.826 37.5607C109.15 37.5607 109.439 37.4891 109.695 37.346C109.955 37.1985 110.161 36.9853 110.312 36.7078C110.466 36.4274 110.543 36.0871 110.543 35.6884Z" fill="black"/>
<path d="M97.3503 40.3314C96.2801 40.3314 95.361 40.1094 94.5914 39.6668C93.8276 39.2199 93.2364 38.5977 92.8207 37.8018C92.4108 37.0014 92.2051 36.074 92.2051 35.0181C92.2051 33.9621 92.4108 33.0304 92.8207 32.2344C93.2364 31.4326 93.8276 30.8119 94.5914 30.3693C95.361 29.921 96.2801 29.6975 97.3503 29.6975C98.4205 29.6975 99.3382 29.921 100.103 30.3693C100.872 30.8119 101.463 31.4326 101.874 32.2344C102.288 33.0304 102.497 33.9578 102.497 35.0181C102.497 36.0784 102.288 37.0014 101.874 37.8018C101.463 38.5977 100.872 39.2199 100.103 39.6668C99.3382 40.1094 98.4205 40.3314 97.3503 40.3314ZM97.3704 37.8558C97.7602 37.8558 98.0896 37.7346 98.3586 37.4936C98.629 37.2512 98.8333 36.9167 98.9757 36.4873C99.121 36.058 99.1943 35.5614 99.1943 34.9976C99.1943 34.4339 99.121 33.9242 98.9757 33.4948C98.8333 33.0654 98.629 32.731 98.3586 32.4885C98.0896 32.2475 97.7602 32.1263 97.3704 32.1263C96.9806 32.1263 96.6282 32.2475 96.3492 32.4885C96.0759 32.731 95.8658 33.0654 95.7191 33.4948C95.5782 33.9242 95.5077 34.4251 95.5077 34.9976C95.5077 35.5701 95.5782 36.058 95.7191 36.4873C95.8658 36.9167 96.0759 37.2512 96.3492 37.4936C96.6282 37.7346 96.9677 37.8558 97.3704 37.8558Z" fill="black"/>
<path d="M87.4756 29.8318H90.7178V40.5664C90.7178 41.415 90.5452 42.0912 90.2014 42.5921C89.8605 43.0931 89.3786 43.4524 88.7558 43.6714C88.1315 43.8905 87.3965 44.0001 86.5464 44.0001C86.4313 44.0001 86.3234 43.9986 86.2213 43.9942C86.1206 43.9898 86.0098 43.9854 85.8904 43.9811V41.4924C85.9696 41.5012 86.04 41.507 86.1019 41.5114C86.1652 41.5158 86.227 41.5187 86.2889 41.5187C86.7348 41.5187 87.0441 41.434 87.2167 41.2631C87.3893 41.0981 87.4756 40.8439 87.4756 40.4993V29.8318ZM89.0938 28.6313C88.6378 28.6313 88.2466 28.4794 87.92 28.1756C87.5921 27.866 87.4295 27.495 87.4295 27.0613C87.4295 26.6275 87.5921 26.2653 87.92 25.9615C88.2466 25.6533 88.6378 25.4985 89.0938 25.4985C89.5498 25.4985 89.9439 25.6533 90.2675 25.9615C90.5941 26.2653 90.758 26.6319 90.758 27.0613C90.758 27.4906 90.5941 27.866 90.2675 28.1756C89.9439 28.4794 89.5526 28.6313 89.0938 28.6313Z" fill="black"/>
<path d="M79.0695 34.2601V40.1371H75.8273V29.8319H78.9098V31.7232H79.0234C79.2493 31.0937 79.6333 30.5986 80.177 30.2408C80.7208 29.8786 81.368 29.6975 82.1203 29.6975C82.8726 29.6975 83.4581 29.8611 83.9831 30.1882C84.5139 30.5095 84.9252 30.9608 85.2172 31.5421C85.5136 32.1205 85.6588 32.7952 85.6545 33.5693V40.1371H82.4123V34.2134C82.4166 33.6408 82.2728 33.1925 81.9808 32.8712C81.6931 32.5484 81.2932 32.3877 80.7812 32.3877C80.4403 32.3877 80.1396 32.4637 79.8793 32.6156C79.6218 32.7631 79.4233 32.9763 79.2823 33.2538C79.1443 33.5313 79.0738 33.8658 79.0695 34.2601Z" fill="black"/>
<path d="M69.2063 40.3314C68.1361 40.3314 67.217 40.1094 66.4474 39.6668C65.6822 39.2199 65.0924 38.5977 64.6767 37.8018C64.2653 37.0014 64.0596 36.074 64.0596 35.0181C64.0596 33.9621 64.2653 33.0304 64.6767 32.2344C65.0924 31.4326 65.6822 30.8119 66.4474 30.3693C67.217 29.921 68.1361 29.6975 69.2063 29.6975C70.2765 29.6975 71.1942 29.921 71.958 30.3693C72.7275 30.8119 73.3173 31.4326 73.7287 32.2344C74.1444 33.0304 74.3529 33.9578 74.3529 35.0181C74.3529 36.0784 74.1444 37.0014 73.7287 37.8018C73.3173 38.5977 72.7275 39.2199 71.958 39.6668C71.1942 40.1094 70.2765 40.3314 69.2063 40.3314ZM69.2264 37.8558C69.6148 37.8558 69.9442 37.7346 70.2146 37.4936C70.4836 37.2512 70.6893 36.9167 70.8317 36.4873C70.977 36.058 71.0503 35.5614 71.0503 34.9976C71.0503 34.4339 70.977 33.9242 70.8317 33.4948C70.6893 33.0654 70.4836 32.731 70.2146 32.4885C69.9442 32.2475 69.6148 32.1263 69.2264 32.1263C68.838 32.1263 68.4828 32.2475 68.2051 32.4885C67.9304 32.731 67.7204 33.0654 67.5751 33.4948C67.4327 33.9242 67.3622 34.4251 67.3622 34.9976C67.3622 35.5701 67.4327 36.058 67.5751 36.4873C67.7204 36.9167 67.9304 37.2512 68.2051 37.4936C68.4828 37.7346 68.8237 37.8558 69.2264 37.8558Z" fill="black"/>
<path d="M52.2373 40.137V26.3967H57.9003C58.9173 26.3967 59.7674 26.5428 60.4535 26.8334C61.1425 27.1241 61.6604 27.5315 62.0056 28.0544C62.3537 28.5772 62.5292 29.1833 62.5292 29.8727C62.5292 30.3956 62.4213 30.8629 62.2041 31.2748C61.9869 31.6808 61.6891 32.0196 61.3094 32.2869C60.9282 32.5556 60.488 32.744 59.9889 32.8506V32.985C60.537 33.0113 61.0433 33.1617 61.5079 33.4348C61.9768 33.708 62.3522 34.0877 62.6356 34.5755C62.9175 35.0574 63.0599 35.63 63.0599 36.293C63.0599 37.0306 62.8744 37.6893 62.5018 38.272C62.1307 38.8489 61.5942 39.3046 60.8908 39.6405C60.1874 39.9705 59.3344 40.137 58.3319 40.137H52.2373ZM55.5198 37.46H57.5479C58.2599 37.46 58.785 37.3227 59.1201 37.051C59.461 36.7779 59.6308 36.3967 59.6308 35.9104C59.6308 35.5569 59.5488 35.2532 59.3862 34.9976C59.2222 34.7376 58.9892 34.539 58.6886 34.4002C58.388 34.2571 58.0284 34.1855 57.6083 34.1855H55.5198V37.46ZM55.5198 32.0459H57.3365C57.6946 32.0459 58.0125 31.986 58.2916 31.8648C58.5692 31.7436 58.7864 31.5698 58.9418 31.342C59.1 31.1127 59.1805 30.8381 59.1805 30.5168C59.1805 30.0553 59.018 29.6931 58.6958 29.4287C58.3736 29.1658 57.9377 29.0329 57.3897 29.0329H55.5198V32.0459Z" fill="black"/>
<path d="M127.947 26.9124L127.642 36.445H124.916L124.611 26.9124H127.947ZM126.275 40.8469C125.802 40.8469 125.396 40.676 125.056 40.3372C124.719 39.9969 124.552 39.585 124.552 39.1016C124.552 38.6182 124.719 38.2239 125.056 37.888C125.396 37.5477 125.802 37.3782 126.275 37.3782C126.749 37.3782 127.131 37.5477 127.476 37.888C127.826 38.2239 128 38.6284 128 39.1016C128 39.4244 127.918 39.7165 127.754 39.9808C127.596 40.2452 127.386 40.4555 127.124 40.6118C126.868 40.768 126.585 40.8469 126.275 40.8469Z" fill="#007AFF"/>
</svg>
