<svg width="14" height="14" viewBox="0 0 14 14" fill="none" xmlns="http://www.w3.org/2000/svg">
<path d="M10.0876 3.0876C10.3154 2.8598 10.6847 2.8598 10.9125 3.0876C11.1402 3.31541 11.1403 3.68468 10.9125 3.91247L7.82491 7.00004L10.9125 10.0876C11.1402 10.3154 11.1403 10.6847 10.9125 10.9125C10.6847 11.1403 10.3154 11.1402 10.0876 10.9125L7.00004 7.82491L3.91247 10.9125C3.68468 11.1403 3.31541 11.1402 3.0876 10.9125C2.8598 10.6847 2.8598 10.3154 3.0876 10.0876L6.17517 7.00004L3.0876 3.91247C2.8598 3.68467 2.8598 3.31541 3.0876 3.0876C3.31541 2.8598 3.68467 2.8598 3.91247 3.0876L7.00004 6.17517L10.0876 3.0876Z" fill="#8A8A8E"/>
</svg>
