<svg width="50" height="26" viewBox="0 0 50 26" fill="none" xmlns="http://www.w3.org/2000/svg">
<rect x="6" y="6" width="38" height="14" rx="5" stroke="#8E8E93" stroke-width="2"/>
<rect opacity="0.4" x="10" y="10" width="6" height="6" rx="2" fill="#8E8E93"/>
<path opacity="0.4" d="M18 11.5C18 11.2239 18.2239 11 18.5 11H23.5C23.7761 11 24 11.2239 24 11.5C24 11.7761 23.7761 12 23.5 12H18.5C18.2239 12 18 11.7761 18 11.5Z" fill="#8E8E93"/>
<path opacity="0.4" d="M18 14.5C18 14.2239 18.2239 14 18.5 14H39.5C39.7761 14 40 14.2239 40 14.5C40 14.7761 39.7761 15 39.5 15H18.5C18.2239 15 18 14.7761 18 14.5Z" fill="#8E8E93"/>
</svg>
