<svg width="58" height="58" viewBox="0 0 58 58" fill="none" xmlns="http://www.w3.org/2000/svg">
<g filter="url(#filter0_d_15202_8201)">
<g clip-path="url(#clip0_15202_8201)">
<path d="M0 16C0 7.16345 7.16344 0 16 0H42C50.8366 0 58 7.16344 58 16V42C58 50.8366 50.8366 58 42 58H16C7.16345 58 0 50.8366 0 42V16Z" fill="white"/>
<path d="M0.00128174 0H58.0013V58H0.00128174V0Z" fill="white"/>
<path d="M25.6828 42.5016C18.3189 42.3663 15.8033 42.2449 14.2578 41.9273C13.2116 41.7164 12.3028 41.2483 11.6367 40.5689C11.121 40.0547 10.7115 39.2706 10.394 38.1821C10.1214 37.2755 10.0151 36.5213 9.86353 34.6785C9.63205 30.5199 9.57661 27.1203 9.86353 23.3215C10.1001 21.2236 10.2152 18.7333 11.7879 17.2799C12.53 16.6001 13.3939 16.1627 14.3636 15.982C15.8789 15.695 22.3339 15.4686 29.0162 15.4686C35.6837 15.4686 42.1531 15.695 43.6695 15.982C44.8812 16.2085 46.0176 16.8878 46.6846 17.7635C48.1196 20.013 48.1444 22.8101 48.2902 24.9979C48.3503 26.0407 48.3503 31.9602 48.2902 33.0025C48.0633 36.4604 47.8811 37.6838 47.3662 38.9523C47.0475 39.753 46.7757 40.1757 46.305 40.6442C45.5664 41.3656 44.6256 41.8449 43.6079 42.0181C37.2354 42.4958 31.8242 42.5998 25.6828 42.5016ZM35.441 28.6074C31.8959 26.7189 28.5013 24.9681 25.0314 23.1552V33.9995C28.6827 32.0211 32.5322 30.2086 35.4561 28.5927L35.441 28.6074Z" fill="#CD201F"/>
</g>
<path d="M16 0.5H42C50.5604 0.5 57.5 7.43959 57.5 16V42C57.5 50.5604 50.5604 57.5 42 57.5H16C7.43959 57.5 0.5 50.5604 0.5 42V16C0.500001 7.43959 7.43959 0.5 16 0.5Z" stroke="#F2F2F7"/>
</g>
<defs>
<filter id="filter0_d_15202_8201" x="0" y="0" width="66" height="66" filterUnits="userSpaceOnUse" color-interpolation-filters="sRGB">
<feFlood flood-opacity="0" result="BackgroundImageFix"/>
<feColorMatrix in="SourceAlpha" type="matrix" values="0 0 0 0 0 0 0 0 0 0 0 0 0 0 0 0 0 0 127 0" result="hardAlpha"/>
<feOffset dx="4" dy="4"/>
<feGaussianBlur stdDeviation="2"/>
<feComposite in2="hardAlpha" operator="out"/>
<feColorMatrix type="matrix" values="0 0 0 0 0 0 0 0 0 0 0 0 0 0 0 0 0 0 0.02 0"/>
<feBlend mode="normal" in2="BackgroundImageFix" result="effect1_dropShadow_15202_8201"/>
<feBlend mode="normal" in="SourceGraphic" in2="effect1_dropShadow_15202_8201" result="shape"/>
</filter>
<clipPath id="clip0_15202_8201">
<path d="M0 16C0 7.16345 7.16344 0 16 0H42C50.8366 0 58 7.16344 58 16V42C58 50.8366 50.8366 58 42 58H16C7.16345 58 0 50.8366 0 42V16Z" fill="white"/>
</clipPath>
</defs>
</svg>
