<svg width="58" height="58" viewBox="0 0 58 58" fill="none" xmlns="http://www.w3.org/2000/svg">
<g filter="url(#filter0_d_15202_8098)">
<g clip-path="url(#clip0_15202_8098)">
<path d="M0 0H58V58H0V0Z" fill="black"/>
<path d="M29.0003 11.606C19.3927 11.606 11.6014 19.5926 11.6014 29.4439C11.6014 37.3261 16.5864 44.0102 23.4998 46.3701C24.37 46.5354 24.6899 45.9824 24.6899 45.5108C24.6899 45.0855 24.6725 43.6803 24.6653 42.1911C19.8245 43.2702 18.8041 40.0855 18.8041 40.0855C18.0127 38.0231 16.872 37.4748 16.872 37.4748C15.2936 36.3666 16.9921 36.391 16.9921 36.391C18.739 36.516 19.6587 38.2279 19.6587 38.2279C21.2118 40.9553 23.7302 40.1658 24.7225 39.7107C24.8791 38.5578 25.329 37.7703 25.8271 37.3246C21.9624 36.875 17.8996 35.3448 17.8996 28.5091C17.8996 26.562 18.5804 24.9699 19.692 23.7216C19.5111 23.2712 18.915 21.4578 19.8598 19.0012C19.8598 19.0012 21.3209 18.5215 24.6462 20.8297C26.0332 20.4355 27.5214 20.2366 28.9991 20.2299C30.478 20.2366 31.9687 20.4347 33.3579 20.8297C36.6788 18.5227 38.1386 19.0015 38.1386 19.0015C39.0846 21.4586 38.4911 23.2732 38.3101 23.7218C39.4257 24.9699 40.1005 26.562 40.1005 28.5091C40.1005 35.3607 36.0288 36.867 32.1556 37.3087C32.7798 37.8618 33.3373 38.9475 33.3373 40.6107C33.3373 42.9963 33.3174 44.919 33.3174 45.5056C33.3174 45.9804 33.6306 46.5354 34.513 46.3614C41.4229 44.0005 46.4014 37.3154 46.4014 29.438C46.4014 19.5881 38.6114 11.6 29.0018 11.6L29.0003 11.606Z" fill="white"/>
</g>
</g>
<defs>
<filter id="filter0_d_15202_8098" x="0" y="0" width="66" height="66" filterUnits="userSpaceOnUse" color-interpolation-filters="sRGB">
<feFlood flood-opacity="0" result="BackgroundImageFix"/>
<feColorMatrix in="SourceAlpha" type="matrix" values="0 0 0 0 0 0 0 0 0 0 0 0 0 0 0 0 0 0 127 0" result="hardAlpha"/>
<feOffset dx="4" dy="4"/>
<feGaussianBlur stdDeviation="2"/>
<feComposite in2="hardAlpha" operator="out"/>
<feColorMatrix type="matrix" values="0 0 0 0 0 0 0 0 0 0 0 0 0 0 0 0 0 0 0.02 0"/>
<feBlend mode="normal" in2="BackgroundImageFix" result="effect1_dropShadow_15202_8098"/>
<feBlend mode="normal" in="SourceGraphic" in2="effect1_dropShadow_15202_8098" result="shape"/>
</filter>
<clipPath id="clip0_15202_8098">
<path d="M0 16C0 7.16345 7.16344 0 16 0H42C50.8366 0 58 7.16344 58 16V42C58 50.8366 50.8366 58 42 58H16C7.16345 58 0 50.8366 0 42V16Z" fill="white"/>
</clipPath>
</defs>
</svg>
