<svg width="58" height="58" viewBox="0 0 58 58" fill="none" xmlns="http://www.w3.org/2000/svg">
<rect width="58" height="58" rx="12" fill="#13C3FF"/>
<path d="M42.1471 17.1364H13.945C12.0718 17.1364 11.8636 19.1893 11.8636 19.1893V38.076C11.8636 38.076 12.1758 42.1818 16.0263 42.1818H35.5909C39.8577 42.1818 39.7536 38.076 39.7536 38.076V35.4072H42.1471C44.6036 35.4072 46.9594 34.4447 48.6963 32.7315C50.4333 31.0183 51.4091 28.6947 51.4091 26.2718C51.4091 23.8489 50.4333 21.5253 48.6963 19.8121C46.9594 18.0988 44.6036 17.1364 42.1471 17.1364ZM42.1471 30.6855H39.7536V21.858H42.1471C43.334 21.858 44.4722 22.3231 45.3114 23.1508C46.1506 23.9785 46.622 25.1012 46.622 26.2718C46.622 27.4424 46.1506 28.565 45.3114 29.3928C44.4722 30.2205 43.334 30.6855 42.1471 30.6855Z" fill="white"/>
<path d="M13.9447 17.5367H42.1469C44.4989 17.5367 46.7539 18.4585 48.4154 20.0973C50.0766 21.7359 51.0092 23.9572 51.0092 26.2721C51.0091 28.587 50.0767 30.8083 48.4154 32.4469C46.7539 34.0857 44.4989 35.0074 42.1469 35.0074H39.3539V38.1188C39.3536 38.1439 39.3524 38.1828 39.35 38.233C39.345 38.3342 39.3333 38.4812 39.307 38.6588C39.2542 39.0162 39.1433 39.4867 38.9135 39.9518C38.6846 40.4148 38.341 40.8677 37.8226 41.2057C37.3059 41.5425 36.5907 41.7818 35.5912 41.7819H16.0267C14.2818 41.7819 13.3591 40.8678 12.8519 39.9371C12.5945 39.4647 12.4466 38.9877 12.3627 38.6266C12.321 38.447 12.2953 38.2984 12.2806 38.1959C12.2733 38.1449 12.2688 38.1054 12.266 38.0797C12.2652 38.0721 12.2645 38.0653 12.264 38.0602V19.2115C12.2655 19.2007 12.2677 19.1855 12.2709 19.1666C12.2787 19.1199 12.2916 19.0504 12.3129 18.9664C12.3559 18.7968 12.4299 18.5755 12.5511 18.358C12.7877 17.9337 13.192 17.5368 13.9447 17.5367ZM39.3539 31.0856H42.1469C43.438 31.0856 44.6775 30.5795 45.5922 29.6774C46.5069 28.7751 47.0218 27.5504 47.0219 26.2721C47.0219 24.9936 46.507 23.7682 45.5922 22.8658C44.6775 21.9638 43.4379 21.4576 42.1469 21.4576H39.3539V31.0856Z" stroke="black" stroke-opacity="0.8" stroke-width="0.8"/>
<path d="M33.5195 25.2336C32.5397 22.4431 27.3469 22.164 25.9752 25.5126C24.5056 22.164 19.4108 22.4431 18.431 25.2336C17.7451 27.0009 18.0391 28.4892 19.3128 30.2565C20.5865 32.0238 25.9752 36.2096 25.9752 36.2096C25.9752 36.2096 31.462 32.0238 32.6377 30.2565C33.8134 28.4892 34.1074 27.0009 33.5195 25.2336Z" fill="#FF5D5B"/>
</svg>
