<svg width="20" height="20" viewBox="0 0 20 20" fill="none" xmlns="http://www.w3.org/2000/svg">
<g clip-path="url(#clip0_16021_4158)">
<path fill-rule="evenodd" clip-rule="evenodd" d="M13.1836 5.84715C13.4502 5.79838 13.7273 5.88239 13.9225 6.07745C14.1455 6.30061 14.2232 6.63102 14.1235 6.93032L12.4568 11.9303C12.3739 12.179 12.179 12.3747 11.9303 12.4577L6.93032 14.1235C6.63099 14.2233 6.30064 14.1455 6.07745 13.9225C5.85446 13.6993 5.77672 13.369 5.87644 13.0696L7.5423 8.06964C7.62526 7.82098 7.82097 7.62607 8.06964 7.54311L13.0705 5.87644L13.1836 5.84715ZM8.99168 8.99087L7.98338 12.0158L11.0083 11.0075L12.0158 7.98338L8.99168 8.99087Z" fill="black"/>
<path fill-rule="evenodd" clip-rule="evenodd" d="M9.99998 0.833313C15.0626 0.833313 19.1666 4.93737 19.1666 9.99998C19.1666 15.0626 15.0626 19.1666 9.99998 19.1666C4.93737 19.1666 0.833313 15.0626 0.833313 9.99998C0.833313 4.93737 4.93737 0.833313 9.99998 0.833313ZM9.99998 2.49998C5.85784 2.49998 2.49998 5.85784 2.49998 9.99998C2.49998 14.1421 5.85784 17.5 9.99998 17.5C14.1421 17.5 17.5 14.1421 17.5 9.99998C17.5 5.85784 14.1421 2.49998 9.99998 2.49998Z" fill="black"/>
</g>
<defs>
<clipPath id="clip0_16021_4158">
<rect width="20" height="20" fill="white"/>
</clipPath>
</defs>
</svg>
