<svg width="10" height="10" viewBox="0 0 10 10" fill="none" xmlns="http://www.w3.org/2000/svg">
<g clip-path="url(#clip0_16021_4438)">
<path d="M2.0909 5.00006C2.0909 4.68256 2.14507 4.37798 2.2409 4.09256L0.558403 2.83423C0.220362 3.50609 0.0448162 4.24795 0.0459035 5.00006C0.0459035 5.7784 0.23007 6.51256 0.55757 7.16423L2.23924 5.90381C2.14118 5.61258 2.09108 5.30736 2.0909 5.00006Z" fill="#FBBC05"/>
<path d="M5.04561 2.11133C5.74977 2.11133 6.38602 2.35549 6.88602 2.75549L8.34061 1.33341C7.45436 0.577995 6.31811 0.111328 5.04561 0.111328C3.06977 0.111328 1.37144 1.21758 0.558105 2.83424L2.24144 4.09258C2.62894 2.94008 3.73394 2.11133 5.04561 2.11133Z" fill="#EA4335"/>
<path d="M5.04561 7.88872C3.73352 7.88872 2.62852 7.05997 2.24061 5.90747L0.558105 7.1658C1.37102 8.78247 3.06936 9.88872 5.04561 9.88872C6.26477 9.88872 7.42894 9.46497 8.30311 8.67039L6.70561 7.46122C6.25519 7.73914 5.68769 7.88872 5.04519 7.88872" fill="#34A853"/>
<path d="M9.81833 5.00008C9.81833 4.71133 9.77249 4.40008 9.70458 4.11133H5.04541V6.00008H7.72708C7.59333 6.64424 7.22833 7.13924 6.70624 7.46133L8.30333 8.67049C9.22124 7.83633 9.81833 6.59383 9.81833 5.00008Z" fill="#4285F4"/>
</g>
<defs>
<clipPath id="clip0_16021_4438">
<rect width="10" height="10" fill="white"/>
</clipPath>
</defs>
</svg>
