<svg width="16" height="16" viewBox="0 0 16 16" fill="none" xmlns="http://www.w3.org/2000/svg">
<path d="M3.33333 6.66667C4.06971 6.66667 4.66667 7.26363 4.66667 8.00001C4.66667 8.73638 4.06971 9.33334 3.33333 9.33334C2.59695 9.33334 2 8.73638 2 8.00001C2 7.26363 2.59695 6.66667 3.33333 6.66667Z" fill="#007AFF"/>
<path d="M8 6.66667C8.73638 6.66667 9.33333 7.26363 9.33333 8.00001C9.33333 8.73638 8.73638 9.33334 8 9.33334C7.26362 9.33334 6.66667 8.73638 6.66667 8.00001C6.66667 7.26363 7.26362 6.66667 8 6.66667Z" fill="#007AFF"/>
<path d="M12.6667 6.66667C13.403 6.66667 14 7.26363 14 8.00001C14 8.73638 13.403 9.33334 12.6667 9.33334C11.9303 9.33334 11.3333 8.73638 11.3333 8.00001C11.3333 7.26363 11.9303 6.66667 12.6667 6.66667Z" fill="#007AFF"/>
</svg>
