<svg width="58" height="58" viewBox="0 0 58 58" fill="none" xmlns="http://www.w3.org/2000/svg">
<g filter="url(#filter0_d_15202_8170)">
<g clip-path="url(#clip0_15202_8170)">
<path d="M0 0H58V58H0V0Z" fill="#0F88EB"/>
<path d="M31.4622 40.3303L33.8717 40.3311L34.665 43.0284L38.9864 40.3311H44.0808V18.0782H31.4622V40.3303ZM34.0265 20.4945H41.5169V37.9151H38.6432L35.7736 39.7066L35.2513 37.9195L34.0265 37.9159V20.4945ZM29.3319 28.2598H23.9498C24.1293 25.4883 24.176 22.9835 24.176 20.7461H29.4385C29.4385 20.7461 29.6408 18.4382 28.5562 18.4642H19.453C19.812 17.1224 20.2629 15.7372 20.8028 14.3046C20.8028 14.3046 18.3264 14.3046 17.483 16.5108C17.134 17.4207 16.1244 20.9235 14.3258 24.5013C14.9316 24.4356 16.935 24.3801 18.1153 22.2294C18.3323 21.627 18.3735 21.5487 18.6435 20.7435H21.6124C21.6124 21.8169 21.4895 27.5847 21.4395 28.2554H16.0637C14.8558 28.2554 14.463 30.6714 14.463 30.6714H21.2085C20.7561 35.7721 18.3271 40.0702 13.9208 43.4677C16.0284 44.0661 18.1289 43.3729 19.1668 42.455C19.1668 42.455 21.5307 40.3175 22.8272 35.3714L28.3778 42.0145C28.3778 42.0145 29.1917 39.2643 28.2501 37.9239C27.47 37.0115 25.364 34.5427 24.4662 33.6478L22.9619 34.8351C23.4106 33.405 23.6802 32.0165 23.7714 30.6747H30.1123C30.1123 30.6747 30.1043 28.2587 29.3319 28.2587V28.2598Z" fill="white"/>
</g>
</g>
<defs>
<filter id="filter0_d_15202_8170" x="0" y="0" width="66" height="66" filterUnits="userSpaceOnUse" color-interpolation-filters="sRGB">
<feFlood flood-opacity="0" result="BackgroundImageFix"/>
<feColorMatrix in="SourceAlpha" type="matrix" values="0 0 0 0 0 0 0 0 0 0 0 0 0 0 0 0 0 0 127 0" result="hardAlpha"/>
<feOffset dx="4" dy="4"/>
<feGaussianBlur stdDeviation="2"/>
<feComposite in2="hardAlpha" operator="out"/>
<feColorMatrix type="matrix" values="0 0 0 0 0 0 0 0 0 0 0 0 0 0 0 0 0 0 0.02 0"/>
<feBlend mode="normal" in2="BackgroundImageFix" result="effect1_dropShadow_15202_8170"/>
<feBlend mode="normal" in="SourceGraphic" in2="effect1_dropShadow_15202_8170" result="shape"/>
</filter>
<clipPath id="clip0_15202_8170">
<path d="M0 16C0 7.16345 7.16344 0 16 0H42C50.8366 0 58 7.16344 58 16V42C58 50.8366 50.8366 58 42 58H16C7.16345 58 0 50.8366 0 42V16Z" fill="white"/>
</clipPath>
</defs>
</svg>
