<svg width="22" height="22" viewBox="0 0 22 22" fill="none" xmlns="http://www.w3.org/2000/svg">
<g clip-path="url(#clip0_16021_3971)">
<path d="M11 10.0833C11.5063 10.0833 11.9167 10.4937 11.9167 11V14.6667C11.9167 15.1729 11.5063 15.5833 11 15.5833C10.4938 15.5833 10.0834 15.1729 10.0834 14.6667V11C10.0834 10.4937 10.4938 10.0833 11 10.0833Z" fill="black"/>
<path d="M11.009 6.41667C11.5153 6.41667 11.9257 6.82707 11.9257 7.33333C11.9257 7.83959 11.5153 8.25 11.009 8.25H11C10.4938 8.25 10.0834 7.83959 10.0834 7.33333C10.0834 6.82707 10.4938 6.41667 11 6.41667H11.009Z" fill="black"/>
<path fill-rule="evenodd" clip-rule="evenodd" d="M11 0.921143C11.7694 0.921151 12.5265 1.11472 13.2013 1.48421C13.6954 1.75479 14.1336 2.11347 14.4957 2.54053C15.0571 2.49166 15.6251 2.54649 16.1697 2.70435C16.912 2.91956 17.5881 3.31888 18.1346 3.8654C18.6812 4.41193 19.0805 5.08799 19.2957 5.83032C19.4536 6.37494 19.5084 6.94292 19.4595 7.50431C19.8866 7.8664 20.2453 8.30461 20.5158 8.79875C20.8853 9.47358 21.0789 10.2306 21.0789 11C21.0789 11.7694 20.8853 12.5264 20.5158 13.2013C20.2452 13.6955 19.8867 14.1344 19.4595 14.4966C19.5079 15.0567 19.453 15.6228 19.2957 16.1661C19.081 16.9073 18.6824 17.583 18.1373 18.1292C17.5923 18.6754 16.9176 19.075 16.1769 19.2912C15.6338 19.4496 15.0676 19.5058 14.5074 19.4586C14.1451 19.8879 13.7057 20.2482 13.2102 20.5203C12.5343 20.8914 11.7757 21.086 11.0045 21.086C10.2334 21.086 9.47475 20.8914 8.79879 20.5203C8.30369 20.2484 7.86468 19.8884 7.50256 19.4595C6.94284 19.5077 6.37694 19.4529 5.83394 19.2957C5.09271 19.081 4.41705 18.6824 3.87081 18.1373C3.32465 17.5922 2.92506 16.9175 2.70886 16.1768C2.55054 15.6343 2.49442 15.0688 2.54146 14.5091C2.11033 14.1468 1.7486 13.7066 1.4753 13.2102C1.10253 12.5331 0.906864 11.7729 0.90686 11C0.90686 10.2271 1.10254 9.4669 1.4753 8.78979C1.7486 8.29341 2.11033 7.85316 2.54146 7.49089C2.49442 6.93115 2.55054 6.36574 2.70886 5.82316C2.92506 5.08246 3.32466 4.40778 3.87081 3.86271C4.41705 3.31761 5.09271 2.91902 5.83394 2.70435C6.3773 2.54702 6.94337 2.49211 7.50346 2.54053C7.86562 2.11329 8.30448 1.75487 8.79879 1.48421C9.47362 1.11471 10.2307 0.921143 11 0.921143ZM11 2.75448C10.5386 2.75448 10.0844 2.87041 9.67965 3.09196C9.27478 3.31364 8.93198 3.63407 8.68331 4.02295C8.47559 4.34781 8.0865 4.50833 7.71025 4.42399C7.25844 4.3227 6.78804 4.33637 6.3433 4.46517C5.89866 4.59399 5.49382 4.83373 5.16614 5.16073C4.83856 5.48768 4.59852 5.89184 4.46879 6.3361C4.33906 6.78057 4.32368 7.25103 4.42403 7.70304C4.50775 8.08028 4.3459 8.46943 4.01941 8.67611C3.62762 8.92405 3.30494 9.26721 3.08126 9.67334C2.85757 10.0796 2.74019 10.5362 2.74019 11C2.7402 11.4638 2.85757 11.9204 3.08126 12.3267C3.30494 12.7328 3.62763 13.076 4.01941 13.3239C4.3459 13.5306 4.50777 13.9197 4.42403 14.297C4.32368 14.749 4.33906 15.2194 4.46879 15.6639C4.59853 16.1082 4.83856 16.5123 5.16614 16.8393C5.49382 17.1663 5.89865 17.406 6.3433 17.5348C6.78804 17.6636 7.25844 17.6773 7.71025 17.576C8.08727 17.4915 8.47682 17.6528 8.6842 17.9788C8.93256 18.3693 9.27585 18.6907 9.68144 18.9134C10.0869 19.136 10.542 19.2527 11.0045 19.2527C11.4672 19.2527 11.9229 19.1361 12.3285 18.9134C12.7339 18.6907 13.0765 18.3691 13.3248 17.9788C13.5318 17.6534 13.9205 17.4924 14.297 17.576C14.749 17.6764 15.2195 17.661 15.6639 17.5312C16.1082 17.4015 16.5124 17.1615 16.8393 16.8339C17.1664 16.5062 17.4061 16.1006 17.5349 15.6558C17.6635 15.2113 17.6773 14.7414 17.576 14.2898C17.4917 13.9135 17.6522 13.5245 17.9771 13.3167C18.366 13.0681 18.6864 12.7253 18.9081 12.3204C19.1296 11.9156 19.2456 11.4615 19.2456 11C19.2456 10.5385 19.1296 10.0844 18.9081 9.67961C18.6864 9.27475 18.366 8.93194 17.9771 8.68327C17.652 8.47543 17.4914 8.08572 17.576 7.70931C17.6777 7.25691 17.664 6.78592 17.5349 6.34058C17.4057 5.89526 17.1663 5.48949 16.8384 5.16162C16.5106 4.83377 16.1048 4.59431 15.6595 4.46517C15.214 4.33605 14.7423 4.32136 14.2898 4.4231C13.9135 4.50757 13.5246 4.34791 13.3168 4.02295C13.0681 3.63405 12.7253 3.31365 12.3204 3.09196C11.9156 2.87039 11.4615 2.75448 11 2.75448Z" fill="black"/>
</g>
<defs>
<clipPath id="clip0_16021_3971">
<rect width="22" height="22" fill="white"/>
</clipPath>
</defs>
</svg>
