<svg width="58" height="58" viewBox="0 0 58 58" fill="none" xmlns="http://www.w3.org/2000/svg">
<g filter="url(#filter0_d_15202_8155)">
<g clip-path="url(#clip0_15202_8155)">
<path d="M0.00183105 0H58.0018V58H0.00183105V0Z" fill="#FF2442"/>
<path d="M38.4956 21.6509H41.0331V22.5718C41.0333 22.6447 41.0682 22.68 41.1378 22.6779C42.6426 22.6322 44.1587 22.6811 44.9353 24.2451C45.3975 25.1725 45.3024 26.583 45.2769 27.6898C45.2755 27.755 45.3055 27.791 45.367 27.7977C45.5443 27.8138 45.7167 27.83 45.8842 27.8516C48.8761 28.2154 48.2847 31.0742 48.2943 33.3204C48.2993 34.104 48.2123 34.677 48.0368 35.043C47.666 35.8003 47.0023 36.2346 46.0452 36.3424H44.1797L43.2258 34.0994C43.2209 34.0884 43.2188 34.0765 43.2197 34.0645C43.2205 34.0525 43.2243 34.0409 43.2307 34.0307C43.2371 34.021 43.2456 34.0129 43.2557 34.0073C43.2658 34.0017 43.277 33.9986 43.2885 33.9984L45.3123 33.9966C45.4252 33.9966 45.5312 33.9473 45.6086 33.8625C45.6868 33.777 45.7295 33.6642 45.7277 33.5476C45.7177 32.863 45.714 32.1783 45.7167 31.4936C45.7167 30.8782 45.4298 30.563 44.8515 30.5468C44.1974 30.5303 42.9583 30.5303 41.1328 30.5501C41.0685 30.5503 41.0363 30.5856 41.0363 30.6561L41.0267 36.3424H38.4925L38.4843 30.6317C38.4846 30.6182 38.4825 30.6048 38.4779 30.5921C38.4677 30.5672 38.4485 30.547 38.4243 30.5357C38.4122 30.5304 38.3992 30.5275 38.386 30.5271H36.0174C35.9882 30.5259 35.9605 30.5134 35.9401 30.4921C35.9198 30.4708 35.9083 30.4424 35.9082 30.4127L35.9114 27.9281C35.9114 27.8445 35.95 27.8026 36.0274 27.8023L38.3683 27.8074C38.3835 27.8075 38.3985 27.8044 38.4124 27.7982C38.4263 27.792 38.4387 27.7829 38.4488 27.7714C38.4699 27.7484 38.4815 27.718 38.4811 27.6866V25.5381C38.482 25.5007 38.4682 25.4644 38.4428 25.4372C38.4175 25.41 38.3825 25.3941 38.3456 25.3929L36.9004 25.3993C36.8252 25.3989 36.7877 25.3586 36.7879 25.2786L36.783 22.7803C36.783 22.707 36.8149 22.6714 36.8876 22.6714H38.3843C38.4488 22.6714 38.4811 22.6387 38.4811 22.5686L38.4971 21.6509H38.4956ZM41.1232 27.8106L42.6972 27.807C42.71 27.8069 42.7226 27.8041 42.7343 27.7988C42.7459 27.7935 42.7564 27.7857 42.7649 27.7761C42.7739 27.7665 42.781 27.7552 42.7857 27.7429C42.7904 27.7306 42.7926 27.7174 42.7923 27.7042L42.7845 25.7078C42.7845 25.551 42.6717 25.4238 42.5347 25.4238L41.2715 25.427C41.2377 25.4276 41.2044 25.4354 41.1738 25.45C41.1432 25.4647 41.116 25.4857 41.0941 25.5118C41.0462 25.5686 41.0204 25.6413 41.0218 25.716L41.0299 27.7125C41.0299 27.7682 41.0732 27.8106 41.1232 27.8106ZM24.8413 27.9903C24.229 28.0015 23.1219 28.1747 22.8803 27.3764C22.7338 26.8997 23.0658 26.2351 23.267 25.7696C23.8404 24.4454 24.4033 23.1166 24.9556 21.7832C24.9783 21.729 25.0169 21.7018 25.0716 21.7016H27.493C27.5143 21.7016 27.532 21.7131 27.5413 21.7307C27.5469 21.7392 27.5505 21.7491 27.5517 21.7593C27.5529 21.7696 27.5516 21.78 27.548 21.7896L26.1461 25.1085C26.1304 25.1463 26.1239 25.1874 26.127 25.2282C26.1301 25.2691 26.1427 25.3087 26.1638 25.3436C26.1841 25.3772 26.2125 25.405 26.2463 25.4245C26.2801 25.444 26.3182 25.4545 26.3571 25.4551H28.4324C28.4583 25.4551 28.4806 25.468 28.4952 25.4892C28.5018 25.5001 28.5057 25.5125 28.5066 25.5252C28.5074 25.538 28.5052 25.5508 28.5001 25.5625C27.9006 26.9781 27.3029 28.3837 26.7069 29.7794C26.6473 29.9184 26.622 30.0207 26.631 30.0864C26.6523 30.2285 26.7307 30.3004 26.8662 30.302L28.1794 30.3099C28.255 30.3117 28.2795 30.3495 28.2486 30.4242L27.3997 32.4487C27.388 32.4823 27.3661 32.5112 27.3372 32.5314C27.3083 32.5516 27.2738 32.5621 27.2387 32.5612C25.9048 32.5778 24.9719 32.5778 24.4398 32.5533C23.56 32.5124 23.3443 31.732 23.6859 30.9271L24.8928 28.0734C24.8983 28.0598 24.8988 28.0446 24.8941 28.0307C24.8895 28.0168 24.8801 28.005 24.8676 27.9975C24.859 27.9927 24.8493 27.9902 24.8396 27.9903H24.8413ZM14.7795 36.3421H13.8288L12.8979 34.1267C12.8933 34.116 12.8913 34.1043 12.8921 34.0927C12.8929 34.081 12.8965 34.0698 12.9025 34.0598C12.9081 34.05 12.9161 34.0418 12.9257 34.036C12.9354 34.0303 12.9463 34.0272 12.9575 34.0271L14.2722 34.0235C14.3126 34.0228 14.3525 34.014 14.3896 33.9975C14.4266 33.9811 14.4601 33.9575 14.4881 33.9279C14.5162 33.8984 14.5381 33.8635 14.5528 33.8253C14.5675 33.7871 14.5746 33.7464 14.5737 33.7054L14.6092 21.9557C14.6087 21.9406 14.6112 21.9255 14.6166 21.9113C14.6219 21.8972 14.63 21.8843 14.6403 21.8733C14.6507 21.8624 14.6631 21.8536 14.6768 21.8476C14.6905 21.8415 14.7053 21.8383 14.7202 21.8382H16.982C17.0882 21.8386 17.1419 21.8953 17.1431 22.0082C17.1526 25.9862 17.1526 29.8968 17.1431 33.7399C17.1367 35.3169 16.4148 36.3942 14.7795 36.3421Z" fill="white"/>
<path d="M35.9979 36.3428H27.4178L28.5679 33.714C28.5793 33.6835 28.6 33.6574 28.6269 33.6395C28.6539 33.6217 28.6857 33.6129 28.7179 33.6145L30.8187 33.6181C30.8934 33.6183 30.931 33.5801 30.9315 33.5034V25.5287C30.9315 25.4604 30.8993 25.4262 30.835 25.4259L29.4412 25.4241C29.3785 25.4241 29.3284 25.3688 29.3284 25.3019V22.7436C29.3284 22.7045 29.3575 22.6717 29.3944 22.6717H35.0752C35.1457 22.6717 35.1807 22.7094 35.1802 22.7846L35.1834 25.3152C35.1834 25.3888 35.148 25.4257 35.077 25.4259H33.6722C33.6077 25.4259 33.5754 25.4602 33.5754 25.5287V33.4987C33.5754 33.5753 33.6126 33.613 33.6832 33.613L35.9099 33.6177C35.9714 33.6177 36.0021 33.6504 36.0018 33.7158L35.9983 36.3442L35.9979 36.3428ZM46.218 22.9198C47.9708 21.6983 49.2049 24.8116 47.2847 25.3454C46.9718 25.4336 46.4745 25.4391 45.7927 25.362C45.7313 25.3555 45.7026 25.321 45.7026 25.2559C45.6926 24.5212 45.5493 23.3849 46.218 22.9212V22.9198ZM22.0201 32.0735L20.8601 34.8115C20.7554 35.0559 20.6408 35.0609 20.5135 34.8309C19.6596 33.2669 19.3698 31.9901 19.202 30.0457C19.0737 28.5358 18.9614 27.0246 18.8654 25.5122C18.8621 25.4437 18.8927 25.4094 18.9572 25.4094L21.3078 25.4108C21.3741 25.4108 21.411 25.4468 21.4159 25.5151C21.537 27.2755 21.6638 29.0306 21.7962 30.7805C21.8301 31.2312 21.9051 31.6051 22.0215 31.902C22.0328 31.9292 22.0386 31.9584 22.0383 31.9879C22.0381 32.0174 22.0319 32.0465 22.0201 32.0735ZM9.66907 31.9721V31.8596C9.77939 31.7075 9.8514 31.5303 9.87836 31.3437C10.0522 29.4009 10.1941 27.4598 10.3055 25.5169C10.3104 25.4565 10.3392 25.4256 10.3956 25.4256H12.7965C12.8174 25.4256 12.8383 25.4353 12.8543 25.4533C12.8691 25.4704 12.8766 25.4927 12.8752 25.5154C12.7487 27.3056 12.6075 29.0944 12.4517 30.8818C12.3388 32.1795 11.9295 33.9168 11.0738 34.9696C11.0192 35.0365 10.9724 35.03 10.9369 34.9484L9.66907 31.9721ZM26.0414 36.3428H22.5646L22.1215 36.1648C22.0584 36.1402 22.0412 36.0961 22.0701 36.0326L23.1606 33.502C23.1925 33.4281 23.2452 33.4009 23.3188 33.4204C24.5107 33.7485 25.8917 33.613 27.111 33.6181C27.1866 33.6197 27.2082 33.6566 27.1755 33.7288L26.0414 36.341V36.3428Z" fill="white"/>
</g>
</g>
<defs>
<filter id="filter0_d_15202_8155" x="0" y="0" width="66" height="66" filterUnits="userSpaceOnUse" color-interpolation-filters="sRGB">
<feFlood flood-opacity="0" result="BackgroundImageFix"/>
<feColorMatrix in="SourceAlpha" type="matrix" values="0 0 0 0 0 0 0 0 0 0 0 0 0 0 0 0 0 0 127 0" result="hardAlpha"/>
<feOffset dx="4" dy="4"/>
<feGaussianBlur stdDeviation="2"/>
<feComposite in2="hardAlpha" operator="out"/>
<feColorMatrix type="matrix" values="0 0 0 0 0 0 0 0 0 0 0 0 0 0 0 0 0 0 0.02 0"/>
<feBlend mode="normal" in2="BackgroundImageFix" result="effect1_dropShadow_15202_8155"/>
<feBlend mode="normal" in="SourceGraphic" in2="effect1_dropShadow_15202_8155" result="shape"/>
</filter>
<clipPath id="clip0_15202_8155">
<path d="M0 16C0 7.16345 7.16344 0 16 0H42C50.8366 0 58 7.16344 58 16V42C58 50.8366 50.8366 58 42 58H16C7.16345 58 0 50.8366 0 42V16Z" fill="white"/>
</clipPath>
</defs>
</svg>
