<svg width="58" height="58" viewBox="0 0 58 58" fill="none" xmlns="http://www.w3.org/2000/svg">
<g filter="url(#filter0_d_15202_8222)">
<g clip-path="url(#clip0_15202_8222)">
<path d="M-0.00128174 0H57.9987V58H-0.00128174V0Z" fill="#FFDD00"/>
<path d="M29.8016 27.6571C28.555 28.1921 27.1401 28.7991 25.3065 28.7991C24.5395 28.7977 23.7762 28.6922 23.0376 28.4855L24.3056 41.5401C24.3504 42.0853 24.5982 42.5939 25.0001 42.9654C25.4014 43.3358 25.9277 43.5415 26.4741 43.5416C26.4741 43.5416 28.2722 43.6355 28.8719 43.6355C29.5177 43.6355 31.454 43.5416 31.454 43.5416C31.9997 43.5416 32.5257 43.3358 32.9272 42.9654C33.3292 42.5939 33.577 42.0853 33.6217 41.5401L34.98 27.1145C34.3732 26.9064 33.7603 26.7684 33.0696 26.7684C31.8754 26.768 30.913 27.1796 29.8016 27.6571Z" fill="white"/>
<path d="M40.8779 20.8844L40.6873 19.9186C40.5157 19.052 40.1269 18.2333 39.2398 17.9201C38.9555 17.8198 38.6326 17.7768 38.4146 17.5695C38.1966 17.3618 38.1322 17.04 38.082 16.741C37.9883 16.1929 37.9007 15.6443 37.8048 15.0969C37.7224 14.6265 37.6568 14.0978 37.4418 13.6664C37.1616 13.0867 36.5802 12.7477 36.0026 12.5236C35.7063 12.4128 35.4039 12.3191 35.0968 12.243C33.6528 11.8605 32.1345 11.7202 30.6489 11.6401C28.8657 11.5411 27.0776 11.5709 25.2986 11.7292C23.9748 11.8497 22.5802 11.996 21.3215 12.4551C20.8619 12.6235 20.3881 12.8252 20.0382 13.181C19.6093 13.6188 19.4688 14.2961 19.7823 14.8417C20.0052 15.2293 20.3824 15.5032 20.7825 15.6847C21.3036 15.9181 21.8479 16.0957 22.4064 16.2146C23.9609 16.5588 25.5717 16.6943 27.16 16.7519C28.9205 16.823 30.6838 16.7654 32.4357 16.579C32.8695 16.5312 33.3021 16.474 33.7333 16.4073C34.2416 16.3291 34.5679 15.6626 34.4181 15.1983C34.239 14.643 33.7569 14.4275 33.2119 14.5113C33.132 14.5237 33.0519 14.5358 32.9718 14.5476L32.9137 14.5558C32.7292 14.5792 32.5446 14.6011 32.3601 14.6213C31.9787 14.6624 31.5965 14.6961 31.2134 14.7223C30.3552 14.7822 29.4948 14.8099 28.6347 14.8114C27.7896 14.8114 26.9442 14.7874 26.101 14.7317C25.7166 14.7065 25.3327 14.6744 24.9495 14.6355C24.7754 14.6173 24.6016 14.5976 24.428 14.5764L24.2628 14.5554L24.2269 14.5502L24.0553 14.5255C23.7047 14.4734 23.3557 14.4111 23.0087 14.3384C22.9736 14.3307 22.9421 14.3112 22.9196 14.2831C22.8971 14.2551 22.8849 14.2202 22.8851 14.1842C22.8849 14.1483 22.8971 14.1134 22.9196 14.0853C22.9421 14.0573 22.9736 14.0378 23.0087 14.0301H23.0151C23.3157 13.9665 23.6179 13.911 23.9216 13.8636C24.0225 13.8473 24.1239 13.8316 24.2258 13.8164H24.2288C24.4187 13.8041 24.6097 13.7696 24.7985 13.7472C26.4437 13.5751 28.0989 13.5166 29.7521 13.5721C30.5548 13.5939 31.3565 13.6447 32.1555 13.7244C32.3273 13.7421 32.4985 13.7613 32.6691 13.782L32.8661 13.8074L32.9987 13.8261C33.3853 13.884 33.7699 13.9542 34.1525 14.0368C34.7192 14.1603 35.4471 14.2003 35.6996 14.823C35.7793 15.0205 35.8157 15.2402 35.8606 15.4479L35.9168 15.712L35.9206 15.727C36.0537 16.3506 36.1873 16.9748 36.3214 17.5994C36.3316 17.6455 36.332 17.6932 36.3226 17.7394C36.3131 17.7856 36.2941 17.8293 36.2667 17.8677C36.2397 17.9062 36.2051 17.9387 36.165 17.9633C36.1249 17.9878 36.0802 18.004 36.0337 18.0107H36.0299L35.9483 18.0219L35.8674 18.0331C35.6114 18.0663 35.3552 18.0975 35.0987 18.1267C34.5938 18.184 34.0878 18.2339 33.5809 18.2763C32.5739 18.3601 31.565 18.4152 30.5541 18.4413C30.0389 18.4551 29.524 18.4616 29.0093 18.4608C26.9601 18.4588 24.9127 18.3394 22.8772 18.1031C22.6566 18.0765 22.4361 18.0488 22.2157 18.02C22.3865 18.0425 22.0917 18.0032 22.0321 17.9949C21.8918 17.9752 21.7516 17.9548 21.6115 17.9336C21.1414 17.8629 20.6742 17.7757 20.2049 17.6993C19.6377 17.6058 19.095 17.6526 18.5818 17.9336C18.1601 18.1648 17.8192 18.5193 17.6048 18.9495C17.3834 19.4082 17.3175 19.9078 17.2186 20.4006C17.1197 20.8934 16.9654 21.424 17.0238 21.9303C17.1497 23.0225 17.9109 23.9097 19.0066 24.1084C24.4188 25.0771 29.9426 25.2607 35.4074 24.6536C35.5112 24.6421 35.6163 24.6541 35.7148 24.6887C35.8134 24.7233 35.9029 24.7796 35.9768 24.8534C36.051 24.9273 36.1078 25.0169 36.143 25.1156C36.1782 25.2142 36.1909 25.3195 36.1802 25.4237L36.0764 26.434L34.7923 38.9875L34.6054 40.7982C34.5454 41.392 34.5372 42.0053 34.4248 42.5924C34.2473 43.5152 33.6239 44.0824 32.7144 44.2897C31.8812 44.4797 31.03 44.5796 30.1754 44.5876C29.2281 44.5924 28.2815 44.5505 27.3341 44.5554C26.3227 44.561 25.084 44.4678 24.3037 43.7127C23.6174 43.0501 23.5226 42.0121 23.4294 41.1148C23.305 39.9268 23.1816 38.7388 23.0593 37.5506L22.3726 30.9455L21.9288 26.6716L21.9067 26.4601C21.8535 25.9501 21.4935 25.451 20.9263 25.4768C20.4409 25.4985 19.8887 25.9123 19.946 26.4601L20.2749 29.6284L20.9556 36.1826C21.1496 38.0446 21.3431 39.9065 21.5362 41.7685C21.5736 42.1254 21.6085 42.4832 21.6478 42.8398C21.8613 44.7893 23.3458 45.84 25.1843 46.1356C26.2583 46.3088 27.3585 46.3444 28.4482 46.3623C29.845 46.3848 31.2558 46.4387 32.6301 46.185C34.666 45.8104 36.1936 44.4473 36.4117 42.3324L36.5986 40.5007L37.2189 34.44L37.8935 27.8394L38.2033 24.8141C38.2189 24.6645 38.2821 24.5237 38.3836 24.4126C38.4852 24.3015 38.6197 24.2258 38.7675 24.1967C39.3496 24.0826 39.9062 23.8884 40.3205 23.4442C40.9798 22.737 41.1109 21.8146 40.8776 20.8848M18.9766 21.5366C18.9852 21.5325 18.9691 21.6088 18.962 21.6444C18.9605 21.5905 18.9635 21.5426 18.9766 21.5366ZM19.0328 21.9748C19.0376 21.9714 19.0515 21.9901 19.0661 22.0126C19.044 21.992 19.0305 21.9767 19.0328 21.9748ZM19.0886 22.0481C19.1084 22.0825 19.1193 22.1042 19.0886 22.0481V22.0481ZM19.2002 22.139H19.2028C19.2028 22.1424 19.2081 22.1458 19.21 22.1488L19.1998 22.139M38.7405 22.0032C38.5311 22.2027 38.2161 22.2955 37.9048 22.3419C34.4121 22.8616 30.8688 23.1247 27.3383 23.0087C24.8112 22.9218 22.3112 22.6405 19.8097 22.2861C19.5643 22.2513 19.2987 22.2064 19.1302 22.0253C18.8125 21.6837 18.9687 20.9955 19.0515 20.5824C19.1268 20.2045 19.2718 19.7001 19.7201 19.6462C20.4206 19.5639 21.2339 19.8603 21.9269 19.9654C22.761 20.0929 23.5983 20.1952 24.4389 20.2722C28.0256 20.5996 31.6723 20.5488 35.2433 20.0694C35.8938 19.9819 36.5423 19.88 37.1886 19.7637C37.7647 19.6601 38.4026 19.4659 38.7506 20.0638C38.9892 20.4709 39.0207 21.0161 38.984 21.4764C38.9729 21.6767 38.8855 21.8652 38.7398 22.0032H38.7405Z" fill="#0D0C22"/>
</g>
</g>
<defs>
<filter id="filter0_d_15202_8222" x="0" y="0" width="66" height="66" filterUnits="userSpaceOnUse" color-interpolation-filters="sRGB">
<feFlood flood-opacity="0" result="BackgroundImageFix"/>
<feColorMatrix in="SourceAlpha" type="matrix" values="0 0 0 0 0 0 0 0 0 0 0 0 0 0 0 0 0 0 127 0" result="hardAlpha"/>
<feOffset dx="4" dy="4"/>
<feGaussianBlur stdDeviation="2"/>
<feComposite in2="hardAlpha" operator="out"/>
<feColorMatrix type="matrix" values="0 0 0 0 0 0 0 0 0 0 0 0 0 0 0 0 0 0 0.02 0"/>
<feBlend mode="normal" in2="BackgroundImageFix" result="effect1_dropShadow_15202_8222"/>
<feBlend mode="normal" in="SourceGraphic" in2="effect1_dropShadow_15202_8222" result="shape"/>
</filter>
<clipPath id="clip0_15202_8222">
<path d="M0 16C0 7.16345 7.16344 0 16 0H42C50.8366 0 58 7.16344 58 16V42C58 50.8366 50.8366 58 42 58H16C7.16345 58 0 50.8366 0 42V16Z" fill="white"/>
</clipPath>
</defs>
</svg>
