<svg width="60" height="60" viewBox="0 0 60 60" fill="none" xmlns="http://www.w3.org/2000/svg">
<mask id="path-1-inside-1_16021_4495" fill="white">
<path d="M0 12C0 5.37258 5.37258 0 12 0H48C54.6274 0 60 5.37258 60 12V48C60 54.6274 54.6274 60 48 60H12C5.37258 60 0 54.6274 0 48V12Z"/>
</mask>
<path d="M0 12C0 5.37258 5.37258 0 12 0H48C54.6274 0 60 5.37258 60 12V48C60 54.6274 54.6274 60 48 60H12C5.37258 60 0 54.6274 0 48V12Z" fill="#FCFCFC"/>
<path d="M12 0V0.5H48V0V-0.5H12V0ZM60 12H59.5V48H60H60.5V12H60ZM48 60V59.5H12V60V60.5H48V60ZM0 48H0.5V12H0H-0.5V48H0ZM12 60V59.5C5.64873 59.5 0.5 54.3513 0.5 48H0H-0.5C-0.5 54.9036 5.09644 60.5 12 60.5V60ZM60 48H59.5C59.5 54.3513 54.3513 59.5 48 59.5V60V60.5C54.9036 60.5 60.5 54.9036 60.5 48H60ZM48 0V0.5C54.3513 0.5 59.5 5.64873 59.5 12H60H60.5C60.5 5.09644 54.9036 -0.5 48 -0.5V0ZM12 0V-0.5C5.09644 -0.5 -0.5 5.09644 -0.5 12H0H0.5C0.5 5.64873 5.64873 0.5 12 0.5V0Z" fill="#787880" fill-opacity="0.08" mask="url(#path-1-inside-1_16021_4495)"/>
<path d="M34.0976 17.9955C35.8984 15.7963 35.4961 13.3939 35.2968 13.1947C35.0976 12.9955 32.4961 13.3939 30.6953 15.7963C29.0937 17.9955 29.0937 20.3978 29.2968 20.5971C29.5 20.7963 32.0976 20.5971 34.0976 17.9955ZM38.5 29.1986C38.3007 25.9994 41.3007 23.9994 41.8984 23.5971V23.3978C41.8984 23.3978 39.2968 20.1986 35.5 20.3978C33.1015 20.5971 31.8984 21.7963 30.3007 21.7963C28.3007 21.7963 26.5 20.3978 24.3007 20.3978C22.5 20.3978 17.3007 21.9994 16.9023 28.7963C16.5039 35.5971 21.3007 41.9955 23.1015 43.1947C24.9023 44.3939 26.1015 43.9955 28.1015 42.9955C29.1015 42.3939 32.3007 42.1947 34.1015 43.3939C36.3007 44.1947 39.5 43.5931 43.1015 35.5931C42.6992 35.5971 38.6992 34.5971 38.5 29.1986Z" fill="#272636"/>
</svg>
