<svg width="20" height="20" viewBox="0 0 20 20" fill="none" xmlns="http://www.w3.org/2000/svg">
<path d="M10 11.6665C11.1051 11.6665 12.1646 12.1058 12.946 12.8872C13.7274 13.6686 14.1667 14.7281 14.1667 15.8332V17.4998C14.1667 17.9601 13.7936 18.3332 13.3333 18.3332C12.8731 18.3332 12.5 17.9601 12.5 17.4998V15.8332C12.5 15.1701 12.2364 14.5344 11.7676 14.0656C11.2987 13.5968 10.6631 13.3332 10 13.3332H5.00001C4.33697 13.3332 3.70127 13.5968 3.23243 14.0656C2.76359 14.5344 2.50001 15.1701 2.50001 15.8332V17.4998C2.50001 17.9601 2.12691 18.3332 1.66668 18.3332C1.20644 18.3332 0.833344 17.9601 0.833344 17.4998V15.8332C0.833344 14.7281 1.27265 13.6686 2.05405 12.8872C2.83545 12.1058 3.89494 11.6665 5.00001 11.6665H10Z" fill="white"/>
<path d="M15.8333 5.83317C16.2936 5.83317 16.6667 6.20627 16.6667 6.6665V8.33317H18.3333C18.7936 8.33317 19.1667 8.70627 19.1667 9.1665C19.1667 9.62674 18.7936 9.99984 18.3333 9.99984H16.6667V11.6665C16.6667 12.1267 16.2936 12.4998 15.8333 12.4998C15.3731 12.4998 15 12.1267 15 11.6665V9.99984H13.3333C12.8731 9.99984 12.5 9.62674 12.5 9.1665C12.5 8.70627 12.8731 8.33317 13.3333 8.33317H15V6.6665C15 6.20627 15.3731 5.83317 15.8333 5.83317Z" fill="white"/>
<path fill-rule="evenodd" clip-rule="evenodd" d="M7.50001 1.6665C9.8012 1.6665 11.6667 3.53198 11.6667 5.83317C11.6667 8.13436 9.8012 9.99984 7.50001 9.99984C5.19882 9.99984 3.33334 8.13436 3.33334 5.83317C3.33334 3.53198 5.19882 1.6665 7.50001 1.6665ZM7.50001 3.33317C6.1193 3.33317 5.00001 4.45246 5.00001 5.83317C5.00001 7.21388 6.1193 8.33317 7.50001 8.33317C8.88072 8.33317 10 7.21388 10 5.83317C10 4.45246 8.88072 3.33317 7.50001 3.33317Z" fill="white"/>
</svg>
