<svg width="20" height="20" viewBox="0 0 20 20" fill="none" xmlns="http://www.w3.org/2000/svg">
<path d="M11.3972 4.23748C12.6028 3.03192 14.557 3.03192 15.7625 4.23748C16.9681 5.44304 16.9681 7.39727 15.7625 8.60282L7.90842 16.4569C7.7742 16.5911 7.59211 16.6666 7.40233 16.6666H4.04916C3.65384 16.6666 3.33337 16.3462 3.33337 15.9509V12.5977L3.33687 12.5264C3.35319 12.3627 3.42577 12.209 3.54308 12.0916L11.3972 4.23748ZM14.7504 5.24965C14.1039 4.60316 13.0559 4.60316 12.4094 5.24965L4.76495 12.8941V15.2351H7.10595L14.7504 7.59065C15.3969 6.94416 15.3969 5.89614 14.7504 5.24965Z" fill="#C4C4C7"/>
</svg>
