<svg width="50" height="26" viewBox="0 0 50 26" fill="none" xmlns="http://www.w3.org/2000/svg">
<rect width="50" height="26" rx="11" fill="#007AFF"/>
<rect x="6" y="6" width="38" height="14" rx="5" stroke="white" stroke-width="2"/>
<path opacity="0.4" d="M11 11.5C11 11.2239 11.2239 11 11.5 11H16.5C16.7761 11 17 11.2239 17 11.5C17 11.7761 16.7761 12 16.5 12H11.5C11.2239 12 11 11.7761 11 11.5Z" fill="white"/>
<path opacity="0.4" d="M11 14.5C11 14.2239 11.2239 14 11.5 14H32.5C32.7761 14 33 14.2239 33 14.5C33 14.7761 32.7761 15 32.5 15H11.5C11.2239 15 11 14.7761 11 14.5Z" fill="white"/>
</svg>
