<svg width="25" height="25" viewBox="0 0 25 25" fill="none" xmlns="http://www.w3.org/2000/svg">
<path d="M12.0996 0C13.8775 0 15.5644 0.386532 17.085 1.0752C16.7752 1.68438 16.5996 2.37222 16.5996 3.09961C16.5996 3.16142 16.601 3.22294 16.6035 3.28418C15.2521 2.59229 13.7221 2.19922 12.0996 2.19922C6.63199 2.19922 2.19922 6.63199 2.19922 12.0996C2.19922 17.5672 6.63199 22 12.0996 22C17.5672 22 22 17.5672 22 12.0996C22 10.4766 21.6063 8.94646 20.9141 7.59473C20.9756 7.59728 21.0375 7.59961 21.0996 7.59961C21.8236 7.59959 22.5107 7.42138 23.1211 7.10938C23.8112 8.63127 24.1992 10.3197 24.1992 12.0996C24.1992 18.7823 18.7823 24.1992 12.0996 24.1992C5.41696 24.1992 0 18.7823 0 12.0996C1.28859e-07 5.41696 5.41696 1.28856e-07 12.0996 0ZM16.5654 6.35352C16.9176 6.28897 17.2832 6.40052 17.541 6.6582C17.7988 6.91599 17.9102 7.28158 17.8457 7.63379L17.8066 7.7832L15.8223 13.7354C15.6603 14.2214 15.3877 14.6631 15.0254 15.0254C14.7085 15.3423 14.331 15.5911 13.916 15.7568L13.7354 15.8223L7.7832 17.8066C7.388 17.9383 6.95279 17.8356 6.6582 17.541C6.36381 17.2465 6.26008 16.8111 6.3916 16.416L8.37598 10.4639L8.44238 10.2832C8.60811 9.86824 8.85693 9.49073 9.17383 9.17383C9.53609 8.81157 9.97784 8.53798 10.4639 8.37598L16.416 6.3916L16.5654 6.35352ZM11.1592 10.4639C10.9973 10.5179 10.8502 10.6088 10.7295 10.7295C10.6389 10.8201 10.5648 10.9255 10.5107 11.041L10.4639 11.1592L9.1748 15.0234L13.04 13.7354L13.1582 13.6885C13.2737 13.6344 13.3791 13.5604 13.4697 13.4697C13.5904 13.349 13.6813 13.202 13.7354 13.04L15.0234 9.1748L11.1592 10.4639Z" fill="black"/>
</svg>
