<svg width="20" height="20" viewBox="0 0 20 20" fill="none" xmlns="http://www.w3.org/2000/svg">
<g clip-path="url(#clip0_15371_4786)">
<path fill-rule="evenodd" clip-rule="evenodd" d="M15.9846 0.833313C16.8286 0.833419 17.6381 1.16833 18.2348 1.76512C18.8316 2.36201 19.1667 3.17207 19.1666 4.01609C19.1664 4.85996 18.8307 5.66959 18.234 6.26626L7.11095 17.3909C6.82117 17.6798 6.46481 17.8928 6.07335 18.0119L6.07254 18.0127L2.44542 19.1121L2.44298 19.1129C2.22702 19.1778 1.99759 19.1833 1.77892 19.1284C1.56008 19.0734 1.36 18.9599 1.2003 18.8004C1.04065 18.641 0.926887 18.4414 0.871527 18.2226C0.816182 18.0039 0.821573 17.7739 0.886176 17.5578C0.886483 17.5567 0.886678 17.5555 0.88699 17.5545L1.98806 13.9282V13.9258C2.10811 13.5343 2.32321 13.1782 2.61306 12.889L13.7345 1.76512C14.3314 1.16839 15.1406 0.833219 15.9846 0.833313ZM15.9846 2.49998C15.5827 2.49993 15.1971 2.65935 14.9129 2.9435L3.79145 14.0674L3.78982 14.0682C3.69337 14.1644 3.62241 14.2831 3.5823 14.4132L3.58149 14.414L2.70828 17.2908L5.58832 16.4176C5.71865 16.378 5.83766 16.307 5.93419 16.2109L17.0556 5.08706C17.3399 4.80284 17.4999 4.41728 17.4999 4.01528C17.4999 3.6134 17.3406 3.22772 17.0564 2.9435C16.7722 2.65926 16.3866 2.50007 15.9846 2.49998Z" fill="black"/>
</g>
<defs>
<clipPath id="clip0_15371_4786">
<rect width="20" height="20" fill="white"/>
</clipPath>
</defs>
</svg>
