<svg width="40" height="40" viewBox="0 0 40 40" fill="none" xmlns="http://www.w3.org/2000/svg">
<path d="M19.8809 0C8.91771 0 0 8.91771 0 19.8809C0 30.844 8.91771 39.7617 19.8809 39.7617C30.844 39.7617 39.7617 30.844 39.7617 19.8809C39.7617 8.91771 30.844 0 19.8809 0ZM33.028 9.16622C35.3937 12.0575 36.8274 15.7374 36.8608 19.747C36.3017 19.6276 30.6863 18.4902 25.0375 19.2022C24.918 18.9107 24.7985 18.6192 24.6742 18.3277C24.3206 17.5009 23.9431 16.6741 23.5464 15.8665C29.8213 13.3001 32.6696 9.65369 33.028 9.16622ZM19.8809 2.92478C24.1963 2.92478 28.1391 4.54488 31.1355 7.20203C30.8297 7.63693 28.2729 11.0731 22.2369 13.3383C19.4555 8.22475 16.373 4.02874 15.8999 3.39791C17.2046 3.08249 18.5379 2.92478 19.8809 2.92478ZM12.6597 4.5401C13.1089 5.15182 16.1436 9.36216 18.9537 14.3611C11.0109 16.4686 4.0144 16.4399 3.25454 16.4304C4.3585 11.1591 7.90933 6.78148 12.6597 4.5401ZM2.90088 19.9048C2.90088 19.7327 2.90566 19.5559 2.91044 19.3838C3.6512 19.3982 11.8807 19.5033 20.3635 16.9656C20.851 17.9167 21.3146 18.882 21.7399 19.8474C21.5153 19.9095 21.2907 19.9764 21.0708 20.0481C12.3108 22.8869 7.65126 30.6051 7.26416 31.2598C4.55444 28.249 2.90088 24.268 2.90088 19.9048ZM19.8809 36.8847C15.9525 36.8847 12.3347 35.5466 9.45774 33.3004C9.7636 32.6744 13.1997 26.0363 22.777 22.6957L22.8869 22.6575C25.2716 28.8511 26.2561 34.046 26.5094 35.537C24.4735 36.4068 22.2322 36.8895 19.8809 36.8847ZM29.3673 33.9838C29.1952 32.9516 28.292 27.9814 26.0697 21.8785C31.3936 21.0278 36.0675 22.4233 36.6458 22.6049C35.8907 27.3266 33.181 31.4079 29.3673 33.9838Z" fill="#C4C4C7"/>
</svg>
