<svg width="58" height="58" viewBox="0 0 58 58" fill="none" xmlns="http://www.w3.org/2000/svg">
<g filter="url(#filter0_d_15202_8152)">
<g clip-path="url(#clip0_15202_8152)">
<path d="M0 0H58V58H0V0Z" fill="#D7191A"/>
<path d="M41.6328 14.2158C33.1728 15.5974 24.7248 17.0385 16.2763 18.4316C13.563 18.8805 13.2311 19.2465 13.1484 21.9978C13.101 23.3323 13.6931 23.9818 15.044 23.7927C16.691 23.5567 18.3264 23.2851 20.222 22.9777V41.6826C20.222 42.8635 20.3287 44.0564 21.9521 43.8672C23.6699 43.6666 25.3407 41.6354 25.3527 39.8759C25.3646 36.5579 25.3527 33.2399 25.3527 29.9096V22.0803C27.8647 21.6671 30.1984 21.2773 32.8294 20.8522C32.8294 23.7574 33.0188 26.3905 32.7936 29.0003C32.379 33.7237 33.4693 37.9395 36.0286 41.9427C36.9764 43.4187 37.8296 44.1746 39.6305 44.0683C42.1899 43.9029 42.4978 43.5012 41.3606 41.2103C40.223 38.896 38.4575 36.6289 38.1849 34.2198C37.6756 29.5555 38.0428 24.7963 38.0428 20.0139C39.5593 19.7422 40.9456 19.4825 42.3438 19.2465C44.3227 18.9039 45.1638 17.6405 44.7492 15.3143C44.3819 13.2712 42.8177 14.0151 41.6328 14.2158Z" fill="white"/>
</g>
</g>
<defs>
<filter id="filter0_d_15202_8152" x="0" y="0" width="66" height="66" filterUnits="userSpaceOnUse" color-interpolation-filters="sRGB">
<feFlood flood-opacity="0" result="BackgroundImageFix"/>
<feColorMatrix in="SourceAlpha" type="matrix" values="0 0 0 0 0 0 0 0 0 0 0 0 0 0 0 0 0 0 127 0" result="hardAlpha"/>
<feOffset dx="4" dy="4"/>
<feGaussianBlur stdDeviation="2"/>
<feComposite in2="hardAlpha" operator="out"/>
<feColorMatrix type="matrix" values="0 0 0 0 0 0 0 0 0 0 0 0 0 0 0 0 0 0 0.02 0"/>
<feBlend mode="normal" in2="BackgroundImageFix" result="effect1_dropShadow_15202_8152"/>
<feBlend mode="normal" in="SourceGraphic" in2="effect1_dropShadow_15202_8152" result="shape"/>
</filter>
<clipPath id="clip0_15202_8152">
<path d="M0 16C0 7.16345 7.16344 0 16 0H42C50.8366 0 58 7.16344 58 16V42C58 50.8366 50.8366 58 42 58H16C7.16345 58 0 50.8366 0 42V16Z" fill="white"/>
</clipPath>
</defs>
</svg>
