<svg width="14" height="14" viewBox="0 0 14 14" fill="none" xmlns="http://www.w3.org/2000/svg">
<path d="M2.91667 5.83333C3.561 5.83333 4.08333 6.35566 4.08333 6.99999C4.08333 7.64433 3.561 8.16666 2.91667 8.16666C2.27233 8.16666 1.75 7.64433 1.75 6.99999C1.75 6.35566 2.27233 5.83333 2.91667 5.83333Z" fill="#007AFF"/>
<path d="M7 5.83333C7.64433 5.83333 8.16667 6.35566 8.16667 6.99999C8.16667 7.64433 7.64433 8.16666 7 8.16666C6.35567 8.16666 5.83333 7.64433 5.83333 6.99999C5.83333 6.35566 6.35567 5.83333 7 5.83333Z" fill="#007AFF"/>
<path d="M11.0833 5.83333C11.7277 5.83333 12.25 6.35566 12.25 6.99999C12.25 7.64433 11.7277 8.16666 11.0833 8.16666C10.439 8.16666 9.91667 7.64433 9.91667 6.99999C9.91667 6.35566 10.439 5.83333 11.0833 5.83333Z" fill="#007AFF"/>
</svg>
