<svg width="30" height="30" viewBox="0 0 30 30" fill="none" xmlns="http://www.w3.org/2000/svg">
<g clip-path="url(#clip0_16021_4516)">
<path d="M6.27271 14.9999C6.27271 14.0474 6.43521 13.1337 6.72271 12.2774L1.67521 8.50244C0.661084 10.518 0.134449 12.7436 0.13771 14.9999C0.13771 17.3349 0.69021 19.5374 1.67271 21.4924L6.71771 17.7112C6.42354 16.8375 6.27325 15.9218 6.27271 14.9999Z" fill="#FBBC05"/>
<path d="M15.1373 6.33374C17.2498 6.33374 19.1586 7.06624 20.6586 8.26624L25.0223 3.99999C22.3636 1.73374 18.9548 0.33374 15.1373 0.33374C9.20981 0.33374 4.1148 3.65249 1.6748 8.50249L6.7248 12.2775C7.8873 8.81999 11.2023 6.33374 15.1373 6.33374Z" fill="#EA4335"/>
<path d="M15.1373 23.6663C11.2011 23.6663 7.88605 21.18 6.7223 17.7225L1.6748 21.4975C4.11355 26.3475 9.20856 29.6663 15.1373 29.6663C18.7948 29.6663 22.2873 28.395 24.9098 26.0113L20.1173 22.3838C18.7661 23.2175 17.0636 23.6663 15.1361 23.6663" fill="#34A853"/>
<path d="M29.455 15C29.455 14.1337 29.3175 13.2 29.1137 12.3337H15.1362V18H23.1812C22.78 19.9325 21.685 21.4175 20.1187 22.3837L24.91 26.0112C27.6637 23.5087 29.455 19.7812 29.455 15Z" fill="#4285F4"/>
</g>
<defs>
<clipPath id="clip0_16021_4516">
<rect width="30" height="30" fill="white"/>
</clipPath>
</defs>
</svg>
