<svg width="20" height="20" viewBox="0 0 20 20" fill="none" xmlns="http://www.w3.org/2000/svg">
<path fill-rule="evenodd" clip-rule="evenodd" d="M10 1.5C11.8917 1.5 13.1194 3.04652 13.4175 4.20264C13.5639 4.7707 13.6333 5.46106 13.6333 6.10547C13.6333 6.74212 13.5658 7.38788 13.4062 7.85205C13.3232 8.09355 13.1645 8.37318 13.0034 8.63672C12.8414 8.9018 12.6363 9.21441 12.4619 9.49219C12.2794 9.78292 12.1156 10.0582 11.998 10.3018C11.8733 10.5603 11.8335 10.7187 11.8335 10.793C11.8335 11.1214 11.8891 11.3525 12.0005 11.5469C12.1144 11.7456 12.3121 11.9513 12.6714 12.1836C12.8321 12.2875 13.2394 12.4799 13.8188 12.7422C14.3763 12.9945 15.0586 13.2966 15.7134 13.606C16.3662 13.9144 17.0129 14.2397 17.501 14.5425C17.7431 14.6927 17.9664 14.8497 18.1348 15.0078C18.219 15.0869 18.3029 15.1791 18.3687 15.2832C18.433 15.3851 18.5 15.5307 18.5 15.707V16.5C18.5 17.0523 18.0523 17.5 17.5 17.5H2.5C1.94772 17.5 1.5 17.0523 1.5 16.5V15.707C1.5 15.5307 1.56704 15.3851 1.63135 15.2832C1.69707 15.1791 1.78102 15.0869 1.86523 15.0078C2.03357 14.8497 2.25691 14.6927 2.49902 14.5425C2.98706 14.2397 3.63382 13.9144 4.28662 13.606C4.94139 13.2966 5.62374 12.9945 6.18115 12.7422C6.76061 12.4799 7.16793 12.2875 7.32861 12.1836C7.6879 11.9513 7.88565 11.7456 7.99951 11.5469C8.11088 11.3525 8.1665 11.1214 8.1665 10.793C8.16646 10.7187 8.12674 10.5603 8.00195 10.3018C7.88441 10.0582 7.72058 9.78292 7.53809 9.49219C7.36373 9.21441 7.15859 8.9018 6.99658 8.63672C6.83552 8.37318 6.67675 8.09355 6.59375 7.85205C6.43424 7.38788 6.3667 6.74212 6.3667 6.10547C6.36671 5.46106 6.43608 4.7707 6.58252 4.20264C6.88061 3.04652 8.10835 1.5 10 1.5ZM10 2.5C8.69173 2.5 7.77017 3.60157 7.55078 4.45264C7.43061 4.91894 7.36671 5.52161 7.3667 6.10547C7.3667 6.69721 7.43243 7.21566 7.53955 7.52734C7.58307 7.65385 7.68755 7.84927 7.8501 8.11523C8.01179 8.37979 8.19125 8.65138 8.38525 8.96045C8.57114 9.25659 8.75942 9.57108 8.90234 9.86719C9.03791 10.1481 9.16647 10.4793 9.1665 10.793C9.1665 11.2404 9.08915 11.6565 8.86719 12.0439C8.64772 12.427 8.31215 12.7386 7.87158 13.0234C7.63229 13.1782 7.13924 13.4059 6.59375 13.6528C6.02627 13.9097 5.35844 14.2055 4.71338 14.5103C4.06628 14.816 3.4628 15.1211 3.02588 15.3921C2.80561 15.5287 2.64758 15.645 2.55029 15.7363C2.52806 15.7572 2.5115 15.7741 2.5 15.7871V16.5H17.5V15.7871C17.4885 15.7741 17.4719 15.7572 17.4497 15.7363C17.3524 15.645 17.1944 15.5287 16.9741 15.3921C16.5372 15.1211 15.9337 14.816 15.2866 14.5103C14.6416 14.2055 13.9737 13.9097 13.4062 13.6528C12.8608 13.4059 12.3677 13.1782 12.1284 13.0234C11.6879 12.7386 11.3523 12.427 11.1328 12.0439C10.9109 11.6565 10.8335 11.2404 10.8335 10.793C10.8335 10.4793 10.9621 10.1481 11.0977 9.86719C11.2406 9.57108 11.4289 9.25659 11.6147 8.96045C11.8087 8.65138 11.9882 8.37979 12.1499 8.11523C12.3125 7.84927 12.4169 7.65385 12.4604 7.52734C12.5676 7.21566 12.6333 6.69721 12.6333 6.10547C12.6333 5.52161 12.5694 4.91894 12.4492 4.45264C12.2298 3.60157 11.3083 2.5 10 2.5Z" fill="#8E8E93"/>
<path fill-rule="evenodd" clip-rule="evenodd" d="M10 1.5C11.8917 1.5 13.1194 3.04652 13.4175 4.20264C13.5639 4.7707 13.6333 5.46106 13.6333 6.10547C13.6333 6.74212 13.5658 7.38788 13.4062 7.85205C13.3232 8.09355 13.1645 8.37318 13.0034 8.63672C12.8414 8.9018 12.6363 9.21441 12.4619 9.49219C12.2794 9.78292 12.1156 10.0582 11.998 10.3018C11.8733 10.5603 11.8335 10.7187 11.8335 10.793C11.8335 11.1214 11.8891 11.3525 12.0005 11.5469C12.1144 11.7456 12.3121 11.9513 12.6714 12.1836C12.8321 12.2875 13.2394 12.4799 13.8188 12.7422C14.3763 12.9945 15.0586 13.2966 15.7134 13.606C16.3662 13.9144 17.0129 14.2397 17.501 14.5425C17.7431 14.6927 17.9664 14.8497 18.1348 15.0078C18.219 15.0869 18.3029 15.1791 18.3687 15.2832C18.433 15.3851 18.5 15.5307 18.5 15.707V16.5C18.5 17.0523 18.0523 17.5 17.5 17.5H2.5C1.94772 17.5 1.5 17.0523 1.5 16.5V15.707C1.5 15.5307 1.56704 15.3851 1.63135 15.2832C1.69707 15.1791 1.78102 15.0869 1.86523 15.0078C2.03357 14.8497 2.25691 14.6927 2.49902 14.5425C2.98706 14.2397 3.63382 13.9144 4.28662 13.606C4.94139 13.2966 5.62374 12.9945 6.18115 12.7422C6.76061 12.4799 7.16793 12.2875 7.32861 12.1836C7.6879 11.9513 7.88565 11.7456 7.99951 11.5469C8.11088 11.3525 8.1665 11.1214 8.1665 10.793C8.16646 10.7187 8.12674 10.5603 8.00195 10.3018C7.88441 10.0582 7.72058 9.78292 7.53809 9.49219C7.36373 9.21441 7.15859 8.9018 6.99658 8.63672C6.83552 8.37318 6.67675 8.09355 6.59375 7.85205C6.43424 7.38788 6.3667 6.74212 6.3667 6.10547C6.36671 5.46106 6.43608 4.7707 6.58252 4.20264C6.88061 3.04652 8.10835 1.5 10 1.5Z" fill="#34C759"/>
</svg>
