<svg width="34" height="34" viewBox="0 0 34 34" fill="none" xmlns="http://www.w3.org/2000/svg">
<path d="M19.3527 3.89084H2.80815C2.19915 3.89084 1.69165 4.39834 1.69165 5.00734V12.586H17.2212C17.5595 12.586 17.864 12.7213 18.067 12.9582L21.6533 16.7137C21.721 16.7813 21.721 16.9167 21.6533 17.0182L18.067 20.8413C17.8302 21.0782 17.5933 21.2812 17.2888 21.2812H1.69165V28.8598C1.69165 29.4688 2.19915 29.9425 2.80815 29.9425H19.3527C19.7248 29.9425 20.0632 29.8072 20.3338 29.5365L31.4988 18.4392C31.9048 18.0332 32.1417 17.458 32.1417 16.8828C32.1417 16.3077 31.9048 15.7325 31.4988 15.3265L20.3 4.29684C20.0632 4.02617 19.691 3.89084 19.3527 3.89084Z" fill="black"/>
</svg>
