<svg width="144" height="76" viewBox="0 0 144 76" fill="none" xmlns="http://www.w3.org/2000/svg">
<g filter="url(#filter0_d_15202_8887)">
<path d="M65.5 68C67.7091 68 69.5 69.7909 69.5 72C69.5 74.2091 67.7091 76 65.5 76C63.2909 76 61.5 74.2091 61.5 72C61.5 69.7909 63.2909 68 65.5 68ZM136.146 0C140.483 3.05912e-05 144 3.76122 144 8.40039V47.5996C144 52.2388 140.483 56 136.146 56H79.5C79.5 61.5228 75.0229 66 69.5 66C63.9772 66 59.5 61.5228 59.5 56H7.85449C3.51657 56 0 52.2388 0 47.5996V8.40039C0 3.76122 3.51657 3.07989e-05 7.85449 0H136.146Z" fill="white"/>
</g>
<defs>
<filter id="filter0_d_15202_8887" x="-11" y="-7" width="166" height="98" filterUnits="userSpaceOnUse" color-interpolation-filters="sRGB">
<feFlood flood-opacity="0" result="BackgroundImageFix"/>
<feColorMatrix in="SourceAlpha" type="matrix" values="0 0 0 0 0 0 0 0 0 0 0 0 0 0 0 0 0 0 127 0" result="hardAlpha"/>
<feMorphology radius="3" operator="dilate" in="SourceAlpha" result="effect1_dropShadow_15202_8887"/>
<feOffset dy="4"/>
<feGaussianBlur stdDeviation="4"/>
<feColorMatrix type="matrix" values="0 0 0 0 0 0 0 0 0 0 0 0 0 0 0 0 0 0 0.05 0"/>
<feBlend mode="normal" in2="BackgroundImageFix" result="effect1_dropShadow_15202_8887"/>
<feBlend mode="normal" in="SourceGraphic" in2="effect1_dropShadow_15202_8887" result="shape"/>
</filter>
</defs>
</svg>
