<svg width="42" height="42" viewBox="0 0 42 42" fill="none" xmlns="http://www.w3.org/2000/svg">
<g clip-path="url(#clip0_16021_3443)">
<path opacity="0.3" d="M20.9531 20.9531C20.9531 17.0899 24.0961 13.9469 27.9593 13.9469C31.8226 13.9469 34.9655 17.0899 34.9655 20.9531C34.9655 24.8164 31.8226 27.9593 27.9593 27.9593C24.0961 27.9593 20.9531 24.8164 20.9531 20.9531Z" fill="#C4C4C7"/>
<path opacity="0.6" d="M7.0062 34.9C7.0062 31.0368 10.1492 27.8938 14.0124 27.8938H20.9531V34.9C20.9531 38.7633 17.8102 41.9062 13.9469 41.9062C10.0837 41.9062 7.0062 38.7633 7.0062 34.9Z" fill="#C4C4C7"/>
<path opacity="0.6" d="M20.9531 0V13.9469H27.9593C31.8226 13.9469 34.9655 10.804 34.9655 6.94072C34.9655 3.07749 31.8226 0 27.9593 0H20.9531Z" fill="#C4C4C7"/>
<path opacity="0.4" d="M7.0062 7.0062C7.0062 10.8694 10.1492 14.0124 14.0124 14.0124H20.9531V0H13.9469C10.0837 0 7.0062 3.14297 7.0062 7.0062Z" fill="#C4C4C7"/>
<path opacity="0.6" d="M7.0062 20.9531C7.0062 24.8164 10.1492 27.9593 14.0124 27.9593H20.9531V13.9469H13.9469C10.0837 13.9469 7.0062 17.0899 7.0062 20.9531Z" fill="#C4C4C7"/>
</g>
<defs>
<clipPath id="clip0_16021_3443">
<rect width="41.9062" height="41.9062" fill="white"/>
</clipPath>
</defs>
</svg>
