<svg width="20" height="20" viewBox="0 0 20 20" fill="none" xmlns="http://www.w3.org/2000/svg">
<path d="M16.6667 9.16665C17.1269 9.16665 17.5 9.53974 17.5 9.99998V16.6666C17.5 17.3297 17.2364 17.9654 16.7676 18.4342C16.2987 18.9031 15.663 19.1666 15 19.1666H5C4.33696 19.1666 3.70126 18.9031 3.23242 18.4342C2.76358 17.9654 2.5 17.3297 2.5 16.6666V9.99998C2.5 9.53974 2.8731 9.16665 3.33333 9.16665C3.79357 9.16665 4.16667 9.53974 4.16667 9.99998V16.6666C4.16667 16.8877 4.25453 17.0996 4.41081 17.2558C4.56709 17.4121 4.77899 17.5 5 17.5H15C15.221 17.5 15.4329 17.4121 15.5892 17.2558C15.7455 17.0996 15.8333 16.8877 15.8333 16.6666V9.99998C15.8333 9.53974 16.2064 9.16665 16.6667 9.16665Z" fill="black"/>
<path d="M10 0.833313C10.0469 0.833313 10.0927 0.838074 10.1375 0.84552C10.1448 0.846737 10.1522 0.847364 10.1595 0.848775L10.1676 0.850403C10.1759 0.85208 10.1839 0.854183 10.1921 0.856099C10.2092 0.860143 10.2264 0.86398 10.2433 0.86912C10.284 0.881507 10.3228 0.898149 10.3605 0.916321C10.3722 0.921934 10.384 0.927221 10.3955 0.933411C10.467 0.972028 10.5322 1.0205 10.5892 1.07745L13.9225 4.41079C14.248 4.73622 14.248 5.26374 13.9225 5.58917C13.5971 5.91461 13.0696 5.91461 12.7441 5.58917L10.8333 3.67837V12.5C10.8333 12.9602 10.4602 13.3333 10 13.3333C9.53976 13.3333 9.16667 12.9602 9.16667 12.5V3.67837L7.25586 5.58917C6.93042 5.91461 6.40291 5.91461 6.07747 5.58917C5.75204 5.26374 5.75204 4.73622 6.07747 4.41079L9.41081 1.07745C9.4676 1.02066 9.53248 0.971974 9.60368 0.933411C9.61513 0.927214 9.627 0.921941 9.63867 0.916321C9.6764 0.898121 9.71524 0.881541 9.75586 0.86912C9.77275 0.863965 9.79 0.860158 9.80713 0.856099C9.81658 0.853858 9.82604 0.851505 9.83561 0.849589L9.84049 0.848775L9.91455 0.837382C9.94264 0.834522 9.97116 0.833313 10 0.833313Z" fill="black"/>
</svg>
