<svg width="20" height="20" viewBox="0 0 20 20" fill="none" xmlns="http://www.w3.org/2000/svg">
<path d="M8.33341 8.33334C8.79365 8.33334 9.16675 8.70644 9.16675 9.16668V14.1667C9.16675 14.6269 8.79365 15 8.33341 15C7.87318 15 7.50008 14.6269 7.50008 14.1667V9.16668C7.50008 8.70644 7.87318 8.33334 8.33341 8.33334Z" fill="#FF3B30"/>
<path d="M11.6667 8.33334C12.127 8.33334 12.5001 8.70644 12.5001 9.16668V14.1667C12.5001 14.6269 12.127 15 11.6667 15C11.2065 15 10.8334 14.6269 10.8334 14.1667V9.16668C10.8334 8.70644 11.2065 8.33334 11.6667 8.33334Z" fill="#FF3B30"/>
<path fill-rule="evenodd" clip-rule="evenodd" d="M11.6667 0.833344C12.3544 0.833344 12.9723 1.16886 13.4018 1.59832C13.8312 2.02777 14.1667 2.64565 14.1667 3.33334V4.16668H17.5001C17.9603 4.16668 18.3334 4.53977 18.3334 5.00001C18.3334 5.46025 17.9603 5.83334 17.5001 5.83334H16.6667V16.6667C16.6667 17.3544 16.3312 17.9722 15.9018 18.4017C15.4723 18.8312 14.8544 19.1667 14.1667 19.1667H5.83341C5.14572 19.1667 4.52784 18.8312 4.09839 18.4017C3.66893 17.9722 3.33341 17.3544 3.33341 16.6667V5.83334H2.50008C2.03984 5.83334 1.66675 5.46025 1.66675 5.00001C1.66675 4.53977 2.03984 4.16668 2.50008 4.16668H5.83341V3.33334C5.83341 2.64565 6.16893 2.02777 6.59839 1.59832C7.02784 1.16886 7.64572 0.833344 8.33341 0.833344H11.6667ZM5.00008 16.6667C5.00008 16.8123 5.08123 17.0278 5.27677 17.2233C5.47232 17.4189 5.68777 17.5 5.83341 17.5H14.1667C14.3124 17.5 14.5278 17.4189 14.7234 17.2233C14.9189 17.0278 15.0001 16.8123 15.0001 16.6667V5.83334H5.00008V16.6667ZM8.33341 2.50001C8.18777 2.50001 7.97232 2.58116 7.77677 2.7767C7.58123 2.97225 7.50008 3.1877 7.50008 3.33334V4.16668H12.5001V3.33334C12.5001 3.1877 12.4189 2.97225 12.2234 2.7767C12.0278 2.58116 11.8124 2.50001 11.6667 2.50001H8.33341Z" fill="#FF3B30"/>
</svg>
