<svg width="120" height="120" viewBox="0 0 120 120" fill="none" xmlns="http://www.w3.org/2000/svg">
<path d="M70.6667 120C68.4575 120 66.6667 118.209 66.6667 116V106.667H76C78.2091 106.667 80 108.458 80 110.667V116C80 118.209 78.2091 120 76 120H70.6667ZM57.3333 106.667C55.1242 106.667 53.3333 104.876 53.3333 102.667V73.3333H66.6667V106.667H57.3333ZM106.667 86.6667V60H116C118.209 60 120 61.7909 120 64V82.6667C120 84.8758 118.209 86.6667 116 86.6667H106.667ZM93.3333 60V50.6667C93.3333 48.4575 95.1242 46.6667 97.3333 46.6667H102.667C104.876 46.6667 106.667 48.4575 106.667 50.6667V60H93.3333ZM17.3333 73.3333C15.1242 73.3333 13.3333 71.5425 13.3333 69.3333V60H26.6667V69.3333C26.6667 71.5425 24.8758 73.3333 22.6667 73.3333H17.3333ZM4 60C1.79086 60 0 58.2091 0 56V50.6667C0 48.4575 1.79086 46.6667 4 46.6667H9.33334C11.5425 46.6667 13.3333 48.4575 13.3333 50.6667V60H4ZM60 13.3333V4C60 1.79086 61.7909 0 64 0H69.3333C71.5425 0 73.3333 1.79086 73.3333 4V9.33334C73.3333 11.5425 71.5425 13.3333 69.3333 13.3333H60ZM10 26C10 28.2091 11.7909 30 14 30H26C28.2091 30 30 28.2091 30 26V14C30 11.7909 28.2091 10 26 10H14C11.7909 10 10 11.7909 10 14V26ZM4 40C1.79086 40 0 38.2091 0 36V4C0 1.79086 1.79086 0 4 0H36C38.2091 0 40 1.79086 40 4V36C40 38.2091 38.2091 40 36 40H4ZM10 106C10 108.209 11.7909 110 14 110H26C28.2091 110 30 108.209 30 106V94C30 91.7909 28.2091 90 26 90H14C11.7909 90 10 91.7909 10 94V106ZM4 120C1.79086 120 0 118.209 0 116V84C0 81.7909 1.79086 80 4 80H36C38.2091 80 40 81.7909 40 84V116C40 118.209 38.2091 120 36 120H4ZM90 26C90 28.2091 91.7909 30 94 30H106C108.209 30 110 28.2091 110 26V14C110 11.7909 108.209 10 106 10H94C91.7909 10 90 11.7909 90 14V26ZM84 40C81.7909 40 80 38.2091 80 36V4C80 1.79086 81.7909 0 84 0H116C118.209 0 120 1.79086 120 4V36C120 38.2091 118.209 40 116 40H84ZM97.3333 120C95.1242 120 93.3333 118.209 93.3333 116V104C93.3333 101.791 91.5425 100 89.3333 100H84C81.7909 100 80 98.2091 80 96V90.6667C80 88.4575 81.7909 86.6667 84 86.6667H106.667V102.667C106.667 104.876 108.458 106.667 110.667 106.667H116C118.209 106.667 120 108.458 120 110.667V116C120 118.209 118.209 120 116 120H97.3333ZM66.6667 73.3333V60H93.3333V69.3333C93.3333 71.5425 91.5425 73.3333 89.3333 73.3333H66.6667ZM44 73.3333C41.7909 73.3333 40 71.5425 40 69.3333V64C40 61.7909 38.2091 60 36 60H26.6667V50.6667C26.6667 48.4575 28.4575 46.6667 30.6667 46.6667H62.6667C64.8758 46.6667 66.6667 48.4575 66.6667 50.6667V60H57.3333C55.1242 60 53.3333 61.7909 53.3333 64V73.3333H44ZM50.6667 40C48.4575 40 46.6667 38.2091 46.6667 36V17.3333C46.6667 15.1242 48.4575 13.3333 50.6667 13.3333H60V22.6667C60 24.8758 61.7909 26.6667 64 26.6667H69.3333C71.5425 26.6667 73.3333 28.4575 73.3333 30.6667V36C73.3333 38.2091 71.5425 40 69.3333 40H50.6667ZM19 25C16.7909 25 15 23.2091 15 21V19C15 16.7909 16.7909 15 19 15H21C23.2091 15 25 16.7909 25 19V21C25 23.2091 23.2091 25 21 25H19ZM19 105C16.7909 105 15 103.209 15 101V99C15 96.7909 16.7909 95 19 95H21C23.2091 95 25 96.7909 25 99V101C25 103.209 23.2091 105 21 105H19ZM99 25C96.7909 25 95 23.2091 95 21V19C95 16.7909 96.7909 15 99 15H101C103.209 15 105 16.7909 105 19V21C105 23.2091 103.209 25 101 25H99Z" fill="#AEAEB2"/>
</svg>
