<svg width="10" height="10" viewBox="0 0 10 10" fill="none" xmlns="http://www.w3.org/2000/svg">
<g clip-path="url(#clip0_16021_222)">
<path d="M6.32561 8.74997V7.91678C6.32561 7.56524 6.18618 7.22789 5.93765 6.97928C5.68905 6.73069 5.35171 6.59092 5.00015 6.59088H2.50015C2.14854 6.59088 1.81128 6.73065 1.56265 6.97928C1.31402 7.22791 1.17424 7.56517 1.17424 7.91678V8.74997C1.17424 8.93825 1.02161 9.09088 0.833333 9.09088C0.645054 9.09088 0.492424 8.93825 0.492424 8.74997V7.91678C0.492424 7.38434 0.704088 6.87371 1.08058 6.49721C1.45707 6.12072 1.96771 5.90906 2.50015 5.90906H5.00015C5.53254 5.9091 6.04326 6.12076 6.41971 6.49721C6.79612 6.87369 7.00743 7.38441 7.00743 7.91678V8.74997C7.00743 8.93825 6.8548 9.09088 6.66652 9.09088C6.47831 9.0908 6.32561 8.9382 6.32561 8.74997Z" fill="white"/>
<path d="M5.07561 2.91678C5.07561 2.18463 4.48228 1.59096 3.75015 1.59088C3.01795 1.59088 2.42424 2.18459 2.42424 2.91678C2.42432 3.64891 3.018 4.24224 3.75015 4.24224C4.48223 4.24216 5.07553 3.64886 5.07561 2.91678ZM5.75743 2.91678C5.75735 4.02542 4.85878 4.92398 3.75015 4.92406C2.64144 4.92406 1.7425 4.02547 1.74242 2.91678C1.74242 1.80803 2.64139 0.909058 3.75015 0.909058C4.85883 0.909138 5.75743 1.80808 5.75743 2.91678Z" fill="white"/>
<path d="M7.57576 5.83334V3.33334C7.57576 3.14506 7.72839 2.99243 7.91667 2.99243C8.10495 2.99243 8.25758 3.14506 8.25758 3.33334V5.83334C8.25758 6.02162 8.10495 6.17425 7.91667 6.17425C7.72839 6.17425 7.57576 6.02162 7.57576 5.83334Z" fill="white"/>
<path d="M9.16667 4.24243C9.35495 4.24243 9.50758 4.39506 9.50758 4.58334C9.50758 4.77162 9.35495 4.92425 9.16667 4.92425H6.66667C6.47839 4.92425 6.32576 4.77162 6.32576 4.58334C6.32576 4.39506 6.47839 4.24243 6.66667 4.24243H9.16667Z" fill="white"/>
</g>
<defs>
<clipPath id="clip0_16021_222">
<rect width="10" height="10" fill="white"/>
</clipPath>
</defs>
</svg>
