<svg width="18" height="18" viewBox="0 0 18 18" fill="none" xmlns="http://www.w3.org/2000/svg">
<path d="M7.5 7.5C7.91421 7.5 8.25 7.83579 8.25 8.25V12.75C8.25 13.1642 7.91421 13.5 7.5 13.5C7.08579 13.5 6.75 13.1642 6.75 12.75V8.25C6.75 7.83579 7.08579 7.5 7.5 7.5Z" fill="#8A8A8E"/>
<path d="M10.5 7.5C10.9142 7.5 11.25 7.83579 11.25 8.25V12.75C11.25 13.1642 10.9142 13.5 10.5 13.5C10.0858 13.5 9.75 13.1642 9.75 12.75V8.25C9.75 7.83579 10.0858 7.5 10.5 7.5Z" fill="#8A8A8E"/>
<path fill-rule="evenodd" clip-rule="evenodd" d="M10.5 0.75C11.1189 0.75 11.675 1.05197 12.0615 1.43848C12.448 1.82499 12.75 2.38108 12.75 3V3.75H15.75C16.1642 3.75 16.5 4.08579 16.5 4.5C16.5 4.91421 16.1642 5.25 15.75 5.25H15V15C15 15.6189 14.698 16.175 14.3115 16.5615C13.925 16.948 13.3689 17.25 12.75 17.25H5.25C4.63108 17.25 4.07499 16.948 3.68848 16.5615C3.30197 16.175 3 15.6189 3 15V5.25H2.25C1.83579 5.25 1.5 4.91421 1.5 4.5C1.5 4.08579 1.83579 3.75 2.25 3.75H5.25V3C5.25 2.38108 5.55197 1.82499 5.93848 1.43848C6.32499 1.05197 6.88108 0.75 7.5 0.75H10.5ZM4.5 15C4.5 15.1311 4.57303 15.325 4.74902 15.501C4.92501 15.677 5.11892 15.75 5.25 15.75H12.75C12.8811 15.75 13.075 15.677 13.251 15.501C13.427 15.325 13.5 15.1311 13.5 15V5.25H4.5V15ZM7.5 2.25C7.36892 2.25 7.17501 2.32303 6.99902 2.49902C6.82303 2.67501 6.75 2.86892 6.75 3V3.75H11.25V3C11.25 2.86892 11.177 2.67501 11.001 2.49902C10.825 2.32303 10.6311 2.25 10.5 2.25H7.5Z" fill="#8A8A8E"/>
</svg>
