<svg width="14" height="14" viewBox="0 0 14 14" fill="none" xmlns="http://www.w3.org/2000/svg">
<path d="M12.25 6.41669C12.5722 6.41669 12.8333 6.67786 12.8333 7.00002C12.8333 8.54712 12.2189 10.031 11.1249 11.1249C10.0309 12.2189 8.54709 12.8334 6.99999 12.8334H6.99771C5.48055 12.8276 4.02057 12.2722 2.88533 11.2759L2.65575 11.064L2.33332 10.7416V12.25C2.33332 12.5722 2.07216 12.8334 1.74999 12.8334C1.42782 12.8334 1.16666 12.5722 1.16666 12.25V9.33335C1.16666 9.28662 1.1728 9.24133 1.18318 9.19777C1.18598 9.18601 1.18818 9.17406 1.19172 9.16246C1.20042 9.13402 1.21202 9.10683 1.22476 9.08042C1.23594 9.05721 1.2485 9.0345 1.26293 9.01263C1.31582 8.93248 1.38776 8.86602 1.47256 8.82009C1.48058 8.81575 1.48889 8.81206 1.49706 8.80813C1.52347 8.79539 1.55065 8.78378 1.57909 8.77509C1.59092 8.77148 1.60299 8.76881 1.61498 8.76597C1.6216 8.7644 1.62821 8.76276 1.63492 8.76141L1.63834 8.76084L1.69018 8.75287C1.70984 8.75087 1.7298 8.75002 1.74999 8.75002H4.66666C4.98882 8.75002 5.24999 9.01119 5.24999 9.33335C5.24999 9.65552 4.98882 9.91669 4.66666 9.91669H3.15819L3.4772 10.2357C4.42355 11.1488 5.68599 11.6614 7.00113 11.6667C8.23839 11.6664 9.42514 11.175 10.3 10.3001C11.1752 9.4249 11.6667 8.2377 11.6667 7.00002C11.6667 6.67786 11.9278 6.41669 12.25 6.41669Z" fill="#8A8A8E"/>
<path d="M7.00227 1.16669C8.51943 1.17241 9.97941 1.72787 11.1147 2.72414L11.3442 2.93606L11.6667 3.25848V1.75002C11.6667 1.42785 11.9278 1.16669 12.25 1.16669C12.5722 1.16669 12.8333 1.42785 12.8333 1.75002V4.66669C12.8333 4.69955 12.8294 4.73158 12.8242 4.76296C12.8201 4.78789 12.8151 4.81269 12.8077 4.83702C12.799 4.86541 12.7879 4.89267 12.7752 4.91905C12.7713 4.92731 12.7671 4.93544 12.7627 4.94354C12.7167 5.02843 12.6509 5.10082 12.5707 5.15375C12.5487 5.16828 12.5257 5.18068 12.5024 5.19192C12.476 5.20461 12.4487 5.21572 12.4203 5.22439C12.4085 5.22799 12.3964 5.23066 12.3844 5.2335C12.3778 5.23507 12.3712 5.23672 12.3645 5.23806C12.3584 5.23926 12.3523 5.23989 12.3463 5.24091C12.3149 5.24613 12.2829 5.25002 12.25 5.25002H9.33332C9.01116 5.25002 8.74999 4.98885 8.74999 4.66669C8.74999 4.34452 9.01116 4.08335 9.33332 4.08335H10.8418L10.5228 3.76434C9.57642 2.85121 8.314 2.33859 6.99885 2.33335C5.76158 2.33366 4.57484 2.82507 3.69994 3.69997C2.82477 4.57514 2.33332 5.76234 2.33332 7.00002C2.33332 7.32219 2.07216 7.58335 1.74999 7.58335C1.42782 7.58335 1.16666 7.32219 1.16666 7.00002C1.16666 5.45292 1.78111 3.96906 2.87507 2.8751C3.96903 1.78114 5.45289 1.16669 6.99999 1.16669H7.00227Z" fill="#8A8A8E"/>
</svg>
