<svg width="16" height="16" viewBox="0 0 16 16" fill="none" xmlns="http://www.w3.org/2000/svg">
<path fill-rule="evenodd" clip-rule="evenodd" d="M7.33331 1.33334C10.647 1.33334 13.3333 4.01963 13.3333 7.33334C13.3333 8.74999 12.8412 10.051 12.0202 11.0775L14.4713 13.5287C14.7317 13.789 14.7317 14.211 14.4713 14.4714C14.211 14.7317 13.789 14.7317 13.5286 14.4714L11.0775 12.0202C10.051 12.8412 8.74996 13.3333 7.33331 13.3333C4.0196 13.3333 1.33331 10.6471 1.33331 7.33334C1.33331 4.01963 4.0196 1.33334 7.33331 1.33334ZM7.33331 2.66668C4.75598 2.66668 2.66665 4.75601 2.66665 7.33334C2.66665 9.91067 4.75598 12 7.33331 12C9.91064 12 12 9.91067 12 7.33334C12 4.75601 9.91064 2.66668 7.33331 2.66668Z" fill="#DCDCDD"/>
</svg>
