<svg width="20" height="20" viewBox="0 0 20 20" fill="none" xmlns="http://www.w3.org/2000/svg">
<g clip-path="url(#clip0_15252_16922)">
<path fill-rule="evenodd" clip-rule="evenodd" d="M15.2907 2.4695C16.4097 2.12521 17.458 3.17357 17.1137 4.29251L13.188 17.0501C12.8011 18.3074 11.0788 18.4499 10.4904 17.2734L7.7639 11.8193L2.31041 9.09345C1.1337 8.5051 1.27575 6.78218 2.5331 6.39519L15.2907 2.4695ZM15.9185 3.9248C15.9677 3.76496 15.8183 3.61552 15.6584 3.6647L2.90081 7.59039C2.72134 7.64577 2.7011 7.89133 2.86916 7.97536L8.10571 10.5936L10.9122 7.78719C11.1562 7.54314 11.552 7.54314 11.796 7.78719C12.0401 8.03126 12.0401 8.42699 11.796 8.67107L8.9896 11.4775L11.6079 16.7141C11.6918 16.882 11.9378 16.8622 11.9934 16.683L15.9185 3.9248Z" fill="#8A8A8E"/>
</g>
<defs>
<clipPath id="clip0_15252_16922">
<rect width="20" height="20" fill="white"/>
</clipPath>
</defs>
</svg>
