<svg width="21" height="21" viewBox="0 0 21 21" fill="none" xmlns="http://www.w3.org/2000/svg">
<g filter="url(#filter0_d_15202_8876)">
<path d="M13.4841 7.6676C13.6836 7.6676 13.8804 7.68209 14.0753 7.70312C13.5444 5.27465 10.9003 3.46991 7.88247 3.46991C4.50833 3.46991 1.74426 5.72876 1.74426 8.59684C1.74426 10.2521 2.66405 11.6116 4.20049 12.6661L3.58667 14.4799L5.73223 13.4229C6.50045 13.5719 7.11613 13.7256 7.88247 13.7256C8.075 13.7256 8.26563 13.7163 8.45534 13.7014C8.33529 13.2987 8.26562 12.8763 8.26562 12.4386C8.26565 9.80501 10.5684 7.6676 13.4841 7.6676ZM10.1843 6.03292C10.6465 6.03292 10.9525 6.33191 10.9525 6.78556C10.9525 7.23733 10.6465 7.54006 10.1843 7.54006C9.72392 7.54006 9.26262 7.23733 9.26262 6.78556C9.26262 6.33191 9.72394 6.03292 10.1843 6.03292ZM5.8885 7.54004C5.42812 7.54004 4.96398 7.23731 4.96398 6.78554C4.96398 6.33189 5.42812 6.0329 5.8885 6.0329C6.34837 6.0329 6.65483 6.33189 6.65483 6.78554C6.65483 7.23733 6.34837 7.54004 5.8885 7.54004ZM19.0866 12.3661C19.0866 9.9559 16.6308 7.99136 13.8729 7.99136C10.9525 7.99136 8.65257 9.9559 8.65257 12.3661C8.65257 14.7799 10.9525 16.7402 13.8729 16.7402C14.4839 16.7402 15.1005 16.5897 15.7143 16.4384L17.3981 17.3438L16.9363 15.8376C18.1687 14.9294 19.0866 13.7256 19.0866 12.3661ZM12.1802 11.6116C11.8747 11.6116 11.5663 11.3131 11.5663 11.0085C11.5663 10.7081 11.8747 10.4058 12.1802 10.4058C12.6443 10.4058 12.9484 10.7081 12.9484 11.0085C12.9484 11.3131 12.6443 11.6116 12.1802 11.6116ZM15.5562 11.6116C15.2531 11.6116 14.9466 11.3131 14.9466 11.0085C14.9466 10.7081 15.2531 10.4058 15.5562 10.4058C16.0166 10.4058 16.3244 10.7081 16.3244 11.0085C16.3244 11.3131 16.0166 11.6116 15.5562 11.6116Z" fill="black"/>
</g>
<defs>
<filter id="filter0_d_15202_8876" x="-3.1234" y="0" width="27.0576" height="27.0576" filterUnits="userSpaceOnUse" color-interpolation-filters="sRGB">
<feFlood flood-opacity="0" result="BackgroundImageFix"/>
<feColorMatrix in="SourceAlpha" type="matrix" values="0 0 0 0 0 0 0 0 0 0 0 0 0 0 0 0 0 0 127 0" result="hardAlpha"/>
<feOffset dy="3.1234"/>
<feGaussianBlur stdDeviation="1.5617"/>
<feComposite in2="hardAlpha" operator="out"/>
<feColorMatrix type="matrix" values="0 0 0 0 0 0 0 0 0 0 0 0 0 0 0 0 0 0 0.05 0"/>
<feBlend mode="normal" in2="BackgroundImageFix" result="effect1_dropShadow_15202_8876"/>
<feBlend mode="normal" in="SourceGraphic" in2="effect1_dropShadow_15202_8876" result="shape"/>
</filter>
</defs>
</svg>
