<svg width="10" height="10" viewBox="0 0 10 10" fill="none" xmlns="http://www.w3.org/2000/svg">
<g clip-path="url(#clip0_16021_217)">
<path d="M6.32562 8.75003V7.91684C6.32562 7.5653 6.18619 7.22796 5.93766 6.97934C5.68906 6.73075 5.35171 6.59098 5.00016 6.59094H2.50016C2.14854 6.59094 1.81128 6.73071 1.56266 6.97934C1.31403 7.22797 1.17425 7.56523 1.17425 7.91684V8.75003C1.17425 8.93831 1.02162 9.09094 0.833341 9.09094C0.645062 9.09094 0.492432 8.93831 0.492432 8.75003V7.91684C0.492432 7.3844 0.704095 6.87377 1.08059 6.49728C1.45708 6.12078 1.96771 5.90912 2.50016 5.90912H5.00016C5.53254 5.90916 6.04326 6.12082 6.41972 6.49728C6.79612 6.87375 7.00744 7.38447 7.00744 7.91684V8.75003C7.00744 8.93831 6.8548 9.09094 6.66653 9.09094C6.47832 9.09086 6.32562 8.93826 6.32562 8.75003Z" fill="white"/>
<path d="M5.07562 2.91684C5.07562 2.1847 4.48228 1.59102 3.75016 1.59094C3.01796 1.59094 2.42425 2.18465 2.42425 2.91684C2.42433 3.64897 3.01801 4.2423 3.75016 4.2423C4.48223 4.24222 5.07554 3.64892 5.07562 2.91684ZM5.75743 2.91684C5.75735 4.02548 4.85879 4.92404 3.75016 4.92412C2.64145 4.92412 1.74251 4.02553 1.74243 2.91684C1.74243 1.80809 2.6414 0.909119 3.75016 0.909119C4.85884 0.909199 5.75743 1.80814 5.75743 2.91684Z" fill="white"/>
<path d="M7.57581 5.83334V3.33334C7.57581 3.14506 7.72844 2.99243 7.91671 2.99243C8.10499 2.99243 8.25762 3.14506 8.25762 3.33334V5.83334C8.25762 6.02162 8.10499 6.17425 7.91671 6.17425C7.72844 6.17425 7.57581 6.02162 7.57581 5.83334Z" fill="white"/>
<path d="M9.16671 4.24243C9.35499 4.24243 9.50762 4.39506 9.50762 4.58334C9.50762 4.77162 9.35499 4.92425 9.16671 4.92425H6.66671C6.47844 4.92425 6.32581 4.77162 6.32581 4.58334C6.32581 4.39506 6.47844 4.24243 6.66671 4.24243H9.16671Z" fill="white"/>
</g>
<defs>
<clipPath id="clip0_16021_217">
<rect width="10" height="10" fill="white"/>
</clipPath>
</defs>
</svg>
