<svg width="58" height="58" viewBox="0 0 58 58" fill="none" xmlns="http://www.w3.org/2000/svg">
<g filter="url(#filter0_d_15202_8210)">
<g clip-path="url(#clip0_15202_8210)">
<path d="M0.000732422 0H58.0007V58H0.000732422V0Z" fill="#E20000"/>
<path d="M32.6205 11.4103C33.5769 11.1497 34.6203 11.1497 35.5767 11.4103C36.707 11.6709 37.7504 12.192 38.6199 12.8869C38.9676 13.1475 39.2285 13.4081 39.4024 13.8424C39.6632 14.4504 39.5763 15.1453 39.2285 15.6664C38.9676 16.1007 38.446 16.4482 37.8373 16.535C37.4026 16.6219 36.9678 16.535 36.5331 16.2744C36.3592 16.1876 36.1853 15.927 35.9245 15.8401C35.3158 15.4927 34.7072 15.1453 34.0116 15.2321C33.4899 15.2321 33.0552 15.4927 32.7944 15.8401C32.4466 16.1876 32.3596 16.6219 32.4466 17.0562C32.7074 17.9248 32.8813 18.8803 33.1422 19.7489C34.8811 19.8357 36.5331 20.27 38.0112 21.1386C39.4024 22.0072 40.7066 23.1364 41.75 24.4393C42.6194 25.5685 43.315 26.8714 43.6628 28.2612C44.0975 29.7378 44.2714 31.3013 44.0975 32.7779C44.0106 34.0808 43.7498 35.2968 43.315 36.5129C42.1847 39.3793 40.1849 41.9851 37.4895 43.6354C35.5767 44.8515 33.3161 45.6332 31.0554 45.8938C29.4904 46.0675 27.9253 46.0675 26.3603 45.8069C23.1432 45.2857 20.187 43.7223 17.8394 41.377C15.5788 39.1187 14.0137 36.1654 13.3181 33.0385C13.0573 30.6932 13.0573 28.348 13.579 26.0028C14.1876 23.2233 15.6657 20.5306 17.5786 18.446C19.2306 16.7088 21.2303 15.4058 23.404 14.4504C23.6649 14.3635 23.8388 14.2767 24.0996 14.1898C24.6213 14.1029 25.143 14.1898 25.5777 14.5372C26.1864 14.9715 26.4472 15.6664 26.3603 16.3613C26.2733 17.0562 25.7516 17.6642 25.143 17.9248C22.9693 18.7934 20.9695 20.27 19.5783 22.0941C18.2741 23.9181 17.4047 25.9159 17.1438 28.0006C16.883 30.0852 17.1438 32.1699 17.8394 34.1676C18.8828 37.034 21.0565 39.4661 23.7518 40.8559C25.4038 41.7245 27.2297 42.1588 29.0556 42.1588C30.5337 42.1588 32.0988 41.8982 33.49 41.377C34.7072 40.9427 35.9245 40.2479 36.8809 39.3793C37.8373 38.5975 38.6199 37.5552 39.1415 36.5129C39.4024 35.9917 39.7502 35.3837 39.8371 34.7757C40.3588 33.0385 40.4457 31.1275 39.9241 29.3903C39.4893 27.9137 38.6199 26.6108 37.4895 25.6553C36.9679 25.221 36.4462 24.7867 35.8375 24.4393C35.3158 24.1787 34.7942 23.9181 34.1855 23.8313C34.6203 25.3948 34.9681 26.9583 35.4028 28.4349C35.4897 28.7823 35.5767 29.2166 35.5767 29.5641C35.6636 31.1275 35.055 32.7779 34.0116 33.9939C33.0552 35.1231 31.6641 35.9917 30.1859 36.2523C28.6209 36.5997 26.8819 36.2523 25.4908 35.3837C24.1866 34.5151 23.2301 33.2122 22.7085 31.8224C22.4476 31.0407 22.2737 30.1721 22.2737 29.3035C22.1868 27.3926 22.7085 25.5685 23.7518 24.005C24.9691 22.1809 26.9689 20.878 29.1426 20.27C28.9687 19.662 28.7948 19.054 28.7078 18.446C28.2731 17.1431 28.36 15.6664 28.9687 14.5372C29.3165 13.8424 29.7512 13.2343 30.3598 12.8C31.1424 12.1052 31.8379 11.6709 32.6205 11.4103ZM27.5775 25.4816C26.9689 26.0897 26.6211 26.8714 26.4472 27.6531C26.2733 28.348 26.2733 29.1298 26.4472 29.9115C26.6211 30.6932 27.0558 31.475 27.7514 31.9961C28.2731 32.3436 28.9687 32.5173 29.6643 32.3436C30.8815 32.1699 31.8379 31.0407 31.8379 29.8246C31.751 29.5641 31.751 29.2166 31.6641 28.956C31.2293 27.3057 30.7946 25.5685 30.3598 23.9181C29.3165 24.1787 28.36 24.6999 27.5775 25.4816Z" fill="white"/>
</g>
</g>
<defs>
<filter id="filter0_d_15202_8210" x="0" y="0" width="66" height="66" filterUnits="userSpaceOnUse" color-interpolation-filters="sRGB">
<feFlood flood-opacity="0" result="BackgroundImageFix"/>
<feColorMatrix in="SourceAlpha" type="matrix" values="0 0 0 0 0 0 0 0 0 0 0 0 0 0 0 0 0 0 127 0" result="hardAlpha"/>
<feOffset dx="4" dy="4"/>
<feGaussianBlur stdDeviation="2"/>
<feComposite in2="hardAlpha" operator="out"/>
<feColorMatrix type="matrix" values="0 0 0 0 0 0 0 0 0 0 0 0 0 0 0 0 0 0 0.02 0"/>
<feBlend mode="normal" in2="BackgroundImageFix" result="effect1_dropShadow_15202_8210"/>
<feBlend mode="normal" in="SourceGraphic" in2="effect1_dropShadow_15202_8210" result="shape"/>
</filter>
<clipPath id="clip0_15202_8210">
<path d="M0 16C0 7.16345 7.16344 0 16 0H42C50.8366 0 58 7.16344 58 16V42C58 50.8366 50.8366 58 42 58H16C7.16345 58 0 50.8366 0 42V16Z" fill="white"/>
</clipPath>
</defs>
</svg>
