<svg width="20" height="20" viewBox="0 0 20 20" fill="none" xmlns="http://www.w3.org/2000/svg">
<path d="M9.99998 11.6667C11.105 11.6667 12.1645 12.106 12.9459 12.8874C13.7273 13.6688 14.1666 14.7283 14.1666 15.8334V17.5C14.1666 17.9603 13.7936 18.3334 13.3333 18.3334C12.8731 18.3334 12.5 17.9603 12.5 17.5V15.8334C12.5 15.1703 12.2364 14.5346 11.7676 14.0658C11.2987 13.5969 10.663 13.3334 9.99998 13.3334H4.99998C4.33694 13.3334 3.70124 13.5969 3.2324 14.0658C2.76356 14.5346 2.49998 15.1703 2.49998 15.8334V17.5C2.49998 17.9603 2.12688 18.3334 1.66665 18.3334C1.20641 18.3334 0.833313 17.9603 0.833313 17.5V15.8334C0.833313 14.7283 1.27261 13.6688 2.05402 12.8874C2.83542 12.106 3.89491 11.6667 4.99998 11.6667H9.99998Z" fill="black"/>
<path d="M15.0268 12.3999C15.142 11.9545 15.5961 11.6867 16.0416 11.8018C16.9355 12.0326 17.7278 12.5533 18.2934 13.2829C18.859 14.0125 19.1659 14.9094 19.1666 15.8325V17.5C19.1666 17.9603 18.7936 18.3334 18.3333 18.3334C17.8731 18.3334 17.5 17.9603 17.5 17.5V15.8342C17.4995 15.2804 17.3152 14.7419 16.9759 14.3042C16.6365 13.8665 16.1613 13.554 15.625 13.4155C15.1794 13.3005 14.9118 12.8455 15.0268 12.3999Z" fill="black"/>
<path fill-rule="evenodd" clip-rule="evenodd" d="M7.49998 1.66669C9.80117 1.66669 11.6666 3.53217 11.6666 5.83335C11.6666 8.13454 9.80117 10 7.49998 10C5.19879 10 3.33331 8.13454 3.33331 5.83335C3.33331 3.53217 5.19879 1.66669 7.49998 1.66669ZM7.49998 3.33335C6.11927 3.33335 4.99998 4.45264 4.99998 5.83335C4.99998 7.21407 6.11927 8.33335 7.49998 8.33335C8.88069 8.33335 9.99998 7.21407 9.99998 5.83335C9.99998 4.45264 8.88069 3.33335 7.49998 3.33335Z" fill="black"/>
<path d="M12.526 2.40155C12.6403 1.95583 13.0942 1.68685 13.54 1.80096C14.4363 2.03044 15.231 2.55206 15.7983 3.2829C16.3654 4.01364 16.6731 4.91243 16.6732 5.83742C16.6732 6.76259 16.3656 7.66192 15.7983 8.39276C15.231 9.12359 14.4363 9.64439 13.54 9.87388C13.0942 9.98804 12.6402 9.71915 12.526 9.27329C12.412 8.8275 12.6808 8.37344 13.1266 8.2593C13.6643 8.1216 14.1412 7.80912 14.4816 7.37063C14.8219 6.93213 15.0065 6.39251 15.0065 5.83742C15.0064 5.28252 14.8218 4.74343 14.4816 4.30503C14.1412 3.86653 13.6644 3.55324 13.1266 3.41555C12.6808 3.30137 12.4119 2.84739 12.526 2.40155Z" fill="black"/>
</svg>
