<svg width="18" height="18" viewBox="0 0 18 18" fill="none" xmlns="http://www.w3.org/2000/svg">
<path d="M1.3125 9C1.3125 8.17157 1.98407 7.5 2.8125 7.5C3.64093 7.5 4.3125 8.17157 4.3125 9C4.3125 9.82843 3.64093 10.5 2.8125 10.5C1.98407 10.5 1.3125 9.82843 1.3125 9ZM7.5 9C7.5 8.17157 8.17157 7.5 9 7.5C9.82843 7.5 10.5 8.17157 10.5 9C10.5 9.82843 9.82843 10.5 9 10.5C8.17157 10.5 7.5 9.82843 7.5 9ZM13.6875 9C13.6875 8.17157 14.3591 7.5 15.1875 7.5C16.0159 7.5 16.6875 8.17157 16.6875 9C16.6875 9.82843 16.0159 10.5 15.1875 10.5C14.3591 10.5 13.6875 9.82843 13.6875 9Z" fill="black"/>
</svg>
