<svg width="58" height="58" viewBox="0 0 58 58" fill="none" xmlns="http://www.w3.org/2000/svg">
<g filter="url(#filter0_d_15202_8158)">
<g clip-path="url(#clip0_15202_8158)">
<path d="M-0.000183105 0H57.9998V58H-0.000183105V0Z" fill="#01CC7A"/>
<path d="M31.9511 21.3531C34.5734 20.3882 37.4224 20.308 40.0912 21.124C41.9664 21.7444 43.6452 22.8792 44.9501 24.4084C46.255 25.9375 47.1374 27.8042 47.5042 29.8111C48.0938 33.0951 47.4588 36.4888 45.7277 39.3051C43.9966 42.1213 41.2989 44.1495 38.181 44.9788C40.2402 42.6777 41.5062 39.7329 41.7807 36.6054C41.965 34.4821 41.6963 32.3426 40.9937 30.3393C40.2911 28.3359 39.1718 26.5178 37.7154 25.0142C36.0749 23.3714 34.1072 22.1216 31.9511 21.3531Z" fill="white"/>
<path d="M12.9649 31.4071C13.2358 29.1749 13.9916 27.0357 15.1751 25.1508C15.4981 27.208 16.2129 29.1778 17.2776 30.9452C18.3423 32.7125 19.7356 34.242 21.3762 35.4443C21.7529 35.7407 22.2041 36.062 22.2089 36.6124C22.0337 37.8104 21.6858 38.9685 21.489 40.149C21.4866 40.2426 21.5083 40.3351 21.5519 40.417C21.5955 40.4989 21.6593 40.5673 21.7369 40.615C21.8144 40.6627 21.9028 40.6881 21.993 40.6885C22.0831 40.6889 22.1718 40.6643 22.2497 40.6173C23.5264 39.8826 24.6879 38.9486 25.967 38.2188C26.4909 38.0154 27.0664 38.0057 27.5964 38.1915C29.5074 38.5772 31.4737 38.5592 33.3778 38.1386C35.2819 37.7179 37.0848 36.9032 38.6787 35.7432C38.5523 37.4756 38.0416 39.1542 37.1865 40.6478C36.3314 42.1414 35.1551 43.4096 33.7495 44.3532C31.1246 46.055 28.0013 46.7305 24.9399 46.2584C21.8699 45.9822 18.9924 44.5904 16.8142 42.3283C15.4488 40.9058 14.3974 39.1925 13.7328 37.3069C13.0681 35.4212 12.8062 33.4082 12.9649 31.4071Z" fill="white"/>
<path d="M18.5889 19.9227C19.3617 17.6703 20.7408 15.6952 22.5626 14.2318C24.3844 12.7684 26.5725 11.878 28.8672 11.6664C31.3674 11.4109 33.8849 11.9231 36.1072 13.1394C38.3294 14.3556 40.1586 16.2224 41.3677 18.508C37.7809 17.2659 33.8868 17.3779 30.3718 18.8243C27.942 19.8642 25.8147 21.5423 24.199 23.6938C22.5833 25.8453 21.5349 28.3961 21.1566 31.0954C19.8475 29.614 18.9245 27.8102 18.4752 25.855C18.0258 23.8997 18.0649 21.8578 18.5889 19.9227Z" fill="white"/>
</g>
</g>
<defs>
<filter id="filter0_d_15202_8158" x="0" y="0" width="66" height="66" filterUnits="userSpaceOnUse" color-interpolation-filters="sRGB">
<feFlood flood-opacity="0" result="BackgroundImageFix"/>
<feColorMatrix in="SourceAlpha" type="matrix" values="0 0 0 0 0 0 0 0 0 0 0 0 0 0 0 0 0 0 127 0" result="hardAlpha"/>
<feOffset dx="4" dy="4"/>
<feGaussianBlur stdDeviation="2"/>
<feComposite in2="hardAlpha" operator="out"/>
<feColorMatrix type="matrix" values="0 0 0 0 0 0 0 0 0 0 0 0 0 0 0 0 0 0 0.02 0"/>
<feBlend mode="normal" in2="BackgroundImageFix" result="effect1_dropShadow_15202_8158"/>
<feBlend mode="normal" in="SourceGraphic" in2="effect1_dropShadow_15202_8158" result="shape"/>
</filter>
<clipPath id="clip0_15202_8158">
<path d="M0 16C0 7.16345 7.16344 0 16 0H42C50.8366 0 58 7.16344 58 16V42C58 50.8366 50.8366 58 42 58H16C7.16345 58 0 50.8366 0 42V16Z" fill="white"/>
</clipPath>
</defs>
</svg>
