<svg width="10" height="10" viewBox="0 0 10 10" fill="none" xmlns="http://www.w3.org/2000/svg">
<g clip-path="url(#clip0_15956_6868)">
<path d="M2.0909 4.99994C2.0909 4.68244 2.14507 4.37786 2.2409 4.09244L0.558403 2.83411C0.220362 3.50597 0.0448162 4.24783 0.0459035 4.99994C0.0459035 5.77827 0.23007 6.51244 0.55757 7.16411L2.23924 5.90369C2.14118 5.61246 2.09108 5.30723 2.0909 4.99994Z" fill="#FBBC05"/>
<path d="M5.04561 2.11121C5.74977 2.11121 6.38602 2.35537 6.88602 2.75537L8.34061 1.33329C7.45436 0.577873 6.31811 0.111206 5.04561 0.111206C3.06977 0.111206 1.37144 1.21746 0.558105 2.83412L2.24144 4.09246C2.62894 2.93996 3.73394 2.11121 5.04561 2.11121Z" fill="#EA4335"/>
<path d="M5.04561 7.88872C3.73352 7.88872 2.62852 7.05997 2.24061 5.90747L0.558105 7.1658C1.37102 8.78247 3.06936 9.88872 5.04561 9.88872C6.26477 9.88872 7.42894 9.46497 8.30311 8.67039L6.70561 7.46122C6.25519 7.73914 5.68769 7.88872 5.04519 7.88872" fill="#34A853"/>
<path d="M9.81833 4.99996C9.81833 4.71121 9.77249 4.39996 9.70458 4.11121H5.04541V5.99996H7.72708C7.59333 6.64412 7.22833 7.13912 6.70624 7.46121L8.30333 8.67037C9.22124 7.83621 9.81833 6.59371 9.81833 4.99996Z" fill="#4285F4"/>
</g>
<defs>
<clipPath id="clip0_15956_6868">
<rect width="10" height="10" fill="white"/>
</clipPath>
</defs>
</svg>
