<svg width="43" height="42" viewBox="0 0 43 42" fill="none" xmlns="http://www.w3.org/2000/svg">
<path d="M21.1452 1.769e-06C9.46242 -0.00472235 0 9.45297 0 21.1263C0 30.3572 5.91932 38.204 14.1629 41.0857C15.2731 41.3644 15.103 40.5755 15.103 40.0369V36.3757C8.69238 37.1269 8.43256 32.8846 8.00266 32.176C7.13342 30.6926 5.07843 30.3147 5.69257 29.6061C7.15232 28.8549 8.64042 29.795 10.3647 32.3413C11.6119 34.1885 14.0448 33.8767 15.2778 33.5696C15.5471 32.4594 16.1234 31.4674 16.9171 30.6973C10.275 29.5069 7.50663 25.4536 7.50663 20.635C7.50663 18.2965 8.27666 16.147 9.78838 14.4133C8.82466 11.5552 9.87814 9.10811 10.0199 8.74435C12.7646 8.49869 15.6179 10.7096 15.84 10.8844C17.3989 10.4639 19.1799 10.2419 21.1735 10.2419C23.1765 10.2419 24.9623 10.4734 26.5354 10.8985C27.0692 10.4923 29.7147 8.59318 32.2658 8.82466C32.4027 9.18842 33.4326 11.5788 32.5256 14.3991C34.0562 16.1376 34.8357 18.306 34.8357 20.6491C34.8357 25.4772 32.0484 29.5352 25.3874 30.7068C26.4976 31.8028 27.1873 33.3239 27.1873 35.0057V40.3204C27.2251 40.7455 27.1873 41.166 27.8959 41.166C36.2624 38.3457 42.2856 30.4422 42.2856 21.131C42.2856 9.45297 32.8185 1.769e-06 21.1452 1.769e-06Z" fill="#C4C4C7"/>
</svg>
