<svg width="58" height="58" viewBox="0 0 58 58" fill="none" xmlns="http://www.w3.org/2000/svg">
<g filter="url(#filter0_d_15202_8108)">
<g clip-path="url(#clip0_15202_8108)">
<path d="M0 16C0 7.16345 7.16344 0 16 0H42C50.8366 0 58 7.16344 58 16V42C58 50.8366 50.8366 58 42 58H16C7.16345 58 0 50.8366 0 42V16Z" fill="white"/>
<path d="M-0.00128174 0H57.9987V58H-0.00128174V0Z" fill="white"/>
<path d="M46.6736 36.7481C46.5806 36.3988 46.4303 36.0673 46.2286 35.7671C46.2718 35.609 46.3048 35.4484 46.3268 35.286C46.47 34.256 46.112 33.3131 45.4373 32.5835C45.0718 32.185 44.6801 31.9218 44.2652 31.7603C44.5375 30.5982 44.6752 29.4087 44.6759 28.2153C44.6759 27.6702 44.645 27.1362 44.5932 26.6102C44.5662 26.3475 44.5335 26.0855 44.4952 25.8243C44.3765 25.0533 44.2002 24.2922 43.9679 23.5474C43.8157 23.0581 43.6396 22.5764 43.4402 22.1041C43.1414 21.4048 42.7925 20.7277 42.3963 20.0783C42.1364 19.6462 41.8533 19.2284 41.5483 18.8266C41.3988 18.6238 41.2431 18.4257 41.081 18.2327C40.601 17.6508 40.0792 17.1044 39.52 16.5977C39.3343 16.4274 39.1433 16.2629 38.9472 16.1045C38.7541 15.9439 38.5568 15.7885 38.3555 15.6384C37.9502 15.3376 37.5315 15.0554 37.1005 14.7927C34.7191 13.35 31.9263 12.5227 28.9414 12.5227C20.2505 12.5227 13.2069 19.5483 13.2069 28.2159C13.2065 29.4244 13.3469 30.6288 13.6251 31.805C13.2518 31.9667 12.8941 32.2186 12.5623 32.5832C11.8878 33.3124 11.5296 34.2519 11.6729 35.2819C11.6946 35.4455 11.7273 35.6075 11.7708 35.7667C11.5694 36.0672 11.4191 36.3988 11.3262 36.7481C11.1188 37.5342 11.1871 38.2431 11.4506 38.8643C11.1641 39.6761 11.2357 40.5406 11.6088 41.2923C11.8801 41.8412 12.2684 42.2659 12.747 42.6454C13.3161 43.0967 14.0284 43.48 14.8876 43.8478C15.9127 44.2839 17.164 44.6935 17.7331 44.8438C19.203 45.2234 20.6124 45.464 22.0408 45.4757C24.076 45.4945 25.8286 45.0172 27.0834 43.7957C27.6998 43.8711 28.3203 43.9088 28.9414 43.9085C29.5976 43.9071 30.253 43.8659 30.9042 43.7852C32.156 45.0145 33.9153 45.496 35.9579 45.4767C37.3862 45.4653 38.7956 45.2247 40.2617 44.8447C40.8346 44.6944 42.0854 44.2847 43.111 43.8487C43.9702 43.4803 44.6825 43.097 45.2554 42.6465C45.7304 42.2668 46.1184 41.8423 46.3899 41.2933C46.7667 40.5415 46.8345 39.677 46.5519 38.8652C46.8129 38.244 46.8808 37.5336 46.6736 36.7481ZM45.2151 38.8117C45.5039 39.3583 45.5224 39.9758 45.2676 40.551C44.8812 41.4226 43.9215 42.1092 42.0574 42.8464C40.8982 43.3049 39.8368 43.598 39.8275 43.6006C38.2943 43.9972 36.9077 44.1987 35.7074 44.1987C33.7197 44.1987 32.2407 43.6517 31.3027 42.5713C29.7165 42.8409 28.0969 42.85 26.5078 42.5986C25.5685 43.661 24.0979 44.1987 22.1271 44.1987C20.9266 44.1987 19.5401 43.9972 18.0068 43.6006C17.9975 43.598 16.9364 43.3049 15.7769 42.8464C13.913 42.1092 12.9529 41.4231 12.5666 40.551C12.3119 39.9758 12.3304 39.3583 12.6192 38.8117C12.6458 38.7609 12.6745 38.7114 12.705 38.6635C12.532 38.4043 12.4159 38.1115 12.3644 37.8042C12.313 37.497 12.3273 37.1825 12.4064 36.8812C12.5212 36.4463 12.7581 36.0847 13.0799 35.825C12.9249 35.5709 12.8232 35.2883 12.7809 34.9939C12.6883 34.3538 12.9014 33.7147 13.3806 33.1935C13.7538 32.7879 14.2814 32.5647 14.8655 32.5647H14.881C14.4406 31.1568 14.2174 29.6902 14.2188 28.2153C14.2188 20.1713 20.7572 13.6496 28.8236 13.6496C36.8897 13.6496 43.4281 20.1707 43.4281 28.2153C43.4293 29.6941 43.2045 31.1645 42.7612 32.5758C42.8317 32.5689 42.9009 32.5654 42.9688 32.5652C43.5529 32.5652 44.0806 32.7884 44.4535 33.194C44.9327 33.7147 45.146 34.3543 45.0532 34.9944C45.011 35.2888 44.9092 35.5715 44.7544 35.8255C45.0762 36.0853 45.3133 36.4469 45.4278 36.8817C45.507 37.183 45.5213 37.4975 45.4698 37.8048C45.4185 38.112 45.3024 38.4048 45.1292 38.664C45.1598 38.7114 45.1888 38.7609 45.2151 38.8117Z" fill="white"/>
<path d="M45.1277 38.6645C45.3008 38.4052 45.417 38.1124 45.4685 37.8053C45.5198 37.498 45.5054 37.1834 45.4263 36.8821C45.3115 36.4473 45.0745 36.0857 44.7529 35.8259C44.9079 35.5719 45.0095 35.2892 45.0516 34.9949C45.1444 34.3547 44.9314 33.7156 44.452 33.1944C44.0791 32.7889 43.5513 32.5657 42.9672 32.5657C42.8993 32.5657 42.8302 32.5693 42.7597 32.5762C43.2024 31.1649 43.4269 29.6948 43.4253 28.2161C43.4253 20.172 36.887 13.6504 28.8215 13.6504C20.7559 13.6504 14.2168 20.1713 14.2168 28.2161C14.2153 29.691 14.4386 31.1575 14.879 32.5655H14.8634C14.2793 32.5655 13.7518 32.7885 13.3787 33.1941C12.8995 33.7148 12.6862 34.3545 12.779 34.9945C12.8213 35.2889 12.923 35.5717 13.078 35.8258C12.7562 36.0853 12.5191 36.4469 12.4044 36.8818C12.3253 37.1832 12.311 37.4978 12.3625 37.8051C12.4141 38.1122 12.5302 38.4052 12.7033 38.6645C12.6726 38.7124 12.6442 38.7618 12.6174 38.8127C12.3288 39.3592 12.3102 39.9768 12.5651 40.5519C12.9515 41.4235 13.9113 42.1102 15.7753 42.8474C16.9344 43.3058 17.9959 43.599 18.0053 43.6016C19.5384 43.9982 20.925 44.1997 22.1254 44.1997C24.0964 44.1997 25.567 43.6619 26.5062 42.5995C28.0954 42.851 29.7149 42.8417 31.3011 42.5723C32.2391 43.6526 33.7182 44.1997 35.7058 44.1997C36.9062 44.1997 38.2928 43.9982 39.8257 43.6016C39.8353 43.599 40.8963 43.3058 42.0558 42.8474C43.9199 42.1102 44.8799 41.4235 45.2661 40.5519C45.5208 39.9768 45.5023 39.3592 45.2136 38.8127C45.1873 38.7615 45.1583 38.7119 45.1277 38.6645ZM25.8342 40.9363C25.7533 41.0773 25.6667 41.215 25.5746 41.3489C25.3318 41.7034 25.0125 41.9744 24.6418 42.1757C23.9333 42.5611 23.0364 42.6957 22.1254 42.6957C20.686 42.6957 19.2106 42.3598 18.3837 42.1459C18.3429 42.1354 13.3146 40.7188 13.9512 39.513C14.0583 39.3101 14.2346 39.2291 14.4566 39.2291C15.353 39.2291 16.9852 40.5604 17.6866 40.5604C17.8433 40.5604 17.9539 40.4938 17.999 40.3315C18.298 39.2622 13.4554 38.8127 13.8632 37.2643C13.9351 36.9902 14.1304 36.8789 14.4048 36.8789C15.5899 36.8787 18.2498 38.9575 18.8061 38.9575C18.8487 38.9575 18.8793 38.9449 18.8959 38.9187C18.8983 38.9147 18.9008 38.9109 18.903 38.9068C19.1641 38.4768 19.0143 38.1641 17.2255 37.0714L17.0538 36.9671C15.0853 35.7789 13.7037 35.0638 14.4895 34.2106C14.5798 34.1122 14.7081 34.0686 14.8638 34.0686C15.0483 34.0686 15.2718 34.1301 15.5178 34.2336C16.5575 34.6708 17.9984 35.8633 18.6002 36.3833C18.6949 36.4654 18.789 36.5483 18.8824 36.6317C18.8824 36.6317 19.6445 37.4221 20.1052 37.4221C20.2113 37.4221 20.3013 37.3804 20.3624 37.2774C20.6891 36.7279 17.3273 34.187 17.1378 33.1386C17.0092 32.4283 17.228 32.0684 17.6323 32.0684C17.8247 32.0684 18.0593 32.1501 18.3184 32.314C19.1219 32.8227 20.6734 35.4818 21.2414 36.5162C21.4319 36.8628 21.7569 37.0093 22.0498 37.0093C22.631 37.0093 23.0853 36.4332 22.103 35.701C20.6267 34.5993 21.1448 32.7985 21.8494 32.6877C21.8795 32.6829 21.9098 32.6805 21.9401 32.6805C22.5809 32.6805 22.8634 33.7816 22.8634 33.7816C22.8634 33.7816 23.6918 35.8565 25.1149 37.2748C26.4062 38.5621 26.5866 39.6185 25.8342 40.9363ZM30.4359 41.1793L30.3621 41.1881L30.2363 41.2024C30.1701 41.2093 30.1037 41.2158 30.0372 41.2219L29.9724 41.2277L29.9131 41.2327L29.8291 41.2395L29.7363 41.2462L29.6437 41.2522L29.6232 41.2536C29.599 41.255 29.5748 41.2565 29.5502 41.2577L29.5193 41.2594C29.4906 41.261 29.4619 41.2624 29.4329 41.2636L29.3325 41.2679L29.2414 41.271L29.1806 41.2727H29.1497C29.1307 41.2727 29.1118 41.2738 29.0928 41.2739H29.0627C29.0437 41.2739 29.0249 41.2739 29.0059 41.2748L28.9285 41.2758H28.8205C28.7356 41.2758 28.6509 41.275 28.5666 41.2732L28.4982 41.2717C28.4786 41.2717 28.4591 41.2708 28.4399 41.2701L28.3674 41.2681L28.2773 41.2646L28.1961 41.261L28.1752 41.2601L28.098 41.2562C28.0764 41.255 28.0551 41.2539 28.0337 41.2524L27.9837 41.2495C27.921 41.2455 27.8583 41.2412 27.7955 41.2364L27.7299 41.231C27.7022 41.2289 27.6746 41.2264 27.6471 41.2239C27.6148 41.2212 27.5825 41.2181 27.5501 41.215C27.4961 41.21 27.442 41.2045 27.3879 41.1986H27.3853C28.175 39.4414 27.7757 37.8003 26.1798 36.21C25.1331 35.1674 24.4368 33.6279 24.2924 33.2899C24 32.2894 23.2261 31.1772 21.941 31.1772C21.8323 31.1772 21.7238 31.1858 21.6164 31.2027C21.0534 31.2911 20.5613 31.6143 20.2101 32.1007C19.8306 31.63 19.4619 31.2558 19.1283 31.0445C18.6255 30.7265 18.1236 30.5651 17.6347 30.5651C17.0246 30.5651 16.4792 30.8151 16.099 31.2684L16.0893 31.2799C16.0821 31.2501 16.0752 31.2203 16.0681 31.1903L16.0672 31.1863C15.9949 30.8778 15.9341 30.5667 15.8851 30.2535C15.8851 30.2515 15.8851 30.2494 15.884 30.2473C15.8802 30.2237 15.8768 30.1999 15.8731 30.1763C15.8625 30.1063 15.8525 30.0362 15.8432 29.966C15.8391 29.9342 15.8346 29.9023 15.8306 29.8704L15.8189 29.7747C15.8151 29.7428 15.812 29.7139 15.8085 29.6835L15.8075 29.676C15.7937 29.5519 15.7816 29.4278 15.7712 29.3033L15.7674 29.2556L15.7613 29.1742C15.7596 29.152 15.7579 29.1296 15.7567 29.1072C15.7567 29.1019 15.7558 29.0967 15.7556 29.0917C15.7512 29.0293 15.7475 28.9667 15.7444 28.9042C15.7427 28.8716 15.7409 28.8392 15.7396 28.8064L15.7361 28.7209L15.7352 28.6951L15.7325 28.6163L15.7307 28.5493C15.7307 28.5226 15.7294 28.4959 15.729 28.4691C15.7285 28.4424 15.7278 28.4131 15.7276 28.3849C15.7273 28.3566 15.7276 28.3287 15.7268 28.3006C15.7261 28.2723 15.7268 28.2442 15.7268 28.2161C15.7268 21.0026 21.5903 15.1544 28.8236 15.1544C36.0566 15.1544 41.92 21.0024 41.92 28.2161V28.3849C41.92 28.4129 41.9191 28.4412 41.9186 28.4691C41.9186 28.4924 41.9176 28.5153 41.9169 28.5389C41.9169 28.5596 41.916 28.5805 41.9153 28.6005C41.9153 28.6268 41.9138 28.6532 41.9129 28.6796V28.6817L41.9093 28.7732C41.9081 28.7999 41.9071 28.8268 41.9057 28.8535L41.9048 28.8724L41.9001 28.9579C41.8899 29.1411 41.8759 29.324 41.8585 29.5067V29.509C41.8556 29.5389 41.8526 29.5689 41.8493 29.5989L41.8416 29.6698L41.8262 29.8083L41.8174 29.8785L41.8065 29.961C41.8025 29.991 41.7985 30.0212 41.794 30.051C41.7895 30.0846 41.7845 30.1181 41.7795 30.1515L41.7676 30.2306L41.7534 30.3202C41.7486 30.35 41.7434 30.3797 41.7379 30.4093C41.7322 30.4392 41.7277 30.4688 41.7225 30.4984C41.7121 30.5577 41.7012 30.617 41.6898 30.6761C41.6724 30.7646 41.6546 30.8528 41.6363 30.9411L41.6173 31.0284C41.611 31.0576 41.6043 31.0869 41.5977 31.116C41.2291 30.7587 40.7409 30.5641 40.2026 30.5641C39.7141 30.5641 39.2118 30.7253 38.7091 31.0433C38.3755 31.2546 38.0069 31.6289 37.6273 32.0995C37.2756 31.6131 36.7835 31.2899 36.2208 31.2015C36.1135 31.1846 36.005 31.176 35.8963 31.176C34.6107 31.176 33.8374 32.2882 33.5449 33.2887C33.3997 33.6267 32.7033 35.1662 31.6557 36.2103C30.0609 37.7956 29.6586 39.4294 30.4359 41.1793ZM43.9566 37.6617L43.9514 37.677C43.9382 37.7117 43.923 37.7455 43.9059 37.7782C43.893 37.8023 43.879 37.8258 43.8638 37.8485C43.8349 37.8915 43.8033 37.9325 43.7689 37.9711C43.7609 37.98 43.7533 37.989 43.7443 37.9978C43.7319 38.0111 43.7193 38.0242 43.7063 38.0369C43.4737 38.2668 43.1191 38.4685 42.7182 38.6534C42.6728 38.6739 42.6266 38.6945 42.5801 38.7151L42.5338 38.7357C42.5029 38.7493 42.472 38.7627 42.4395 38.776C42.4085 38.7894 42.3764 38.8029 42.3443 38.816L42.2478 38.8556C42.0223 38.9482 41.7913 39.0364 41.5659 39.1234L41.4695 39.1609L41.3743 39.1981C41.3109 39.2227 41.2483 39.2474 41.1868 39.272L41.095 39.3089L41.0048 39.3456L40.9606 39.3642C40.931 39.3765 40.9022 39.3887 40.8733 39.4009C40.2102 39.6848 39.7331 39.9735 39.8334 40.3317C39.8361 40.3418 39.8392 40.3515 39.8427 40.361C39.8517 40.3875 39.8639 40.4125 39.8793 40.4361C39.8883 40.4501 39.8987 40.4633 39.9103 40.4754C40.0281 40.5976 40.2426 40.5783 40.513 40.4813C40.551 40.4673 40.5889 40.4528 40.6264 40.4377L40.6499 40.428C40.7117 40.4018 40.7772 40.3725 40.8441 40.3408C40.8609 40.3329 40.8778 40.3253 40.8947 40.3165C41.2255 40.1552 41.6003 39.938 41.9722 39.7403C42.121 39.6602 42.2718 39.5842 42.4246 39.5119C42.7768 39.3466 43.1079 39.2294 43.374 39.2294C43.499 39.2294 43.6092 39.255 43.7011 39.3136L43.7165 39.3237C43.7742 39.3642 43.8226 39.4163 43.8587 39.4766C43.8658 39.4882 43.8727 39.5004 43.8795 39.513C44.011 39.762 43.9009 40.0199 43.6433 40.2727C43.396 40.5156 43.0113 40.7536 42.5741 40.9739C42.5416 40.9902 42.5091 41.0066 42.4761 41.0226C41.1749 41.66 39.4708 42.14 39.4471 42.146C38.993 42.2634 38.3436 42.4175 37.6119 42.5328L37.5037 42.5497L37.4859 42.5523C37.404 42.5647 37.3219 42.5762 37.2397 42.5869C37.1562 42.5981 37.0719 42.6083 36.987 42.6178L36.9715 42.6195C36.6639 42.6548 36.3551 42.6783 36.0456 42.6895H36.0411C35.9291 42.6934 35.8173 42.6955 35.7053 42.6955H35.5762C35.4055 42.6933 35.2351 42.6855 35.0649 42.6724C35.0609 42.6724 35.0566 42.6724 35.0526 42.6714C34.9916 42.6667 34.9308 42.661 34.87 42.6543C34.8069 42.6476 34.744 42.64 34.6812 42.6316C34.6399 42.6261 34.5988 42.6198 34.5577 42.6131C34.5159 42.6064 34.4741 42.5995 34.4324 42.5923L34.3756 42.5816L34.3712 42.5807C34.3113 42.5693 34.2516 42.5568 34.1922 42.543C34.1576 42.5352 34.1233 42.5276 34.0892 42.5183L34.0686 42.5132C34.0517 42.509 34.0353 42.5045 34.0185 42.5001L34.0094 42.4976L33.9561 42.4821C33.9368 42.4768 33.9174 42.4709 33.8981 42.4652L33.8913 42.4633L33.8411 42.448C33.822 42.4422 33.803 42.4359 33.7842 42.4297L33.7379 42.4144L33.7038 42.4025C33.671 42.391 33.6384 42.3791 33.606 42.3667L33.5753 42.3546L33.5499 42.3446C33.5008 42.3249 33.4521 42.3044 33.4039 42.2829L33.3719 42.2674L33.3665 42.265C33.3551 42.2596 33.3439 42.2543 33.3325 42.2496C33.3102 42.2389 33.2881 42.2279 33.2661 42.2167L33.2594 42.2134L33.2276 42.1967C33.1711 42.1672 33.1158 42.1359 33.0615 42.1026L33.0318 42.0843C33.0169 42.0752 33.0021 42.0657 32.9876 42.0561L32.9488 42.0306L32.9072 42.002L32.8823 41.9842C32.8561 41.9656 32.8303 41.9463 32.8051 41.9265L32.7648 41.8956C32.7487 41.8827 32.7328 41.8696 32.7171 41.8563C32.7038 41.8455 32.6908 41.8341 32.6779 41.8227L32.6768 41.8218C32.6628 41.8096 32.6492 41.7974 32.6355 41.7848C32.6221 41.7725 32.6086 41.7601 32.5955 41.7476L32.5939 41.746C32.5801 41.7329 32.5666 41.7196 32.5533 41.706C32.54 41.6926 32.5263 41.6791 32.5134 41.6653C32.5004 41.6517 32.4871 41.6378 32.4743 41.6235C32.4615 41.6093 32.4498 41.5964 32.4377 41.5824L32.4337 41.5778C32.422 41.5643 32.4104 41.5507 32.399 41.5368C32.3743 41.5073 32.3502 41.4771 32.3271 41.4463C32.3038 41.4153 32.2809 41.3835 32.2587 41.3513L32.2374 41.3196C32.2091 41.2782 32.1814 41.2365 32.1546 41.1941C32.1346 41.1636 32.115 41.1329 32.096 41.1017C32.0838 41.0823 32.072 41.0626 32.0603 41.0433L32.0554 41.0354C32.0442 41.0164 32.0331 40.9978 32.0224 40.979C32.0162 40.9689 32.0103 40.9587 32.0048 40.9482C31.9991 40.9375 31.9925 40.9266 31.9865 40.9158L31.9766 40.8987L31.9706 40.8877C31.959 40.867 31.9476 40.8461 31.9365 40.8251C31.9314 40.8158 31.9263 40.8065 31.921 40.7975L31.9056 40.7677L31.8901 40.7382C31.8512 40.6607 31.8144 40.5821 31.7798 40.5025L31.7675 40.4733C31.7596 40.4539 31.7522 40.4346 31.7442 40.4154C31.7404 40.4061 31.7366 40.397 31.7333 40.3877C31.7148 40.3399 31.6975 40.2917 31.6816 40.2431C31.6759 40.2257 31.6704 40.2086 31.6652 40.1914C31.6528 40.1522 31.6416 40.1128 31.6315 40.073C31.6193 40.0266 31.6084 39.9799 31.5992 39.9328C31.5973 39.9233 31.5954 39.9139 31.5939 39.9047C31.5849 39.8587 31.5776 39.8124 31.5719 39.7658C31.5705 39.7567 31.5695 39.7475 31.5685 39.7384L31.5655 39.7105C31.5617 39.674 31.5588 39.6372 31.5571 39.6005C31.5571 39.5912 31.5562 39.5819 31.5558 39.573C31.555 39.5547 31.5546 39.5364 31.5545 39.5181C31.5448 38.7817 31.9184 38.0736 32.7173 37.2772C34.1404 35.8592 34.9688 33.7842 34.9688 33.7842C34.9688 33.7842 34.9911 33.6972 35.0374 33.5719C35.0438 33.5545 35.0505 33.5366 35.0581 33.5178C35.0851 33.4476 35.1155 33.3787 35.1492 33.3115L35.156 33.2985C35.1846 33.2413 35.2161 33.1855 35.25 33.1312C35.2579 33.1186 35.2655 33.1062 35.2743 33.0936C35.2997 33.0562 35.3265 33.0197 35.3547 32.9843C35.3701 32.9652 35.3868 32.9462 35.4036 32.9278C35.4103 32.9206 35.4169 32.9133 35.424 32.9064C35.5064 32.8215 35.6006 32.7522 35.7072 32.7153L35.7207 32.7108C35.7297 32.7079 35.7387 32.7051 35.7478 32.7025C35.7584 32.6998 35.7689 32.6974 35.7798 32.6951L35.7848 32.6941C35.8073 32.6896 35.8301 32.6867 35.8531 32.6851H35.855C35.8669 32.6851 35.879 32.6839 35.8913 32.6839C35.9066 32.6839 35.921 32.6839 35.936 32.6855C35.9516 32.6868 35.9669 32.6886 35.9825 32.691C36.1107 32.7113 36.2327 32.7875 36.3378 32.905C36.3777 32.9499 36.4137 32.9981 36.4451 33.0491C36.4658 33.0822 36.4854 33.1172 36.5039 33.1541C36.5113 33.1694 36.5184 33.1836 36.5253 33.1987C36.5433 33.2377 36.5595 33.2773 36.5737 33.3178C36.6074 33.4126 36.6328 33.5102 36.6495 33.6095C36.6641 33.6965 36.6727 33.7844 36.6755 33.8725C36.6768 33.9195 36.6768 33.9673 36.6755 34.0154C36.6661 34.2391 36.6202 34.4599 36.5395 34.6689C36.5322 34.6881 36.5241 34.7074 36.5163 34.7267C36.5004 34.7656 36.4829 34.8039 36.4641 34.8413C36.4501 34.8697 36.4354 34.8983 36.4195 34.9268C36.4092 34.9457 36.3983 34.9647 36.3874 34.9836C36.3596 35.0309 36.3295 35.0778 36.2972 35.1245L36.2777 35.1524C36.2013 35.2586 36.1162 35.3582 36.0233 35.4502C35.9317 35.5417 35.8335 35.6264 35.7297 35.7036C35.6256 35.7804 35.528 35.8656 35.4378 35.9581C35.1781 36.2299 35.1176 36.4699 35.176 36.6517C35.1853 36.6803 35.1976 36.7081 35.2125 36.7343C35.2299 36.7642 35.2507 36.7918 35.2742 36.817L35.2833 36.8265L35.2926 36.8358C35.302 36.8447 35.3118 36.8535 35.3224 36.8621L35.3327 36.8704C35.3578 36.8897 35.3844 36.907 35.4122 36.9221C35.4204 36.9264 35.4276 36.9307 35.4368 36.9349C35.4668 36.9495 35.4978 36.9621 35.5296 36.9723C35.5384 36.9752 35.5472 36.9778 35.5562 36.9806L35.5674 36.9835L35.583 36.9876L35.5963 36.9909L35.6108 36.994L35.6251 36.9969L35.6388 36.9992C35.6488 37.0009 35.6592 37.0026 35.6695 37.0038L35.6794 37.0054L35.6974 37.0071L35.7084 37.0083L35.7266 37.0095H35.7373L35.7563 37.0105H35.8161L35.8332 37.0095L35.8529 37.0083L35.8769 37.0061L35.8994 37.0035C35.9046 37.0035 35.9097 37.0021 35.9149 37.0011C35.9841 36.9911 36.0518 36.9728 36.1166 36.9466L36.1441 36.9351C36.1595 36.9283 36.175 36.9213 36.1892 36.9137C36.2196 36.8985 36.2491 36.8813 36.2775 36.8625C36.3171 36.8366 36.3544 36.8077 36.3893 36.7758C36.3976 36.7684 36.4057 36.7605 36.4137 36.7529C36.4176 36.7491 36.4214 36.7455 36.4252 36.7413C36.4328 36.7336 36.4406 36.726 36.4482 36.7175C36.5035 36.6569 36.5514 36.59 36.5908 36.5181C36.929 35.9047 37.2834 35.3004 37.6537 34.706L37.7045 34.6248L37.7559 34.5436C37.7814 34.5024 37.8074 34.4619 37.8331 34.4216L37.859 34.3813C37.9451 34.2468 38.0325 34.1133 38.1215 33.9807L38.1742 33.9021C38.28 33.7458 38.3854 33.5938 38.4899 33.4493L38.542 33.3778C38.6557 33.2215 38.774 33.0684 38.8969 32.9192L38.9456 32.8609C38.9538 32.8513 38.9612 32.8416 38.97 32.8323C38.9861 32.8133 39.0021 32.7949 39.0179 32.777C39.0258 32.7678 39.0332 32.7589 39.0417 32.7499L39.088 32.6979L39.1112 32.6725C39.1345 32.6475 39.1573 32.6236 39.1798 32.6007C39.1953 32.5852 39.2097 32.5698 39.2245 32.5553C39.3122 32.4661 39.4088 32.3859 39.513 32.3165L39.5372 32.3009C39.5603 32.2854 39.5843 32.2709 39.6089 32.2578C40.0174 32.0265 40.3556 32.0095 40.5503 32.2037C40.6682 32.3213 40.7335 32.5162 40.7299 32.7875C40.7299 32.7994 40.7299 32.8115 40.729 32.8239V32.8371C40.729 32.8495 40.728 32.862 40.7269 32.8745C40.7269 32.89 40.7252 32.9054 40.7237 32.9209C40.7221 32.9362 40.7212 32.948 40.7197 32.9617C40.7197 32.9655 40.719 32.9695 40.7183 32.9736C40.7173 32.9855 40.7157 32.9978 40.714 33.01C40.714 33.0136 40.714 33.0174 40.7126 33.0212C40.7107 33.0376 40.7083 33.0538 40.7055 33.07C40.7036 33.0855 40.701 33.1 40.6983 33.1151L40.6938 33.1408C40.6893 33.1653 40.6836 33.1894 40.6765 33.2132C40.663 33.2579 40.6468 33.3015 40.6276 33.3439C40.6008 33.4021 40.5712 33.4588 40.5388 33.514C40.5208 33.5447 40.5023 33.5748 40.4831 33.6046C40.4634 33.6355 40.4427 33.6667 40.4212 33.6982C40.3666 33.7761 40.31 33.8525 40.251 33.9271L40.2241 33.9611C40.128 34.0805 40.0288 34.1975 39.9265 34.3118L39.8942 34.348C39.8506 34.3964 39.8064 34.4452 39.7611 34.4942L39.7271 34.531C39.7044 34.5557 39.6808 34.5803 39.658 34.6052C39.6353 34.6298 39.6116 34.6548 39.5878 34.6798L39.5168 34.7544L39.4447 34.8296L39.3721 34.9047C39.3234 34.955 39.2745 35.0054 39.2252 35.0557C38.5245 35.7725 37.7863 36.4869 37.5364 36.9323C37.5196 36.9613 37.5046 36.9912 37.4911 37.0217C37.4555 37.1028 37.4407 37.172 37.4508 37.2281C37.4541 37.2465 37.4605 37.2641 37.47 37.2803C37.484 37.3046 37.5011 37.327 37.521 37.347C37.5302 37.3559 37.5398 37.3642 37.55 37.3718C37.6015 37.4083 37.6636 37.4271 37.7268 37.4254H37.7465L37.7667 37.4239L37.787 37.4216L37.8037 37.4192C37.806 37.4189 37.8084 37.4185 37.8106 37.4178L37.826 37.4149L37.83 37.414L37.8471 37.4104L37.8531 37.4089C37.8592 37.4073 37.8651 37.4058 37.8711 37.404C37.8772 37.4023 37.8855 37.4001 37.8927 37.3977C37.9231 37.3885 37.9529 37.3777 37.9821 37.3653C37.9974 37.359 38.0125 37.3523 38.0273 37.3451C38.0351 37.3416 38.0429 37.338 38.0501 37.3342L38.0733 37.3229C38.1286 37.2942 38.1825 37.263 38.235 37.2296L38.258 37.2141C38.2658 37.2093 38.2736 37.2043 38.281 37.1988L38.304 37.1834L38.3163 37.175L38.3494 37.1517C38.3804 37.1305 38.4092 37.1086 38.4384 37.0864L38.441 37.0843L38.4875 37.0485C38.5509 36.9985 38.6111 36.9482 38.6657 36.9008L38.702 36.869L38.7053 36.8659L38.7243 36.8492C38.7689 36.8092 38.8086 36.772 38.8416 36.7413L38.8553 36.7281C38.8672 36.7169 38.8781 36.7063 38.8879 36.6974L38.9073 36.6782L38.9142 36.6715L38.9161 36.6696L38.9363 36.6495L38.9491 36.6362L38.9506 36.635L38.9567 36.6295L38.9643 36.6226L38.9667 36.6203L38.9731 36.6145L39.0084 36.5836L39.0281 36.566C39.0386 36.5569 39.0488 36.5476 39.059 36.5381L39.0825 36.5173C39.0868 36.5138 39.091 36.51 39.0953 36.5062L39.12 36.4847L39.1563 36.4528L39.1756 36.4361C39.2508 36.3709 39.3422 36.2922 39.4473 36.2034L39.4903 36.167L39.5614 36.1076L39.6341 36.0471C39.7291 35.9683 39.8314 35.8847 39.9396 35.798L40.0107 35.7411C40.0711 35.6931 40.1332 35.6441 40.1961 35.5948C40.2215 35.575 40.2472 35.5552 40.2735 35.5355C40.3378 35.4857 40.4024 35.4363 40.4676 35.3875C40.6158 35.2758 40.7688 35.1639 40.9236 35.055L40.99 35.0088C41.0364 34.9769 41.0828 34.9449 41.1291 34.9137L41.1711 34.8854C41.2538 34.8294 41.3378 34.7748 41.4225 34.7215L41.4645 34.6951L41.5061 34.6693C41.548 34.6434 41.5894 34.6181 41.6307 34.5934L41.672 34.5688L41.7546 34.5209L41.8357 34.4745L41.8521 34.4655L41.9162 34.4304C41.943 34.4159 41.9696 34.4019 41.9962 34.3883L42.0358 34.368L42.0743 34.3487C42.0878 34.3423 42.1011 34.3356 42.1142 34.3292C42.201 34.2865 42.2895 34.2472 42.3793 34.2113C42.4037 34.201 42.4279 34.1917 42.4519 34.1836L42.5228 34.1588C42.544 34.1517 42.5648 34.145 42.5846 34.1389L42.5915 34.1369C42.6023 34.1334 42.613 34.1303 42.6235 34.1276L42.6266 34.1267C42.6487 34.1203 42.6707 34.1148 42.6923 34.1096H42.6938C42.755 34.095 42.8172 34.0845 42.88 34.0781C42.9088 34.0752 42.9377 34.0736 42.9667 34.0738H42.9812C43.0006 34.0738 43.0192 34.075 43.0377 34.0769C43.0462 34.0769 43.0547 34.0786 43.063 34.0796H43.0664C43.0747 34.0807 43.083 34.0819 43.0913 34.0838C43.0994 34.0853 43.1077 34.0867 43.1157 34.0886H43.1183C43.1264 34.0903 43.1336 34.0924 43.1421 34.0948C43.186 34.107 43.2278 34.126 43.2662 34.1508C43.285 34.1631 43.3026 34.1769 43.3189 34.1922L43.3236 34.1967C43.3267 34.1994 43.3296 34.2024 43.3324 34.2053L43.3408 34.2144C43.4103 34.287 43.4677 34.3702 43.5109 34.4609L43.5175 34.4764C43.5321 34.5109 43.5437 34.5466 43.552 34.5829C43.5765 34.6943 43.567 34.8104 43.5247 34.9164C43.5086 34.9592 43.4891 35.0004 43.4661 35.0397C43.4124 35.13 43.3486 35.2139 43.2762 35.2899L43.2608 35.3063C43.2378 35.3304 43.214 35.3546 43.1889 35.3787C43.1779 35.3895 43.1663 35.4002 43.1547 35.4111L43.1193 35.4437L43.1008 35.46C43.0562 35.4997 43.0104 35.5381 42.9639 35.5753C42.9358 35.5981 42.9074 35.6203 42.8787 35.6422C42.7775 35.7194 42.6743 35.7939 42.5693 35.8658C42.5058 35.9092 42.4419 35.9518 42.3774 35.9938C42.2186 36.0978 42.0581 36.1991 41.896 36.2977C41.5559 36.5062 41.179 36.7293 40.7772 36.9718L40.6732 37.0347C40.5593 37.104 40.4518 37.1701 40.3506 37.2332L40.2996 37.2651L40.2032 37.3268C40.1392 37.3677 40.0755 37.4089 40.0117 37.4501L39.9604 37.4838C39.9353 37.5 39.9104 37.5166 39.8855 37.5331L39.8612 37.5486L39.7865 37.5988L39.7469 37.6259L39.7006 37.6579L39.6576 37.6877C39.5855 37.7386 39.5185 37.787 39.4568 37.833L39.4336 37.8506C39.3974 37.878 39.3614 37.9059 39.326 37.9344C39.2726 37.9773 39.2239 38.0183 39.1801 38.0578L39.1587 38.0773C39.1464 38.0885 39.1343 38.0997 39.1228 38.1107C39.1148 38.1184 39.1074 38.1262 39.0991 38.1336L39.088 38.1446C39.0633 38.1695 39.0391 38.1948 39.0158 38.2208L39.0044 38.2339C38.979 38.2632 38.9569 38.2913 38.9375 38.3187L38.9289 38.331C38.9137 38.353 38.8997 38.3758 38.8871 38.3992C38.8838 38.4051 38.8808 38.4109 38.8779 38.4168L38.8694 38.4344L38.8637 38.4471L38.8601 38.4557L38.8572 38.4635L38.8532 38.474C38.8425 38.5031 38.835 38.5335 38.8307 38.5642L38.8293 38.5748L38.8283 38.5848V38.6391C38.8283 38.6436 38.8283 38.6481 38.8295 38.6529L38.8304 38.6612C38.8304 38.6657 38.8314 38.67 38.8321 38.6748C38.8328 38.6793 38.834 38.6874 38.8354 38.6938V38.6946C38.8366 38.7007 38.8378 38.7065 38.8394 38.7126C38.8409 38.7186 38.8425 38.7255 38.8444 38.7317C38.8477 38.7439 38.8518 38.756 38.8561 38.7681C38.8589 38.7753 38.8615 38.7824 38.8644 38.7894C38.8644 38.7908 38.8655 38.7924 38.8661 38.7937L38.8724 38.8077L38.881 38.8268C38.8903 38.8466 38.9005 38.8659 38.9116 38.8847L38.923 38.9044L38.9348 38.924C38.9368 38.9273 38.9392 38.9304 38.9418 38.9333L38.9456 38.9373L38.95 38.9413L38.9545 38.9447C38.961 38.9494 38.9681 38.953 38.9755 38.9556C38.9795 38.957 38.9837 38.958 38.9878 38.959C39.0875 38.9814 39.2925 38.8992 39.5648 38.7558C39.5802 38.7475 39.5971 38.7389 39.6135 38.73L39.6965 38.6848L39.7369 38.6624C39.7658 38.6471 39.7952 38.6297 39.8252 38.6126L39.88 38.5817C40.24 38.3751 40.6699 38.1097 41.1144 37.8504C41.156 37.8261 41.1978 37.8018 41.2397 37.7779L41.3236 37.7243C41.4211 37.6686 41.5191 37.6136 41.6174 37.5593C41.7413 37.4914 41.8661 37.4252 41.9921 37.3611L42.0743 37.3196C42.1289 37.2927 42.183 37.2665 42.2364 37.241C42.3398 37.192 42.4443 37.1455 42.5501 37.1015L42.608 37.0781L42.6149 37.0753C42.9216 36.9542 43.1997 36.8794 43.4247 36.8794C43.4732 36.8789 43.5219 36.883 43.5698 36.8913H43.5714C43.5867 36.894 43.6007 36.8971 43.6151 36.9006H43.6177C43.6545 36.9099 43.6903 36.9232 43.7241 36.9402C43.7717 36.9647 43.8143 36.9973 43.8505 37.0366C43.867 37.0548 43.8817 37.0747 43.8947 37.0957C43.9189 37.1327 43.9379 37.1729 43.9515 37.215C43.9571 37.2313 43.9619 37.2474 43.9669 37.2644C44.0034 37.3949 43.9998 37.5333 43.9566 37.6617Z" fill="#FF9D00"/>
<path fill-rule="evenodd" clip-rule="evenodd" d="M41.9197 28.3002V28.2156C41.9197 21.0018 36.0583 15.154 28.8251 15.154C21.5921 15.154 15.7285 21.0021 15.7285 28.2156V28.2438C15.7282 28.2626 15.728 28.2814 15.7285 28.3002C15.7293 28.3283 15.7296 28.3564 15.7294 28.3845L15.7302 28.4465L15.7307 28.4688C15.7307 28.4791 15.7311 28.4893 15.7315 28.4996C15.732 28.516 15.7323 28.5325 15.7323 28.5489L15.7342 28.6159L15.737 28.6947L15.7378 28.7206L15.7413 28.8021V28.8061C15.7427 28.8379 15.7444 28.8696 15.746 28.9014L15.7461 28.9038C15.7479 28.9362 15.7496 28.9688 15.7517 29.0013C15.7534 29.0313 15.7551 29.0613 15.7574 29.0913L15.7577 29.0966C15.7592 29.1223 15.761 29.1482 15.7629 29.1739L15.7634 29.1808L15.7691 29.2552L15.7696 29.26C15.7707 29.2745 15.7717 29.289 15.7731 29.303C15.7834 29.4272 15.7955 29.5515 15.8092 29.6754L15.8101 29.6832L15.8206 29.7743L15.8324 29.87L15.841 29.935L15.845 29.9655C15.8542 30.0358 15.8642 30.106 15.8749 30.1759L15.8756 30.1806L15.8858 30.2468C15.9351 30.562 15.9962 30.8753 16.0689 31.1861L16.0698 31.1899L16.0753 31.2132L16.0911 31.2795L16.1007 31.268C16.4809 30.8147 17.0263 30.5648 17.6365 30.5648C18.1255 30.5648 18.6272 30.7261 19.1301 31.0441C19.4636 31.2554 19.8324 31.6296 20.2119 32.1003C20.563 31.6139 21.0552 31.2906 21.6182 31.2023C21.7255 31.1854 21.834 31.177 21.9427 31.1768C23.2277 31.1768 24.0017 32.289 24.2941 33.2895C24.4386 33.6275 25.1348 35.167 26.1848 36.2084C27.7808 37.7987 28.1802 39.4397 27.3903 41.1968H27.3931C27.4468 41.2029 27.5009 41.2084 27.5553 41.2134C27.5876 41.2165 27.6198 41.2196 27.6523 41.2224L27.6637 41.2234L27.735 41.2294L27.8007 41.2346C27.8633 41.2394 27.926 41.2439 27.9889 41.2479L28.0388 41.2508L28.0784 41.2532L28.1029 41.2546L28.1802 41.2586L28.2013 41.2594L28.2823 41.263L28.3725 41.2665L28.4449 41.2685L28.457 41.2689C28.4724 41.2696 28.4878 41.2701 28.5032 41.2701L28.5198 41.2706C28.6217 41.273 28.7235 41.2742 28.8255 41.2741H28.9336L29.0109 41.2732C29.0299 41.2723 29.0487 41.2723 29.0679 41.2723H29.098L29.1241 41.2717C29.1343 41.2713 29.1445 41.271 29.1548 41.271H29.1858L29.2464 41.2694L29.3377 41.2663L29.4381 41.2618C29.4671 41.2608 29.4958 41.2592 29.5245 41.2579L29.5554 41.256L29.6014 41.2536L29.6283 41.252L29.6487 41.2506L29.7415 41.2446L29.8341 41.2379L29.9183 41.2311L29.9774 41.2261L30.0424 41.2203C30.1509 41.2106 30.2591 41.1993 30.3673 41.1863L30.441 41.1775C29.6636 39.4278 30.0661 37.7939 31.6554 36.2099C32.7031 35.1658 33.3993 33.6263 33.5445 33.2882C33.8371 32.2878 34.6106 31.1756 35.8959 31.1756C36.0046 31.1756 36.1133 31.1842 36.2206 31.2011C36.7831 31.2893 37.2753 31.6127 37.6269 32.0991C38.0066 31.6285 38.3752 31.254 38.7089 31.0427C39.2116 30.7249 39.7138 30.5636 40.2023 30.5636C40.7408 30.5636 41.2288 30.7583 41.5974 31.1156C41.6041 31.0865 41.6107 31.0574 41.6171 31.0281L41.6359 30.9408C41.6426 30.909 41.6494 30.8771 41.6558 30.8452C41.6672 30.7888 41.6786 30.7325 41.6895 30.6756C41.7009 30.6166 41.7118 30.5574 41.7221 30.4981L41.7275 30.466C41.7308 30.447 41.7339 30.4281 41.7375 30.409C41.7434 30.3793 41.7482 30.3497 41.7531 30.3197L41.755 30.3083L41.7672 30.2302L41.7793 30.1511V30.1504C41.7881 30.092 41.7964 30.0336 41.8042 29.9751L41.8061 29.9607L41.817 29.8783L41.8258 29.808L41.8414 29.6694L41.8474 29.6137L41.849 29.5985C41.8523 29.5686 41.8554 29.5386 41.8581 29.5086V29.5062C41.8604 29.4824 41.8628 29.4584 41.8649 29.4345C41.8771 29.2986 41.8875 29.1621 41.8958 29.0251C41.8974 29.0027 41.8986 28.9801 41.9 28.9576V28.9565L41.9044 28.8719L41.9055 28.8529C41.9082 28.7957 41.9107 28.7385 41.9126 28.6813V28.6792L41.9134 28.6568C41.9143 28.638 41.915 28.619 41.915 28.6001L41.9153 28.5925C41.916 28.5748 41.9167 28.5565 41.9167 28.5384L41.9172 28.5229C41.9178 28.5048 41.9183 28.4868 41.9183 28.4688L41.9186 28.4534C41.9191 28.4305 41.9197 28.4074 41.9197 28.3845V28.3002ZM25.5768 41.3485C26.614 39.8316 26.5404 38.693 25.1175 37.2746C23.6943 35.8559 22.866 33.7814 22.866 33.7814C22.866 33.7814 22.5569 32.5765 21.8518 32.6871C21.1467 32.7978 20.6295 34.5984 22.1058 35.7006C23.582 36.8028 21.8121 37.5502 21.2439 36.5159C20.6757 35.4814 19.1244 32.8224 18.3201 32.3138C17.5159 31.8052 16.9503 32.0903 17.1398 33.1385C17.234 33.6589 18.1098 34.547 18.9281 35.3768C19.7582 36.2185 20.5291 37.0003 20.3643 37.277C20.0371 37.8263 18.885 36.6315 18.885 36.6315C18.885 36.6315 15.2775 33.3571 14.4922 34.2104C13.7682 34.9969 14.8847 35.6654 16.6052 36.696C16.7514 36.7835 16.9021 36.8738 17.0564 36.9669C19.0248 38.1555 19.1779 38.469 18.8985 38.9187C18.7953 39.0848 18.1364 38.6903 17.3259 38.2051C15.9443 37.3776 14.1226 36.2868 13.8653 37.2632C13.6427 38.1082 14.983 38.626 16.1985 39.0957C17.2112 39.4869 18.1375 39.8447 18.0011 40.3304C17.8599 40.834 17.0946 40.414 16.258 39.9549C15.3188 39.4393 14.2897 38.8747 13.9529 39.5119C13.3165 40.7167 18.344 42.135 18.3854 42.1455C20.0098 42.5657 24.1351 43.4561 25.5768 41.3485ZM32.2585 41.3485C31.2213 39.8316 31.2949 38.693 32.718 37.2746C34.141 35.8559 34.9693 33.7814 34.9693 33.7814C34.9693 33.7814 35.2785 32.5765 35.9835 32.6871C36.6886 32.7978 37.2058 34.5984 35.7297 35.7006C34.2534 36.8028 36.0233 37.5502 36.5915 36.5159C37.1598 35.4814 38.7101 32.8224 39.5143 32.3138C40.3186 31.8052 40.8845 32.0903 40.6948 33.1385C40.6008 33.6589 39.7248 34.547 38.9066 35.3769C38.0764 36.2187 37.3055 37.0003 37.4702 37.277C37.7973 37.8263 38.9503 36.6308 38.9503 36.6308C38.9503 36.6308 42.5577 33.3566 43.3432 34.2099C44.0671 34.9962 42.9506 35.6649 41.23 36.6954C41.0795 36.7856 40.9291 36.8759 40.7789 36.9664C38.8105 38.1549 38.6574 38.4685 38.9366 38.918C39.04 39.0843 39.6989 38.6896 40.5092 38.2044C41.891 37.3771 43.7127 36.2861 43.97 37.2627C44.1928 38.1077 42.8523 38.6255 41.6368 39.0951C40.6241 39.4864 39.6979 39.8442 39.834 40.3299C39.975 40.8333 40.7402 40.4133 41.5766 39.9542C42.5158 39.4387 43.5451 38.8737 43.8817 39.5114C44.5183 40.7168 39.49 42.1338 39.4494 42.1441C37.825 42.5657 33.6997 43.4561 32.2585 41.3485Z" fill="#FFD21E"/>
<path fill-rule="evenodd" clip-rule="evenodd" d="M33.0778 24.6607C33.2821 24.7327 33.434 24.952 33.5784 25.1607C33.7737 25.4427 33.9555 25.7051 34.2344 25.5573C34.5634 25.3827 34.8332 25.1148 35.0095 24.7874C35.1859 24.4599 35.2611 24.0877 35.2255 23.7177C35.1989 23.4411 35.1111 23.1737 34.9683 22.935C34.8256 22.6963 34.6315 22.4921 34.4003 22.3372C34.1689 22.1823 33.9059 22.0805 33.6304 22.0391C33.3548 21.9978 33.0735 22.0179 32.8067 22.0981C32.5399 22.1782 32.2943 22.3163 32.0874 22.5025C31.8806 22.6887 31.7176 22.9183 31.6105 23.1748C31.5034 23.4313 31.4544 23.7083 31.4674 23.9859C31.4805 24.2636 31.555 24.5347 31.6858 24.7801C31.8151 25.0226 32.102 24.9082 32.4047 24.7874C32.642 24.6927 32.8893 24.5941 33.0778 24.6607ZM24.1998 24.6607C23.9955 24.7327 23.8436 24.9521 23.6992 25.1607C23.5039 25.4428 23.3219 25.7051 23.0432 25.5573C22.6294 25.3387 22.3121 24.9742 22.153 24.535C21.994 24.0958 22.0046 23.6132 22.1829 23.1814C22.3612 22.7495 22.6943 22.3994 23.1173 22.1992C23.5404 21.999 24.023 21.9631 24.4711 22.0984C24.8279 22.2056 25.1449 22.4159 25.382 22.7026C25.6191 22.9894 25.7654 23.3398 25.8029 23.7096C25.8403 24.0794 25.7668 24.452 25.5919 24.7801C25.4625 25.0226 25.1756 24.9082 24.8729 24.7875C24.6354 24.6927 24.3885 24.5941 24.1998 24.6607ZM31.7043 32.7185C33.1115 31.6128 33.6284 29.8075 33.6284 28.6955C33.6284 27.8165 33.0355 28.0931 32.0862 28.5619L32.0327 28.5883C31.1614 29.0187 30.0015 29.5918 28.7282 29.5918C27.4548 29.5918 26.2949 29.0187 25.4238 28.5881C24.4438 28.104 23.8291 27.8003 23.8291 28.6957C23.8291 29.8429 24.379 31.7266 25.8883 32.8208C26.0875 32.4177 26.368 32.0599 26.7122 31.7696C27.0563 31.4794 27.4569 31.2631 27.8886 31.1342C28.0392 31.0894 28.1944 31.3481 28.3532 31.613C28.5065 31.8684 28.6632 32.1297 28.8226 32.1297C28.9924 32.1297 29.1592 31.8722 29.3222 31.6209C29.4924 31.3581 29.6585 31.1021 29.819 31.1533C30.6269 31.412 31.3027 31.973 31.7043 32.7185Z" fill="#32343D"/>
<path d="M31.7055 32.7186C30.9726 33.2946 29.9985 33.6808 28.7299 33.6808C27.538 33.6808 26.6059 33.3399 25.8898 32.8209C26.089 32.4178 26.3695 32.0598 26.7137 31.7697C27.0578 31.4795 27.4583 31.2632 27.89 31.1343C28.1859 31.0462 28.4995 32.1298 28.8241 32.1298C29.1714 32.1298 29.5061 31.0533 29.8205 31.1534C30.6282 31.4123 31.3038 31.9733 31.7055 32.7186Z" fill="#FF323D"/>
<path fill-rule="evenodd" clip-rule="evenodd" d="M20.8336 26.225C20.6662 26.3367 20.4737 26.4054 20.2733 26.4251C20.0728 26.4449 19.8705 26.4149 19.6845 26.3379C19.5357 26.2767 19.4006 26.1867 19.2868 26.0731C19.173 25.9597 19.0828 25.8249 19.0214 25.6765C18.9443 25.4909 18.9143 25.2893 18.9342 25.0893C18.954 24.8894 19.0229 24.6974 19.1349 24.5304C19.2695 24.3294 19.4608 24.1728 19.6847 24.0803C19.9085 23.9878 20.1548 23.9636 20.3925 24.0108C20.6301 24.058 20.8484 24.1744 21.0196 24.3453C21.1909 24.5162 21.3075 24.7341 21.3546 24.9711C21.4019 25.2081 21.3776 25.4537 21.2849 25.6769C21.1922 25.9001 21.035 26.0907 20.8336 26.225ZM38.3586 26.225C38.1912 26.3367 37.9987 26.4054 37.7982 26.4251C37.5976 26.4449 37.3954 26.4149 37.2093 26.3379C37.0605 26.2765 36.9254 26.1867 36.8116 26.0731C36.6979 25.9597 36.6077 25.8249 36.5462 25.6765C36.4693 25.4909 36.4394 25.2893 36.4591 25.0893C36.479 24.8894 36.5479 24.6974 36.6597 24.5304C36.7603 24.3801 36.8932 24.2541 37.0486 24.1612C37.2039 24.0683 37.3779 24.0109 37.5582 23.9933C37.7386 23.9756 37.9206 23.998 38.0909 24.059C38.2615 24.1199 38.4163 24.2178 38.5444 24.3456C38.7158 24.5164 38.8325 24.7341 38.8796 24.9711C38.927 25.2081 38.9026 25.4537 38.8098 25.6769C38.717 25.9001 38.5601 26.0907 38.3586 26.225Z" fill="#FFAD03"/>
</g>
<path d="M16 0.5H42C50.5604 0.5 57.5 7.43959 57.5 16V42C57.5 50.5604 50.5604 57.5 42 57.5H16C7.43959 57.5 0.5 50.5604 0.5 42V16C0.500001 7.43959 7.43959 0.5 16 0.5Z" stroke="#F2F2F7"/>
</g>
<defs>
<filter id="filter0_d_15202_8108" x="0" y="0" width="66" height="66" filterUnits="userSpaceOnUse" color-interpolation-filters="sRGB">
<feFlood flood-opacity="0" result="BackgroundImageFix"/>
<feColorMatrix in="SourceAlpha" type="matrix" values="0 0 0 0 0 0 0 0 0 0 0 0 0 0 0 0 0 0 127 0" result="hardAlpha"/>
<feOffset dx="4" dy="4"/>
<feGaussianBlur stdDeviation="2"/>
<feComposite in2="hardAlpha" operator="out"/>
<feColorMatrix type="matrix" values="0 0 0 0 0 0 0 0 0 0 0 0 0 0 0 0 0 0 0.02 0"/>
<feBlend mode="normal" in2="BackgroundImageFix" result="effect1_dropShadow_15202_8108"/>
<feBlend mode="normal" in="SourceGraphic" in2="effect1_dropShadow_15202_8108" result="shape"/>
</filter>
<clipPath id="clip0_15202_8108">
<path d="M0 16C0 7.16345 7.16344 0 16 0H42C50.8366 0 58 7.16344 58 16V42C58 50.8366 50.8366 58 42 58H16C7.16345 58 0 50.8366 0 42V16Z" fill="white"/>
</clipPath>
</defs>
</svg>
