<svg width="22" height="22" viewBox="0 0 22 22" fill="none" xmlns="http://www.w3.org/2000/svg">
<g clip-path="url(#clip0_15252_16963)">
<path d="M1.60461 6.43882C4.40002 9.19831 8.23418 10.7848 12.3217 10.7679C15.4465 10.751 18.4107 9.7637 20.8598 7.98312L20.3448 6.91138C18.0645 8.63291 15.2691 9.59493 12.3217 9.6118C8.38619 9.64556 4.71249 8.03375 2.11978 5.26583L1.60461 6.43882ZM0.532055 12.5148C6.19885 17.3164 14.2388 18.2109 20.7502 14.8861V13.5612C14.3655 17.1308 6.29177 16.2278 0.785415 11.1983L0.532055 12.5148ZM5.84416 19.9831L7.22074 20.3376C6.5958 18.8186 6.24953 17.2236 6.19041 15.5696C5.64991 9.9156 7.98083 4.47257 12.2373 0.894514L11.0042 0.447257C6.78159 4.24472 4.51824 9.82277 5.04185 15.6118C5.08407 17.097 5.35432 18.5654 5.84416 19.9831ZM13.0396 21.1054L14.129 20.6497C12.1359 17.7891 11.0296 14.3797 11.0296 10.8101C11.0296 7.37553 12.0346 4.11814 13.8757 1.35865L12.7609 0.945147C10.8945 3.86498 9.87258 7.26582 9.87258 10.8101C9.87258 14.5401 10.9958 18.0929 13.0396 21.1054ZM19.5002 17.0295L20.2434 16.135C16.6204 14.0759 14.3148 10.2785 14.2219 6C14.1797 4.43038 14.4499 2.88607 15.0073 1.45992L13.901 1.13924C13.3098 2.6751 13.0311 4.32067 13.0649 6.01688C13.1578 10.6076 15.6323 14.7426 19.5002 17.0295ZM6.21575 10.6582C7.11096 10.6582 7.83725 9.92405 7.83725 9.0211C7.83725 8.13501 7.11096 7.40085 6.21575 7.40085C5.31211 7.40085 4.57735 8.13501 4.57735 9.0211C4.57735 9.92405 5.31211 10.6582 6.21575 10.6582ZM14.5597 11.6034C15.4212 11.6034 16.1306 10.8945 16.1306 10.0169C16.1306 9.14768 15.4212 8.43881 14.5597 8.43881C13.6814 8.43881 12.9636 9.14768 12.9636 10.0169C12.9636 10.8945 13.6814 11.6034 14.5597 11.6034ZM11.3758 17.8819C12.271 17.8819 12.9973 17.1645 12.9973 16.2616C12.9973 15.3586 12.271 14.6413 11.3758 14.6413C10.4722 14.6413 9.75434 15.3586 9.75434 16.2616C9.75434 17.1645 10.4722 17.8819 11.3758 17.8819ZM10.9958 21.9831C17.0173 21.9831 22 17.0042 22 10.9958C22 4.9789 17.0089 0 10.9874 0C4.9743 0 0 4.9789 0 10.9958C0 17.0042 4.98274 21.9831 10.9958 21.9831ZM10.9958 20.7003C5.68369 20.7003 1.28369 16.3038 1.28369 10.9958C1.28369 5.67932 5.67525 1.2827 10.9874 1.2827C16.3079 1.2827 20.7163 5.67932 20.7163 10.9958C20.7163 16.3038 16.3163 20.7003 10.9958 20.7003Z" fill="black" fill-opacity="0.4"/>
</g>
<defs>
<clipPath id="clip0_15252_16963">
<rect width="22" height="22" fill="white"/>
</clipPath>
</defs>
</svg>
