<svg width="20" height="20" viewBox="0 0 20 20" fill="none" xmlns="http://www.w3.org/2000/svg">
<path fill-rule="evenodd" clip-rule="evenodd" d="M5.52321 2.69612C6.98732 2.22872 8.81978 2.59624 10.0007 3.99576C11.1465 2.63233 12.8732 2.2624 14.3058 2.6481L14.4677 2.6953L14.4718 2.69693C17.6692 3.72698 18.7228 7.17282 17.8027 10.0472C17.0927 12.3008 15.4626 14.1479 13.9103 15.4191C13.1291 16.0587 12.3512 16.5659 11.6894 16.9165C11.3588 17.0916 11.0499 17.2321 10.7779 17.3299C10.5205 17.4225 10.2454 17.4959 10.0007 17.4959C9.75748 17.4959 9.48373 17.4238 9.22682 17.3323C8.956 17.2359 8.64835 17.0978 8.31943 16.9246C7.66067 16.5777 6.88629 16.0747 6.10752 15.4378C4.55836 14.1709 2.93034 12.3237 2.19801 10.048V10.0464C1.27951 7.17388 2.32283 3.72741 5.52158 2.69693L5.52321 2.69612Z" fill="#FF2D55"/>
</svg>
