<svg width="295" height="110" viewBox="0 0 295 110" fill="none" xmlns="http://www.w3.org/2000/svg">
<mask id="mask0_16021_2714" style="mask-type:alpha" maskUnits="userSpaceOnUse" x="0" y="0" width="295" height="110">
<rect width="295" height="110" fill="url(#paint0_linear_16021_2714)"/>
</mask>
<g mask="url(#mask0_16021_2714)">
<path d="M3.934 5.004H5.264L9.198 15H7.952L6.888 12.2H2.296L1.232 15H0L3.934 5.004ZM2.66 11.234H6.524L4.634 6.236H4.578L2.66 11.234ZM10.2932 5.004H11.4272V15H10.2932V5.004ZM13.7134 4.136H17.8714V4.92C17.4514 6.194 16.9614 7.524 16.4014 8.91C17.3114 10.1 17.8014 11.178 17.8714 12.144C17.8574 12.788 17.7174 13.25 17.4514 13.53C17.0594 13.88 16.3874 14.062 15.4214 14.076L15.0854 13.054C15.3094 13.082 15.4914 13.11 15.6314 13.11C16.1354 13.082 16.4714 12.998 16.6394 12.858C16.8074 12.718 16.8914 12.48 16.8914 12.144C16.8914 11.22 16.3874 10.198 15.3934 9.064C16.0234 7.58 16.5134 6.25 16.8774 5.06H14.6934V16.344H13.7134V4.136ZM18.3754 4.948H21.4134C21.2734 4.472 21.1194 4.052 20.9514 3.66L22.0014 3.478C22.1414 3.926 22.2674 4.416 22.3934 4.948H25.3894V5.9H18.3754V4.948ZM17.9694 8.77H20.1394C19.8874 8.07 19.5794 7.426 19.2294 6.824L20.1254 6.488C20.4614 7.118 20.7834 7.874 21.0634 8.77H22.9254C23.3034 8.042 23.6254 7.272 23.8914 6.446L24.8014 6.754C24.5214 7.51 24.2134 8.182 23.8774 8.77H25.8514V9.722H17.9694V8.77ZM24.8714 11.094V16.344H23.9194V15.56H19.8734V16.344H18.9074V11.094H24.8714ZM19.8734 14.622H23.9194V12.046H19.8734V14.622ZM32.5854 4.36C33.0334 5.186 33.4114 6.138 33.7474 7.202L32.8094 7.44C32.5014 6.488 32.1094 5.564 31.6474 4.668L32.5854 4.36ZM38.1854 4.094L39.1514 4.346C38.8154 5.55 38.3954 6.6 37.8634 7.496L36.9394 7.174C37.4154 6.362 37.8354 5.34 38.1854 4.094ZM31.2974 8.14H34.8394V3.59H35.8754V8.14H39.5294V9.106H35.8754V11.402H39.9074V12.382H35.8754V16.4H34.8394V12.382H30.8774V11.402H34.8394V9.106H31.2974V8.14ZM30.1354 3.492L31.0874 3.926C30.7234 5.032 30.2754 6.068 29.7434 7.048V16.428H28.7494V8.616C28.3154 9.218 27.8534 9.792 27.3494 10.338L27.0134 9.26C28.4414 7.58 29.4914 5.662 30.1354 3.492ZM53.2214 4.808V7.454H52.2134V5.76H42.8474V7.468H41.8394V4.808H47.0054C46.8094 4.388 46.6134 4.01 46.3894 3.66L47.4674 3.492C47.6634 3.884 47.8454 4.332 48.0274 4.808H53.2214ZM41.6294 8.658H45.5214C45.5494 8.266 45.5634 7.86 45.5774 7.454V6.586H46.5994V7.454C46.5854 7.874 46.5714 8.28 46.5434 8.658H53.5014V9.624H49.0074V13.026C50.1554 12.242 51.1074 11.318 51.8634 10.24L52.6054 10.8C51.6534 12.172 50.4634 13.292 49.0074 14.188V14.608C49.0074 15 49.2314 15.21 49.6794 15.21H52.0174C52.2974 15.21 52.4934 15.126 52.6054 14.958C52.7454 14.762 52.8294 14.174 52.8854 13.208L53.8234 13.502C53.7394 14.762 53.5574 15.518 53.2914 15.784C53.0674 16.008 52.7034 16.134 52.2134 16.134H49.3854C48.4614 16.134 48.0134 15.686 48.0134 14.818V14.762C47.2014 15.168 46.3334 15.518 45.4094 15.826L45.0034 14.916C46.1094 14.566 47.1174 14.146 48.0134 13.642V9.624H46.4454C46.2494 11.08 45.8854 12.298 45.3674 13.292C44.6254 14.636 43.4074 15.7 41.7134 16.456L41.1674 15.602C42.8054 14.832 43.9534 13.824 44.6114 12.564C44.9894 11.724 45.2554 10.744 45.4234 9.624H41.6294V8.658ZM48.9654 6.432C49.9174 6.81 50.7994 7.272 51.5974 7.832L51.0794 8.63C50.2254 8.014 49.3574 7.524 48.4614 7.16L48.9654 6.432ZM61.5514 3.548L62.5034 3.8C62.3494 4.528 62.1814 5.2 61.9854 5.816H67.4174C67.4174 10.492 67.3474 13.376 67.2074 14.468C67.0534 15.7 66.2974 16.316 64.9394 16.316C64.7434 16.316 64.3934 16.302 63.8894 16.274L63.6514 15.364C64.0994 15.392 64.4774 15.42 64.7994 15.42C65.6534 15.42 66.1434 14.972 66.2694 14.076C66.3674 13.292 66.4234 10.856 66.4514 6.796H65.4994C65.1914 9.134 64.7714 10.982 64.2254 12.34C63.5814 13.796 62.6294 15.112 61.3554 16.274L60.7394 15.476C61.9154 14.412 62.7834 13.236 63.3714 11.948C63.9174 10.646 64.3234 8.924 64.5894 6.796H63.4974C62.9374 9.848 61.8734 12.06 60.3054 13.446L59.6474 12.69C61.0894 11.458 62.0694 9.484 62.6014 6.796H61.6354C61.2574 7.692 60.8374 8.42 60.3614 9.008L59.6194 8.378C60.5154 7.258 61.1594 5.648 61.5514 3.548ZM56.4834 7.468C56.3294 8.168 56.1474 8.854 55.9234 9.512L55.0414 9.26C55.5734 7.776 55.8674 6.222 55.9374 4.584L56.8194 4.654C56.7914 5.27 56.7354 5.886 56.6514 6.488H57.6314V3.576H58.6114V6.488H59.7874V7.468H58.6114V10.828C59.0034 10.646 59.3674 10.464 59.7314 10.268V11.22C59.3674 11.416 58.9894 11.598 58.6114 11.78V16.4H57.6314V12.2C56.9174 12.48 56.1894 12.746 55.4334 12.984L55.1954 12.004C56.0354 11.808 56.8474 11.556 57.6314 11.248V7.468H56.4834ZM78.3794 10.94C77.9454 10.632 77.5954 10.324 77.3154 10.002H73.6894C73.3814 10.338 73.0314 10.646 72.6254 10.94H78.3794ZM78.3514 10.002C79.1214 10.618 80.2694 11.094 81.7814 11.458L81.3754 12.312C80.6194 12.074 79.9474 11.808 79.3734 11.528V14.216H78.3934V11.752H72.7934V14.216H71.8134V11.444C71.1974 11.766 70.5114 12.06 69.7414 12.34L69.2234 11.5C70.7354 11.094 71.8834 10.59 72.6394 10.002H69.6014V9.19H73.4094V8.35H71.6174V7.608H73.4094V6.768H71.3374V5.998H73.4094V5.214H70.8194V6.628H69.8394V4.36H75.0614C74.8934 4.08 74.7114 3.814 74.5294 3.59L75.5934 3.408C75.7614 3.688 75.9434 3.996 76.1114 4.36H81.2074V6.628H80.2274V5.214H77.6234V5.998H79.7094V6.768H77.6234V7.608H79.4434V8.35H77.6234V9.19H81.4734V10.002H78.3514ZM76.6434 5.214H74.4034V5.998H76.6434V5.214ZM74.4034 9.19H76.6434V8.35H74.4034V9.19ZM76.6434 7.608V6.768H74.4034V7.608H76.6434ZM76.4334 14.034C77.9734 14.496 79.3874 15.056 80.6614 15.7L80.1574 16.498C78.7854 15.77 77.3714 15.182 75.9294 14.762L76.4334 14.034ZM74.9774 12.2L75.9154 12.284C75.7474 13.768 75.3834 14.762 74.8234 15.266C74.2074 15.896 72.8074 16.302 70.6234 16.47L70.2454 15.616C72.1494 15.518 73.3954 15.21 74.0114 14.692C74.5714 14.202 74.8934 13.376 74.9774 12.2ZM87.1854 5.116H89.5094C89.2854 4.682 89.0334 4.276 88.7534 3.898L89.6914 3.548C89.9994 3.996 90.2934 4.514 90.5454 5.116H92.1974C92.5334 4.612 92.8414 4.08 93.0934 3.52L94.0734 3.856C93.8354 4.332 93.5834 4.752 93.3034 5.116H95.6834V6.054H91.7634C91.6654 6.446 91.5394 6.824 91.3994 7.188H94.7314V13.936H88.0954V7.188H90.3354C90.4894 6.81 90.6014 6.432 90.6854 6.054H87.1854V5.116ZM93.7794 13.04V11.878H89.0474V13.04H93.7794ZM89.0474 11.066H93.7794V10.002H89.0474V11.066ZM89.0474 9.19H93.7794V8.084H89.0474V9.19ZM84.2874 3.786C85.2534 4.514 86.0654 5.242 86.7234 5.97L86.0094 6.67C85.4214 5.97 84.6234 5.228 83.6014 4.444L84.2874 3.786ZM92.4494 16.148C91.6934 16.148 90.8674 16.134 89.9714 16.12C89.0754 16.106 88.3474 16.022 87.7874 15.868C87.2274 15.7 86.7374 15.35 86.3174 14.846C86.1214 14.608 85.9394 14.496 85.7714 14.496C85.4354 14.496 84.8754 15.126 84.0774 16.414L83.3214 15.742C84.0914 14.538 84.7634 13.824 85.3374 13.6V9.344H83.2794V8.42H86.2754V13.656C86.3874 13.74 86.4994 13.852 86.6114 13.978C86.9474 14.384 87.3114 14.678 87.6894 14.86C88.1234 15.056 88.7534 15.168 89.5794 15.196C90.3074 15.21 91.2174 15.224 92.3094 15.224C92.9674 15.224 93.6394 15.21 94.3254 15.196C94.9974 15.182 95.5294 15.168 95.8934 15.14L95.6554 16.148H92.4494ZM2.842 26.306H10.318V25.032H2.478V24.122H11.312V29.386H2.31V28.476H10.318V27.188H2.842V26.306ZM0.812 30.786H9.184V29.764H10.192V30.786H13.202V31.752H10.192V35.056C10.192 35.868 9.758 36.288 8.918 36.288H7.154L6.93 35.336C7.504 35.364 8.05 35.392 8.582 35.392C8.974 35.392 9.184 35.196 9.184 34.804V31.752H0.812V30.786ZM3.92 32.326C4.886 33.026 5.698 33.712 6.342 34.398L5.628 35.112C5.04 34.44 4.242 33.74 3.234 32.984L3.92 32.326ZM14.7 29.358H27.286V30.366H14.7V29.358ZM31.766 23.478L32.704 23.912C32.34 25.004 31.892 26.026 31.346 26.992V36.428H30.338V28.532C29.876 29.148 29.372 29.75 28.826 30.324L28.504 29.246C29.988 27.566 31.08 25.648 31.766 23.478ZM32.634 25.816H36.4C36.204 25.074 35.966 24.388 35.714 23.772L36.778 23.59C37.002 24.234 37.212 24.976 37.408 25.816H41.062V26.782H32.634V25.816ZM32.396 34.748H37.212C37.926 32.872 38.542 30.52 39.074 27.692L40.04 27.944C39.55 30.506 38.948 32.774 38.248 34.748H41.426V35.742H32.396V34.748ZM34.356 27.846C34.902 29.652 35.392 31.724 35.826 34.048L34.888 34.3C34.51 32.172 34.02 30.114 33.432 28.126L34.356 27.846ZM44.212 36.246H43.036L42.826 35.294C43.19 35.336 43.54 35.364 43.876 35.364C44.254 35.364 44.45 35.154 44.45 34.734V31.388C43.89 31.612 43.33 31.822 42.742 32.018L42.49 31.024C43.162 30.856 43.806 30.646 44.45 30.408V27.104H42.756V26.138H44.45V23.576H45.43V26.138H46.914V27.104H45.43V30.002C45.948 29.75 46.452 29.498 46.942 29.218V30.198C46.438 30.478 45.934 30.73 45.43 30.968V34.986C45.43 35.826 45.024 36.246 44.212 36.246ZM47.418 25.592H50.778V23.604H51.758V25.592H55.132V26.558H51.758V28.84H54.586V29.736C54.096 31.276 53.284 32.592 52.15 33.684C53.074 34.398 54.208 35.028 55.538 35.574L55.006 36.414C53.606 35.798 52.416 35.084 51.464 34.3C50.372 35.168 49.042 35.882 47.474 36.442L46.998 35.602C48.482 35.112 49.742 34.468 50.764 33.67C49.588 32.522 48.818 31.234 48.426 29.792H47.684V28.84H50.778V26.558H47.418V25.592ZM49.364 29.792C49.728 31.024 50.428 32.116 51.436 33.082C52.402 32.144 53.116 31.052 53.578 29.792H49.364ZM57.064 26.88H62.496V23.534H63.504V26.88H68.95V27.846H64.512C65.436 30.17 67.046 32.242 69.356 34.062L68.684 34.916C66.22 32.816 64.512 30.45 63.56 27.846H63.504V36.372H62.496V27.846H62.44C61.404 30.758 59.626 33.152 57.134 35L56.588 34.104C58.856 32.48 60.494 30.394 61.488 27.846H57.064V26.88ZM65.758 23.562C66.598 24.43 67.242 25.186 67.69 25.83L66.892 26.404C66.416 25.69 65.786 24.906 64.974 24.052L65.758 23.562ZM76.636 23.548H77.364C79.142 25.606 81.2 27.23 83.524 28.406L82.978 29.372C80.64 28.112 78.652 26.474 77 24.458C75.474 26.362 73.458 28 70.966 29.4L70.434 28.434C72.926 27.118 74.984 25.494 76.636 23.548ZM81.424 30.744V36.386H80.444V35.546H73.556V36.386H72.576V30.744H81.424ZM73.556 34.58H80.444V31.696H73.556V34.58ZM73.36 28H80.64V28.966H73.36V28ZM86.436 28.546C85.988 29.134 85.512 29.708 84.994 30.24L84.658 29.176C86.128 27.538 87.192 25.662 87.864 23.562L88.802 23.996C88.438 25.088 87.976 26.11 87.416 27.062V36.372H86.436V28.546ZM89.796 26.026L90.734 26.138C90.58 27.776 90.216 29.232 89.628 30.492L88.718 30.212C89.306 28.994 89.656 27.594 89.796 26.026ZM93.352 23.674C93.352 24.864 93.324 26.04 93.296 27.188C93.296 27.636 93.268 28.07 93.226 28.49C93.842 31.612 95.228 33.992 97.412 35.616L96.726 36.386C94.794 34.79 93.506 32.816 92.876 30.45C92.26 32.802 90.958 34.79 88.984 36.414L88.298 35.658C90.93 33.586 92.274 30.828 92.33 27.384C92.33 26.096 92.344 24.85 92.344 23.674H93.352ZM96.012 25.788L96.922 26.04C96.586 27.664 96.166 29.078 95.662 30.296L94.752 29.974C95.228 28.882 95.648 27.482 96.012 25.788ZM105.504 23.59C105.504 24.794 105.462 25.83 105.406 26.698C106.19 30.506 108.22 33.418 111.482 35.42L110.824 36.302C107.968 34.426 106.036 31.906 105.042 28.742C104.202 31.794 102.214 34.314 99.106 36.316L98.49 35.42C102.34 33.054 104.328 29.848 104.454 25.816C104.468 24.864 104.482 24.122 104.482 23.59H105.504ZM3.934 45.004H5.264L9.198 55H7.952L6.888 52.2H2.296L1.232 55H0L3.934 45.004ZM2.66 51.234H6.524L4.634 46.236H4.578L2.66 51.234ZM10.2932 45.004H11.4272V55H10.2932V45.004ZM18.0114 43.52H19.0054L14.0494 56.4H13.0414L18.0114 43.52ZM25.1935 45.004H26.6215L30.3455 53.53H30.3875L34.0975 45.004H35.5255V55H34.3775V47.048H34.3355L30.8775 55H29.8415L26.3835 47.048H26.3415V55H25.1935V45.004ZM37.5393 45.004H38.6733V54.006H44.4553V55H37.5393V45.004ZM50.1378 47.832H54.1418C54.2958 47.258 54.4358 46.684 54.5758 46.096H51.0898V45.158H54.7858C54.9118 44.584 55.0238 44.024 55.1358 43.464L56.1718 43.548C56.0598 44.108 55.9618 44.654 55.8498 45.158H61.8838V46.096H55.6398C55.4998 46.712 55.3598 47.286 55.2198 47.832H62.7098V48.812H54.9538C54.7578 49.47 54.5478 50.086 54.3518 50.66H61.0158V51.528C60.3438 52.564 59.2938 53.614 57.8518 54.65C58.6918 54.958 59.5038 55.308 60.2738 55.672L59.7138 56.554C57.6138 55.518 55.4438 54.706 53.2178 54.104L53.7498 53.32C54.7998 53.6 55.8078 53.922 56.7738 54.258C58.0618 53.418 59.0838 52.522 59.8258 51.598H52.9098C53.2458 50.702 53.5678 49.778 53.8618 48.812H50.1378V47.832ZM68.3938 43.702H69.4158V54.832H71.4038V43.702H72.4258V54.832H76.6258V55.812H64.2218V54.832H68.3938V43.702ZM75.3518 46.25L76.2478 46.502C75.6878 48.938 74.9878 51.066 74.1338 52.9L73.2238 52.578C74.0358 50.926 74.7498 48.812 75.3518 46.25ZM65.4258 46.222C66.1538 48.112 66.8118 50.282 67.3858 52.732L66.4618 52.97C65.9578 50.73 65.3278 48.574 64.5718 46.502L65.4258 46.222ZM89.3238 43.422H90.3038C89.7438 44.346 89.2958 45.312 88.9738 46.32C88.5538 47.552 88.3578 48.756 88.3578 49.96C88.3578 51.15 88.5538 52.368 88.9738 53.6C89.2958 54.594 89.7438 55.56 90.3038 56.498H89.3238C88.7078 55.588 88.2318 54.622 87.8818 53.614C87.4618 52.41 87.2658 51.192 87.2658 49.974C87.2658 48.728 87.4618 47.51 87.8818 46.306C88.2318 45.284 88.7078 44.318 89.3238 43.422ZM96.7438 44.808C97.8498 44.808 98.7878 45.102 99.5438 45.69C100.3 46.278 100.748 47.076 100.888 48.07H99.7818C99.6418 47.342 99.2778 46.782 98.7178 46.39C98.1718 46.012 97.5138 45.83 96.7298 45.83C95.5678 45.83 94.6718 46.236 94.0418 47.048C93.4538 47.804 93.1598 48.798 93.1598 50.044C93.1598 51.29 93.4398 52.284 94.0278 53.012C94.6438 53.782 95.5258 54.174 96.7018 54.174C97.4998 54.174 98.1718 53.964 98.7318 53.544C99.3198 53.096 99.7258 52.438 99.9218 51.57H101.028C100.804 52.732 100.286 53.642 99.4598 54.286C98.6898 54.888 97.7658 55.196 96.7018 55.196C95.1478 55.196 93.9578 54.678 93.1318 53.656C92.3758 52.732 92.0118 51.528 92.0118 50.044C92.0118 48.56 92.3898 47.342 93.1598 46.39C93.9998 45.326 95.2038 44.808 96.7438 44.808ZM101.679 45.004H102.939L106.061 53.754H106.103L109.225 45.004H110.485L106.789 55H105.375L101.679 45.004ZM116.039 43.52H117.033L112.077 56.4H111.069L116.039 43.52ZM129.157 43.52L130.053 43.996C129.801 44.276 129.535 44.542 129.255 44.794H133.273V45.592C131.761 48.28 128.947 49.792 124.859 50.114L124.425 49.204C125.685 49.12 126.805 48.938 127.813 48.644C127.379 48.112 126.917 47.622 126.441 47.188L127.323 46.768C127.827 47.244 128.303 47.748 128.751 48.308C130.207 47.72 131.341 46.838 132.125 45.69H128.037C126.945 46.334 125.657 46.824 124.159 47.16L123.571 46.236C126.063 45.76 127.925 44.864 129.157 43.52ZM128.625 52.27C129.157 52.816 129.675 53.404 130.151 54.034C131.705 53.362 132.923 52.396 133.819 51.164H129.675C128.443 51.752 126.987 52.2 125.293 52.494L124.691 51.598C127.743 51.29 129.997 50.352 131.453 48.812L132.321 49.288C131.985 49.624 131.635 49.946 131.243 50.24H135.079V51.038C133.091 54.342 129.395 56.05 123.963 56.176L123.557 55.21C125.741 55.196 127.631 54.93 129.213 54.398C128.737 53.768 128.247 53.194 127.729 52.69L128.625 52.27ZM141.099 44.724H143.143V43.604H144.081V44.724H146.335V43.604H147.287V44.724H149.457V45.62H147.287V46.67H146.335V45.62H144.081V46.67H143.143V45.62H141.099V44.724ZM145.033 53.516C144.865 53.866 144.655 54.188 144.431 54.468C143.787 55.28 142.667 55.91 141.057 56.372L140.693 55.532C142.093 55.154 143.087 54.608 143.703 53.894C143.843 53.712 143.983 53.53 144.095 53.334H140.833V52.41H144.515C144.627 52.074 144.711 51.71 144.781 51.346H141.841V47.104H148.547V51.346H145.677C145.621 51.738 145.537 52.088 145.453 52.41H149.485V53.334H145.943C146.755 54.286 147.987 55.056 149.639 55.644L148.967 56.442C147.147 55.658 145.845 54.692 145.033 53.516ZM139.741 49.232V56.358H138.789V49.386C138.355 50.702 137.809 51.906 137.137 52.984L136.703 51.892C137.669 50.548 138.369 49.036 138.789 47.328V47.244H137.165V46.334H138.789V43.618H139.741V46.334H141.211V47.244H139.741V48.168C140.343 48.896 140.959 49.736 141.603 50.674L141.071 51.472C140.553 50.548 140.105 49.806 139.741 49.232ZM147.637 50.562V49.61H142.751V50.562H147.637ZM142.751 48.854H147.637V47.916H142.751V48.854ZM156.709 43.436L157.717 43.534C157.661 44.066 157.563 44.556 157.451 45.032H162.855V45.998H158.375C159.061 47.552 160.797 48.756 163.583 49.624L163.051 50.492C159.943 49.4 158.053 47.902 157.353 45.998H157.143C156.835 46.81 156.415 47.524 155.897 48.112C155.841 48.168 155.799 48.21 155.757 48.266C156.373 48.7 157.045 49.26 157.801 49.946L157.101 50.646C156.429 49.974 155.757 49.372 155.085 48.84C154.161 49.526 152.845 50.086 151.165 50.534L150.773 49.61C152.761 49.106 154.203 48.378 155.085 47.454C155.477 47.034 155.785 46.544 156.037 45.998H151.445V45.032H156.387C156.541 44.528 156.653 43.996 156.709 43.436ZM152.215 51.71L153.209 51.92C152.873 53.376 152.397 54.636 151.795 55.7L150.927 55.154C151.515 54.118 151.949 52.97 152.215 51.71ZM157.521 51.206C158.011 51.934 158.445 52.718 158.809 53.558L157.885 53.964C157.493 53.026 157.087 52.2 156.639 51.486L157.521 51.206ZM161.707 51.5C162.379 52.536 162.967 53.656 163.471 54.86L162.547 55.266C162.001 53.95 161.399 52.802 160.741 51.808L161.707 51.5ZM159.145 56.106H155.589C154.693 56.106 154.259 55.63 154.259 54.706V51.668H155.295V54.496C155.295 54.916 155.491 55.126 155.911 55.126H158.963C159.257 55.126 159.467 55.042 159.593 54.874C159.761 54.678 159.873 54.104 159.929 53.138L160.881 53.446C160.783 54.706 160.587 55.462 160.307 55.742C160.055 55.98 159.677 56.106 159.145 56.106ZM165.333 43.422H166.313C166.915 44.318 167.391 45.284 167.755 46.306C168.161 47.51 168.371 48.728 168.371 49.974C168.371 51.192 168.161 52.41 167.755 53.614C167.391 54.622 166.915 55.588 166.313 56.498H165.333C165.893 55.56 166.327 54.594 166.663 53.6C167.069 52.368 167.279 51.15 167.279 49.96C167.279 48.756 167.069 47.552 166.663 46.32C166.327 45.312 165.893 44.346 165.333 43.422ZM0.742 67.006H2.254V63.59H3.248V67.006H4.662V67.986H3.248V76.386H2.254V67.986H0.742V67.006ZM4.844 64.57H8.498V63.604H9.464V64.57H11.102C10.976 64.262 10.836 63.982 10.696 63.73L11.564 63.59C11.69 63.884 11.816 64.206 11.928 64.57H13.132V65.424H9.464V66.39H12.642V71.458H11.704V70.492H9.464V71.374H8.498V70.492H6.272V71.472H5.334V66.39H8.498V65.424H4.844V64.57ZM6.272 69.806H8.498V68.854H6.272V69.806ZM9.464 68.854V69.806H11.704V68.854H9.464ZM6.272 68.154H8.498V67.174H6.272V68.154ZM9.464 67.174V68.154H11.704V67.174H9.464ZM4.522 72.354H10.598V71.654H11.578V72.354H13.412V73.25H11.578V75.294C11.578 76.022 11.214 76.386 10.5 76.386H8.96L8.75 75.448C9.24 75.49 9.716 75.518 10.164 75.518C10.444 75.518 10.598 75.364 10.598 75.056V73.25H4.522V72.354ZM6.566 73.292C7.35 73.88 7.994 74.468 8.526 75.056L7.896 75.686C7.42 75.126 6.776 74.524 5.95 73.88L6.566 73.292ZM14.77 68.084H20.496V63.562H21.532V68.084H27.23V69.05H21.532V74.692H26.698V75.672H15.33V74.692H20.496V69.05H14.77V68.084ZM31.374 67.146C30.814 68.42 30.1 69.484 29.232 70.352L28.588 69.526C29.904 68.154 30.8 66.292 31.262 63.954L32.284 64.136C32.13 64.864 31.948 65.536 31.738 66.166H34.734V63.674H35.756V66.166H40.362V67.146H35.756V70.38H40.082V71.36H35.756V74.916H41.258V75.924H28.924V74.916H34.734V71.36H30.618V70.38H34.734V67.146H31.374ZM44.422 73.04C44.954 73.418 45.5 73.88 46.032 74.44C46.494 74.916 46.9 75.406 47.236 75.882L46.536 76.47C46.2 75.994 45.794 75.518 45.346 75.042C44.828 74.482 44.31 74.02 43.792 73.628L44.422 73.04ZM66.808 65.214H64.624V69.092H66.808V65.214ZM66.808 70.058H64.61C64.498 72.942 63.672 75.056 62.104 76.414L61.362 75.742C62.79 74.538 63.546 72.648 63.63 70.058H62.104V69.092H63.644V65.214H62.412V64.262H69.062V65.214H67.774V69.092H69.44V70.058H67.774V76.372H66.808V70.058ZM58.632 65.298H56.952V64.318H61.796V65.298H59.584C59.388 66.418 59.094 67.482 58.716 68.462H61.306V74.804H58.898V75.91H57.974V70.058C57.68 70.59 57.358 71.094 57.008 71.57L56.476 70.702C57.568 69.134 58.282 67.328 58.632 65.298ZM58.898 73.922H60.368V69.358H58.898V73.922ZM78.358 66.488C79.842 67.202 81.186 68.07 82.39 69.106L81.844 69.946C80.556 68.812 79.226 67.916 77.854 67.244L78.358 66.488ZM75.558 66.432L76.16 67.132C75.012 68.224 73.57 69.134 71.834 69.848L71.4 68.938C73.08 68.308 74.466 67.468 75.558 66.432ZM77.028 63.506C77.224 63.912 77.406 64.374 77.574 64.892H82.754V67.706H81.746V65.83H72.254V67.692H71.246V64.892H76.51C76.328 64.444 76.132 64.038 75.922 63.674L77.028 63.506ZM75.502 68.714H76.524V69.736L76.482 70.506H80.094V74.93C80.094 75.182 80.234 75.322 80.514 75.322H81.55C81.9 75.322 82.11 75.14 82.194 74.776C82.25 74.216 82.278 73.628 82.278 72.998L83.202 73.264C83.118 74.412 83.048 75.126 82.964 75.392C82.81 75.98 82.334 76.274 81.55 76.274H80.36C79.52 76.274 79.1 75.882 79.1 75.098V71.458H76.342C76.132 72.466 75.768 73.334 75.236 74.034C74.452 75.028 73.164 75.812 71.372 76.372L70.826 75.504C72.562 74.958 73.78 74.244 74.48 73.362C74.858 72.802 75.124 72.172 75.292 71.458H71.778V70.506H75.446C75.474 70.24 75.488 69.988 75.502 69.736V68.714ZM87.374 67.146C86.814 68.42 86.1 69.484 85.232 70.352L84.588 69.526C85.904 68.154 86.8 66.292 87.262 63.954L88.284 64.136C88.13 64.864 87.948 65.536 87.738 66.166H90.734V63.674H91.756V66.166H96.362V67.146H91.756V70.38H96.082V71.36H91.756V74.916H97.258V75.924H84.924V74.916H90.734V71.36H86.618V70.38H90.734V67.146H87.374ZM99.008 64.122H111.006V65.06H105.504V66.278H109.844V71.822H105.336C105.168 72.746 104.902 73.488 104.51 74.048C106.47 74.874 108.794 75.336 111.482 75.42L111.23 76.386C108.416 76.274 105.966 75.728 103.88 74.776C102.9 75.616 101.29 76.148 99.064 76.4L98.63 75.476C100.576 75.322 102.004 74.93 102.9 74.286C102.088 73.838 101.332 73.32 100.646 72.732L101.416 72.2C102.074 72.746 102.802 73.222 103.586 73.628C103.922 73.152 104.174 72.55 104.314 71.822H100.212V66.278H104.496V65.06H99.008V64.122ZM108.85 70.94V69.456H105.504V69.946L105.462 70.94H108.85ZM104.454 70.94C104.482 70.618 104.496 70.282 104.496 69.946V69.456H101.206V70.94H104.454ZM101.206 68.616H104.496V67.146H101.206V68.616ZM105.504 67.146V68.616H108.85V67.146H105.504ZM117.25 65.256H120.288V63.562H121.324V65.256H124.418V66.236H121.324V68.308H125.132V69.288H116.522V68.308H120.288V66.236H117.25V65.256ZM117.096 71.57H120.288V69.792H121.324V71.57H124.544V72.55H121.324V74.93H125.356V75.924H116.284V74.93H120.288V72.55H117.096V71.57ZM114.296 68.602C113.848 69.204 113.358 69.778 112.826 70.324L112.504 69.246C114.016 67.58 115.108 65.662 115.794 63.506L116.746 63.94C116.368 65.032 115.892 66.068 115.332 67.048V76.4H114.296V68.602ZM128.324 73.334C128.576 73.334 128.772 73.404 128.94 73.572C129.094 73.726 129.178 73.922 129.178 74.16C129.178 74.412 129.094 74.608 128.94 74.762C128.772 74.916 128.562 75 128.324 75C128.086 75 127.89 74.916 127.736 74.762C127.568 74.594 127.484 74.398 127.484 74.16C127.484 73.922 127.568 73.726 127.736 73.572C127.89 73.404 128.086 73.334 128.324 73.334ZM133 73.334C133.238 73.334 133.448 73.404 133.616 73.572C133.77 73.726 133.854 73.922 133.854 74.16C133.854 74.412 133.77 74.608 133.616 74.762C133.448 74.916 133.238 75 133 75C132.762 75 132.566 74.916 132.398 74.762C132.23 74.594 132.16 74.398 132.16 74.16C132.16 73.922 132.23 73.726 132.398 73.572C132.566 73.404 132.762 73.334 133 73.334ZM137.662 73.334C137.9 73.334 138.096 73.404 138.264 73.572C138.432 73.726 138.516 73.922 138.516 74.16C138.516 74.412 138.432 74.608 138.264 74.762C138.096 74.916 137.9 75 137.662 75C137.424 75 137.228 74.916 137.06 74.762C136.892 74.594 136.822 74.398 136.822 74.16C136.822 73.922 136.892 73.726 137.06 73.572C137.228 73.404 137.424 73.334 137.662 73.334Z" fill="black"/>
</g>
<defs>
<linearGradient id="paint0_linear_16021_2714" x1="147.5" y1="55" x2="147.5" y2="81" gradientUnits="userSpaceOnUse">
<stop stop-color="white"/>
<stop offset="1" stop-color="white" stop-opacity="0"/>
</linearGradient>
</defs>
</svg>
