<svg width="20" height="20" viewBox="0 0 20 20" fill="none" xmlns="http://www.w3.org/2000/svg">
<g clip-path="url(#clip0_16021_4562)">
<path fill-rule="evenodd" clip-rule="evenodd" d="M13.1838 5.84715C13.4504 5.79838 13.7275 5.88239 13.9227 6.07745C14.1457 6.30061 14.2234 6.63102 14.1237 6.93032L12.457 11.9303C12.374 12.179 12.1792 12.3747 11.9305 12.4577L6.9305 14.1235C6.63117 14.2233 6.30082 14.1455 6.07764 13.9225C5.85465 13.6993 5.7769 13.369 5.87663 13.0696L7.54248 8.06964C7.62545 7.82098 7.82116 7.62607 8.06982 7.54311L13.0706 5.87644L13.1838 5.84715ZM8.99186 8.99087L7.98356 12.0158L11.0085 11.0075L12.016 7.98338L8.99186 8.99087Z" fill="black"/>
<path fill-rule="evenodd" clip-rule="evenodd" d="M10.0002 0.833313C15.0628 0.833313 19.1668 4.93737 19.1668 9.99998C19.1668 15.0626 15.0628 19.1666 10.0002 19.1666C4.93755 19.1666 0.833496 15.0626 0.833496 9.99998C0.833496 4.93737 4.93755 0.833313 10.0002 0.833313ZM10.0002 2.49998C5.85803 2.49998 2.50016 5.85784 2.50016 9.99998C2.50016 14.1421 5.85803 17.5 10.0002 17.5C14.1423 17.5 17.5002 14.1421 17.5002 9.99998C17.5002 5.85784 14.1423 2.49998 10.0002 2.49998Z" fill="black"/>
</g>
<defs>
<clipPath id="clip0_16021_4562">
<rect width="20" height="20" fill="white"/>
</clipPath>
</defs>
</svg>
