<svg width="20" height="20" viewBox="0 0 20 20" fill="none" xmlns="http://www.w3.org/2000/svg">
<g clip-path="url(#clip0_16021_4052)">
<path d="M12.5 10.8334C12.9602 10.8334 13.3333 11.2065 13.3333 11.6667C13.3333 12.127 12.9602 12.5001 12.5 12.5001C12.0397 12.5001 11.6666 12.127 11.6666 11.6667C11.6666 11.2065 12.0397 10.8334 12.5 10.8334Z" fill="black"/>
<path d="M15.8333 10.8334C16.2935 10.8334 16.6666 11.2065 16.6666 11.6667C16.6666 12.127 16.2935 12.5001 15.8333 12.5001C15.3731 12.5001 15 12.127 15 11.6667C15 11.2065 15.3731 10.8334 15.8333 10.8334Z" fill="black"/>
<path d="M6.45831 5.83341C7.03361 5.83341 7.49998 6.29978 7.49998 6.87508C7.49998 7.45038 7.03361 7.91675 6.45831 7.91675C5.88302 7.91675 5.41665 7.45038 5.41665 6.87508C5.41665 6.29978 5.88302 5.83341 6.45831 5.83341Z" fill="black"/>
<path d="M11.0416 5.83341C11.6169 5.83341 12.0833 6.29978 12.0833 6.87508C12.0833 7.45038 11.6169 7.91675 11.0416 7.91675C10.4663 7.91675 9.99998 7.45038 9.99998 6.87508C9.99998 6.29978 10.4663 5.83341 11.0416 5.83341Z" fill="black"/>
<path fill-rule="evenodd" clip-rule="evenodd" d="M8.74998 1.66675C12.6591 1.66675 15.9608 4.36794 16.5641 7.98104C18.5664 8.82073 20 10.681 20 12.9167C20 14.0317 19.6343 15.0612 19.0218 15.9148L19.1593 16.9304C19.1954 17.1981 19.0997 17.4671 18.9022 17.6514C18.7046 17.8358 18.4295 17.9127 18.1649 17.8582L17.0451 17.627C16.1932 18.0768 15.2104 18.3334 14.1666 18.3334C12.4909 18.3334 10.9481 17.6669 9.87058 16.5829C9.50428 16.6323 9.1303 16.6602 8.74998 16.6602C7.78817 16.6602 6.86645 16.494 6.01235 16.1956L3.07127 16.7498C2.79008 16.8027 2.50107 16.7079 2.30629 16.4983C2.11152 16.2887 2.03753 15.9936 2.11098 15.717L2.59845 13.8795C1.50011 12.5961 0.833313 10.9565 0.833313 9.16349C0.83333 4.97591 4.42644 1.66675 8.74998 1.66675ZM14.1666 9.16675C11.7957 9.16675 9.99998 10.9125 9.99998 12.9167C9.99998 13.0544 10.009 13.1904 10.0252 13.3245C10.0977 13.9161 10.3258 14.4749 10.6762 14.9602C10.7213 15.0223 10.7679 15.0836 10.817 15.1433C11.5644 16.0564 12.7649 16.6667 14.1666 16.6667C15.0265 16.6667 15.8198 16.4314 16.4787 16.0344L16.5478 15.997C16.7118 15.9181 16.898 15.8948 17.0776 15.9319L17.3494 15.988L17.3242 15.796C17.2931 15.5655 17.3598 15.3323 17.5081 15.1531C18.031 14.5217 18.3333 13.7483 18.3333 12.9167C18.3333 11.3379 17.2188 9.91989 15.5867 9.38892C15.5755 9.38585 15.5637 9.38433 15.5526 9.38078C15.1191 9.24303 14.6532 9.16675 14.1666 9.16675ZM8.74998 3.33341C5.2495 3.33341 2.49999 5.99087 2.49998 9.16349C2.49998 10.6628 3.10682 12.0355 4.11782 13.0763C4.32184 13.2862 4.4013 13.5884 4.32615 13.8713L4.06085 14.8674L5.92527 14.5167L6.04002 14.5028C6.15474 14.4974 6.26971 14.516 6.37775 14.5574C7.10859 14.8375 7.90899 14.9936 8.74998 14.9936C8.75839 14.9936 8.7668 14.9929 8.77521 14.9928C8.5316 14.4468 8.3806 13.8534 8.34308 13.2268C8.33678 13.1242 8.33331 13.0209 8.33331 12.9167C8.33331 9.85843 11.0147 7.50008 14.1666 7.50008C14.3615 7.50008 14.5546 7.50849 14.7453 7.52612C13.9922 5.1287 11.6235 3.33341 8.74998 3.33341Z" fill="black"/>
</g>
<defs>
<clipPath id="clip0_16021_4052">
<rect width="20" height="20" fill="white"/>
</clipPath>
</defs>
</svg>
