<svg width="20" height="20" viewBox="0 0 20 20" fill="none" xmlns="http://www.w3.org/2000/svg">
<path d="M8.33341 8.33331C8.79365 8.33331 9.16675 8.70641 9.16675 9.16665V14.1666C9.16675 14.6269 8.79365 15 8.33341 15C7.87318 15 7.50008 14.6269 7.50008 14.1666V9.16665C7.50008 8.70641 7.87318 8.33331 8.33341 8.33331Z" fill="#FF3B30"/>
<path d="M11.6667 8.33331C12.127 8.33331 12.5001 8.70641 12.5001 9.16665V14.1666C12.5001 14.6269 12.127 15 11.6667 15C11.2065 15 10.8334 14.6269 10.8334 14.1666V9.16665C10.8334 8.70641 11.2065 8.33331 11.6667 8.33331Z" fill="#FF3B30"/>
<path fill-rule="evenodd" clip-rule="evenodd" d="M11.6667 0.833313C12.3544 0.833313 12.9723 1.16883 13.4018 1.59829C13.8312 2.02774 14.1667 2.64562 14.1667 3.33331V4.16665H17.5001C17.9603 4.16665 18.3334 4.53974 18.3334 4.99998C18.3334 5.46022 17.9603 5.83331 17.5001 5.83331H16.6667V16.6666C16.6667 17.3543 16.3312 17.9722 15.9018 18.4017C15.4723 18.8311 14.8544 19.1666 14.1667 19.1666H5.83341C5.14572 19.1666 4.52784 18.8311 4.09839 18.4017C3.66893 17.9722 3.33341 17.3543 3.33341 16.6666V5.83331H2.50008C2.03984 5.83331 1.66675 5.46022 1.66675 4.99998C1.66675 4.53974 2.03984 4.16665 2.50008 4.16665H5.83341V3.33331C5.83341 2.64562 6.16893 2.02774 6.59839 1.59829C7.02784 1.16883 7.64572 0.833313 8.33341 0.833313H11.6667ZM5.00008 16.6666C5.00008 16.8123 5.08123 17.0277 5.27677 17.2233C5.47232 17.4188 5.68777 17.5 5.83341 17.5H14.1667C14.3124 17.5 14.5278 17.4188 14.7234 17.2233C14.9189 17.0277 15.0001 16.8123 15.0001 16.6666V5.83331H5.00008V16.6666ZM8.33341 2.49998C8.18777 2.49998 7.97232 2.58113 7.77677 2.77667C7.58123 2.97222 7.50008 3.18767 7.50008 3.33331V4.16665H12.5001V3.33331C12.5001 3.18767 12.4189 2.97222 12.2234 2.77667C12.0278 2.58113 11.8124 2.49998 11.6667 2.49998H8.33341Z" fill="#FF3B30"/>
</svg>
