<svg width="12" height="12" viewBox="0 0 12 12" fill="none" xmlns="http://www.w3.org/2000/svg">
<g clip-path="url(#clip0_15286_5919)">
<path d="M11.5714 2.62283C10.7428 0.8914 8.65712 0.159971 6.92569 0.982828C5.98284 1.43426 5.38855 2.20569 5.15998 3.26854C4.94855 4.23426 5.07427 5.30854 5.19998 6.13711C5.36569 7.19426 5.37141 7.9714 5.22284 8.52569C5.09141 9.01711 4.82284 9.33711 4.38855 9.54854C3.93712 9.75997 3.43427 9.78283 2.97141 9.61711C2.50855 9.4514 2.12569 9.11426 1.91427 8.67426C1.70393 8.23168 1.67786 7.72371 1.84179 7.26192C2.00572 6.80013 2.34624 6.4223 2.78855 6.2114C2.98284 6.11426 3.13712 5.94854 3.2057 5.74283C3.27427 5.53711 3.26855 5.31997 3.17712 5.11997C3.07998 4.92569 2.91427 4.7714 2.70855 4.70283C2.50284 4.63426 2.27998 4.63997 2.08569 4.7314C1.67174 4.92666 1.30047 5.20181 0.993208 5.54103C0.68595 5.88026 0.44877 6.27687 0.295303 6.70806C0.141836 7.13925 0.0751082 7.59653 0.0989564 8.0536C0.122805 8.51067 0.236758 8.95852 0.434266 9.3714C0.717856 9.96583 1.1642 10.4677 1.72151 10.8186C2.27882 11.1696 2.92423 11.3553 3.58284 11.3543C4.10284 11.3543 4.6057 11.2343 5.07998 11.0171C6.02284 10.5657 6.61712 9.80569 6.8457 8.74283C7.05141 7.78283 6.93141 6.70854 6.8057 5.8914C6.63998 4.82283 6.63427 4.03997 6.78284 3.48569C6.91427 2.99426 7.18284 2.66854 7.62855 2.46283C8.54855 2.02283 9.66284 2.41711 10.1028 3.33711C10.5428 4.25711 10.1486 5.35997 9.22855 5.79997C8.82855 5.99997 8.65141 6.47426 8.8457 6.88568C8.93712 7.08569 9.10855 7.23426 9.30855 7.30283C9.51427 7.3714 9.73141 7.36569 9.93141 7.27426C11.6628 6.42854 12.3943 4.34854 11.5714 2.62283Z" fill="#32AA92"/>
</g>
<defs>
<clipPath id="clip0_15286_5919">
<rect width="12" height="12" fill="white"/>
</clipPath>
</defs>
</svg>
