<svg width="50" height="50" viewBox="0 0 50 50" fill="none" xmlns="http://www.w3.org/2000/svg">
<path d="M13.1698 20.5576C15.4463 19.1411 18.1492 18.5715 20.8037 18.9492V20.4484C20.0949 20.4756 19.4132 20.5581 18.7044 20.6945C17.0076 21.0461 15.4074 21.7625 14.0148 22.7938C12.5153 23.9117 11.3703 25.4389 10.5796 27.1293C9.81447 28.7475 9.43112 30.5201 9.46083 32.3098C9.46089 34.2727 10.0068 36.1809 10.9336 37.8984C11.3699 38.6891 11.86 39.4535 12.5144 40.0806C11.1784 39.1536 10.0603 37.8987 9.24236 36.4809C8.12469 34.5997 7.57945 32.3912 7.63396 30.1829C7.71577 28.1653 8.28833 26.1748 9.35159 24.4298C10.2968 22.8532 11.6067 21.5251 13.1698 20.5576Z" fill="#DCDCDD"/>
<path d="M30.8371 5.23451C30.8098 5.77979 30.8921 6.32611 30.9739 6.84417H26.3383V31.8742C26.3655 32.9374 26.093 34.0008 25.5749 34.9277C25.1604 35.6358 24.5832 36.2347 23.8912 36.6755C23.1991 37.1164 22.4118 37.3864 21.5948 37.4627C20.5587 37.5446 19.4946 37.3543 18.5676 36.8362C17.8588 36.4545 17.2594 35.9085 16.7959 35.2542C18.4046 36.1539 20.5039 36.0722 22.0581 35.0633C23.5575 34.1363 24.5391 32.3916 24.5391 30.5922C24.5118 25.2209 24.5115 19.8494 24.5115 14.4781C24.5387 11.3971 24.5118 8.31548 24.5391 5.23451H30.8371Z" fill="#DCDCDD"/>
<path d="M34.9001 12.7065C35.7725 13.2517 36.7542 13.6875 37.7629 13.9056C38.3627 14.0419 38.9626 14.0964 39.5897 14.0964V15.5139C37.7728 15.088 36.1335 14.1071 34.9001 12.7065Z" fill="#DCDCDD"/>
<path d="M26.3386 6.84354H31.001C31.1646 7.74329 31.4918 8.58854 31.9008 9.40653C32.5551 10.6608 33.4822 11.7786 34.6819 12.5148C34.7636 12.5693 34.8182 12.6239 34.8727 12.7056C36.0997 14.0962 37.7629 15.105 39.5897 15.514C39.617 17.1499 39.5897 18.8131 39.5897 20.4491C36.5086 20.4764 33.4276 19.4948 30.9192 17.6953C30.9192 21.6215 30.9192 25.5478 30.9465 29.474C30.9465 29.9921 30.9737 30.5101 30.9465 31.0554C30.7979 32.9767 30.2202 34.8401 29.256 36.5085C28.438 37.9536 27.3202 39.2351 25.9841 40.2167C24.2502 41.494 22.1658 42.2078 20.0129 42.2616C18.9223 42.2889 17.8317 42.2343 16.7684 41.9889C15.2687 41.6617 13.8509 41.0346 12.5967 40.1621L12.5149 40.0804C11.8878 39.4532 11.3698 38.6898 10.9335 37.8991C10.0065 36.2086 9.46114 34.2727 9.46114 32.3096C9.43392 30.5374 9.81561 28.7378 10.5791 27.1291C11.3698 25.4387 12.5422 23.9118 14.0145 22.7939C15.4071 21.7625 17.0073 21.0462 18.7042 20.6945C19.3858 20.5581 20.0947 20.4764 20.8036 20.4491C20.831 21.0762 20.8036 21.7033 20.831 22.3031V25.4932C20.0402 25.2206 19.1677 25.2206 18.3497 25.4114C17.3682 25.6296 16.4412 26.0658 15.6778 26.7202C15.2142 27.1291 14.8052 27.6199 14.5326 28.1652C14.0418 29.0923 13.8782 30.1829 13.9873 31.219C14.0963 32.2279 14.5326 33.2094 15.1869 33.9729C15.6232 34.5181 16.1958 34.9271 16.7684 35.3088C17.2318 35.9632 17.8317 36.5085 18.5406 36.8903C19.4677 37.3811 20.531 37.5991 21.5671 37.5174C23.203 37.4083 24.7299 36.3995 25.5479 34.9816C26.0659 34.0546 26.3386 32.9913 26.3113 31.9279C26.3659 23.5301 26.3386 15.1868 26.3386 6.84354Z" fill="#C4C4C7"/>
<path d="M40.0405 15.6018C40.4914 15.6746 40.9464 15.7048 41.4166 15.7048V22.058C38.3083 22.0853 35.1996 21.0484 32.6639 19.2217V31.8189C32.6912 32.773 32.6095 33.7272 32.3915 34.654C31.7789 37.5027 30.1257 40.0214 27.7559 41.7167C26.5019 42.6161 25.0844 43.2428 23.6125 43.5699C21.8131 43.9789 19.9316 43.9517 18.1595 43.4883C16.0345 42.9312 14.1127 41.7773 12.6236 40.1622C13.8778 41.062 15.2962 41.662 16.7959 41.9891C17.8591 42.2345 18.9498 42.2888 20.0403 42.2616C22.1932 42.2077 24.278 41.4935 26.0119 40.2162C27.3477 39.2347 28.4388 37.9534 29.2839 36.5085C30.248 34.8402 30.8254 32.9766 30.9739 31.0555C31.0012 30.5375 31.0012 30.0188 30.9739 29.4735C30.9467 25.5474 30.9463 21.621 30.9463 17.6949C33.4547 19.4944 36.5363 20.4769 39.6173 20.4496C39.59 18.8137 39.617 17.1499 39.5897 15.5139L40.0405 15.6018Z" fill="#DCDCDD"/>
<path d="M20.8313 20.422C21.4311 20.422 22.0585 20.4495 22.6582 20.5312V27.0477C21.7857 26.7478 20.8032 26.7204 19.9035 26.9385C18.186 27.3203 16.7416 28.6291 16.1417 30.2921C15.5419 31.9281 15.7875 33.8373 16.8235 35.2278C16.2237 34.8734 15.6777 34.4359 15.2415 33.8906C14.5873 33.1272 14.1514 32.1458 14.0424 31.1371C13.9334 30.1011 14.0966 29.0105 14.5873 28.0836C14.86 27.5383 15.269 27.0474 15.7324 26.6384C16.4958 25.9841 17.4501 25.5755 18.4043 25.3301C19.2222 25.1392 20.0946 25.1391 20.8853 25.4117V22.2213C20.8308 21.6761 20.8586 21.049 20.8313 20.422Z" fill="#DCDCDD"/>
<path d="M32.6639 6.84291C32.6639 8.66973 33.2366 10.4975 34.2999 11.9971C34.4362 12.1878 34.573 12.3509 34.7093 12.5144C33.5097 11.7782 32.5552 10.6609 31.9282 9.40681C31.5192 8.61609 31.1924 7.74266 31.0015 6.84291C31.5466 6.87014 32.0916 6.84292 32.6639 6.84291Z" fill="#DCDCDD"/>
</svg>
