<svg width="43" height="44" viewBox="0 0 43 44" fill="none" xmlns="http://www.w3.org/2000/svg">
<path d="M38.8475 39.8779C39.7341 38.8803 41.243 38.8069 42.2184 39.7133C43.194 40.6207 43.2662 42.1665 42.3793 43.1646L42.349 43.2004C41.4622 44.1985 39.9512 44.2723 38.9757 43.365C38.0002 42.4576 37.9281 40.9117 38.8149 39.9136L38.8475 39.8779ZM31.0332 39.0788C32.3516 39.0788 33.4204 40.1723 33.4204 41.5213C33.4204 42.8702 32.3516 43.9637 31.0332 43.9637H21.4845C20.1661 43.9637 19.0974 42.8702 19.0974 41.5213C19.0974 40.1723 20.1662 39.0788 21.4845 39.0788H31.0332ZM4.77434 39.0788H9.54869V34.194H4.77434V39.0788ZM19.7501 30.1082C20.6367 29.1106 22.1456 29.0372 23.1211 29.9436C24.0966 30.851 24.1688 32.3968 23.2819 33.3949L23.2516 33.4307C22.3648 34.4288 20.8539 34.5026 19.8783 33.5953C18.9029 32.6879 18.8307 31.142 19.7175 30.1439L19.7501 30.1082ZM38.8475 30.1082C39.7341 29.1106 41.243 29.0372 42.2184 29.9436C43.194 30.851 43.2662 32.3968 42.3793 33.3949L42.349 33.4307C41.4622 34.4288 39.9512 34.5026 38.9757 33.5953C38.0002 32.6879 37.9281 31.142 38.8149 30.1439L38.8475 30.1082ZM28.6461 31.7515V21.9818C28.6461 20.6329 29.7148 19.5394 31.0332 19.5394C32.3516 19.5394 33.4204 20.6329 33.4204 21.9818V31.7515C33.4204 33.1005 32.3516 34.194 31.0332 34.194C29.7148 34.194 28.6461 33.1005 28.6461 31.7515ZM19.7501 20.3384C20.6367 19.3409 22.1456 19.2675 23.1211 20.1739C24.0966 21.0813 24.1688 22.6271 23.2819 23.6252L23.2516 23.661C22.3648 24.6591 20.8539 24.7329 19.8783 23.8256C18.9029 22.9182 18.8307 21.3723 19.7175 20.3742L19.7501 20.3384ZM38.8475 20.3384C39.7341 19.3409 41.243 19.2675 42.2184 20.1739C43.194 21.0813 43.2662 22.6271 42.3793 23.6252L42.349 23.661C41.4622 24.6591 39.9512 24.7329 38.9757 23.8256C38.0002 22.9182 37.9281 21.3723 38.8149 20.3742L38.8475 20.3384ZM11.9359 19.5394C13.2543 19.5394 14.323 20.6329 14.323 21.9818C14.323 23.3308 13.2543 24.4243 11.9359 24.4243H2.38717C1.06877 24.4243 0 23.3308 0 21.9818C4.61388e-07 20.6329 1.06877 19.5394 2.38717 19.5394H11.9359ZM19.7501 10.5687C20.6367 9.57122 22.1456 9.49781 23.1211 10.4042C24.0966 11.3116 24.1688 12.8574 23.2819 13.8555L23.2516 13.8913C22.3648 14.8893 20.8539 14.9631 19.8783 14.0559C18.9029 13.1485 18.8307 11.6026 19.7175 10.6045L19.7501 10.5687ZM33.4204 9.76971H38.1948V4.88485H33.4204V9.76971ZM4.77434 9.76971H9.54869V4.88485H4.77434V9.76971ZM19.7501 0.799036C20.6367 -0.198479 22.1456 -0.271898 23.1211 0.634458C24.0966 1.54184 24.1688 3.0877 23.2819 4.08582L23.2516 4.12159C22.3648 5.11967 20.8539 5.19346 19.8783 4.28617C18.9028 3.37882 18.8307 1.83293 19.7175 0.834814L19.7501 0.799036ZM14.323 39.5678C14.3229 40.7336 13.8699 41.8513 13.0642 42.6757C12.2584 43.5001 11.166 43.9636 10.0266 43.9637H4.29644C3.157 43.9636 2.06458 43.5 1.25886 42.6757C0.453142 41.8513 0.000123418 40.7336 0 39.5678V33.705C0.000124096 32.5392 0.453142 31.4215 1.25886 30.5971L1.57358 30.3037C2.33801 29.6631 3.29963 29.3092 4.29644 29.3091H10.0266C11.0234 29.3092 11.985 29.6631 12.7495 30.3037L13.0642 30.5971L13.3509 30.9191C13.9771 31.7013 14.3229 32.6851 14.323 33.705V39.5678ZM14.323 10.2587C14.3229 11.4245 13.8699 12.5422 13.0642 13.3666C12.2584 14.1909 11.166 14.6544 10.0266 14.6546H4.29644C3.157 14.6544 2.06458 14.1909 1.25886 13.3666C0.453142 12.5422 0.000123644 11.4245 0 10.2587V4.39589C0.000123469 3.23007 0.453144 2.11236 1.25886 1.288L1.57358 0.994621C2.33801 0.353939 3.29962 0.000110514 4.29644 0H10.0266C11.0234 0.000110671 11.985 0.353938 12.7495 0.994621L13.0642 1.288L13.3509 1.61C13.9771 2.39213 14.3229 3.376 14.323 4.39589V10.2587ZM42.9691 10.2587C42.969 11.4245 42.516 12.5422 41.7102 13.3666C40.9045 14.1909 39.8121 14.6544 38.6727 14.6546H32.9425C31.8031 14.6544 30.7106 14.1909 29.9049 13.3666C29.0992 12.5422 28.6462 11.4245 28.6461 10.2587V4.39589C28.6462 3.23008 29.0992 2.11237 29.9049 1.288L30.2196 0.994621C30.9841 0.353938 31.9457 0.000111076 32.9425 0H38.6727C39.6695 0.000110469 40.6311 0.353938 41.3955 0.994621L41.7102 1.288L41.997 1.61C42.6232 2.39213 42.969 3.376 42.9691 4.39589V10.2587Z" fill="#D1D1D6"/>
</svg>
