<svg width="20" height="20" viewBox="0 0 20 20" fill="none" xmlns="http://www.w3.org/2000/svg">
<path fill-rule="evenodd" clip-rule="evenodd" d="M4.30692 4.36502C7.36035 1.30211 12.3212 1.30211 15.3746 4.36502C18.4315 7.43324 18.4264 12.4013 15.3746 15.4637C12.9888 17.8584 9.456 18.3785 6.56441 17.0465C6.14395 16.8765 5.94343 16.8083 5.78397 16.8081C5.64528 16.8092 5.46733 16.8393 5.24361 16.8943C5.00204 16.9538 4.80962 17.0146 4.5413 17.0856C4.30823 17.1472 4.03409 17.2112 3.7747 17.2207C3.52115 17.2299 3.15305 17.1916 2.86893 16.9065C2.58545 16.622 2.54743 16.2546 2.55643 16.0016C2.56568 15.7421 2.62959 15.4673 2.69071 15.2334C2.76048 14.9663 2.82148 14.7685 2.87951 14.5278C2.93397 14.3018 2.96331 14.1218 2.96333 13.9809C2.96333 13.8156 2.89611 13.6149 2.72652 13.1899H2.7257C1.40394 10.2925 1.92448 6.75637 4.30692 4.36502ZM4.21333 13.9809C4.21331 14.2709 4.15617 14.565 4.09452 14.8208C4.03635 15.0621 3.95085 15.3545 3.90002 15.5491C3.85402 15.7252 3.82471 15.8602 3.81213 15.9633C3.91394 15.9506 4.04748 15.9231 4.22147 15.8771C4.41254 15.8265 4.70751 15.7386 4.94494 15.6801C5.19888 15.6176 5.49166 15.5596 5.7799 15.5581H5.78316C6.12265 15.5581 6.45724 15.6636 6.75565 15.7778L7.0413 15.8909L7.06978 15.9039C9.50484 17.0342 12.4812 16.597 14.4892 14.5815L14.722 14.3357C17.0531 11.7471 16.9794 7.74668 14.4892 5.24719C11.9243 2.67432 7.75732 2.67443 5.19234 5.24719C3.24644 7.20036 2.77573 10.0652 3.77388 12.4656L3.87479 12.6967L3.88781 12.7268C4.03423 13.0938 4.21333 13.5293 4.21333 13.9809Z" fill="#8A8A8E"/>
</svg>
