<svg width="28" height="8" viewBox="0 0 28 8" fill="none" xmlns="http://www.w3.org/2000/svg">
<path d="M23.3973 7.55979L22.4361 3.03459H22.3929L21.4317 7.55979H18.8073L17.0685 0.129395H19.5525L20.4057 4.34139H20.4489L21.2913 0.129395H23.6457L24.5421 4.34139H24.5853L25.3845 0.129395H27.7605L26.0217 7.55979H23.3973Z" fill="#007AFF"/>
<path d="M12.6901 0C13.9717 0 14.9617 0.3276 15.6601 0.9828C16.3585 1.638 16.7077 2.592 16.7077 3.8448C16.7077 5.0976 16.3585 6.0516 15.6601 6.7068C14.9617 7.362 13.9717 7.6896 12.6901 7.6896C11.4085 7.6896 10.4185 7.3656 9.72012 6.7176C9.02892 6.0624 8.68332 5.1048 8.68332 3.8448C8.68332 2.5848 9.02892 1.6308 9.72012 0.9828C10.4185 0.3276 11.4085 0 12.6901 0ZM12.6901 1.782C12.1789 1.782 11.7901 1.9368 11.5237 2.2464C11.2573 2.556 11.1241 2.9736 11.1241 3.4992V4.1904C11.1241 4.716 11.2573 5.1336 11.5237 5.4432C11.7901 5.7528 12.1789 5.9076 12.6901 5.9076C13.2013 5.9076 13.5901 5.7528 13.8565 5.4432C14.1301 5.1336 14.2669 4.716 14.2669 4.1904V3.4992C14.2669 2.9736 14.1301 2.556 13.8565 2.2464C13.5901 1.9368 13.2013 1.782 12.6901 1.782Z" fill="#007AFF"/>
<path d="M5.31366 7.55979L2.19246 3.95259V7.55979H6.10352e-05V0.129395H2.08446L5.20566 3.79059V0.129395H7.39806V7.55979H5.31366Z" fill="#007AFF"/>
</svg>
