<svg width="20" height="20" viewBox="0 0 20 20" fill="none" xmlns="http://www.w3.org/2000/svg">
<mask id="path-1-inside-1_16021_4542" fill="white">
<path d="M0 6C0 2.68629 2.68629 0 6 0H14C17.3137 0 20 2.68629 20 6V14C20 17.3137 17.3137 20 14 20H6C2.68629 20 0 17.3137 0 14V6Z"/>
</mask>
<path d="M0 6C0 2.68629 2.68629 0 6 0H14C17.3137 0 20 2.68629 20 6V14C20 17.3137 17.3137 20 14 20H6C2.68629 20 0 17.3137 0 14V6Z" fill="#FCFCFC"/>
<path d="M6 0V0.5H14V0V-0.5H6V0ZM20 6H19.5V14H20H20.5V6H20ZM14 20V19.5H6V20V20.5H14V20ZM0 14H0.5V6H0H-0.5V14H0ZM6 20V19.5C2.96243 19.5 0.5 17.0376 0.5 14H0H-0.5C-0.5 17.5899 2.41015 20.5 6 20.5V20ZM20 14H19.5C19.5 17.0376 17.0376 19.5 14 19.5V20V20.5C17.5899 20.5 20.5 17.5899 20.5 14H20ZM14 0V0.5C17.0376 0.5 19.5 2.96243 19.5 6H20H20.5C20.5 2.41015 17.5899 -0.5 14 -0.5V0ZM6 0V-0.5C2.41015 -0.5 -0.5 2.41015 -0.5 6H0H0.5C0.5 2.96243 2.96243 0.5 6 0.5V0Z" fill="#787880" fill-opacity="0.08" mask="url(#path-1-inside-1_16021_4542)"/>
<path d="M11.3655 5.99846C11.9658 5.26538 11.8317 4.4646 11.7653 4.3982C11.6989 4.33179 10.8317 4.4646 10.2314 5.26538C9.69758 5.99846 9.69758 6.79924 9.76529 6.86564C9.833 6.93205 10.6989 6.86564 11.3655 5.99846ZM12.833 9.73283C12.7666 8.66643 13.7666 7.99976 13.9658 7.86565V7.79924C13.9658 7.79924 13.0986 6.73283 11.833 6.79924C11.0335 6.86564 10.6325 7.26538 10.0999 7.26538C9.43326 7.26538 8.833 6.79924 8.09992 6.79924C7.49966 6.79924 5.76659 7.33309 5.63378 9.59872C5.50096 11.8656 7.09992 13.9985 7.70018 14.3982C8.30044 14.7979 8.70018 14.6651 9.36685 14.3318C9.70018 14.1313 10.7666 14.0649 11.3669 14.4646C12.0999 14.7315 13.1663 14.531 14.3669 11.8643C14.2327 11.8656 12.8994 11.5323 12.833 9.73283Z" fill="#272636"/>
</svg>
