<svg width="32" height="32" viewBox="0 0 32 32" fill="none" xmlns="http://www.w3.org/2000/svg">
<path d="M19.746 4C22.1697 4 24.0528 6.01617 24.121 8.4209H24.1239C24.1239 8.43524 24.1227 8.44971 24.122 8.46387C24.1226 8.49442 24.1239 8.525 24.1239 8.55566H24.1122C24.0478 8.95667 23.7013 9.26359 23.2821 9.26367H22.8612C22.442 9.26367 22.0957 8.95669 22.0312 8.55566H22.0194C22.0194 7.15001 20.9502 6.10547 19.746 6.10547H11.2392C10.035 6.10551 8.96677 7.15003 8.96671 8.55566V23.4443C8.96677 24.85 10.035 25.8945 11.2392 25.8945H19.746C20.9502 25.8945 22.0194 24.85 22.0194 23.4443V17.6846C22.0194 17.2195 22.3962 16.8418 22.8612 16.8418H23.2821C23.7472 16.8418 24.1239 17.2195 24.1239 17.6846V23.5791H24.123C24.0548 25.9839 22.1697 28 19.746 28H11.2392C8.77035 28 6.8613 25.908 6.86124 23.4443V8.55566C6.8613 6.09198 8.77035 4.00004 11.2392 4H19.746ZM25.5605 9.14355C25.8623 8.78983 26.3942 8.74801 26.748 9.0498C27.1017 9.35171 27.1436 9.88354 26.8417 10.2373L25.995 11.2285C25.994 11.2298 25.9941 11.2322 25.9931 11.2334L19.6259 18.6934L19.6093 18.6797C19.5842 18.7075 19.5578 18.7348 19.5282 18.7598L18.0565 20.0039C18.0103 20.0429 17.9573 20.0734 17.9003 20.0938C17.5329 20.2247 17.1618 19.9079 17.2333 19.5244C17.2444 19.4648 17.2664 19.4074 17.2978 19.3555L18.2939 17.707C18.3138 17.674 18.3358 17.6424 18.3593 17.6133L18.3446 17.6006L24.3964 10.5088L25.5605 9.14355ZM18.2294 14.2314C18.5781 14.2316 18.8612 14.5145 18.8612 14.8633C18.8611 15.2119 18.5781 15.495 18.2294 15.4951H12.7558C12.407 15.4951 12.124 15.212 12.1239 14.8633C12.1239 14.5145 12.407 14.2314 12.7558 14.2314H18.2294ZM15.6659 9.27148C16.5151 9.35783 17.1776 10.0754 17.1776 10.9473L17.1689 11.1191C17.0826 11.9682 16.3658 12.6306 15.494 12.6309L15.3212 12.6221C14.5287 12.5414 13.8988 11.9117 13.8183 11.1191L13.8095 10.9473C13.8095 10.0171 14.5639 9.2627 15.494 9.2627L15.6659 9.27148ZM15.494 10.418C15.2021 10.418 14.9648 10.6553 14.9648 10.9473C14.9649 11.2391 15.2022 11.4756 15.494 11.4756C15.7856 11.4753 16.0222 11.2389 16.0224 10.9473C16.0223 10.6555 15.7857 10.4183 15.494 10.418Z" fill="black"/>
</svg>
