<svg width="20" height="20" viewBox="0 0 20 20" fill="none" xmlns="http://www.w3.org/2000/svg">
<g clip-path="url(#clip0_15202_4629)">
<path fill-rule="evenodd" clip-rule="evenodd" d="M15.2908 2.46944C16.4097 2.12515 17.4581 3.17351 17.1138 4.29245L13.1881 17.0501C12.8011 18.3074 11.0789 18.4498 10.4904 17.2733L7.76396 11.8193L2.31047 9.09339C1.13376 8.50504 1.27581 6.78212 2.53316 6.39513L15.2908 2.46944ZM15.9186 3.92474C15.9678 3.7649 15.8183 3.61546 15.6585 3.66464L2.90087 7.59033C2.7214 7.6457 2.70117 7.89127 2.86922 7.9753L8.10577 10.5936L10.9122 7.78713C11.1563 7.54308 11.552 7.54308 11.7961 7.78713C12.0402 8.0312 12.0402 8.42693 11.7961 8.67101L8.98966 11.4775L11.6079 16.714C11.6919 16.882 11.9379 16.8621 11.9935 16.6829L15.9186 3.92474Z" fill="black"/>
</g>
<defs>
<clipPath id="clip0_15202_4629">
<rect width="20" height="20" fill="white"/>
</clipPath>
</defs>
</svg>
