<svg width="10" height="10" viewBox="0 0 10 10" fill="none" xmlns="http://www.w3.org/2000/svg">
<g clip-path="url(#clip0_15202_8990)">
<path d="M6.32562 8.75V7.91681C6.32562 7.56527 6.18619 7.22793 5.93766 6.97931C5.68906 6.73072 5.35171 6.59095 5.00016 6.59091H2.50016C2.14854 6.59091 1.81128 6.73068 1.56266 6.97931C1.31403 7.22794 1.17425 7.5652 1.17425 7.91681V8.75C1.17425 8.93828 1.02162 9.09091 0.833341 9.09091C0.645062 9.09091 0.492432 8.93828 0.492432 8.75V7.91681C0.492432 7.38437 0.704095 6.87374 1.08059 6.49725C1.45708 6.12075 1.96771 5.90909 2.50016 5.90909H5.00016C5.53254 5.90913 6.04326 6.12079 6.41972 6.49725C6.79612 6.87372 7.00744 7.38444 7.00744 7.91681V8.75C7.00744 8.93828 6.8548 9.09091 6.66653 9.09091C6.47832 9.09083 6.32562 8.93823 6.32562 8.75Z" fill="white"/>
<path d="M5.07562 2.91681C5.07562 2.18467 4.48228 1.59099 3.75016 1.59091C3.01796 1.59091 2.42425 2.18462 2.42425 2.91681C2.42433 3.64894 3.01801 4.24227 3.75016 4.24227C4.48223 4.24219 5.07554 3.64889 5.07562 2.91681ZM5.75743 2.91681C5.75735 4.02545 4.85879 4.92401 3.75016 4.92409C2.64145 4.92409 1.74251 4.0255 1.74243 2.91681C1.74243 1.80806 2.6414 0.909088 3.75016 0.909088C4.85884 0.909168 5.75743 1.80811 5.75743 2.91681Z" fill="white"/>
<path d="M7.57581 5.83334V3.33334C7.57581 3.14506 7.72844 2.99243 7.91671 2.99243C8.10499 2.99243 8.25762 3.14506 8.25762 3.33334V5.83334C8.25762 6.02162 8.10499 6.17425 7.91671 6.17425C7.72844 6.17425 7.57581 6.02162 7.57581 5.83334Z" fill="white"/>
<path d="M9.16671 4.24243C9.35499 4.24243 9.50762 4.39506 9.50762 4.58334C9.50762 4.77162 9.35499 4.92425 9.16671 4.92425H6.66671C6.47844 4.92425 6.32581 4.77162 6.32581 4.58334C6.32581 4.39506 6.47844 4.24243 6.66671 4.24243H9.16671Z" fill="white"/>
</g>
<defs>
<clipPath id="clip0_15202_8990">
<rect width="10" height="10" fill="white"/>
</clipPath>
</defs>
</svg>
