<svg width="14" height="14" viewBox="0 0 14 14" fill="none" xmlns="http://www.w3.org/2000/svg">
<path d="M10.0877 4.25427C10.3155 4.02647 10.6848 4.02647 10.9126 4.25427L13.2459 6.58761C13.2729 6.61453 13.297 6.64416 13.3183 6.67591C13.3336 6.69884 13.347 6.72268 13.3587 6.74711C13.3714 6.77347 13.3825 6.80076 13.3912 6.82914C13.3948 6.84098 13.3975 6.85303 13.4003 6.86503C13.4106 6.90841 13.4168 6.95352 13.4168 7.00004C13.4168 7.0329 13.4129 7.06494 13.4077 7.09632C13.4036 7.12106 13.3985 7.14565 13.3912 7.1698C13.3825 7.19838 13.3715 7.22587 13.3587 7.2524C13.347 7.27671 13.3335 7.30021 13.3183 7.32304C13.3109 7.33403 13.303 7.34449 13.2949 7.35494C13.2797 7.37466 13.264 7.3944 13.2459 7.41248L10.9126 9.74581C10.6848 9.97359 10.3155 9.97359 10.0877 9.74581C9.85993 9.51801 9.85994 9.14875 10.0877 8.92094L11.4253 7.58338H1.16683C0.844678 7.58338 0.58352 7.32219 0.583496 7.00004C0.583496 6.67788 0.844663 6.41671 1.16683 6.41671H11.4253L10.0877 5.07914C9.85993 4.85135 9.85994 4.48208 10.0877 4.25427Z" fill="#C4C4C7"/>
</svg>
