<svg width="22" height="22" viewBox="0 0 22 22" fill="none" xmlns="http://www.w3.org/2000/svg">
<g clip-path="url(#clip0_16021_710)">
<path d="M11 10.0833C11.5063 10.0833 11.9167 10.4937 11.9167 11V14.6667C11.9167 15.1729 11.5063 15.5833 11 15.5833C10.4937 15.5833 10.0833 15.1729 10.0833 14.6667V11C10.0833 10.4937 10.4937 10.0833 11 10.0833Z" fill="black"/>
<path d="M11.009 6.41667C11.5152 6.41667 11.9256 6.82707 11.9256 7.33333C11.9256 7.83959 11.5152 8.25 11.009 8.25H11C10.4937 8.25 10.0833 7.83959 10.0833 7.33333C10.0833 6.82707 10.4937 6.41667 11 6.41667H11.009Z" fill="black"/>
<path fill-rule="evenodd" clip-rule="evenodd" d="M11 0.921143C11.7694 0.921151 12.5264 1.11472 13.2013 1.48421C13.6954 1.75479 14.1336 2.11347 14.4957 2.54053C15.0571 2.49166 15.6251 2.54649 16.1697 2.70435C16.912 2.91956 17.5881 3.31888 18.1346 3.8654C18.6811 4.41193 19.0805 5.08799 19.2957 5.83032C19.4535 6.37494 19.5083 6.94292 19.4595 7.50431C19.8865 7.8664 20.2452 8.30461 20.5158 8.79875C20.8853 9.47358 21.0789 10.2306 21.0789 11C21.0789 11.7694 20.8853 12.5264 20.5158 13.2013C20.2451 13.6955 19.8867 14.1344 19.4595 14.4966C19.5079 15.0567 19.453 15.6228 19.2957 16.1661C19.081 16.9073 18.6824 17.583 18.1373 18.1292C17.5922 18.6754 16.9175 19.075 16.1768 19.2912C15.6338 19.4496 15.0676 19.5058 14.5073 19.4586C14.1451 19.8879 13.7057 20.2482 13.2102 20.5203C12.5342 20.8914 11.7756 21.086 11.0045 21.086C10.2333 21.086 9.47471 20.8914 8.79875 20.5203C8.30365 20.2484 7.86464 19.8884 7.50252 19.4595C6.9428 19.5077 6.3769 19.4529 5.83391 19.2957C5.09267 19.081 4.41701 18.6824 3.87077 18.1373C3.32461 17.5922 2.92503 16.9175 2.70882 16.1768C2.5505 15.6343 2.49438 15.0688 2.54142 14.5091C2.11029 14.1468 1.74856 13.7066 1.47526 13.2102C1.10249 12.5331 0.906826 11.7729 0.906822 11C0.906822 10.2271 1.1025 9.4669 1.47526 8.78979C1.74856 8.29341 2.11029 7.85316 2.54142 7.49089C2.49438 6.93115 2.5505 6.36574 2.70882 5.82316C2.92502 5.08246 3.32462 4.40778 3.87077 3.86271C4.41701 3.31761 5.09267 2.91902 5.83391 2.70435C6.37726 2.54702 6.94334 2.49211 7.50342 2.54053C7.86558 2.11329 8.30444 1.75487 8.79875 1.48421C9.47359 1.11471 10.2306 0.921143 11 0.921143ZM11 2.75448C10.5385 2.75448 10.0844 2.87041 9.67961 3.09196C9.27474 3.31364 8.93194 3.63407 8.68327 4.02295C8.47555 4.34781 8.08646 4.50833 7.71021 4.42399C7.25841 4.3227 6.78801 4.33637 6.34326 4.46517C5.89862 4.59399 5.49378 4.83373 5.1661 5.16073C4.83852 5.48768 4.59849 5.89184 4.46875 6.3361C4.33902 6.78057 4.32365 7.25103 4.42399 7.70304C4.50771 8.08028 4.34586 8.46943 4.01937 8.67611C3.62758 8.92405 3.3049 9.26721 3.08122 9.67334C2.85753 10.0796 2.74016 10.5362 2.74016 11C2.74016 11.4638 2.85753 11.9204 3.08122 12.3267C3.3049 12.7328 3.62759 13.076 4.01937 13.3239C4.34586 13.5306 4.50773 13.9197 4.42399 14.297C4.32365 14.749 4.33902 15.2194 4.46875 15.6639C4.59849 16.1082 4.83852 16.5123 5.1661 16.8393C5.49379 17.1663 5.89862 17.406 6.34326 17.5348C6.788 17.6636 7.2584 17.6773 7.71021 17.576C8.08723 17.4915 8.47678 17.6528 8.68417 17.9788C8.93252 18.3693 9.27581 18.6907 9.6814 18.9134C10.0869 19.136 10.5419 19.2527 11.0045 19.2527C11.4672 19.2527 11.9229 19.1361 12.3285 18.9134C12.7339 18.6907 13.0765 18.3691 13.3248 17.9788C13.5318 17.6534 13.9204 17.4924 14.297 17.576C14.749 17.6764 15.2194 17.661 15.6639 17.5312C16.1081 17.4015 16.5123 17.1615 16.8393 16.8339C17.1663 16.5062 17.406 16.1006 17.5348 15.6558C17.6635 15.2113 17.6773 14.7414 17.576 14.2898C17.4917 13.9135 17.6522 13.5245 17.9771 13.3167C18.3659 13.0681 18.6864 12.7253 18.908 12.3204C19.1296 11.9156 19.2455 11.4615 19.2455 11C19.2455 10.5385 19.1296 10.0844 18.908 9.67961C18.6864 9.27475 18.3659 8.93194 17.9771 8.68327C17.652 8.47543 17.4914 8.08572 17.576 7.70931C17.6777 7.25691 17.6639 6.78592 17.5348 6.34058C17.4057 5.89526 17.1662 5.48949 16.8384 5.16162C16.5105 4.83377 16.1047 4.59431 15.6594 4.46517C15.214 4.33605 14.7423 4.32136 14.2898 4.4231C13.9135 4.50757 13.5245 4.34791 13.3167 4.02295C13.0681 3.63405 12.7253 3.31365 12.3204 3.09196C11.9156 2.87039 11.4615 2.75448 11 2.75448Z" fill="black"/>
</g>
<defs>
<clipPath id="clip0_16021_710">
<rect width="22" height="22" fill="white"/>
</clipPath>
</defs>
</svg>
