<svg width="22" height="22" viewBox="0 0 22 22" fill="none" xmlns="http://www.w3.org/2000/svg">
<g clip-path="url(#clip0_16021_102)">
<path d="M11 10.0831C11.5063 10.0831 11.9167 10.4935 11.9167 10.9998V14.6664C11.9167 15.1727 11.5063 15.5831 11 15.5831C10.4937 15.5831 10.0833 15.1727 10.0833 14.6664V10.9998C10.0833 10.4935 10.4937 10.0831 11 10.0831Z" fill="black"/>
<path d="M11.009 6.41642C11.5152 6.41642 11.9256 6.82683 11.9256 7.33309C11.9256 7.83935 11.5152 8.24976 11.009 8.24976H11C10.4937 8.24976 10.0833 7.83935 10.0833 7.33309C10.0833 6.82683 10.4937 6.41642 11 6.41642H11.009Z" fill="black"/>
<path fill-rule="evenodd" clip-rule="evenodd" d="M11 0.920898C11.7694 0.920906 12.5264 1.11448 13.2013 1.48397C13.6954 1.75454 14.1336 2.11322 14.4957 2.54028C15.0571 2.49142 15.6251 2.54624 16.1697 2.7041C16.912 2.91931 17.5881 3.31864 18.1346 3.86515C18.6811 4.41168 19.0805 5.08774 19.2957 5.83008C19.4535 6.3747 19.5083 6.94267 19.4595 7.50407C19.8865 7.86616 20.2452 8.30436 20.5158 8.7985C20.8853 9.47334 21.0789 10.2304 21.0789 10.9998C21.0789 11.7691 20.8853 12.5262 20.5158 13.201C20.2451 13.6953 19.8867 14.1342 19.4595 14.4963C19.5079 15.0564 19.453 15.6225 19.2957 16.1659C19.081 16.9071 18.6824 17.5827 18.1373 18.129C17.5922 18.6751 16.9175 19.0747 16.1768 19.2909C15.6338 19.4494 15.0676 19.5056 14.5073 19.4583C14.1451 19.8876 13.7057 20.248 13.2102 20.52C12.5343 20.8911 11.7756 21.0858 11.0045 21.0858C10.2333 21.0858 9.47472 20.8912 8.79876 20.52C8.30366 20.2482 7.86465 19.8881 7.50253 19.4592C6.94281 19.5075 6.37691 19.4526 5.83391 19.2954C5.09268 19.0807 4.41702 18.6821 3.87078 18.137C3.32462 17.592 2.92503 16.9173 2.70883 16.1766C2.55051 15.634 2.49439 15.0686 2.54143 14.5089C2.1103 14.1466 1.74857 13.7063 1.47527 13.21C1.1025 12.5329 0.906834 11.7727 0.90683 10.9998C0.90683 10.2268 1.10251 9.46666 1.47527 8.78955C1.74857 8.29316 2.1103 7.85291 2.54143 7.49064C2.49439 6.93091 2.55051 6.36549 2.70883 5.82292C2.92503 5.08222 3.32463 4.40753 3.87078 3.86247C4.41702 3.31737 5.09268 2.91877 5.83391 2.7041C6.37726 2.54678 6.94334 2.49186 7.50343 2.54028C7.86559 2.11304 8.30445 1.75462 8.79876 1.48397C9.47359 1.11447 10.2306 0.920898 11 0.920898ZM11 2.75423C10.5385 2.75423 10.0844 2.87016 9.67962 3.09172C9.27474 3.3134 8.93195 3.63383 8.68328 4.02271C8.47556 4.34757 8.08647 4.50809 7.71022 4.42375C7.25841 4.32245 6.78801 4.33612 6.34327 4.46493C5.89863 4.59375 5.49379 4.83348 5.16611 5.16048C4.83853 5.48743 4.59849 5.89159 4.46876 6.33586C4.33903 6.78033 4.32365 7.25079 4.424 7.7028C4.50772 8.08003 4.34587 8.46919 4.01938 8.67586C3.62759 8.92381 3.30491 9.26697 3.08123 9.6731C2.85754 10.0794 2.74016 10.536 2.74016 10.9998C2.74017 11.4635 2.85754 11.9201 3.08123 12.3264C3.30491 12.7325 3.6276 13.0757 4.01938 13.3236C4.34587 13.5303 4.50774 13.9195 4.424 14.2967C4.32365 14.7487 4.33903 15.2192 4.46876 15.6637C4.5985 16.1079 4.83853 16.5121 5.16611 16.839C5.49379 17.166 5.89862 17.4058 6.34327 17.5346C6.78801 17.6634 7.25841 17.6771 7.71022 17.5758C8.08724 17.4913 8.47679 17.6526 8.68417 17.9786C8.93252 18.369 9.27582 18.6905 9.68141 18.9132C10.0869 19.1357 10.5419 19.2524 11.0045 19.2524C11.4672 19.2524 11.9229 19.1359 12.3285 18.9132C12.7339 18.6905 13.0765 18.3689 13.3248 17.9786C13.5318 17.6532 13.9204 17.4922 14.297 17.5758C14.749 17.6761 15.2194 17.6607 15.6639 17.531C16.1082 17.4013 16.5123 17.1612 16.8393 16.8337C17.1663 16.5059 17.406 16.1003 17.5348 15.6556C17.6635 15.211 17.6773 14.7412 17.576 14.2896C17.4917 13.9133 17.6522 13.5242 17.9771 13.3165C18.3659 13.0678 18.6864 12.725 18.9081 12.3202C19.1296 11.9154 19.2455 11.4612 19.2455 10.9998C19.2455 10.5383 19.1296 10.0842 18.9081 9.67936C18.6864 9.2745 18.3659 8.93169 17.9771 8.68302C17.652 8.47519 17.4914 8.08548 17.576 7.70907C17.6777 7.25667 17.6639 6.78568 17.5348 6.34033C17.4057 5.89501 17.1662 5.48925 16.8384 5.16138C16.5105 4.83352 16.1047 4.59407 15.6594 4.46493C15.214 4.33581 14.7423 4.32112 14.2898 4.42285C13.9135 4.50733 13.5245 4.34767 13.3167 4.02271C13.0681 3.63381 12.7253 3.31341 12.3204 3.09172C11.9156 2.87015 11.4615 2.75424 11 2.75423Z" fill="black"/>
</g>
<defs>
<clipPath id="clip0_16021_102">
<rect width="22" height="22" fill="white"/>
</clipPath>
</defs>
</svg>
