<svg width="24" height="24" viewBox="0 0 24 24" fill="none" xmlns="http://www.w3.org/2000/svg">
<path d="M8.00195 3.51074C8.66298 2.86974 9.69662 2.85962 10.3496 3.50586C11.1665 4.31425 11.9724 5.13419 12.7783 5.9541C13.1164 6.29794 13.455 6.64135 13.7939 6.98438C14.1735 7.36845 14.5525 7.75318 14.9326 8.13672C14.9674 8.17207 15.0082 8.205 15.0859 8.2207L15.124 8.22852L15.1162 8.19043L15.0703 7.99023C15.0363 7.84057 15.002 7.6905 14.9668 7.54102C14.9208 7.34585 14.8735 7.15063 14.8252 6.95605C14.7237 6.54598 14.6222 6.13607 14.542 5.72266C14.3475 4.72133 15.0047 3.73013 15.9795 3.51367C16.9927 3.28889 17.9989 3.8956 18.2314 4.9043C18.5626 6.3399 18.9828 7.74509 19.5898 9.08789C19.722 9.3802 19.8617 9.66888 20.002 9.95703C20.1283 10.217 20.2548 10.4769 20.375 10.7393C20.6926 11.4315 20.8743 12.1632 20.9609 12.9297C20.9679 13.1301 20.9709 13.3289 20.9727 13.5293L20.9746 14.1406L20.9502 14.2783L20.9482 14.2861V14.2871C20.9114 14.4996 20.876 14.7031 20.833 14.9043C20.3857 16.9957 19.231 18.5723 17.3574 19.5264C15.0721 20.69 12.8032 20.5435 10.6465 19.1387C10.1628 18.8236 9.73594 18.404 9.32129 17.9893C8.37939 17.0475 7.44378 16.0993 6.50781 15.1514L6.50098 15.1455C5.74937 14.3841 4.99796 13.6225 4.24316 12.8643C3.76808 12.3872 3.52352 11.8452 3.64453 11.1689C3.7532 10.5613 4.11261 10.1438 4.67773 9.86035L4.70898 9.84473L4.68457 9.82031L4.49805 9.62793C4.35811 9.4836 4.2202 9.34211 4.0791 9.2041C3.81745 8.94813 3.6104 8.66337 3.52246 8.30176C3.28894 7.34241 3.80923 6.42139 4.74316 6.1416C4.76954 6.13368 4.79586 6.12484 4.82422 6.11523L4.87402 6.09863L4.89355 6.0918L4.8916 6.07129C4.80255 5.34231 5.02211 4.73908 5.61035 4.30762C6.20333 3.87311 6.83611 3.87245 7.46387 4.17773L7.48242 4.18652L7.49512 4.16992C7.54743 4.10093 7.59709 4.02956 7.64648 3.95898L7.64746 3.95801L7.65137 3.95117L7.65039 3.9502C7.76039 3.79232 7.87 3.6389 8.00195 3.51074Z" fill="white" stroke="white" stroke-width="0.0504027"/>
<path fill-rule="evenodd" clip-rule="evenodd" d="M21 14.1402L20.9748 14.2833L20.9731 14.2915C20.9363 14.5039 20.9011 14.7073 20.8579 14.9091C20.4092 17.0077 19.2502 18.591 17.3692 19.5488C15.0755 20.7169 12.7966 20.5696 10.6323 19.1598C10.1462 18.8431 9.71799 18.4219 9.30354 18.0073C8.36147 17.0654 7.4254 16.1173 6.48933 15.1693L6.48333 15.1632C5.73161 14.4017 4.9799 13.6402 4.22504 12.8819C3.74571 12.4006 3.49676 11.8507 3.61966 11.1643C3.72999 10.5474 4.09556 10.1241 4.66663 9.83771L4.47971 9.6457C4.33965 9.50126 4.20217 9.35963 4.06126 9.22181C3.79773 8.964 3.58708 8.67567 3.49762 8.3078C3.26096 7.33561 3.78887 6.40092 4.73609 6.1173C4.7621 6.10949 4.78782 6.10079 4.81641 6.09111L4.86643 6.07438C4.77639 5.33741 4.99905 4.72476 5.59585 4.2872C6.1975 3.84633 6.83975 3.84591 7.47456 4.15462C7.52658 4.08602 7.57631 4.01525 7.62576 3.94459L7.63005 3.93793C7.74009 3.77999 7.84956 3.62299 7.9839 3.49252C8.65444 2.84214 9.7037 2.83124 10.3668 3.48749C11.184 4.29617 11.9903 5.11624 12.7963 5.93629C13.1344 6.28018 13.4726 6.62406 13.8115 6.9671C14.1911 7.35118 14.5707 7.73512 14.9508 8.11865C14.9834 8.15175 15.0197 8.18134 15.0912 8.19572L15.0457 7.99564C15.0117 7.84585 14.9777 7.69584 14.9425 7.54636C14.8965 7.3512 14.8485 7.15649 14.8002 6.96178C14.6987 6.55181 14.5973 6.14184 14.517 5.7277C14.3197 4.71279 14.986 3.7084 15.9744 3.48914C17.0005 3.2615 18.0197 3.87553 18.2555 4.89831C18.5865 6.33305 19.0061 7.73629 19.6123 9.07721C19.7444 9.36933 19.8844 9.6577 20.0248 9.94607C20.1511 10.206 20.2774 10.4659 20.3978 10.7286C20.7167 11.4238 20.8991 12.1583 20.986 12.9271C21 13.3297 21 13.7263 21 14.1402ZM12.375 9.02972C12.5399 9.19665 12.6017 9.39152 12.5319 9.62191C12.4679 9.83323 12.3173 9.9499 12.112 9.98858C11.9022 10.0281 11.7365 9.93619 11.5896 9.78676C10.1081 8.28217 8.625 6.77915 7.14129 5.27693C6.83346 4.96508 6.42588 4.95741 6.13291 5.25158C5.8468 5.53879 5.85995 5.96412 6.16635 6.2739L10.62 10.7759C10.8764 11.0352 10.8999 11.3707 10.6772 11.5974C10.4534 11.8255 10.1179 11.8115 9.86433 11.5583C9.52134 11.2155 9.18121 10.8696 8.84022 10.525L7.63891 9.31144C6.99867 8.66451 6.35871 8.01767 5.71789 7.37156C5.43378 7.08536 5.04535 7.06483 4.76439 7.31401C4.42997 7.61066 4.43483 8.05414 4.77896 8.40186L6.65854 10.3005C7.5646 11.2155 8.47065 12.1305 9.37586 13.046C9.62938 13.3022 9.64282 13.6244 9.41844 13.8527C9.19522 14.0799 8.87138 14.0721 8.62128 13.8264C8.45579 13.6639 8.29287 13.4985 8.12995 13.3332L7.90758 13.1074L7.30078 12.4949C6.82031 12.0102 6.33984 11.5255 5.86109 11.0393C5.64043 10.8154 5.38405 10.7394 5.09365 10.8554C4.6249 11.0426 4.52201 11.6237 4.89043 11.9997C5.30231 12.42 5.71675 12.8377 6.13148 13.2554C6.35699 13.4826 6.58251 13.7097 6.80745 13.9374C7.19646 14.3308 7.5846 14.7252 7.97247 15.1197C8.79849 15.9596 9.62452 16.7994 10.4606 17.629C12.108 19.2638 14.6799 19.6772 16.7367 18.6611C19.6066 17.2433 20.7468 13.788 19.2819 10.9093C18.361 9.09962 17.6539 7.21384 17.2243 5.22241C17.1965 5.09407 17.1337 4.96343 17.0554 4.85834C16.8181 4.54045 16.3882 4.4487 16.0364 4.62304C15.6594 4.80995 15.4916 5.20837 15.5985 5.65426C15.9355 7.05814 16.2722 8.46202 16.6049 9.86692C16.6283 9.96562 16.6412 10.0782 16.6186 10.1748C16.5294 10.5578 16.0567 10.8048 15.6603 10.3949C15.2481 9.96889 14.8314 9.54755 14.4146 9.12619L14.4112 9.12309L13.9433 8.64951C12.5342 7.22076 11.1251 5.79208 9.7157 4.36377C9.39043 4.03407 8.98942 4.01291 8.69617 4.30785C8.40177 4.60363 8.41721 5.01472 8.7379 5.34075C9.32984 5.9426 9.92235 6.54377 10.5229 7.15286L12.375 9.02972Z" fill="black"/>
<path d="M3 17.2167C3.01744 17.1918 3.03401 17.1668 3.0503 17.1421L3.05116 17.1413C3.10976 17.0528 3.16549 16.9685 3.24152 16.9118C3.52048 16.7036 3.90177 16.8323 4.0544 17.1817C4.29421 17.7294 4.61404 18.2215 5.0222 18.6544C5.57012 19.2357 6.21694 19.6638 6.96179 19.9406C7.18445 20.0233 7.30593 20.1948 7.31993 20.4309C7.33365 20.6622 7.22532 20.8378 7.0241 20.9435C6.85633 21.0317 6.6834 21.0062 6.51162 20.938C4.94017 20.3142 3.79945 19.2264 3.08861 17.6744C3.06803 17.6297 3.0463 17.5857 3.01258 17.5376C3 17.4337 3 17.3336 3 17.2167Z" fill="black"/>
<path d="M8.29802 18.6684C8.2883 18.398 8.12652 18.2196 7.78125 18.1067C7.27934 17.9066 6.85147 17.6196 6.48418 17.2383C6.16978 16.912 5.93226 16.5355 5.74533 16.1219C5.62243 15.8497 5.35032 15.7355 5.07651 15.8249C4.82698 15.9063 4.67235 16.1671 4.72437 16.4398C4.74266 16.5347 4.78668 16.6262 4.82898 16.7142C5.40349 17.9087 6.30354 18.7369 7.54202 19.1792C7.93445 19.3193 8.31202 19.0601 8.29802 18.6684Z" fill="black"/>
</svg>
