<svg width="16" height="16" viewBox="0 0 16 16" fill="none" xmlns="http://www.w3.org/2000/svg">
<path d="M3.33333 6.66666C4.06971 6.66666 4.66667 7.26362 4.66667 8C4.66667 8.73638 4.06971 9.33333 3.33333 9.33333C2.59695 9.33333 2 8.73638 2 8C2 7.26362 2.59695 6.66666 3.33333 6.66666Z" fill="black"/>
<path d="M8 6.66666C8.73638 6.66666 9.33333 7.26362 9.33333 8C9.33333 8.73638 8.73638 9.33333 8 9.33333C7.26362 9.33333 6.66667 8.73638 6.66667 8C6.66667 7.26362 7.26362 6.66666 8 6.66666Z" fill="black"/>
<path d="M12.6667 6.66666C13.403 6.66666 14 7.26362 14 8C14 8.73638 13.403 9.33333 12.6667 9.33333C11.9303 9.33333 11.3333 8.73638 11.3333 8C11.3333 7.26362 11.9303 6.66666 12.6667 6.66666Z" fill="black"/>
</svg>
