<svg width="16" height="16" viewBox="0 0 16 16" fill="none" xmlns="http://www.w3.org/2000/svg">
<path d="M8.00043 3.19659C8.91705 2.10585 10.2987 1.80991 11.4448 2.11847L11.5746 2.15656L11.5776 2.15753C14.1353 2.98155 14.9784 5.73804 14.2426 8.03741C13.6746 9.84022 12.3702 11.3183 11.1284 12.3353C10.5035 12.8469 9.88135 13.253 9.35199 13.5335C9.08763 13.6736 8.83999 13.7853 8.6225 13.8636C8.41657 13.9377 8.19616 13.9964 8.00043 13.9964C7.80587 13.9964 7.58674 13.9387 7.38129 13.8655C7.1647 13.7884 6.91871 13.6779 6.6557 13.5394C6.12871 13.2618 5.50916 12.8594 4.88617 12.3499C3.64687 11.3364 2.34408 9.85887 1.75824 8.03839V8.03741C1.02343 5.73942 1.85842 2.98191 4.41742 2.15753L4.4184 2.15656C5.58964 1.78265 7.05565 2.07709 8.00043 3.19659ZM11.2709 3.10968C10.3064 2.80838 9.07697 3.12221 8.44281 4.32355C8.35605 4.48772 8.18514 4.59051 7.99945 4.59015C7.81374 4.58968 7.64309 4.48618 7.55707 4.32159C6.93927 3.1388 5.68573 2.80178 4.72308 3.1087C2.83945 3.71588 2.09216 5.79621 2.71136 7.73273C3.21723 9.30368 4.36555 10.6324 5.51996 11.5765C6.09364 12.0456 6.65717 12.41 7.12152 12.6546C7.3539 12.777 7.556 12.8667 7.71722 12.9241C7.88909 12.9853 7.97865 12.9963 8.00043 12.9964C8.00075 12.9964 8.00279 12.9966 8.00629 12.9964C8.01028 12.9961 8.01659 12.9954 8.02386 12.9944C8.03887 12.9924 8.05909 12.9885 8.08441 12.9827C8.13621 12.9709 8.20266 12.9513 8.28363 12.9222C8.44587 12.8638 8.64923 12.7737 8.88324 12.6497C9.35095 12.4019 9.91812 12.0329 10.4946 11.5609C11.6549 10.6106 12.8022 9.28348 13.2895 7.73468V7.73273C13.9089 5.79754 13.156 3.71707 11.2709 3.10968Z" fill="#8A8A8E"/>
<path d="M8.00043 3.19659C8.91705 2.10585 10.2987 1.80991 11.4448 2.11847L11.5746 2.15656L11.5776 2.15753C14.1353 2.98155 14.9784 5.73804 14.2426 8.03741C13.6746 9.84022 12.3702 11.3183 11.1284 12.3353C10.5035 12.8469 9.88135 13.253 9.35199 13.5335C9.08763 13.6736 8.83999 13.7853 8.6225 13.8636C8.41657 13.9377 8.19616 13.9964 8.00043 13.9964C7.80587 13.9964 7.58674 13.9387 7.38129 13.8655C7.1647 13.7884 6.91871 13.6779 6.6557 13.5394C6.12871 13.2618 5.50916 12.8594 4.88617 12.3499C3.64687 11.3364 2.34408 9.85887 1.75824 8.03839V8.03741C1.02343 5.73942 1.85842 2.98191 4.41742 2.15753L4.4184 2.15656C5.58964 1.78265 7.05565 2.07709 8.00043 3.19659ZM11.2709 3.10968C10.3064 2.80838 9.07697 3.12221 8.44281 4.32355C8.35605 4.48772 8.18514 4.59051 7.99945 4.59015C7.81374 4.58968 7.64309 4.48618 7.55707 4.32159C6.93927 3.1388 5.68573 2.80178 4.72308 3.1087C2.83945 3.71588 2.09216 5.79621 2.71136 7.73273C3.21723 9.30368 4.36555 10.6324 5.51996 11.5765C6.09364 12.0456 6.65717 12.41 7.12152 12.6546C7.3539 12.777 7.556 12.8667 7.71722 12.9241C7.88909 12.9853 7.97865 12.9963 8.00043 12.9964C8.00075 12.9964 8.00279 12.9966 8.00629 12.9964C8.01028 12.9961 8.01659 12.9954 8.02386 12.9944C8.03887 12.9924 8.05909 12.9885 8.08441 12.9827C8.13621 12.9709 8.20266 12.9513 8.28363 12.9222C8.44587 12.8638 8.64923 12.7737 8.88324 12.6497C9.35095 12.4019 9.91812 12.0329 10.4946 11.5609C11.6549 10.6106 12.8022 9.28348 13.2895 7.73468V7.73273C13.9089 5.79754 13.156 3.71707 11.2709 3.10968Z" stroke="#8A8A8E"/>
</svg>
