<svg width="58" height="58" viewBox="0 0 58 58" fill="none" xmlns="http://www.w3.org/2000/svg">
<g filter="url(#filter0_d_15202_8057)">
<g clip-path="url(#clip0_15202_8057)">
<path opacity="0.6" d="M0.000488281 0H58.0005V58H0.000488281V0Z" fill="#FFDD11"/>
<path d="M35.2103 31.124C35.2103 43.0069 20.9204 43.8557 20.9204 43.8557L23.4421 46.4021C23.4421 46.4021 27.8069 46.0778 31.8479 43.8557C33.5291 42.9314 38.5726 39.6118 38.5726 34.5191V14.1484L35.2103 11.6021V31.124Z" fill="#5EB8F9"/>
<path d="M27.6451 11.6021V31.124C27.6451 37.0655 19.2393 37.0655 19.2393 37.0655L20.9205 43.8557C20.9205 43.8557 35.2103 43.0069 35.2103 31.124V11.6021H27.6451Z" fill="white"/>
</g>
</g>
<defs>
<filter id="filter0_d_15202_8057" x="0" y="0" width="66" height="66" filterUnits="userSpaceOnUse" color-interpolation-filters="sRGB">
<feFlood flood-opacity="0" result="BackgroundImageFix"/>
<feColorMatrix in="SourceAlpha" type="matrix" values="0 0 0 0 0 0 0 0 0 0 0 0 0 0 0 0 0 0 127 0" result="hardAlpha"/>
<feOffset dx="4" dy="4"/>
<feGaussianBlur stdDeviation="2"/>
<feComposite in2="hardAlpha" operator="out"/>
<feColorMatrix type="matrix" values="0 0 0 0 0 0 0 0 0 0 0 0 0 0 0 0 0 0 0.02 0"/>
<feBlend mode="normal" in2="BackgroundImageFix" result="effect1_dropShadow_15202_8057"/>
<feBlend mode="normal" in="SourceGraphic" in2="effect1_dropShadow_15202_8057" result="shape"/>
</filter>
<clipPath id="clip0_15202_8057">
<path d="M0 16C0 7.16345 7.16344 0 16 0H42C50.8366 0 58 7.16344 58 16V42C58 50.8366 50.8366 58 42 58H16C7.16345 58 0 50.8366 0 42V16Z" fill="white"/>
</clipPath>
</defs>
</svg>
