<svg width="16" height="16" viewBox="0 0 16 16" fill="none" xmlns="http://www.w3.org/2000/svg">
<g clip-path="url(#clip0_15884_14270)">
<path d="M2.56826 5.74752C2.47095 5.3092 2.4859 4.85341 2.6117 4.42241C2.7375 3.99141 2.97009 3.59915 3.28791 3.282C3.60572 2.96485 3.99847 2.73308 4.42973 2.60818C4.861 2.48328 5.31682 2.46929 5.75493 2.56752C5.99607 2.19038 6.32826 1.88002 6.72089 1.66504C7.11353 1.45006 7.55396 1.33737 8.00159 1.33737C8.44923 1.33737 8.88966 1.45006 9.28229 1.66504C9.67492 1.88002 10.0071 2.19038 10.2483 2.56752C10.687 2.46886 11.1436 2.48279 11.5756 2.60799C12.0075 2.73319 12.4008 2.96561 12.7188 3.28362C13.0368 3.60163 13.2692 3.9949 13.3945 4.42685C13.5197 4.8588 13.5336 5.3154 13.4349 5.75418C13.8121 5.99532 14.1224 6.32752 14.3374 6.72015C14.5524 7.11278 14.6651 7.55321 14.6651 8.00085C14.6651 8.44848 14.5524 8.88892 14.3374 9.28155C14.1224 9.67418 13.8121 10.0064 13.4349 10.2475C13.5331 10.6856 13.5192 11.1414 13.3943 11.5727C13.2694 12.004 13.0376 12.3967 12.7204 12.7145C12.4033 13.0324 12.011 13.2649 11.58 13.3907C11.149 13.5165 10.6932 13.5315 10.2549 13.4342C10.0141 13.8128 9.68165 14.1245 9.28834 14.3404C8.89504 14.5563 8.45361 14.6696 8.00493 14.6696C7.55624 14.6696 7.11481 14.5563 6.72151 14.3404C6.32821 14.1245 5.99575 13.8128 5.75493 13.4342C5.31682 13.5324 4.861 13.5184 4.42973 13.3935C3.99847 13.2686 3.60572 13.0369 3.28791 12.7197C2.97009 12.4026 2.7375 12.0103 2.6117 11.5793C2.4859 11.1483 2.47095 10.6925 2.56826 10.2542C2.18823 10.0137 1.8752 9.68096 1.65829 9.28699C1.44138 8.89302 1.32764 8.45059 1.32764 8.00085C1.32764 7.55111 1.44138 7.10868 1.65829 6.71471C1.8752 6.32073 2.18823 5.98802 2.56826 5.74752Z" stroke="url(#paint0_linear_15884_14270)" stroke-width="1.5" stroke-linecap="round" stroke-linejoin="round"/>
<path d="M6 7.9981L7.33333 9.33143L10 6.66476" stroke="#2072F3" stroke-linecap="round" stroke-linejoin="round"/>
</g>
<defs>
<linearGradient id="paint0_linear_15884_14270" x1="7.99635" y1="1.33737" x2="7.99635" y2="14.6696" gradientUnits="userSpaceOnUse">
<stop stop-color="#77ACFF"/>
<stop offset="1" stop-color="#2072F3"/>
</linearGradient>
<clipPath id="clip0_15884_14270">
<rect width="16" height="16" fill="white"/>
</clipPath>
</defs>
</svg>
