<svg width="38" height="38" viewBox="0 0 38 38" fill="none" xmlns="http://www.w3.org/2000/svg">
<path d="M18.7978 2.8035C9.71122 2.79982 2.35156 10.1558 2.35156 19.235C2.35156 26.4147 6.95548 32.5177 13.3672 34.759C14.2306 34.9758 14.0984 34.3622 14.0984 33.9433V31.0957C9.11231 31.68 8.91022 28.3804 8.57585 27.8293C7.89978 26.6755 6.30145 26.3816 6.77911 25.8304C7.91448 25.2462 9.07189 25.9774 10.413 27.9579C11.383 29.3945 13.2753 29.152 14.2343 28.9132C14.4437 28.0497 14.892 27.2781 15.5093 26.6792C10.3432 25.7533 8.19005 22.6007 8.19005 18.8529C8.19005 17.0341 8.78897 15.3623 9.96475 14.0138C9.21519 11.7909 10.0346 9.88758 10.1448 9.60466C12.2796 9.41359 14.4989 11.1332 14.6715 11.2691C15.8841 10.9421 17.2693 10.7694 18.8198 10.7694C20.3778 10.7694 21.7667 10.9495 22.9902 11.2801C23.4054 10.9642 25.463 9.48708 27.4471 9.66712C27.5537 9.95004 28.3547 11.8092 27.6492 14.0028C28.8397 15.355 29.446 17.0415 29.446 18.8639C29.446 22.6191 27.2781 25.7753 22.0973 26.6866C22.9608 27.539 23.4973 28.7221 23.4973 30.0302V34.1638C23.5266 34.4945 23.4973 34.8215 24.0484 34.8215C30.5556 32.6279 35.2404 26.4808 35.2404 19.2387C35.2404 10.1558 27.877 2.8035 18.7978 2.8035Z" fill="white"/>
</svg>
