<svg width="40" height="40" viewBox="0 0 40 40" fill="none" xmlns="http://www.w3.org/2000/svg">
<path d="M19.9998 6.66669C20.9203 6.66669 21.6665 7.41288 21.6665 8.33335V18.3334H31.6665C32.587 18.3334 33.3332 19.0795 33.3332 20C33.3332 20.9205 32.587 21.6667 31.6665 21.6667H21.6665V31.6667C21.6665 32.5872 20.9203 33.3334 19.9998 33.3334C19.0794 33.3334 18.3332 32.5872 18.3332 31.6667V21.6667H8.33317C7.4127 21.6667 6.6665 20.9205 6.6665 20C6.6665 19.0795 7.4127 18.3334 8.33317 18.3334H18.3332V8.33335C18.3332 7.41288 19.0794 6.66669 19.9998 6.66669Z" fill="#C4C4C7"/>
</svg>
