<svg width="14" height="14" viewBox="0 0 14 14" fill="none" xmlns="http://www.w3.org/2000/svg">
<path d="M9.91667 3.5C9.9495 3.5 9.98159 3.50333 10.0129 3.50854C10.0181 3.5094 10.0232 3.50984 10.0283 3.51082L10.034 3.51196C10.0398 3.51314 10.0454 3.51461 10.0511 3.51595C10.0631 3.51878 10.0752 3.52147 10.087 3.52507C10.1155 3.53374 10.1426 3.54538 10.169 3.55811C10.1772 3.56203 10.1855 3.56574 10.1935 3.57007C10.2785 3.61601 10.3507 3.68232 10.4037 3.76261C10.4182 3.78448 10.4307 3.80719 10.4419 3.8304C10.4546 3.85676 10.4657 3.88405 10.4744 3.91243C10.478 3.92427 10.4806 3.93632 10.4835 3.94832C10.4938 3.99171 10.5 4.03679 10.5 4.08333V9.91667C10.5 10.2388 10.2388 10.5 9.91667 10.5C9.5945 10.5 9.33333 10.2388 9.33333 9.91667V5.49154L4.49577 10.3291C4.26796 10.5569 3.8987 10.5569 3.6709 10.3291C3.44309 10.1013 3.44309 9.73204 3.6709 9.50423L8.50846 4.66667H4.08333C3.76117 4.66667 3.5 4.4055 3.5 4.08333C3.5 3.76117 3.76117 3.5 4.08333 3.5H9.91667Z" fill="black"/>
</svg>
