<svg width="14" height="14" viewBox="0 0 14 14" fill="none" xmlns="http://www.w3.org/2000/svg">
<path d="M7.85701 3.19067C8.6722 2.37549 9.99381 2.37549 10.809 3.19067C11.6242 4.00586 11.6242 5.32747 10.809 6.14266L4.97567 11.976C4.89362 12.058 4.78237 12.1042 4.66634 12.1042H2.33301C2.09138 12.1042 1.89551 11.9083 1.89551 11.6667V9.33333C1.89551 9.2173 1.94163 9.10605 2.02368 9.02401L7.85701 3.19067ZM10.1903 3.80933C9.71687 3.33585 8.94915 3.33585 8.47567 3.80933L2.77051 9.51449V11.2292H4.48519L10.1903 5.52401C10.6638 5.05053 10.6638 4.2828 10.1903 3.80933Z" fill="black"/>
</svg>
