<svg width="24" height="17" viewBox="0 0 24 17" fill="none" xmlns="http://www.w3.org/2000/svg">
<path d="M18.384 0H5.616C4.42834 0.000276734 3.28294 0.440851 2.40124 1.23656C1.51954 2.03226 0.964136 3.12659 0.8424 4.308C0.8352 4.3704 0.8304 4.4292 0.822 4.4904C0.7248 5.2992 0 11.3472 0 13.2C0 14.1548 0.379285 15.0705 1.05442 15.7456C1.72955 16.4207 2.64522 16.8 3.6 16.8C4.8 16.8 5.4 16.2 6 15.6L7.6968 13.9032C8.14678 13.4531 8.75713 13.2001 9.3936 13.2H14.6064C15.2429 13.2001 15.8532 13.4531 16.3032 13.9032L18 15.6C18.6 16.2 19.2 16.8 20.4 16.8C21.3548 16.8 22.2705 16.4207 22.9456 15.7456C23.6207 15.0705 24 14.1548 24 13.2C24 11.346 23.2752 5.2992 23.178 4.4904C23.1696 4.4304 23.1648 4.3704 23.1576 4.3092C23.0361 3.12757 22.4809 2.03295 21.5991 1.237C20.7174 0.441049 19.5719 0.000307341 18.384 0Z" fill="black"/>
</svg>
