<svg width="16" height="16" viewBox="0 0 16 16" fill="none" xmlns="http://www.w3.org/2000/svg">
<g clip-path="url(#clip0_16021_4399)">
<path d="M6.95028 5.34002C7.52226 5.38104 8.07888 5.54457 8.58212 5.81952C9.08542 6.09451 9.52375 6.47451 9.86728 6.93377C10.0878 7.22852 10.0276 7.64629 9.733 7.86688C9.43817 8.08742 9.02043 8.02695 8.79989 7.73211C8.57089 7.42598 8.27845 7.17276 7.94296 6.98944C7.60751 6.80616 7.23634 6.69698 6.85507 6.66961C6.47378 6.64231 6.09069 6.69768 5.73251 6.83123C5.37431 6.96485 5.04872 7.17416 4.77841 7.44452L2.77841 9.44452C2.29779 9.94647 2.03222 10.6165 2.03817 11.3117C2.04425 12.0109 2.32451 12.6801 2.81894 13.1745C3.31332 13.6688 3.98214 13.9492 4.68124 13.9553C5.38037 13.9613 6.05432 13.6924 6.55722 13.2067L7.68905 12.0749C7.94939 11.8149 8.37118 11.8148 8.63144 12.0749C8.89171 12.3352 8.89162 12.7574 8.63144 13.0178L7.49179 14.1579C7.48916 14.1605 7.48617 14.1631 7.48349 14.1657C6.72912 14.8943 5.71824 15.2978 4.66952 15.2888C3.62088 15.2796 2.61763 14.8589 1.87607 14.1174C1.13443 13.3757 0.713792 12.3722 0.704678 11.3234C0.695616 10.2748 1.09871 9.2643 1.82724 8.50994L3.83554 6.50164L3.9913 6.35369C4.36363 6.0193 4.79612 5.75708 5.2662 5.58172C5.80355 5.38131 6.37824 5.29905 6.95028 5.34002Z" fill="black"/>
<path d="M11.3302 0.711117C12.379 0.720231 13.3825 1.14087 14.1241 1.8825C14.8656 2.62407 15.2863 3.6273 15.2955 4.67596C15.3046 5.72467 14.9015 6.73556 14.1729 7.48993L12.1646 9.49823C11.7592 9.90369 11.2712 10.2172 10.734 10.4177C10.1966 10.6181 9.62197 10.7008 9.04989 10.6598C8.47789 10.6189 7.92132 10.4553 7.41806 10.1804C6.91479 9.9054 6.47644 9.52529 6.1329 9.0661C5.91243 8.77135 5.97258 8.35358 6.26718 8.13299C6.56197 7.91248 6.97972 7.97254 7.20028 8.26727C7.42932 8.57343 7.72168 8.82712 8.05722 9.01043C8.39269 9.1937 8.76382 9.30242 9.14511 9.32977C9.52642 9.35708 9.90947 9.30221 10.2677 9.16864C10.6259 9.03501 10.9515 8.82573 11.2218 8.55536L13.2218 6.55536C13.7025 6.05336 13.968 5.38299 13.962 4.68768C13.9559 3.98856 13.6756 3.31976 13.1812 2.82537C12.6869 2.33098 12.0181 2.05072 11.3189 2.04461C10.6229 2.03858 9.95199 2.30468 9.4498 2.78631L8.30331 3.92596C8.04224 4.18538 7.62 4.18446 7.36044 3.92352C7.10089 3.66245 7.10239 3.24025 7.36337 2.98065L8.50986 1.84051C8.51209 1.83829 8.51442 1.83587 8.51669 1.83368C9.27103 1.10512 10.2815 0.702076 11.3302 0.711117Z" fill="black"/>
</g>
<defs>
<clipPath id="clip0_16021_4399">
<rect width="16" height="16" fill="white"/>
</clipPath>
</defs>
</svg>
