<svg width="43" height="43" viewBox="0 0 43 43" fill="none" xmlns="http://www.w3.org/2000/svg">
<path fill-rule="evenodd" clip-rule="evenodd" d="M21.5039 10.7519C24.3543 10.7557 27.0869 11.8898 29.1025 13.9053C31.1181 15.9209 32.2521 18.6535 32.2559 21.5039C32.2521 24.3543 31.1181 27.0869 29.1025 29.1025C27.0869 31.1181 24.3543 32.2521 21.5039 32.2559C18.6535 32.2521 15.9209 31.1181 13.9053 29.1025C11.8898 27.0869 10.7558 24.3543 10.752 21.5039C10.755 18.6532 11.8888 15.9202 13.9045 13.9044C15.9202 11.8887 18.6532 10.7549 21.5039 10.7519ZM21.5039 15.0527C19.7934 15.0542 18.1534 15.7344 16.9439 16.9439C15.7344 18.1534 15.0542 19.7934 15.0527 21.5039C15.0527 25.0592 17.9457 27.955 21.5039 27.9551C25.0592 27.9551 27.9551 25.0592 27.9551 21.5039C27.955 17.9457 25.0592 15.0527 21.5039 15.0527Z" fill="#C4C4C7"/>
<path d="M33.3311 7.52639C33.6135 7.52635 33.8932 7.58191 34.1541 7.68995C34.415 7.79799 34.6521 7.95637 34.8518 8.15604C35.0515 8.35573 35.2099 8.59283 35.318 8.85374C35.4261 9.11466 35.4818 9.39434 35.4818 9.67676C35.4818 9.95918 35.4261 10.2389 35.318 10.4998C35.2099 10.7607 35.0515 10.9977 34.8518 11.1974C34.6521 11.3971 34.415 11.5555 34.1541 11.6636C33.8932 11.7716 33.6135 11.8272 33.3311 11.8271C32.7608 11.827 32.2139 11.6005 31.8107 11.1972C31.4075 10.7939 31.181 10.247 31.181 9.67676C31.181 9.1065 31.4075 8.55959 31.8107 8.15632C32.2139 7.75305 32.7608 7.52648 33.3311 7.52639Z" fill="#C4C4C7"/>
<path fill-rule="evenodd" clip-rule="evenodd" d="M32.2559 0C35.1063 0.00380206 37.8389 1.1378 39.8544 3.15335C41.87 5.16891 43.004 7.90149 43.0078 10.7519V32.2559C43.004 35.1063 41.87 37.8389 39.8544 39.8544C37.8389 41.87 35.1063 43.004 32.2559 43.0078H10.7519C7.90149 43.004 5.16891 41.87 3.15335 39.8544C1.1378 37.8389 0.00380206 35.1063 0 32.2559V10.7519C0.00303861 7.90125 1.13674 5.16818 3.15246 3.15246C5.16818 1.13674 7.90125 0.00303861 10.7519 0H32.2559ZM10.7519 4.30074C9.04142 4.30226 7.40139 4.9824 6.19189 6.19189C4.9824 7.40139 4.30226 9.04142 4.30074 10.7519V32.2559C4.30075 35.8112 7.19374 38.707 10.7519 38.707H32.2559C35.8111 38.707 38.707 35.8111 38.707 32.2559V10.7519C38.707 7.19374 35.8112 4.30075 32.2559 4.30074H10.7519Z" fill="#C4C4C7"/>
</svg>
