<svg width="34" height="26" viewBox="0 0 34 26" fill="none" xmlns="http://www.w3.org/2000/svg">
<rect x="6" y="6" width="22" height="14" rx="5" stroke="#8E8E93" stroke-width="2"/>
<path opacity="0.4" d="M11 11.5C11 11.2239 11.2239 11 11.5 11H16.5C16.7761 11 17 11.2239 17 11.5C17 11.7761 16.7761 12 16.5 12H11.5C11.2239 12 11 11.7761 11 11.5Z" fill="#8E8E93"/>
<path opacity="0.4" d="M11 14.5C11 14.2239 11.2239 14 11.5 14H17.5C17.7761 14 18 14.2239 18 14.5C18 14.7761 17.7761 15 17.5 15H11.5C11.2239 15 11 14.7761 11 14.5Z" fill="#8E8E93"/>
</svg>
