<svg width="58" height="58" viewBox="0 0 58 58" fill="none" xmlns="http://www.w3.org/2000/svg">
<g filter="url(#filter0_d_15202_8089)">
<g clip-path="url(#clip0_15202_8089)">
<path d="M0.00170898 0H58.0017V58H0.00170898V0Z" fill="black"/>
<path d="M37.3346 27.729C37.1838 27.6568 37.0315 27.5877 36.8779 27.5217C36.6092 22.5724 33.9021 19.7389 29.3572 19.7099C26.7345 19.6925 24.387 20.7609 22.9243 22.9788L25.4237 24.6921C26.4634 23.1165 28.0948 22.7804 29.2965 22.7804H29.3379C30.8343 22.7901 31.9638 23.2247 32.6949 24.0727C33.2266 24.6898 33.5823 25.5428 33.7583 26.6193C32.432 26.3938 30.9967 26.3246 29.4624 26.4124C25.1414 26.661 22.3632 29.179 22.55 32.6779C22.6447 34.4527 23.5294 35.9797 25.0416 36.9769C26.3204 37.8198 27.9668 38.2324 29.6778 38.1392C31.9382 38.0155 33.7107 37.154 34.9481 35.5787C35.8877 34.3824 36.4816 32.8322 36.7437 30.8788C37.8206 31.5284 38.6191 32.3829 39.0599 33.4103C39.8096 35.1565 39.8533 38.0263 37.5093 40.3657C35.4561 42.4154 32.9876 43.302 29.2575 43.3295C25.1194 43.2989 21.9901 41.973 19.9554 39.3885C18.0499 36.9688 17.0655 33.4737 17.0284 29C17.0655 24.5262 18.0499 21.0308 19.9554 18.6114C21.9901 16.0269 25.1194 14.701 29.2575 14.6705C33.4254 14.7014 36.6092 16.0335 38.7219 18.6303C39.7578 19.9036 40.5389 21.5052 41.0535 23.3724L43.9829 22.5914C43.3588 20.293 42.3771 18.3125 41.0404 16.6703C38.3322 13.3411 34.3711 11.6352 29.2675 11.6H29.247C24.1539 11.6352 20.2373 13.3477 17.606 16.6893C15.2648 19.6631 14.0568 23.8009 14.0162 28.9876V29.0123C14.0568 34.1991 15.2648 38.3368 17.606 41.3107C20.2373 44.6522 24.1539 46.3648 29.247 46.4H29.2675C33.7958 46.3687 36.9877 45.1843 39.6171 42.5592C43.0572 39.1256 42.9536 34.8216 41.8199 32.1795C41.0063 30.2845 39.4554 28.7455 37.3346 27.729ZM29.5162 35.073C27.6223 35.1797 25.6549 34.3306 25.5578 32.5109C25.4859 31.1622 26.5187 29.6573 29.6325 29.4779C29.989 29.4573 30.3391 29.447 30.6827 29.447C31.8141 29.447 32.872 29.5572 33.8341 29.7671C33.4756 34.2447 31.371 34.9717 29.5162 35.073Z" fill="white"/>
</g>
</g>
<defs>
<filter id="filter0_d_15202_8089" x="0" y="0" width="67.7778" height="67.7778" filterUnits="userSpaceOnUse" color-interpolation-filters="sRGB">
<feFlood flood-opacity="0" result="BackgroundImageFix"/>
<feColorMatrix in="SourceAlpha" type="matrix" values="0 0 0 0 0 0 0 0 0 0 0 0 0 0 0 0 0 0 127 0" result="hardAlpha"/>
<feOffset dx="4.88889" dy="4.88889"/>
<feGaussianBlur stdDeviation="2.44444"/>
<feComposite in2="hardAlpha" operator="out"/>
<feColorMatrix type="matrix" values="0 0 0 0 0 0 0 0 0 0 0 0 0 0 0 0 0 0 0.02 0"/>
<feBlend mode="normal" in2="BackgroundImageFix" result="effect1_dropShadow_15202_8089"/>
<feBlend mode="normal" in="SourceGraphic" in2="effect1_dropShadow_15202_8089" result="shape"/>
</filter>
<clipPath id="clip0_15202_8089">
<path d="M0 16C0 7.16345 7.16344 0 16 0H42C50.8366 0 58 7.16344 58 16V42C58 50.8366 50.8366 58 42 58H16C7.16345 58 0 50.8366 0 42V16Z" fill="white"/>
</clipPath>
</defs>
</svg>
