<svg width="58" height="58" viewBox="0 0 58 58" fill="none" xmlns="http://www.w3.org/2000/svg">
<g filter="url(#filter0_d_15202_8076)">
<g clip-path="url(#clip0_15202_8076)">
<path d="M0 0H58V58H0V0Z" fill="#FFE164"/>
<path d="M40.5189 20.9937C39.9943 20.4004 39.3225 19.9583 38.5724 19.7125C37.8223 19.4667 37.0208 19.4262 36.25 19.5949C35.6306 19.7265 35.2368 20.3503 35.3668 20.9791C35.501 21.608 36.111 22.0071 36.7254 21.8708C37.1024 21.789 37.4941 21.809 37.861 21.9288C38.2278 22.0487 38.5566 22.264 38.8142 22.5531C39.0723 22.8446 39.2502 23.199 39.3302 23.5812C39.4102 23.9633 39.3896 24.3599 39.2704 24.7315C39.0784 25.3408 39.4051 25.9987 40.01 26.1986C40.1538 26.2452 40.3054 26.2627 40.4559 26.2501C40.6065 26.2376 40.7531 26.1952 40.8874 26.1255C41.0217 26.0558 41.1409 25.96 41.2384 25.8438C41.3358 25.7275 41.4095 25.593 41.4553 25.448C41.9306 23.9518 41.6328 22.2463 40.5189 20.9937Z" fill="#FF9933"/>
<path d="M44.0271 17.7746C41.7416 15.2014 38.3707 14.2217 35.2593 14.8942C34.5389 15.0505 34.0826 15.7717 34.2364 16.4976C34.2718 16.6706 34.3408 16.8348 34.4395 16.9808C34.5382 17.1268 34.6647 17.2517 34.8116 17.3482C34.9584 17.4447 35.1228 17.511 35.2953 17.5432C35.4677 17.5754 35.6448 17.5728 35.8163 17.5358C38.0296 17.0581 40.426 17.755 42.0488 19.5826C43.672 21.4103 44.1138 23.9007 43.4175 26.0838C43.1916 26.7956 43.576 27.5556 44.2769 27.785C44.4435 27.8392 44.6191 27.8598 44.7936 27.8455C44.9681 27.8312 45.1381 27.7824 45.2938 27.7017C45.4495 27.6211 45.5879 27.5103 45.701 27.3757C45.8141 27.2411 45.8997 27.0853 45.9528 26.9173V26.9123C46.9324 23.8469 46.3127 20.3427 44.0271 17.7746Z" fill="#FF9933"/>
<path d="M26.2231 41.2055C20.4609 41.7852 15.4863 39.139 15.1117 35.3037C14.7374 31.4633 19.107 27.8861 24.8642 27.3063C30.6263 26.7262 35.601 29.3724 35.9706 33.2081C36.3499 37.0485 31.9803 40.6304 26.2231 41.2055ZM37.7425 28.4611C37.2527 28.3103 36.9166 28.2125 37.1711 27.5597C37.728 26.1413 37.7858 24.9181 37.1808 24.041C36.0521 22.4034 32.9599 22.491 29.4161 23.9974C29.4161 23.9974 28.3022 24.4892 28.5902 23.5975C29.1331 21.8185 29.0512 20.3322 28.2062 19.4696C26.2856 17.5154 21.1713 19.5427 16.7876 23.9923C13.508 27.3208 11.6018 30.8541 11.6018 33.9096C11.6018 39.7482 18.9821 43.301 26.1989 43.301C35.663 43.301 41.9583 37.7209 41.9583 33.291C41.9634 30.6105 39.74 29.09 37.7425 28.4611Z" fill="#E6162D"/>
<path d="M14.1609 34.3643C14.1609 38.4773 19.438 41.811 25.9445 41.811C32.451 41.811 37.728 38.4773 37.728 34.3643C37.728 30.2513 32.451 26.9177 25.9445 26.9177C19.4384 26.9177 14.1609 30.251 14.1609 34.3643Z" fill="white"/>
<path d="M26.5393 34.258C26.3376 34.6087 25.8911 34.7741 25.5453 34.6284C25.1995 34.4866 25.0941 34.0922 25.2908 33.7509C25.4926 33.4099 25.9199 33.2442 26.2607 33.3805C26.6065 33.5073 26.7314 33.9021 26.5393 34.258ZM24.7003 36.6462C24.143 37.5476 22.9475 37.942 22.0495 37.528C21.1659 37.1187 20.9017 36.0707 21.459 35.1885C22.0112 34.3114 23.1637 33.9214 24.0567 34.3016C24.9595 34.6963 25.2479 35.7345 24.7003 36.6462ZM26.7938 30.2616C24.052 29.5354 20.9547 30.9243 19.764 33.3757C18.549 35.8759 19.7253 38.6538 22.4913 39.5603C25.3626 40.5007 28.7429 39.0583 29.9196 36.3634C31.0819 33.7218 29.6316 31.0072 26.7938 30.2616Z" fill="black"/>
</g>
</g>
<defs>
<filter id="filter0_d_15202_8076" x="0" y="0" width="66" height="66" filterUnits="userSpaceOnUse" color-interpolation-filters="sRGB">
<feFlood flood-opacity="0" result="BackgroundImageFix"/>
<feColorMatrix in="SourceAlpha" type="matrix" values="0 0 0 0 0 0 0 0 0 0 0 0 0 0 0 0 0 0 127 0" result="hardAlpha"/>
<feOffset dx="4" dy="4"/>
<feGaussianBlur stdDeviation="2"/>
<feComposite in2="hardAlpha" operator="out"/>
<feColorMatrix type="matrix" values="0 0 0 0 0 0 0 0 0 0 0 0 0 0 0 0 0 0 0.02 0"/>
<feBlend mode="normal" in2="BackgroundImageFix" result="effect1_dropShadow_15202_8076"/>
<feBlend mode="normal" in="SourceGraphic" in2="effect1_dropShadow_15202_8076" result="shape"/>
</filter>
<clipPath id="clip0_15202_8076">
<path d="M0 16C0 7.16345 7.16344 0 16 0H42C50.8366 0 58 7.16344 58 16V42C58 50.8366 50.8366 58 42 58H16C7.16345 58 0 50.8366 0 42V16Z" fill="white"/>
</clipPath>
</defs>
</svg>
