<svg width="104" height="35" viewBox="0 0 104 35" fill="none" xmlns="http://www.w3.org/2000/svg">
<path fill-rule="evenodd" clip-rule="evenodd" d="M22.2322 17.9059L22.2099 18.0335V18.0401C22.1757 18.2295 22.1441 18.4098 22.1046 18.5887C21.6994 20.4554 20.6549 21.863 18.9579 22.7141C16.8899 23.7534 14.835 23.6219 12.8828 22.3695C12.4447 22.0866 12.0593 21.713 11.6844 21.3447C10.8359 20.5067 9.99129 19.6634 9.14672 18.8202L9.14146 18.8149C8.46396 18.1388 7.78647 17.4613 7.10503 16.7864C6.67354 16.3589 6.44858 15.8695 6.55908 15.2591C6.65906 14.7105 6.98795 14.3343 7.50363 14.0804L7.33524 13.9093C7.20895 13.7804 7.08398 13.6555 6.95769 13.5318C6.71958 13.3029 6.53014 13.0464 6.44858 12.7201C6.23547 11.8558 6.71169 11.0244 7.56546 10.7718C7.58914 10.7652 7.61282 10.7574 7.63913 10.7481L7.68386 10.7337C7.6023 10.0785 7.80357 9.53391 8.34162 9.14452C8.88362 8.75249 9.46376 8.75249 10.036 9.02612C10.0821 8.96561 10.1268 8.90246 10.1715 8.84063L10.1755 8.83406C10.2754 8.6933 10.3741 8.55385 10.4951 8.43808C11.099 7.85925 12.0461 7.85004 12.6434 8.43414C13.3801 9.15241 14.1076 9.88121 14.835 10.6113C15.1402 10.9165 15.4441 11.223 15.7506 11.5269C16.0927 11.869 16.4347 12.211 16.7781 12.5517C16.807 12.5807 16.8399 12.607 16.9044 12.6201L16.8636 12.4425C16.832 12.3084 16.8018 12.1755 16.7702 12.0426C16.7281 11.869 16.686 11.6953 16.6413 11.523C16.5505 11.1586 16.4584 10.7942 16.386 10.4258C16.2085 9.52339 16.8096 8.63015 17.7003 8.43545C18.6264 8.23286 19.5446 8.7788 19.7577 9.68783C20.0564 10.9639 20.4352 12.211 20.9812 13.4042C21.1009 13.6633 21.2272 13.9199 21.3535 14.1764C21.4666 14.4079 21.581 14.6381 21.6902 14.8723C21.977 15.4906 22.1415 16.1431 22.2204 16.8272C22.2322 17.185 22.2322 17.5376 22.2322 17.9059ZM14.4549 13.3621C14.6035 13.5094 14.6588 13.6831 14.5956 13.8883C14.5391 14.0764 14.4022 14.1803 14.2181 14.2145C14.0286 14.2488 13.8787 14.1672 13.7471 14.0343C12.4105 12.6964 11.0726 11.3599 9.73476 10.0246C9.45718 9.74703 9.09015 9.74045 8.82573 10.0022C8.56789 10.2575 8.57973 10.6363 8.85599 10.9113L12.8723 14.9144C13.1038 15.1446 13.1249 15.4432 12.9236 15.6445C12.7223 15.8471 12.4197 15.8353 12.1908 15.6103C11.8817 15.3051 11.5752 14.9973 11.2673 14.6908L10.1834 13.612C9.60584 13.0372 9.02964 12.4623 8.45081 11.8874C8.1956 11.6322 7.84435 11.6151 7.59177 11.8361C7.29052 12.0992 7.29446 12.4938 7.60493 12.803L9.29932 14.4921C10.1163 15.3051 10.9332 16.1181 11.7501 16.9324C11.979 17.16 11.9909 17.4468 11.7883 17.6494C11.587 17.852 11.295 17.8454 11.07 17.627C10.92 17.4823 10.774 17.335 10.6267 17.1876L10.4267 16.9877L9.87947 16.443C9.44534 16.0116 9.01254 15.5801 8.58104 15.1486C8.38109 14.9499 8.15087 14.8815 7.88908 14.9854C7.46548 15.1512 7.37339 15.6682 7.70491 16.0023C8.0772 16.376 8.45081 16.7469 8.82442 17.1192C9.02832 17.3205 9.23091 17.5231 9.4335 17.7257C9.78475 18.0756 10.1347 18.4255 10.4846 18.7768C11.2292 19.5227 11.9738 20.2699 12.7289 21.0079C14.2141 22.4616 16.5334 22.8286 18.3883 21.9248C20.9759 20.6646 22.0046 17.5928 20.6839 15.0328C19.8525 13.4239 19.2157 11.7466 18.8277 9.97593C18.8027 9.86148 18.7461 9.74571 18.6751 9.65231C18.4619 9.36947 18.0739 9.28791 17.7568 9.44314C17.4161 9.6089 17.2648 9.96409 17.3622 10.3601C17.6661 11.6085 17.9686 12.8569 18.2699 14.1054C18.2909 14.1935 18.3014 14.2935 18.2817 14.3803C18.2015 14.7197 17.7752 14.9394 17.4174 14.575C17.0451 14.1961 16.6702 13.8225 16.294 13.4476L16.2913 13.445L15.869 13.024C14.5982 11.7532 13.3275 10.4824 12.0567 9.21293C11.7633 8.91957 11.4015 8.90115 11.1371 9.16294C10.8714 9.42604 10.8858 9.79176 11.1753 10.0812C11.708 10.6166 12.2435 11.1507 12.7841 11.6927L14.4549 13.3621Z" fill="white"/>
<path d="M6 20.6406C6.01579 20.6182 6.03157 20.5959 6.04604 20.5748C6.09998 20.4946 6.14997 20.4196 6.21838 20.3696C6.46964 20.1841 6.81431 20.2986 6.95112 20.6104C7.16818 21.0971 7.45628 21.5338 7.82463 21.9193C8.31795 22.4363 8.90205 22.8165 9.57296 23.0625C9.77424 23.1362 9.88343 23.2888 9.89658 23.4992C9.90842 23.7045 9.81107 23.861 9.62953 23.9544C9.47824 24.0333 9.3217 24.011 9.16778 23.9491C7.74965 23.3953 6.72091 22.4284 6.08025 21.0484C6.06183 21.0076 6.0421 20.9695 6.01184 20.9261C6 20.834 6 20.7445 6 20.6406Z" fill="white"/>
<path d="M10.7779 21.931C10.7687 21.6916 10.624 21.5324 10.3123 21.4324C9.85971 21.2548 9.47426 20.9983 9.14275 20.6602C8.8586 20.3695 8.64417 20.0353 8.47578 19.667C8.36528 19.4249 8.12059 19.3236 7.87327 19.4026C7.64832 19.4762 7.50887 19.7078 7.55492 19.9498C7.57202 20.034 7.61148 20.1156 7.64963 20.1945C8.16795 21.2561 8.97963 21.9928 10.0965 22.3862C10.4504 22.5098 10.7911 22.2796 10.7779 21.931Z" fill="white"/>
<path d="M86.168 22.5348V13.2525H89.049V14.9443H89.1464C89.3161 14.3326 89.5923 13.8774 89.9765 13.5788C90.3606 13.2775 90.8079 13.1262 91.317 13.1262C91.4551 13.1262 91.5959 13.1354 91.7419 13.1565C91.8879 13.1723 92.0234 13.1986 92.1484 13.2341V15.8033C92.0063 15.7546 91.8208 15.7165 91.5906 15.6875C91.3643 15.6599 91.1618 15.6454 90.9842 15.6454C90.6316 15.6454 90.3146 15.7244 90.0317 15.8809C89.7528 16.0348 89.5318 16.2506 89.37 16.5282C89.2121 16.8018 89.1332 17.1241 89.1332 17.4951V22.5348H86.168Z" fill="white"/>
<path d="M81.4913 18.5277V13.2524H84.4513V22.5348H81.6255V20.8062H81.5282C81.3216 21.3745 80.9704 21.8257 80.4731 22.1599C79.9798 22.49 79.3826 22.6558 78.684 22.6558C78.0486 22.6558 77.4908 22.5098 77.0094 22.2204C76.5279 21.9296 76.1543 21.5258 75.8872 21.0061C75.6202 20.4812 75.4847 19.8695 75.4807 19.1684V13.2524H78.4472V18.5882C78.4512 19.0921 78.584 19.4893 78.8471 19.7788C79.1102 20.0695 79.4681 20.2142 79.9206 20.2142C80.2166 20.2142 80.481 20.1497 80.7152 20.0208C80.9533 19.8879 81.1414 19.6959 81.2795 19.4459C81.4203 19.1933 81.4913 18.8868 81.4913 18.5277Z" fill="white"/>
<path d="M69.4254 22.7099C68.4466 22.7099 67.606 22.51 66.9022 22.1114C66.2036 21.7088 65.663 21.1484 65.2828 20.4314C64.9079 19.7105 64.7197 18.8752 64.7197 17.924C64.7197 16.9729 64.9079 16.1336 65.2828 15.4167C65.663 14.6944 66.2036 14.1353 66.9022 13.7367C67.606 13.3329 68.4466 13.1316 69.4254 13.1316C70.4041 13.1316 71.2434 13.3329 71.9433 13.7367C72.6458 14.1353 73.1864 14.6944 73.5627 15.4167C73.9416 16.1336 74.1323 16.969 74.1323 17.924C74.1323 18.8791 73.9416 19.7105 73.5627 20.4314C73.1864 21.1484 72.6458 21.7088 71.9433 22.1114C71.2434 22.51 70.4041 22.7099 69.4254 22.7099ZM69.4438 20.4801C69.8003 20.4801 70.1015 20.3709 70.3475 20.1539C70.5949 19.9355 70.7817 19.6342 70.9119 19.2475C71.0448 18.8607 71.1119 18.4134 71.1119 17.9056C71.1119 17.3978 71.0448 16.9387 70.9119 16.552C70.7817 16.1652 70.5949 15.8639 70.3475 15.6456C70.1015 15.4285 69.8003 15.3193 69.4438 15.3193C69.0873 15.3193 68.765 15.4285 68.5098 15.6456C68.2598 15.8639 68.0677 16.1652 67.9336 16.552C67.8046 16.9387 67.7402 17.3899 67.7402 17.9056C67.7402 18.4213 67.8046 18.8607 67.9336 19.2475C68.0677 19.6342 68.2598 19.9355 68.5098 20.1539C68.765 20.3709 69.0754 20.4801 69.4438 20.4801Z" fill="white"/>
<path d="M60.3943 13.2525H63.3595V22.9216C63.3595 23.6859 63.2016 24.295 62.8872 24.7463C62.5754 25.1975 62.1347 25.5211 61.5651 25.7184C60.9942 25.9158 60.3219 26.0144 59.5445 26.0144C59.4392 26.0144 59.3406 26.0131 59.2472 26.0092C59.1551 26.0052 59.0538 26.0013 58.9446 25.9973V23.7557C59.0169 23.7636 59.0814 23.7688 59.138 23.7728C59.1958 23.7767 59.2524 23.7793 59.309 23.7793C59.7168 23.7793 59.9996 23.703 60.1575 23.5491C60.3154 23.4005 60.3943 23.1716 60.3943 22.8611V13.2525ZM61.8743 12.1712C61.4572 12.1712 61.0994 12.0343 60.8008 11.7607C60.5008 11.4818 60.3522 11.1477 60.3522 10.757C60.3522 10.3663 60.5008 10.04 60.8008 9.76639C61.0994 9.48881 61.4572 9.34937 61.8743 9.34937C62.2913 9.34937 62.6517 9.48881 62.9477 9.76639C63.2463 10.04 63.3963 10.3702 63.3963 10.757C63.3963 11.1437 63.2463 11.4818 62.9477 11.7607C62.6517 12.0343 62.2939 12.1712 61.8743 12.1712Z" fill="white"/>
<path d="M52.7063 17.2413V22.535H49.7411V13.2526H52.5603V14.9562H52.6642C52.8708 14.3892 53.222 13.9433 53.7193 13.621C54.2166 13.2947 54.8085 13.1316 55.4966 13.1316C56.1846 13.1316 56.72 13.2789 57.2002 13.5736C57.6856 13.863 58.0618 14.2695 58.3289 14.7931C58.5999 15.314 58.7328 15.9218 58.7288 16.619V22.535H55.7636V17.1992C55.7676 16.6835 55.636 16.2796 55.369 15.9902C55.1059 15.6995 54.7401 15.5548 54.2718 15.5548C53.96 15.5548 53.6851 15.6232 53.447 15.76C53.2115 15.8929 53.03 16.0849 52.901 16.3349C52.7747 16.5848 52.7103 16.8861 52.7063 17.2413Z" fill="white"/>
<path d="M43.6858 22.7099C42.7071 22.7099 41.8665 22.51 41.1627 22.1114C40.4628 21.7088 39.9234 21.1484 39.5432 20.4314C39.167 19.7105 38.9789 18.8752 38.9789 17.924C38.9789 16.9729 39.167 16.1336 39.5432 15.4167C39.9234 14.6944 40.4628 14.1353 41.1627 13.7367C41.8665 13.3329 42.7071 13.1316 43.6858 13.1316C44.6646 13.1316 45.5039 13.3329 46.2024 13.7367C46.9062 14.1353 47.4456 14.6944 47.8218 15.4167C48.202 16.1336 48.3928 16.969 48.3928 17.924C48.3928 18.8791 48.202 19.7105 47.8218 20.4314C47.4456 21.1484 46.9062 21.7088 46.2024 22.1114C45.5039 22.51 44.6646 22.7099 43.6858 22.7099ZM43.7042 20.4801C44.0594 20.4801 44.3607 20.3709 44.608 20.1539C44.854 19.9355 45.0421 19.6342 45.1724 19.2475C45.3052 18.8607 45.3723 18.4134 45.3723 17.9056C45.3723 17.3978 45.3052 16.9387 45.1724 16.552C45.0421 16.1652 44.854 15.8639 44.608 15.6456C44.3607 15.4285 44.0594 15.3193 43.7042 15.3193C43.349 15.3193 43.0241 15.4285 42.7702 15.6456C42.519 15.8639 42.3269 16.1652 42.194 16.552C42.0638 16.9387 41.9993 17.3899 41.9993 17.9056C41.9993 18.4213 42.0638 18.8607 42.194 19.2475C42.3269 19.6342 42.519 19.9355 42.7702 20.1539C43.0241 20.3709 43.3359 20.4801 43.7042 20.4801Z" fill="white"/>
<path d="M28.1666 22.5349V10.1584H33.3458C34.2759 10.1584 35.0533 10.29 35.6808 10.5518C36.311 10.8136 36.7846 11.1806 37.1003 11.6516C37.4186 12.1225 37.5791 12.6685 37.5791 13.2894C37.5791 13.7604 37.4805 14.1813 37.2818 14.5523C37.0832 14.918 36.8109 15.2232 36.4636 15.464C36.115 15.706 35.7124 15.8757 35.2559 15.9717V16.0928C35.7571 16.1165 36.2202 16.252 36.6451 16.498C37.074 16.744 37.4173 17.086 37.6765 17.5254C37.9343 17.9595 38.0646 18.4752 38.0646 19.0724C38.0646 19.7368 37.8949 20.3301 37.5541 20.855C37.2147 21.3746 36.724 21.785 36.0808 22.0876C35.4375 22.3849 34.6574 22.5349 33.7404 22.5349H28.1666ZM31.1686 20.1235H33.0235C33.6747 20.1235 34.1548 19.9999 34.4613 19.7552C34.7731 19.5092 34.9284 19.1658 34.9284 18.7278C34.9284 18.4094 34.8534 18.1358 34.7047 17.9056C34.5547 17.6714 34.3416 17.4925 34.0667 17.3675C33.7917 17.2386 33.4629 17.1741 33.0787 17.1741H31.1686V20.1235ZM31.1686 15.2469H32.8301C33.1577 15.2469 33.4484 15.193 33.7036 15.0838C33.9575 14.9746 34.1561 14.818 34.2982 14.6128C34.4429 14.4063 34.5166 14.159 34.5166 13.8695C34.5166 13.4538 34.3679 13.1276 34.0733 12.8895C33.7786 12.6527 33.38 12.533 32.8788 12.533H31.1686V15.2469Z" fill="white"/>
<path d="M97.4079 10.6228L97.129 19.2092H94.6361L94.3572 10.6228H97.4079ZM95.8792 23.1742C95.4464 23.1742 95.0754 23.0203 94.7637 22.7151C94.4558 22.4086 94.3032 22.0376 94.3032 21.6022C94.3032 21.1667 94.4558 20.8115 94.7637 20.509C95.0754 20.2024 95.4464 20.0498 95.8792 20.0498C96.312 20.0498 96.662 20.2024 96.9777 20.509C97.2974 20.8115 97.4565 21.1759 97.4565 21.6022C97.4565 21.8929 97.3815 22.156 97.2316 22.3941C97.0869 22.6322 96.8948 22.8217 96.6554 22.9624C96.4212 23.1032 96.1621 23.1742 95.8792 23.1742Z" fill="white"/>
</svg>
