<svg width="44" height="16" viewBox="0 0 44 16" fill="none" xmlns="http://www.w3.org/2000/svg">
<rect x="0.125" y="0.125" width="43.25" height="15.75" rx="7.875" stroke="black" stroke-opacity="0.3" stroke-width="0.25"/>
<path d="M32.5837 6.41663C33.4119 6.41672 34.0837 7.08814 34.0837 7.91663C34.0837 8.74486 33.412 9.41653 32.5837 9.41663C31.7554 9.41663 31.0837 8.74493 31.0837 7.91663C31.0838 7.08808 31.7555 6.41663 32.5837 6.41663Z" fill="black"/>
<path fill-rule="evenodd" clip-rule="evenodd" d="M32.5837 3.66663C34.9308 3.66679 36.8337 5.56952 36.8337 7.91663C36.8337 10.2637 34.9308 12.1665 32.5837 12.1666C30.2365 12.1666 28.3338 10.2638 28.3337 7.91663C28.3337 5.56942 30.2365 3.66663 32.5837 3.66663ZM32.5837 4.66663C30.7889 4.66666 29.3338 6.12178 29.3337 7.91663C29.3337 9.71152 30.7888 11.1666 32.5837 11.1666C34.3786 11.1665 35.8337 9.71149 35.8337 7.91663C35.8337 6.12181 34.3786 4.66671 32.5837 4.66663Z" fill="black"/>
<rect x="21.75" y="3.25" width="0.25" height="9.25" fill="#545456" fill-opacity="0.34"/>
<path d="M11.3751 6.5C12.2725 6.5 13 7.22759 13.0001 8.125C13.0001 9.02246 12.2725 9.75 11.3751 9.75C10.4777 9.74993 9.75006 9.02242 9.75006 8.125C9.75013 7.22763 10.4777 6.50007 11.3751 6.5Z" fill="black"/>
<path d="M7.75006 7.25C8.30216 7.25007 8.75 7.6977 8.75006 8.25C8.75006 8.80216 8.3022 9.24993 7.75006 9.25C7.19786 9.25 6.75006 8.8022 6.75006 8.25C6.75013 7.69766 7.1979 7.25 7.75006 7.25Z" fill="black"/>
<path d="M15.0001 7.25C15.5521 7.25013 16 7.69774 16.0001 8.25C16.0001 8.80212 15.5521 9.24987 15.0001 9.25C14.4479 9.25 14.0001 8.8022 14.0001 8.25C14.0001 7.69766 14.4479 7.25 15.0001 7.25Z" fill="black"/>
</svg>
