<svg width="16" height="16" viewBox="0 0 16 16" fill="none" xmlns="http://www.w3.org/2000/svg">
<g clip-path="url(#clip0_16021_4107)">
<path fill-rule="evenodd" clip-rule="evenodd" d="M10.78 0.666657C11.3073 0.666713 11.8265 0.88202 12.1986 1.25585L15.138 4.1953C15.1699 4.22717 15.1984 4.26235 15.2233 4.30012C15.2398 4.32511 15.2542 4.35106 15.2669 4.37759C15.2815 4.40772 15.2941 4.43891 15.3041 4.47134C15.3075 4.48249 15.3097 4.49392 15.3125 4.5052C15.3254 4.55698 15.3334 4.61088 15.3334 4.66666V6.66666C15.3334 7.62961 14.7443 8.28178 14.0052 8.52147C14.0036 8.52199 14.0016 8.52226 14 8.52278V13.3333C14 14.4277 13.0944 15.3333 12 15.3333H4.00002C2.90561 15.3333 2.00002 14.4277 2.00002 13.3333V8.52082C1.26031 8.28433 0.666687 7.63611 0.666687 6.66666V4.66666C0.666687 4.61352 0.673171 4.5619 0.684916 4.51236C0.688163 4.49866 0.691209 4.48486 0.695333 4.47134C0.705269 4.43885 0.718534 4.40777 0.733093 4.37759C0.74587 4.35106 0.760218 4.32511 0.776713 4.30012C0.801634 4.26235 0.830127 4.22717 0.862 4.1953L3.80145 1.25585C4.17461 0.880934 4.6911 0.666381 5.22007 0.666657H10.78ZM12.0007 8.21028C11.1904 8.7891 10.1438 8.78942 9.33335 8.21093C8.52317 8.78926 7.47687 8.78926 6.66669 8.21093C5.85624 8.78945 4.80966 8.78918 3.99937 8.21028C3.79343 8.35447 3.56721 8.45979 3.33335 8.52864V13.3333C3.33335 13.6914 3.64199 14 4.00002 14H5.33335V12C5.33335 10.9056 6.23894 9.99999 7.33335 9.99999H8.66669C9.7611 9.99999 10.6667 10.9056 10.6667 12V14H12C12.3581 14 12.6667 13.6914 12.6667 13.3333V8.52994C12.4333 8.46074 12.2072 8.35525 12.0007 8.21028ZM7.33335 11.3333C6.97532 11.3333 6.66669 11.642 6.66669 12V14H9.33335V12C9.33335 11.642 9.02472 11.3333 8.66669 11.3333H7.33335ZM2.00002 5.33332V6.66666C2.00002 7.00528 2.16881 7.17618 2.40757 7.25194C2.68627 7.3403 3.04511 7.28207 3.29755 7.06965C3.30997 7.0592 3.3228 7.04922 3.33596 7.0397C3.72812 6.75631 4.27192 6.75631 4.66408 7.0397C4.67724 7.04922 4.69007 7.0592 4.70249 7.06965C5.08532 7.39178 5.58139 7.39178 5.96421 7.06965C5.97664 7.0592 5.98947 7.04922 6.00262 7.0397C6.39479 6.75631 6.93858 6.75631 7.33075 7.0397C7.34391 7.04922 7.35673 7.0592 7.36916 7.06965C7.75198 7.39178 8.24806 7.39178 8.63088 7.06965C8.64331 7.0592 8.65613 7.04922 8.66929 7.0397C9.06146 6.75631 9.60525 6.75631 9.99742 7.0397C10.0106 7.04922 10.0234 7.0592 10.0358 7.06965C10.4186 7.39178 10.9147 7.39178 11.2975 7.06965C11.31 7.0592 11.3228 7.04922 11.336 7.0397C11.7281 6.75631 12.2719 6.75631 12.6641 7.0397C12.6772 7.04922 12.6901 7.0592 12.7025 7.06965C12.9616 7.28771 13.3191 7.3423 13.5938 7.25325C13.8317 7.17611 14 7.0023 14 6.66666V5.33332H2.00002ZM5.21942 1.99999C5.04525 1.99987 4.86891 2.07308 4.74611 2.1966C4.14669 2.7992 3.54492 3.39948 2.94338 3.99999H13.0573L11.2539 2.1966C11.1311 2.07308 10.9548 1.99987 10.7806 1.99999H5.21942Z" fill="black"/>
</g>
<defs>
<clipPath id="clip0_16021_4107">
<rect width="16" height="16" fill="white"/>
</clipPath>
</defs>
</svg>
