<svg width="45" height="26" viewBox="0 0 45 26" fill="none" xmlns="http://www.w3.org/2000/svg">
<path d="M12.4931 0C5.59338 0 0 5.632 0 12.5788C0 19.5256 5.5938 25.1576 12.4931 25.1576C19.3924 25.1576 24.9862 19.526 24.9862 12.5788C24.9862 5.63159 19.3931 0 12.4931 0ZM32.444 0.736851C28.994 0.736851 26.1978 6.03995 26.1978 12.579C26.1978 19.118 28.9945 24.4215 32.4444 24.4215C35.8944 24.4215 38.691 19.1184 38.691 12.579H38.6906C38.6906 6.03808 35.8943 0.736851 32.4441 0.736851H32.444ZM42.0998 1.97031C40.8867 1.97031 39.9032 6.72032 39.9032 12.579C39.9032 18.4377 40.8861 23.1877 42.0998 23.1877C43.3134 23.1877 44.2969 18.4364 44.2969 12.5788C44.2969 6.71991 43.313 1.97031 42.0999 1.97031H42.0998Z" fill="#C4C4C7"/>
</svg>
