<svg width="14" height="14" viewBox="0 0 14 14" fill="none" xmlns="http://www.w3.org/2000/svg">
<path d="M2.91667 5.83333C3.561 5.83333 4.08333 6.35567 4.08333 7C4.08333 7.64433 3.561 8.16667 2.91667 8.16667C2.27233 8.16667 1.75 7.64433 1.75 7C1.75 6.35567 2.27233 5.83333 2.91667 5.83333Z" fill="white"/>
<path d="M7 5.83333C7.64433 5.83333 8.16667 6.35567 8.16667 7C8.16667 7.64433 7.64433 8.16667 7 8.16667C6.35567 8.16667 5.83333 7.64433 5.83333 7C5.83333 6.35567 6.35567 5.83333 7 5.83333Z" fill="white"/>
<path d="M11.0833 5.83333C11.7277 5.83333 12.25 6.35567 12.25 7C12.25 7.64433 11.7277 8.16667 11.0833 8.16667C10.439 8.16667 9.91667 7.64433 9.91667 7C9.91667 6.35567 10.439 5.83333 11.0833 5.83333Z" fill="white"/>
</svg>
