<svg width="16" height="16" viewBox="0 0 16 16" fill="none" xmlns="http://www.w3.org/2000/svg">
<path fill-rule="evenodd" clip-rule="evenodd" d="M11.0058 1.33304C11.6225 1.33459 12.2135 1.58051 12.6497 2.01663C13.0872 2.45415 13.3332 3.04763 13.3333 3.66637C13.3333 4.01553 13.2549 4.3568 13.1081 4.66637H13.3333C14.0696 4.66637 14.6665 5.26346 14.6666 5.9997V7.33304C14.6666 8.06942 14.0697 8.66637 13.3333 8.66637V12.6664C13.3333 13.1968 13.1224 13.706 12.7474 14.0811C12.3723 14.456 11.8637 14.6664 11.3333 14.6664H4.66665C4.13629 14.6664 3.62764 14.456 3.25258 14.0811C2.87751 13.706 2.66665 13.1968 2.66665 12.6664V8.66637C1.93027 8.66637 1.33331 8.06942 1.33331 7.33304V5.9997C1.33348 5.26346 1.93037 4.66637 2.66665 4.66637H2.89191C2.7451 4.3568 2.66665 4.01553 2.66665 3.66637C2.66672 3.04763 2.91272 2.45415 3.35024 2.01663C3.78643 1.58051 4.37746 1.33458 4.99412 1.33304C5.87367 1.31965 6.67518 1.75086 7.30402 2.44957C7.5664 2.74112 7.79912 3.07845 7.99998 3.45087C8.20084 3.07845 8.43356 2.74112 8.69594 2.44957C9.32478 1.75086 10.1263 1.31965 11.0058 1.33304ZM3.99998 12.6664C3.99998 12.8432 4.07027 13.0133 4.19529 13.1384C4.3203 13.2633 4.48992 13.333 4.66665 13.333H7.33331V8.66637H3.99998V12.6664ZM8.66665 13.333H11.3333C11.51 13.333 11.6797 13.2633 11.8047 13.1384C11.9297 13.0133 12 12.8432 12 12.6664V8.66637H8.66665V13.333ZM2.66665 7.33304H7.33331V5.9997H2.66665V7.33304ZM8.66665 7.33304H13.3333V5.9997H8.66665V7.33304ZM4.99998 2.66637C4.73483 2.66637 4.48047 2.77189 4.29295 2.95934C4.10548 3.14681 4.00005 3.40125 3.99998 3.66637C3.99998 3.93159 4.10541 4.18652 4.29295 4.37405C4.48047 4.56147 4.73485 4.66637 4.99998 4.66637H7.09178C6.88066 4.12602 6.61421 3.67608 6.31313 3.3415C5.8731 2.85258 5.41611 2.65936 5.0117 2.66637C5.00783 2.66644 5.00385 2.66637 4.99998 2.66637ZM10.9883 2.66637C10.5838 2.65936 10.1269 2.85258 9.68683 3.3415C9.38575 3.67608 9.1193 4.12602 8.90818 4.66637H11C11.2651 4.66637 11.5195 4.56147 11.707 4.37405C11.8945 4.18652 12 3.93159 12 3.66637C11.9999 3.40125 11.8945 3.14681 11.707 2.95934C11.5195 2.77189 11.2651 2.66637 11 2.66637C10.9961 2.66637 10.9921 2.66644 10.9883 2.66637Z" fill="black"/>
</svg>
