<svg width="20" height="20" viewBox="0 0 20 20" fill="none" xmlns="http://www.w3.org/2000/svg">
<path d="M17.5 11.6667C17.9603 11.6667 18.3334 12.0398 18.3334 12.5001V15.8334C18.3334 16.4965 18.0698 17.1322 17.6009 17.601C17.1321 18.0698 16.4964 18.3334 15.8334 18.3334H4.16669C3.50365 18.3334 2.86795 18.0698 2.39911 17.601C1.93027 17.1322 1.66669 16.4965 1.66669 15.8334V12.5001C1.66669 12.0398 2.03978 11.6667 2.50002 11.6667C2.96026 11.6667 3.33335 12.0398 3.33335 12.5001V15.8334C3.33335 16.0544 3.42121 16.2663 3.57749 16.4226C3.73378 16.5789 3.94567 16.6667 4.16669 16.6667H15.8334C16.0544 16.6667 16.2663 16.5789 16.4225 16.4226C16.5788 16.2663 16.6667 16.0544 16.6667 15.8334V12.5001C16.6667 12.0398 17.0398 11.6667 17.5 11.6667Z" fill="black"/>
<path d="M10 1.66675C10.4603 1.66675 10.8334 2.03984 10.8334 2.50008V10.4884L13.5775 7.74422C13.9029 7.41879 14.4304 7.41879 14.7559 7.74422C15.0813 8.06966 15.0813 8.59717 14.7559 8.92261L10.5892 13.0893C10.5494 13.1291 10.5054 13.1647 10.4582 13.1959C10.4267 13.2166 10.3939 13.2344 10.3605 13.2504C10.3229 13.2685 10.2839 13.2844 10.2433 13.2968C10.2264 13.3019 10.2092 13.3058 10.1921 13.3098C10.1826 13.3121 10.1732 13.3144 10.1636 13.3163C10.155 13.318 10.1462 13.3189 10.1376 13.3204C10.0927 13.3279 10.047 13.3334 10 13.3334C9.9528 13.3334 9.90675 13.3279 9.86167 13.3204C9.853 13.3189 9.84426 13.3181 9.83563 13.3163C9.82605 13.3144 9.81661 13.3121 9.80715 13.3098C9.79001 13.3057 9.77279 13.302 9.75588 13.2968C9.71534 13.2844 9.67635 13.2686 9.63869 13.2504C9.60553 13.2344 9.57309 13.2165 9.54185 13.1959C9.49464 13.1647 9.45067 13.1291 9.41083 13.0893L5.24416 8.92261C4.91872 8.59717 4.91872 8.06966 5.24416 7.74422C5.5696 7.41878 6.09711 7.41878 6.42255 7.74422L9.16669 10.4884V2.50008C9.16669 2.03984 9.53978 1.66675 10 1.66675Z" fill="black"/>
</svg>
