<svg width="58" height="58" viewBox="0 0 58 58" fill="none" xmlns="http://www.w3.org/2000/svg">
<g filter="url(#filter0_d_15202_8213)">
<g clip-path="url(#clip0_15202_8213)">
<path d="M-0.00177002 0H57.9982V58H-0.00177002V0Z" fill="#2EBD59"/>
<path d="M40.5752 40.9558C40.4607 41.145 40.3102 41.3097 40.1323 41.4404C39.9545 41.5711 39.7528 41.6652 39.5387 41.7173C39.3247 41.7694 39.1026 41.7785 38.885 41.7441C38.6675 41.7097 38.4588 41.6324 38.271 41.5168C31.9576 37.6342 24.0094 36.7572 14.65 38.9081C14.4355 38.9576 14.2133 38.9641 13.9963 38.9271C13.7792 38.8902 13.5716 38.8105 13.3852 38.6927C13.1987 38.5749 13.0373 38.4212 12.9099 38.2405C12.7826 38.0598 12.6919 37.8556 12.6431 37.6396C12.5936 37.4237 12.587 37.2001 12.6236 36.9816C12.6602 36.7631 12.7393 36.554 12.8564 36.3664C12.9734 36.1787 13.1262 36.0161 13.3058 35.888C13.4855 35.7599 13.6885 35.6687 13.9033 35.6197C24.1449 33.2657 32.9317 34.2795 40.0195 38.6368C40.8082 39.126 41.0599 40.1617 40.5752 40.9558ZM43.8652 33.5908C43.574 34.0675 43.1065 34.4084 42.5657 34.5385C42.0248 34.6687 41.4547 34.5775 40.9806 34.2849C33.7555 29.815 22.7359 28.521 14.1879 31.1318C13.6558 31.294 13.0815 31.2371 12.591 30.9736C12.1005 30.7102 11.7338 30.2618 11.5715 29.7266C11.4114 29.1912 11.4686 28.6137 11.7307 28.1206C11.9927 27.6275 12.4382 27.2589 12.9697 27.0956C22.7341 24.1139 34.8748 25.5577 43.1733 30.6902C44.1603 31.3014 44.4722 32.5994 43.8652 33.5908ZM44.1477 25.9173C35.4803 20.7393 21.1836 20.2627 12.9091 22.7884C12.5932 22.8851 12.2615 22.9181 11.9329 22.8857C11.6044 22.8533 11.2853 22.756 10.9941 22.5995C10.7029 22.443 10.4452 22.2303 10.2357 21.9735C10.0262 21.7167 9.86905 21.4209 9.77321 21.103C9.57991 20.4605 9.64798 19.7671 9.96245 19.1752C10.2769 18.5832 10.8121 18.1411 11.4503 17.9459C20.9488 15.0454 36.7369 15.6046 46.7143 21.5644C47.2876 21.907 47.7023 22.4647 47.8671 23.1149C48.032 23.7651 47.9335 24.4545 47.5934 25.0317C47.4252 25.3178 47.2027 25.5678 46.9384 25.7672C46.6741 25.9667 46.3733 26.1117 46.0533 26.1941C45.7332 26.2764 45.4002 26.2944 45.0732 26.247C44.7462 26.1997 44.4317 26.0879 44.1477 25.9181" fill="white"/>
</g>
</g>
<defs>
<filter id="filter0_d_15202_8213" x="0" y="0" width="66" height="66" filterUnits="userSpaceOnUse" color-interpolation-filters="sRGB">
<feFlood flood-opacity="0" result="BackgroundImageFix"/>
<feColorMatrix in="SourceAlpha" type="matrix" values="0 0 0 0 0 0 0 0 0 0 0 0 0 0 0 0 0 0 127 0" result="hardAlpha"/>
<feOffset dx="4" dy="4"/>
<feGaussianBlur stdDeviation="2"/>
<feComposite in2="hardAlpha" operator="out"/>
<feColorMatrix type="matrix" values="0 0 0 0 0 0 0 0 0 0 0 0 0 0 0 0 0 0 0.02 0"/>
<feBlend mode="normal" in2="BackgroundImageFix" result="effect1_dropShadow_15202_8213"/>
<feBlend mode="normal" in="SourceGraphic" in2="effect1_dropShadow_15202_8213" result="shape"/>
</filter>
<clipPath id="clip0_15202_8213">
<path d="M0 16C0 7.16345 7.16344 0 16 0H42C50.8366 0 58 7.16344 58 16V42C58 50.8366 50.8366 58 42 58H16C7.16345 58 0 50.8366 0 42V16Z" fill="white"/>
</clipPath>
</defs>
</svg>
