<svg width="58" height="58" viewBox="0 0 58 58" fill="none" xmlns="http://www.w3.org/2000/svg">
<g filter="url(#filter0_d_15202_8084)">
<g clip-path="url(#clip0_15202_8084)">
<path d="M21.4413 35.8745C22.0119 36.1096 22.5304 36.455 22.9671 36.8911C23.4037 37.3271 23.7499 37.8452 23.9857 38.4155C24.2215 38.9857 24.3423 39.597 24.3412 40.2141C24.34 40.8312 24.2169 41.442 23.979 42.0113C22.9821 44.4063 20.2244 45.5327 17.8163 44.5227L14.1267 42.995C14.7934 44.4131 15.9663 45.5306 17.4149 46.1282C20.6776 47.4877 24.419 45.9468 25.7785 42.6973C26.4386 41.1309 26.4386 39.3959 25.7913 37.8164C25.1312 36.25 23.914 35.02 22.3345 34.3596C20.7685 33.7123 19.0981 33.7382 17.6222 34.295L21.4413 35.8745ZM58.0018 0H0.00177002L0.00215669 27.0191L15.0976 33.2464C16.6512 32.185 18.4895 31.68 20.3667 31.7836L27.5394 21.4005V21.2582C27.5394 15.0177 32.6272 9.92999 38.8799 9.92999C45.1331 9.92999 50.2213 15.0177 50.2213 21.2582C50.2213 27.6277 44.9259 32.7414 38.6213 32.5863L28.3939 39.875C28.6008 44.8595 24.6262 48.7823 19.888 48.7823C15.7708 48.7823 12.3144 45.8432 11.5376 41.9595L0.00177002 37.1823V58H58.0018V0ZM31.3195 21.2582C31.3195 23.2634 32.116 25.1866 33.534 26.6045C34.9519 28.0224 36.8751 28.819 38.8803 28.819C40.8856 28.819 42.8087 28.0224 44.2267 26.6045C45.6446 25.1866 46.4412 23.2634 46.4412 21.2582C46.4412 19.2529 45.6446 17.3298 44.2267 15.9118C42.8087 14.4939 40.8856 13.6973 38.8803 13.6973C36.8751 13.6973 34.9519 14.4939 33.534 15.9118C32.116 17.3298 31.3195 19.2529 31.3195 21.2582ZM33.2095 21.245C33.2095 19.7376 33.8083 18.292 34.8742 17.2261C35.9401 16.1602 37.3857 15.5614 38.8931 15.5614C40.4005 15.5614 41.8461 16.1602 42.912 17.2261C43.9779 18.292 44.5767 19.7376 44.5767 21.245C44.5767 22.7524 43.9779 24.198 42.912 25.2639C41.8461 26.3298 40.4005 26.9286 38.8931 26.9286C37.3857 26.9286 35.9401 26.3298 34.8742 25.2639C33.8083 24.198 33.2095 22.7524 33.2095 21.245Z" fill="url(#paint0_linear_15202_8084)"/>
</g>
</g>
<defs>
<filter id="filter0_d_15202_8084" x="0" y="0" width="66" height="66" filterUnits="userSpaceOnUse" color-interpolation-filters="sRGB">
<feFlood flood-opacity="0" result="BackgroundImageFix"/>
<feColorMatrix in="SourceAlpha" type="matrix" values="0 0 0 0 0 0 0 0 0 0 0 0 0 0 0 0 0 0 127 0" result="hardAlpha"/>
<feOffset dx="4" dy="4"/>
<feGaussianBlur stdDeviation="2"/>
<feComposite in2="hardAlpha" operator="out"/>
<feColorMatrix type="matrix" values="0 0 0 0 0 0 0 0 0 0 0 0 0 0 0 0 0 0 0.02 0"/>
<feBlend mode="normal" in2="BackgroundImageFix" result="effect1_dropShadow_15202_8084"/>
<feBlend mode="normal" in="SourceGraphic" in2="effect1_dropShadow_15202_8084" result="shape"/>
</filter>
<linearGradient id="paint0_linear_15202_8084" x1="58.0018" y1="0" x2="58.0018" y2="58" gradientUnits="userSpaceOnUse">
<stop stop-color="#111D2E"/>
<stop offset="0.212" stop-color="#051839"/>
<stop offset="0.407" stop-color="#0A1B48"/>
<stop offset="0.581" stop-color="#132E62"/>
<stop offset="0.738" stop-color="#144B7E"/>
<stop offset="0.873" stop-color="#136497"/>
<stop offset="1" stop-color="#1387B8"/>
</linearGradient>
<clipPath id="clip0_15202_8084">
<path d="M0 16C0 7.16345 7.16344 0 16 0H42C50.8366 0 58 7.16344 58 16V42C58 50.8366 50.8366 58 42 58H16C7.16345 58 0 50.8366 0 42V16Z" fill="white"/>
</clipPath>
</defs>
</svg>
