<svg width="58" height="58" viewBox="0 0 58 58" fill="none" xmlns="http://www.w3.org/2000/svg">
<g filter="url(#filter0_d_15202_8190)">
<g clip-path="url(#clip0_15202_8190)">
<path d="M0 0H58V58H0V0Z" fill="#FF6699"/>
<path d="M40.4008 18.4315H33.6683L37.2717 14.7869C37.4501 14.6064 37.5502 14.3622 37.5502 14.1077C37.5502 13.8532 37.4501 13.6091 37.2717 13.4286C37.1838 13.3394 37.0792 13.2685 36.964 13.2202C36.8487 13.1719 36.7251 13.147 36.6003 13.147C36.4754 13.147 36.3518 13.1719 36.2365 13.2202C36.1213 13.2685 36.0167 13.3394 35.9288 13.4286L30.9814 18.4315H26.0677L21.1203 13.4286C21.0324 13.3393 20.9278 13.2684 20.8125 13.2201C20.6972 13.1717 20.5735 13.1468 20.4486 13.1468C20.3237 13.1468 20.2001 13.1717 20.0848 13.2201C19.9695 13.2684 19.8649 13.3393 19.777 13.4286C19.5986 13.6091 19.4984 13.8532 19.4984 14.1077C19.4984 14.3622 19.5986 14.6064 19.777 14.7869L23.3808 18.4315H17.5984C14.717 18.4315 12.3729 20.8013 12.3729 23.7157V38.1281C12.3729 41.0421 14.717 43.4124 17.5984 43.4124H19.4985C19.4979 43.6011 19.5344 43.7882 19.6057 43.9628C19.677 44.1375 19.7819 44.2962 19.9143 44.4301C20.0467 44.5639 20.204 44.6702 20.3773 44.7428C20.5506 44.8155 20.7364 44.8531 20.9241 44.8535C21.1117 44.853 21.2975 44.8153 21.4706 44.7426C21.6438 44.6699 21.8011 44.5636 21.9334 44.4298C22.0657 44.2959 22.1705 44.1372 22.2417 43.9626C22.313 43.7881 22.3494 43.6011 22.3488 43.4124H35.6504C35.6498 43.6011 35.6862 43.7881 35.7575 43.9627C35.8288 44.1373 35.9336 44.2961 36.066 44.4299C36.1983 44.5638 36.3556 44.67 36.5288 44.7427C36.702 44.8154 36.8878 44.853 37.0755 44.8535C37.2632 44.853 37.449 44.8154 37.6222 44.7427C37.7954 44.67 37.9527 44.5638 38.085 44.4299C38.2174 44.2961 38.3222 44.1373 38.3935 43.9627C38.4648 43.7881 38.5012 43.6011 38.5006 43.4124H40.4008C43.2822 43.4124 45.6263 41.0421 45.6263 38.1281V23.7157C45.6263 20.8017 43.2822 18.4315 40.4008 18.4315ZM42.776 38.1281C42.776 39.4518 41.71 40.5301 40.4008 40.5301H17.5984C16.2892 40.5301 15.2232 39.4518 15.2232 38.1281V23.7157C15.2232 22.3916 16.2892 21.3137 17.5984 21.3137H40.4008C41.71 21.3137 42.776 22.3921 42.776 23.7157V38.1281Z" fill="white"/>
<path d="M33.3951 25.6798L32.5758 28.1744L38.8961 30.313L39.715 27.8188L33.3951 25.6798ZM25.7138 25.6785L19.3935 27.8171L20.2124 30.3114L26.5327 28.1727L25.7138 25.6785ZM32.4094 33.2789C32.2314 33.8458 31.803 34.1357 31.1609 34.1357C31.0892 34.1232 31.0299 34.1232 30.9347 34.1115C30.9224 34.1115 30.8878 34.0991 30.8754 34.1115C30.5541 34.0637 30.174 33.9423 29.8766 33.6653C29.5318 33.4116 29.1158 32.9528 28.9848 32.2533C28.9848 32.2533 28.7117 33.3754 28.1408 33.6777C28.0695 33.7256 27.9867 33.7867 27.9027 33.8345L27.8669 33.8583C27.5814 34.015 27.2247 34.112 26.8445 34.1244C26.3094 34.0754 25.9527 33.8104 25.7748 33.3392L25.7155 33.1824L24.3718 33.8096L24.4188 33.9427C24.8583 35.017 25.7983 35.6329 26.999 35.6329C27.8669 35.6329 28.5683 35.3431 29.0791 34.7637C29.6022 35.3431 30.2918 35.6329 31.1592 35.6329C32.9065 35.6329 33.5602 34.4014 33.7625 33.8707L33.8107 33.7501L32.4666 33.1221L32.4094 33.2789Z" fill="white"/>
</g>
</g>
<defs>
<filter id="filter0_d_15202_8190" x="0" y="0" width="66" height="66" filterUnits="userSpaceOnUse" color-interpolation-filters="sRGB">
<feFlood flood-opacity="0" result="BackgroundImageFix"/>
<feColorMatrix in="SourceAlpha" type="matrix" values="0 0 0 0 0 0 0 0 0 0 0 0 0 0 0 0 0 0 127 0" result="hardAlpha"/>
<feOffset dx="4" dy="4"/>
<feGaussianBlur stdDeviation="2"/>
<feComposite in2="hardAlpha" operator="out"/>
<feColorMatrix type="matrix" values="0 0 0 0 0 0 0 0 0 0 0 0 0 0 0 0 0 0 0.02 0"/>
<feBlend mode="normal" in2="BackgroundImageFix" result="effect1_dropShadow_15202_8190"/>
<feBlend mode="normal" in="SourceGraphic" in2="effect1_dropShadow_15202_8190" result="shape"/>
</filter>
<clipPath id="clip0_15202_8190">
<path d="M0 16C0 7.16345 7.16344 0 16 0H42C50.8366 0 58 7.16344 58 16V42C58 50.8366 50.8366 58 42 58H16C7.16345 58 0 50.8366 0 42V16Z" fill="white"/>
</clipPath>
</defs>
</svg>
