<svg width="39" height="39" viewBox="0 0 39 39" fill="none" xmlns="http://www.w3.org/2000/svg">
<path d="M25.0402 4.6885V22.266C25.0402 22.266 24.4578 27.5427 21.1963 29.2512C19.1811 30.4354 16.3097 31.8119 12.5259 31.9284L14.7391 34.1416C14.7391 34.1416 21.3729 33.5592 24.3996 30.8218C27.4282 28.0863 27.5447 24.7588 27.5447 23.4541V6.5503L25.0402 4.68655V4.6885Z" fill="#62B2E4"/>
<path d="M25.0403 4.68849V22.266C25.0403 22.266 24.4578 27.5427 21.1963 29.2512C19.1811 30.4354 16.3097 31.8119 12.5259 31.9284L11.2834 26.6497C11.2834 26.6497 13.9626 26.1449 15.7487 25.5644C17.5328 24.982 18.4783 21.9534 18.4783 21.9534V4.69043H25.0403V4.68849Z" fill="white"/>
</svg>
