<svg width="58" height="58" viewBox="0 0 58 58" fill="none" xmlns="http://www.w3.org/2000/svg">
<g filter="url(#filter0_d_15202_8187)">
<g clip-path="url(#clip0_15202_8187)">
<path d="M-0.00177002 0H57.9982V58H-0.00177002V0Z" fill="#FF9908"/>
<path d="M15.0014 15.6118C18.1086 14.6715 21.8381 18.3082 27.7636 28.057C28.4295 29.1519 28.9994 30.047 29.0312 30.0481C29.0626 30.0481 29.6631 29.1002 30.3631 27.9421C36.2557 18.2016 39.9877 14.6225 43.1571 15.6706C45.1706 16.3367 46.0202 18.2958 46.0127 22.2581C45.9981 29.9664 42.321 42.045 39.3192 44.2441C36.8476 46.054 33.1544 43.7754 29.7117 38.3141C29.3703 37.7708 29.0577 37.3251 29.02 37.3236C28.9826 37.3236 28.6786 37.7659 28.3458 38.308C26.5315 41.264 24.3063 43.555 22.3982 44.4317C21.4709 44.8578 19.8586 44.9166 19.178 44.5478C17.3234 43.5437 15.2358 39.1847 13.6182 32.9352C11.0333 22.9502 11.5366 16.6626 15.001 15.6122M40.9727 19.5832C39.0055 21.1237 36.4692 24.5544 32.7554 30.7011L31.0017 33.6005L31.6026 34.6829C33.1106 37.4072 34.8535 39.6982 36.2594 40.8051C37.2122 41.5571 37.527 41.3989 38.3593 39.7472C40.9768 34.5616 43.2079 23.9373 42.4788 20.1185C42.2601 18.9687 41.916 18.8462 40.973 19.5835M15.8883 19.2565C15.1857 19.9558 15.3682 24.4873 16.2798 29.0106C17.3791 34.4716 19.6944 40.824 20.713 41.1804C21.7031 41.5266 24.4267 38.3886 26.5652 34.4362L27.0333 33.5704L25.5324 31.0884C21.5102 24.4391 18.8875 20.8867 16.9577 19.475C16.3647 19.0418 16.1486 18.9977 15.8883 19.2558" fill="white"/>
</g>
</g>
<defs>
<filter id="filter0_d_15202_8187" x="0" y="0" width="66" height="66" filterUnits="userSpaceOnUse" color-interpolation-filters="sRGB">
<feFlood flood-opacity="0" result="BackgroundImageFix"/>
<feColorMatrix in="SourceAlpha" type="matrix" values="0 0 0 0 0 0 0 0 0 0 0 0 0 0 0 0 0 0 127 0" result="hardAlpha"/>
<feOffset dx="4" dy="4"/>
<feGaussianBlur stdDeviation="2"/>
<feComposite in2="hardAlpha" operator="out"/>
<feColorMatrix type="matrix" values="0 0 0 0 0 0 0 0 0 0 0 0 0 0 0 0 0 0 0.02 0"/>
<feBlend mode="normal" in2="BackgroundImageFix" result="effect1_dropShadow_15202_8187"/>
<feBlend mode="normal" in="SourceGraphic" in2="effect1_dropShadow_15202_8187" result="shape"/>
</filter>
<clipPath id="clip0_15202_8187">
<path d="M0 16C0 7.16345 7.16344 0 16 0H42C50.8366 0 58 7.16344 58 16V42C58 50.8366 50.8366 58 42 58H16C7.16345 58 0 50.8366 0 42V16Z" fill="white"/>
</clipPath>
</defs>
</svg>
