<svg width="20" height="20" viewBox="0 0 20 20" fill="none" xmlns="http://www.w3.org/2000/svg">
<path fill-rule="evenodd" clip-rule="evenodd" d="M7.49999 1.86377C7.88789 1.86377 8.27035 1.95406 8.61734 2.12744L12.1273 3.882C12.2429 3.93974 12.3708 3.96989 12.5 3.96989C12.6292 3.96989 12.7571 3.93971 12.8727 3.882L15.922 2.35693C16.1762 2.23003 16.4586 2.16989 16.7423 2.18278C17.0263 2.19571 17.3023 2.2814 17.5439 2.43099C17.7856 2.58063 17.9852 2.78967 18.1234 3.03809C18.2613 3.28621 18.3336 3.56557 18.3333 3.84945V14.4867C18.3331 14.796 18.247 15.0992 18.0843 15.3623C17.9216 15.6254 17.688 15.8384 17.4113 15.9767L13.6173 17.8737C13.2703 18.0471 12.8879 18.1374 12.5 18.1374C12.1121 18.1374 11.7296 18.0471 11.3826 17.8737L7.87271 16.1191C7.75709 16.0614 7.62923 16.0312 7.49999 16.0312C7.37079 16.0313 7.24287 16.0614 7.12727 16.1191L4.07795 17.6442C3.82365 17.7712 3.54079 17.8314 3.25683 17.8184C2.9728 17.8053 2.69689 17.7191 2.45523 17.5693C2.2136 17.4195 2.0138 17.2108 1.87581 16.9622C1.73798 16.7139 1.66616 16.4341 1.66666 16.1501V5.51449C1.66687 5.20517 1.75298 4.9019 1.91568 4.63883C2.07842 4.37575 2.312 4.16273 2.5887 4.02441L6.38264 2.12744C6.72963 1.95406 7.11209 1.86377 7.49999 1.86377ZM3.33333 5.5153V16.1533L6.38264 14.6283C6.47506 14.5821 6.56977 14.5412 6.66666 14.507V3.84863L3.33333 5.5153ZM8.33333 14.507C8.43022 14.5412 8.52493 14.5821 8.61734 14.6283L11.6667 16.1525V5.49333C11.5699 5.45909 11.475 5.41902 11.3826 5.37288L8.33333 3.84782V14.507ZM13.6173 5.37288C13.525 5.41902 13.4301 5.4591 13.3333 5.49333V16.1525L16.6667 14.4858V3.84782L13.6173 5.37288Z" fill="black"/>
</svg>
