<svg width="20" height="20" viewBox="0 0 20 20" fill="none" xmlns="http://www.w3.org/2000/svg">
<path d="M16.6665 13.3334H10.8332V16.6667H14.1665C15.5472 16.6667 16.6665 15.5474 16.6665 14.1667V13.3334ZM3.33317 14.1667C3.33317 15.5474 4.45246 16.6667 5.83317 16.6667H9.1665V8.33335H3.33317V14.1667ZM16.6665 5.83335C16.6665 4.45264 15.5472 3.33335 14.1665 3.33335H10.8332V11.6667H16.6665V5.83335ZM3.33317 6.66669H9.1665V3.33335H5.83317C4.45246 3.33335 3.33317 4.45264 3.33317 5.83335V6.66669ZM18.3332 14.1667C18.3332 16.4679 16.4677 18.3334 14.1665 18.3334H5.83317C3.53198 18.3334 1.6665 16.4679 1.6665 14.1667V5.83335C1.6665 3.53217 3.53198 1.66669 5.83317 1.66669H14.1665C16.4677 1.66669 18.3332 3.53217 18.3332 5.83335V14.1667Z" fill="black"/>
</svg>
