<svg width="37" height="37" viewBox="0 0 37 37" fill="none" xmlns="http://www.w3.org/2000/svg">
<path d="M18.175 0C13.2395 0 12.6199 0.0216261 10.6816 0.109766C8.74683 0.198451 7.42617 0.504668 6.27071 0.95409C5.07527 1.41823 4.06138 2.03921 3.0513 3.04964C2.04032 4.05988 1.41934 5.07376 0.953737 6.26865C0.503038 7.42446 0.196454 8.74565 0.109403 10.6795C0.0227165 12.618 0 13.2377 0 18.1733C0 23.109 0.021808 23.7265 0.109767 25.6649C0.198816 27.5996 0.505037 28.9202 0.9541 30.0757C1.41861 31.2711 2.03959 32.285 3.05003 33.295C4.05992 34.306 5.07381 34.9284 6.26835 35.3926C7.42472 35.842 8.74555 36.1482 10.6799 36.2369C12.6185 36.325 13.2375 36.3467 18.1728 36.3467C23.1088 36.3467 23.7264 36.325 25.6647 36.2369C27.5995 36.1482 28.9216 35.842 30.078 35.3926C31.2729 34.9284 32.2853 34.306 33.295 33.295C34.306 32.285 34.9268 31.2711 35.3926 30.0762C35.8393 28.9202 36.146 27.5992 36.2369 25.6652C36.3239 23.7269 36.3467 23.109 36.3467 18.1733C36.3467 13.2377 36.3239 12.6183 36.2369 10.6798C36.146 8.7451 35.8393 7.42464 35.3926 6.26919C34.9268 5.07376 34.306 4.05988 33.295 3.04964C32.2842 2.03885 31.2732 1.41787 30.0769 0.954272C28.9183 0.504668 27.5969 0.198269 25.6622 0.109766C23.7236 0.0216261 23.1065 0 18.1693 0H18.175ZM16.5446 3.27498C17.0286 3.27426 17.5685 3.27498 18.175 3.27498C23.0274 3.27498 23.6024 3.29243 25.5186 3.37948C27.2905 3.46053 28.2523 3.75657 28.8929 4.00536C29.741 4.33466 30.3456 4.72847 30.9814 5.36471C31.6174 6.00077 32.0111 6.60649 32.3413 7.45463C32.5901 8.09432 32.8865 9.05604 32.9672 10.8279C33.0542 12.7437 33.0731 13.3191 33.0731 18.1692C33.0731 23.0192 33.0542 23.5947 32.9672 25.5104C32.8861 27.2823 32.5901 28.244 32.3413 28.8839C32.012 29.732 31.6174 30.3359 30.9814 30.9716C30.3453 31.6077 29.7414 32.0013 28.8929 32.3308C28.253 32.5806 27.2905 32.876 25.5186 32.957C23.6028 33.0441 23.0274 33.063 18.175 33.063C13.3223 33.063 12.7471 33.0441 10.8315 32.957C9.05959 32.8752 8.09785 32.5792 7.4567 32.3304C6.60873 32.0009 6.00283 31.6073 5.36677 30.9712C4.7307 30.3352 4.33707 29.7309 4.00686 28.8824C3.75806 28.2425 3.46166 27.2808 3.38097 25.5089C3.29392 23.5931 3.27647 23.0177 3.27647 18.1646C3.27647 13.3117 3.29392 12.7392 3.38097 10.8234C3.46202 9.0515 3.75806 8.08978 4.00686 7.44917C4.33634 6.60103 4.7307 5.99532 5.36695 5.35926C6.00302 4.7232 6.60873 4.32939 7.45688 3.99937C8.09749 3.74948 9.05959 3.45417 10.8315 3.37275C12.508 3.29697 13.1577 3.27426 16.5446 3.27044V3.27498ZM27.8759 6.29245C26.6719 6.29245 25.6951 7.26835 25.6951 8.4725C25.6951 9.67648 26.6719 10.6533 27.8759 10.6533C29.0799 10.6533 30.0567 9.67648 30.0567 8.4725C30.0567 7.26853 29.0799 6.29173 27.8759 6.29173V6.29245ZM18.175 8.84051C13.021 8.84051 8.84224 13.0192 8.84224 18.1733C8.84224 23.3274 13.021 27.5042 18.175 27.5042C23.3291 27.5042 27.5064 23.3274 27.5064 18.1733C27.5064 13.0194 23.3291 8.84051 18.175 8.84051ZM18.175 12.1155C21.5205 12.1155 24.2329 14.8275 24.2329 18.1733C24.2329 21.5188 21.5205 24.2312 18.175 24.2312C14.8293 24.2312 12.1173 21.5188 12.1173 18.1733C12.1173 14.8275 14.8293 12.1155 18.175 12.1155Z" fill="white"/>
</svg>
