<svg width="18" height="18" viewBox="0 0 18 18" fill="none" xmlns="http://www.w3.org/2000/svg">
<g clip-path="url(#clip0_16021_3978)">
<path d="M2.88905 6.46605C2.77958 5.97294 2.79639 5.46018 2.93792 4.9753C3.07944 4.49043 3.34111 4.04913 3.69865 3.69234C4.05619 3.33555 4.49803 3.07481 4.9832 2.9343C5.46838 2.79378 5.98117 2.77805 6.47405 2.88855C6.74533 2.46428 7.11905 2.11512 7.56076 1.87326C8.00247 1.63141 8.49796 1.50464 9.00155 1.50464C9.50514 1.50464 10.0006 1.63141 10.4423 1.87326C10.884 2.11512 11.2578 2.46428 11.529 2.88855C12.0227 2.77757 12.5364 2.79323 13.0223 2.93409C13.5082 3.07494 13.9507 3.33641 14.3084 3.69416C14.6662 4.05192 14.9277 4.49435 15.0685 4.9803C15.2094 5.46625 15.225 5.97992 15.114 6.47355C15.5383 6.74483 15.8875 7.11855 16.1293 7.56026C16.3712 8.00197 16.498 8.49746 16.498 9.00105C16.498 9.50464 16.3712 10.0001 16.1293 10.4418C15.8875 10.8835 15.5383 11.2573 15.114 11.5286C15.2245 12.0214 15.2088 12.5342 15.0683 13.0194C14.9278 13.5046 14.6671 13.9464 14.3103 14.3039C13.9535 14.6615 13.5122 14.9232 13.0273 15.0647C12.5424 15.2062 12.0297 15.223 11.5365 15.1136C11.2656 15.5394 10.8916 15.8901 10.4491 16.133C10.0067 16.376 9.51007 16.5033 9.0053 16.5033C8.50053 16.5033 8.00392 16.376 7.56145 16.133C7.11899 15.8901 6.74498 15.5394 6.47405 15.1136C5.98117 15.2241 5.46838 15.2083 4.9832 15.0678C4.49803 14.9273 4.05619 14.6666 3.69865 14.3098C3.34111 13.953 3.07944 13.5117 2.93792 13.0268C2.79639 12.5419 2.77958 12.0292 2.88905 11.536C2.46152 11.2655 2.10936 10.8912 1.86533 10.448C1.62131 10.0047 1.49335 9.507 1.49335 9.00105C1.49335 8.49509 1.62131 7.99736 1.86533 7.55414C2.10936 7.11092 2.46152 6.73662 2.88905 6.46605Z" fill="white" stroke="#007AFF" stroke-width="1.5" stroke-linecap="round" stroke-linejoin="round"/>
<path d="M6.75 8.9978L8.25 10.4978L11.25 7.4978" stroke="#007AFF" stroke-width="1.5" stroke-linecap="round" stroke-linejoin="round"/>
</g>
<defs>
<clipPath id="clip0_16021_3978">
<rect width="18" height="18" fill="white"/>
</clipPath>
</defs>
</svg>
