<svg width="14" height="14" viewBox="0 0 14 14" fill="none" xmlns="http://www.w3.org/2000/svg">
<path d="M7.00049 2.08333C7.46047 2.0835 7.83332 2.45636 7.8335 2.91634V6.16634H11.0835C11.5437 6.16634 11.9165 6.54008 11.9165 7.00032C11.9163 7.46041 11.5436 7.83333 11.0835 7.83333H7.8335V11.0833C7.8335 11.5435 7.46058 11.9162 7.00049 11.9163C6.54025 11.9163 6.1665 11.5436 6.1665 11.0833V7.83333H2.9165C2.45652 7.83315 2.08367 7.4603 2.0835 7.00032C2.0835 6.54019 2.45642 6.16651 2.9165 6.16634H6.1665V2.91634C6.16668 2.45625 6.54036 2.08333 7.00049 2.08333Z" fill="white" stroke="white" stroke-width="0.5" stroke-linecap="round" stroke-linejoin="round"/>
</svg>
