<svg width="295" height="110" viewBox="0 0 295 110" fill="none" xmlns="http://www.w3.org/2000/svg">
<mask id="mask0_16021_897" style="mask-type:alpha" maskUnits="userSpaceOnUse" x="0" y="0" width="295" height="110">
<rect width="295" height="110" fill="url(#paint0_linear_16021_897)"/>
</mask>
<g mask="url(#mask0_16021_897)">
<path d="M5.096 5.004H6.244V11.808C6.244 12.9 6.02 13.712 5.572 14.272C5.068 14.888 4.256 15.196 3.15 15.196C2.212 15.196 1.498 14.93 0.994 14.426C0.462 13.894 0.21 13.138 0.21 12.158V11.808H1.358V12.144C1.358 13.488 1.96 14.174 3.178 14.174C3.85 14.174 4.34 13.964 4.648 13.572C4.942 13.194 5.096 12.592 5.096 11.766V5.004ZM11.3344 7.566C12.4124 7.566 13.2804 7.93 13.9244 8.686C14.5404 9.4 14.8484 10.296 14.8484 11.388C14.8484 12.466 14.5404 13.362 13.9384 14.062C13.2804 14.818 12.4124 15.196 11.3344 15.196C10.2424 15.196 9.38842 14.818 8.74442 14.062C8.12842 13.362 7.82042 12.466 7.82042 11.388C7.82042 10.296 8.12842 9.4 8.74442 8.686C9.38842 7.93 10.2424 7.566 11.3344 7.566ZM11.3344 8.504C10.5644 8.504 9.96242 8.798 9.54242 9.386C9.15042 9.918 8.96842 10.576 8.96842 11.388C8.96842 12.186 9.15042 12.844 9.54242 13.376C9.96242 13.964 10.5644 14.258 11.3344 14.258C12.0904 14.258 12.6924 13.964 13.1404 13.376C13.5184 12.844 13.7144 12.172 13.7144 11.388C13.7144 10.576 13.5184 9.918 13.1404 9.386C12.6924 8.798 12.0904 8.504 11.3344 8.504ZM17.2275 5.032C17.4655 5.032 17.6615 5.102 17.8295 5.27C17.9975 5.41 18.0815 5.606 18.0815 5.858C18.0815 6.096 17.9975 6.292 17.8295 6.46C17.6615 6.614 17.4655 6.698 17.2275 6.698C16.9895 6.698 16.7935 6.614 16.6255 6.46C16.4575 6.292 16.3875 6.096 16.3875 5.858C16.3875 5.606 16.4575 5.41 16.6255 5.27C16.7935 5.102 16.9895 5.032 17.2275 5.032ZM16.6675 7.762H17.7875V15H16.6675V7.762ZM23.2736 7.566C25.0656 7.566 25.9756 8.56 25.9756 10.548V15H24.8556V10.632C24.8556 9.218 24.2116 8.518 22.9516 8.518C22.4476 8.518 22.0136 8.7 21.6496 9.064C21.2576 9.456 21.0476 9.974 21.0056 10.632V15H19.8856V7.762H21.0056V8.826C21.2576 8.42 21.5796 8.112 21.9716 7.902C22.3636 7.678 22.7976 7.566 23.2736 7.566ZM32.508 5.004H33.656V11.178C33.656 12.158 33.866 12.9 34.314 13.404C34.776 13.922 35.504 14.188 36.498 14.188C37.478 14.188 38.206 13.922 38.682 13.404C39.116 12.9 39.34 12.158 39.34 11.178V5.004H40.488V11.164C40.488 12.466 40.152 13.46 39.494 14.146C38.808 14.846 37.814 15.196 36.498 15.196C35.182 15.196 34.188 14.846 33.516 14.16C32.844 13.46 32.508 12.466 32.508 11.164V5.004ZM44.9241 7.566C46.7161 7.566 47.6961 8.308 47.8921 9.82H46.8001C46.7021 9.372 46.5201 9.036 46.2401 8.84C45.9321 8.616 45.4841 8.504 44.9101 8.504C44.4061 8.504 44.0141 8.588 43.7341 8.784C43.4261 8.966 43.2721 9.218 43.2721 9.54C43.2721 9.848 43.4681 10.114 43.8881 10.324C44.1541 10.45 44.6581 10.604 45.3861 10.8C46.2541 11.01 46.8701 11.234 47.2481 11.472C47.8221 11.836 48.1161 12.326 48.1161 12.956C48.1161 14.44 47.0941 15.196 45.0501 15.196C43.1461 15.196 42.1101 14.356 41.9421 12.69H43.0341C43.1181 13.264 43.3281 13.67 43.6361 13.922C43.9441 14.146 44.4061 14.258 45.0221 14.258C46.3101 14.258 46.9681 13.838 46.9681 13.026C46.9681 12.62 46.7301 12.312 46.2821 12.088C46.0441 11.976 45.5261 11.822 44.7421 11.626C43.8881 11.416 43.2861 11.206 42.9501 10.982C42.3901 10.646 42.1241 10.184 42.1241 9.568C42.1241 8.952 42.3901 8.476 42.9361 8.112C43.4401 7.748 44.1121 7.566 44.9241 7.566ZM50.2425 5.004H51.5445L51.3345 12.312H50.4665L50.2425 5.004ZM50.8865 13.334C51.1385 13.334 51.3345 13.404 51.5025 13.572C51.6565 13.726 51.7405 13.922 51.7405 14.16C51.7405 14.412 51.6565 14.608 51.5025 14.762C51.3345 14.916 51.1245 15 50.8865 15C50.6485 15 50.4525 14.916 50.2985 14.762C50.1305 14.594 50.0465 14.398 50.0465 14.16C50.0465 13.922 50.1305 13.726 50.2985 13.572C50.4525 13.404 50.6485 13.334 50.8865 13.334ZM69.2407 11.668H60.2387V10.772H68.2747V9.652H60.8127V8.784H68.2747V7.664H60.4347V7.398C60.0427 7.706 59.6367 7.986 59.2447 8.238L58.6007 7.468C60.3227 6.432 61.7367 5.06 62.8427 3.38L63.8647 3.604C63.6547 3.926 63.4447 4.234 63.2487 4.528H67.8127V5.228C67.3647 5.83 66.9027 6.348 66.4547 6.768H69.2407V11.668ZM65.1947 6.768C65.6567 6.362 66.1187 5.9 66.5807 5.368H62.5767C62.1427 5.872 61.6807 6.334 61.2047 6.768H65.1947ZM60.1407 12.55L61.1207 12.746C60.7847 14.006 60.3087 15.112 59.6927 16.05L58.8387 15.504C59.4267 14.608 59.8607 13.614 60.1407 12.55ZM66.6927 16.19H63.3607C62.5207 16.19 62.1007 15.756 62.1007 14.916V12.368H63.1087V14.706C63.1087 15.084 63.2907 15.28 63.6547 15.28H66.5107C66.8467 15.28 67.0707 15.21 67.1967 15.084C67.3787 14.916 67.5047 14.426 67.5607 13.614L68.5127 13.922C68.4147 15 68.2187 15.658 67.9107 15.896C67.6587 16.092 67.2527 16.19 66.6927 16.19ZM64.9847 12.004C65.6847 12.676 66.2167 13.278 66.5807 13.782L65.7407 14.356C65.3627 13.796 64.8307 13.18 64.1587 12.508L64.9847 12.004ZM69.2547 12.256C70.1227 13.39 70.7807 14.384 71.2567 15.224L70.4167 15.812C69.9407 14.888 69.2827 13.88 68.4427 12.76L69.2547 12.256ZM84.5147 10.562V16.372H83.5207V15.798H79.0127V16.372H78.0187V10.562H84.5147ZM79.0127 14.832H83.5207V11.542H79.0127V14.832ZM74.2107 16.246H72.9227L72.7127 15.266C73.1047 15.294 73.4967 15.322 73.8607 15.322C74.2247 15.322 74.4207 15.126 74.4207 14.762V11.318C73.8327 11.556 73.2307 11.78 72.6287 11.976L72.3627 10.926C73.0627 10.758 73.7487 10.534 74.4207 10.282V7.104H72.6287V6.138H74.4207V3.576H75.4287V6.138H77.0807V7.104H75.4287V9.862C75.9467 9.624 76.4507 9.372 76.9407 9.092V10.114C76.4367 10.394 75.9327 10.646 75.4287 10.884V15.014C75.4287 15.826 75.0227 16.246 74.2107 16.246ZM80.1047 5.102H77.7247V4.15H84.7107C84.6967 6.796 84.5427 8.378 84.2487 8.91C83.9407 9.428 83.4367 9.694 82.7087 9.694C82.4007 9.694 82.0367 9.666 81.6167 9.638L81.3787 8.742C81.8267 8.77 82.1907 8.798 82.4987 8.812C83.0167 8.784 83.3387 8.574 83.4787 8.182C83.6187 7.79 83.7027 6.768 83.7307 5.102H81.0847C80.8607 6.292 80.5387 7.23 80.1467 7.93C79.6567 8.714 78.9287 9.428 77.9627 10.072L77.3607 9.274C78.2007 8.742 78.8447 8.154 79.2647 7.51C79.6287 6.894 79.9087 6.082 80.1047 5.102ZM92.5647 6.278H96.6247V3.534H97.6327V6.278H99.1867V7.244H97.6327V14.944C97.6327 15.882 97.1427 16.358 96.1907 16.358H93.9927L93.7827 15.364C94.5107 15.406 95.1967 15.434 95.8407 15.434C96.3587 15.434 96.6247 15.182 96.6247 14.692V7.244H92.5647V6.278ZM87.5527 7.188C88.4347 8.14 89.2467 9.106 90.0027 10.058C90.5207 8.798 90.8287 7.426 90.9267 5.942H87.0907V4.962H91.8367V5.704C91.7667 7.608 91.3747 9.344 90.6467 10.898C91.2347 11.682 91.7807 12.48 92.2707 13.264L91.5427 13.992C91.1227 13.292 90.6607 12.592 90.1567 11.878C89.3867 13.222 88.3507 14.426 87.0627 15.49L86.4747 14.608C87.7907 13.6 88.8127 12.41 89.5407 11.038C88.7567 9.988 87.8607 8.91 86.8807 7.818L87.5527 7.188ZM93.3207 8.896C94.2587 10.044 94.9867 11.066 95.4907 11.962L94.6927 12.522C94.1327 11.556 93.4187 10.534 92.5507 9.456L93.3207 8.896ZM103.821 5.004H105.151L109.085 15H107.839L106.775 12.2H102.183L101.119 15H99.8867L103.821 5.004ZM102.547 11.234H106.411L104.521 6.236H104.465L102.547 11.234ZM110.18 5.004H111.314V15H110.18V5.004ZM121.216 3.632H122.252V7.804H125.444V8.798H122.252V14.93H125.78V15.924H117.604V14.93H121.216V8.798H118.094V7.804H121.216V3.632ZM115.168 10.548C114.608 11.108 113.992 11.682 113.306 12.256L112.998 11.192C114.93 9.596 116.232 8.028 116.876 6.502H113.334V5.536H115.49C115.266 4.92 115.014 4.332 114.72 3.772L115.686 3.506C115.994 4.206 116.246 4.836 116.428 5.424L116.134 5.536H117.898V6.39C117.534 7.398 116.946 8.406 116.162 9.414C116.974 9.876 117.716 10.422 118.416 11.052L117.856 11.92C117.282 11.332 116.722 10.842 116.162 10.45V16.372H115.168V10.548ZM127.222 5.228H133.004C132.752 4.654 132.472 4.136 132.164 3.66L133.284 3.464C133.564 3.996 133.844 4.584 134.096 5.228H139.612V6.194H127.222V5.228ZM135.622 6.614C137.176 7.846 138.478 9.064 139.528 10.296L138.786 11.038C137.862 9.862 136.574 8.616 134.936 7.272L135.622 6.614ZM135.762 9.232L136.686 9.638C136.014 10.926 135.202 12.032 134.236 12.97C135.748 14.062 137.582 14.874 139.766 15.434L139.136 16.372C136.868 15.728 134.978 14.832 133.466 13.656C131.898 14.916 129.994 15.84 127.754 16.428L127.138 15.504C129.35 14.944 131.184 14.104 132.654 12.984C131.632 12.06 130.792 10.996 130.134 9.82L131.002 9.33C131.618 10.478 132.43 11.472 133.424 12.326C134.376 11.43 135.16 10.408 135.762 9.232ZM131.114 6.628L131.842 7.272C130.778 8.658 129.462 9.876 127.894 10.912L127.25 10.058C128.776 9.078 130.064 7.944 131.114 6.628ZM145.898 3.52H146.892L141.936 16.4H140.928L145.898 3.52ZM156.216 3.632H157.252V7.804H160.444V8.798H157.252V14.93H160.78V15.924H152.604V14.93H156.216V8.798H153.094V7.804H156.216V3.632ZM150.168 10.548C149.608 11.108 148.992 11.682 148.306 12.256L147.998 11.192C149.93 9.596 151.232 8.028 151.876 6.502H148.334V5.536H150.49C150.266 4.92 150.014 4.332 149.72 3.772L150.686 3.506C150.994 4.206 151.246 4.836 151.428 5.424L151.134 5.536H152.898V6.39C152.534 7.398 151.946 8.406 151.162 9.414C151.974 9.876 152.716 10.422 153.416 11.052L152.856 11.92C152.282 11.332 151.722 10.842 151.162 10.45V16.372H150.168V10.548ZM166.016 6.39C167.304 7.37 168.508 8.35 169.614 9.33C170.412 8.308 171.098 7.132 171.686 5.802L172.596 6.292C171.966 7.72 171.238 8.966 170.398 10.03C171.49 11.038 172.484 12.032 173.38 13.012L172.596 13.796C171.77 12.816 170.818 11.822 169.726 10.814C168.494 12.13 167.08 13.138 165.47 13.838L164.882 12.928C166.45 12.284 167.808 11.332 168.956 10.1C167.85 9.12 166.632 8.112 165.288 7.09L166.016 6.39ZM163.062 4.136H174.178V5.102H164.028V14.846H174.584V15.812H163.062V4.136ZM178.868 6.866H183.474V7.692H178.868V6.866ZM179.246 8.588H183.152V11.444H179.246V8.588ZM182.214 10.66V9.372H180.198V10.66H182.214ZM188.206 4.822V5.746H184.902C184.958 6.726 185.07 7.538 185.238 8.168C185.336 8.602 185.448 8.994 185.588 9.344C186.092 8.532 186.526 7.594 186.862 6.502L187.646 6.908C187.212 8.28 186.68 9.4 186.036 10.296L186.162 10.492C186.526 10.982 186.862 11.234 187.17 11.234C187.422 11.234 187.688 10.646 187.968 9.484L188.78 9.96C188.36 11.43 187.856 12.172 187.268 12.172C186.708 12.172 186.176 11.878 185.658 11.318C185.574 11.22 185.49 11.122 185.434 11.038C184.972 11.528 184.482 11.92 183.978 12.228L183.46 11.444C184.006 11.122 184.51 10.702 184.958 10.198C184.734 9.75 184.538 9.232 184.37 8.658C184.146 7.874 184.006 6.908 183.936 5.746H178.224V7.58C178.182 9.428 177.706 10.926 176.81 12.06L176.054 11.374C176.81 10.464 177.202 9.204 177.244 7.58V4.822H183.894C183.866 4.402 183.866 3.954 183.866 3.506H184.832C184.832 3.968 184.832 4.402 184.86 4.822H186.386C186.246 4.43 186.092 4.066 185.924 3.73L186.82 3.576C186.974 3.94 187.128 4.36 187.268 4.822H188.206ZM177.678 12.326L178.602 12.522C178.21 13.838 177.678 14.972 176.978 15.938L176.124 15.392C176.824 14.468 177.342 13.446 177.678 12.326ZM184.244 16.176H180.772C179.946 16.176 179.54 15.728 179.54 14.846V12.172H180.562V14.636C180.562 15.028 180.73 15.224 181.08 15.224H184.062C184.342 15.224 184.552 15.154 184.678 15.014C184.818 14.846 184.93 14.37 184.986 13.558L185.938 13.88C185.854 14.972 185.672 15.63 185.392 15.882C185.14 16.078 184.762 16.176 184.244 16.176ZM186.89 12.62C187.73 13.544 188.36 14.356 188.794 15.056L187.996 15.63C187.52 14.874 186.89 14.034 186.078 13.124L186.89 12.62ZM182.41 11.934C183.068 12.634 183.572 13.264 183.922 13.796L183.166 14.328C182.802 13.74 182.298 13.096 181.654 12.396L182.41 11.934ZM190.068 9.89H197.894C198.93 7.986 199.784 5.9 200.484 3.632L201.492 3.982C200.68 6.39 199.826 8.35 198.958 9.89H202.752V10.87H190.068V9.89ZM191.902 4.444C192.602 5.69 193.26 7.062 193.876 8.546L192.924 9.022C192.308 7.482 191.664 6.096 190.964 4.892L191.902 4.444ZM195.304 3.632C195.99 4.948 196.634 6.404 197.222 7.972L196.298 8.434C195.682 6.824 195.038 5.368 194.352 4.08L195.304 3.632ZM193.904 11.64L194.8 12.088C193.848 13.698 192.7 15.084 191.384 16.26L190.558 15.672C191.86 14.552 192.98 13.208 193.904 11.64ZM198.986 11.584C200.4 13.124 201.478 14.468 202.234 15.602L201.338 16.232C200.554 15 199.49 13.628 198.146 12.116L198.986 11.584ZM213.35 11.43V12.326C213.126 12.424 212.902 12.508 212.692 12.592V14.818H211.796V12.928C210.774 13.292 209.71 13.614 208.618 13.894L208.408 13.026C208.758 12.956 209.094 12.886 209.43 12.802V4.976H208.674V4.094H213.322V4.976H212.692V11.724L213.35 11.43ZM211.796 12.074V10.31H210.326V12.564C210.83 12.41 211.32 12.242 211.796 12.074ZM210.326 9.484H211.796V7.706H210.326V9.484ZM210.326 6.88H211.796V4.976H210.326V6.88ZM204.488 5.452H206.126V3.562H207.092V5.452H208.632V6.362H207.092V8.406H208.898V9.33H207.456V11.29H208.856V12.158H207.456V14.748C207.582 14.804 207.708 14.86 207.82 14.902C208.632 15.182 210.494 15.322 213.406 15.322C214.876 15.308 215.982 15.294 216.71 15.266L216.528 16.246H213.63C210.228 16.246 208.1 16.05 207.26 15.658C206.518 15.308 205.86 14.706 205.3 13.838C205.132 14.79 204.894 15.672 204.614 16.484L203.886 15.84C204.432 14.174 204.74 12.312 204.796 10.24L205.636 10.338C205.608 11.15 205.552 11.92 205.468 12.662C205.79 13.25 206.14 13.712 206.532 14.076V9.33H204.278V8.406H206.126V6.362H204.488V5.452ZM213.252 5.102H216.542V5.788C216.458 7.678 216.15 9.344 215.604 10.8C216.024 11.864 216.416 12.942 216.78 14.034L216.024 14.384C215.73 13.516 215.436 12.676 215.128 11.892C214.638 12.872 214.036 13.726 213.322 14.482L212.748 13.81C213.56 12.928 214.19 11.906 214.666 10.73C214.162 9.526 213.644 8.406 213.112 7.37L213.896 7.104C214.316 7.902 214.708 8.714 215.072 9.554C215.38 8.462 215.576 7.272 215.66 5.984H213.252V5.102ZM223.066 5.984V15.532H222.086V14.734H219.538V15.938H218.558V5.984H219.86C220.14 5.2 220.336 4.388 220.462 3.548L221.47 3.688C221.302 4.514 221.092 5.284 220.812 5.984H223.066ZM219.538 13.796H222.086V10.73H219.538V13.796ZM219.538 9.82H222.086V6.936H219.538V9.82ZM225.502 9.232C226.51 10.394 227.266 11.416 227.798 12.284L227 12.844C226.426 11.92 225.656 10.884 224.69 9.736L225.502 9.232ZM230.304 5.998C230.304 10.646 230.234 13.53 230.094 14.622C229.954 15.686 229.31 16.232 228.134 16.232C227.854 16.232 227.378 16.204 226.706 16.176L226.468 15.252C227.056 15.28 227.56 15.294 227.994 15.294C228.652 15.294 229.03 14.93 229.142 14.216C229.226 13.432 229.282 11.01 229.31 6.978H225.46C225.068 7.86 224.606 8.658 224.06 9.372L223.458 8.574C224.438 7.202 225.096 5.522 225.46 3.534L226.454 3.66C226.286 4.486 226.09 5.27 225.838 5.998H230.304ZM240.216 3.632H241.252V7.804H244.444V8.798H241.252V14.93H244.78V15.924H236.604V14.93H240.216V8.798H237.094V7.804H240.216V3.632ZM234.168 10.548C233.608 11.108 232.992 11.682 232.306 12.256L231.998 11.192C233.93 9.596 235.232 8.028 235.876 6.502H232.334V5.536H234.49C234.266 4.92 234.014 4.332 233.72 3.772L234.686 3.506C234.994 4.206 235.246 4.836 235.428 5.424L235.134 5.536H236.898V6.39C236.534 7.398 235.946 8.406 235.162 9.414C235.974 9.876 236.716 10.422 237.416 11.052L236.856 11.92C236.282 11.332 235.722 10.842 235.162 10.45V16.372H234.168V10.548ZM250.016 6.39C251.304 7.37 252.508 8.35 253.614 9.33C254.412 8.308 255.098 7.132 255.686 5.802L256.596 6.292C255.966 7.72 255.238 8.966 254.398 10.03C255.49 11.038 256.484 12.032 257.38 13.012L256.596 13.796C255.77 12.816 254.818 11.822 253.726 10.814C252.494 12.13 251.08 13.138 249.47 13.838L248.882 12.928C250.45 12.284 251.808 11.332 252.956 10.1C251.85 9.12 250.632 8.112 249.288 7.09L250.016 6.39ZM247.062 4.136H258.178V5.102H248.028V14.846H258.584V15.812H247.062V4.136ZM261.132 3.702C262.084 4.444 262.896 5.172 263.554 5.9L262.84 6.614C262.252 5.914 261.454 5.172 260.432 4.36L261.132 3.702ZM269.308 16.148C268.552 16.148 267.74 16.134 266.858 16.12C265.976 16.106 265.248 16.022 264.688 15.868C264.156 15.7 263.666 15.35 263.232 14.846C263.05 14.608 262.868 14.496 262.7 14.496C262.364 14.496 261.804 15.14 261.02 16.428L260.264 15.742C261.02 14.566 261.678 13.852 262.266 13.6V9.344H260.264V8.42H263.204V13.67C263.316 13.754 263.414 13.852 263.526 13.978C263.862 14.384 264.212 14.678 264.604 14.86C265.024 15.056 265.654 15.168 266.466 15.196C267.194 15.21 268.09 15.224 269.168 15.224C269.84 15.224 270.526 15.21 271.226 15.196C271.898 15.182 272.43 15.168 272.808 15.14L272.556 16.148H269.308ZM265.122 4.36H271.548V5.284H265.122V4.36ZM264.268 7.538H272.57V8.504H268.202C267.432 10.492 266.746 11.906 266.13 12.746C267.95 12.55 269.448 12.298 270.638 12.018C270.302 11.234 269.924 10.478 269.518 9.75L270.344 9.484C271.1 10.772 271.772 12.242 272.36 13.894L271.464 14.132C271.324 13.698 271.17 13.278 271.002 12.886C269.462 13.25 267.446 13.544 264.954 13.782L264.702 12.9C265.29 12.732 266.116 11.262 267.208 8.504H264.268V7.538ZM276.952 8.672H283.924V11.514H276.952V8.672ZM282.986 10.744V9.456H277.89V10.744H282.986ZM285.254 12.466V16.414H284.288V15.84H276.686V16.414H275.706V12.466H285.254ZM276.686 14.986H284.288V13.306H276.686V14.986ZM274.39 4.528H277.54V3.59H278.548V4.528H282.272V3.59H283.28V4.528H286.43V5.41H283.28V6.236H282.272V5.41H278.548V6.236H277.54V5.41H274.39V4.528ZM286.038 6.824V9.442H285.072V7.678H275.748V9.512H274.782V6.824H286.038ZM11.9 23.422H12.88C12.32 24.346 11.872 25.312 11.55 26.32C11.13 27.552 10.934 28.756 10.934 29.96C10.934 31.15 11.13 32.368 11.55 33.6C11.872 34.594 12.32 35.56 12.88 36.498H11.9C11.284 35.588 10.808 34.622 10.458 33.614C10.038 32.41 9.842 31.192 9.842 29.974C9.842 28.728 10.038 27.51 10.458 26.306C10.808 25.284 11.284 24.318 11.9 23.422ZM14.896 25.928H20.692C20.314 25.186 19.852 24.486 19.292 23.828L20.3 23.464C20.832 24.136 21.308 24.962 21.756 25.928H27.104V26.936H24.92C24.234 29.148 23.198 31.01 21.826 32.494C23.31 33.754 25.172 34.79 27.412 35.616L26.866 36.456C24.542 35.588 22.638 34.51 21.126 33.208C19.53 34.678 17.542 35.756 15.162 36.442L14.63 35.56C16.982 34.93 18.914 33.936 20.426 32.564C18.802 30.968 17.682 29.092 17.052 26.936H14.896V25.928ZM18.046 26.936C18.648 28.826 19.67 30.464 21.126 31.864C22.372 30.506 23.282 28.868 23.87 26.936H18.046ZM41.3 31.15L41.454 32.13L40.04 32.354V36.358H39.018V32.522L34.65 33.236L34.51 32.256L39.018 31.528V23.618H40.04V31.36L41.3 31.15ZM35.84 24.346C36.848 25.06 37.688 25.774 38.374 26.502L37.688 27.202C37.072 26.516 36.218 25.788 35.126 25.032L35.84 24.346ZM35.42 27.566C36.442 28.322 37.31 29.064 38.01 29.82L37.296 30.534C36.666 29.82 35.798 29.064 34.706 28.252L35.42 27.566ZM28.882 27.342H31.178V25.27C30.506 25.368 29.82 25.452 29.092 25.522L28.896 24.57C30.716 24.43 32.34 24.136 33.74 23.716L34.09 24.668C33.488 24.836 32.858 24.976 32.186 25.102V27.342H34.118V28.308H32.186V28.994C32.97 29.624 33.782 30.338 34.594 31.122L34.02 31.976C33.292 31.122 32.69 30.45 32.186 29.96V36.358H31.178V29.82C30.618 31.192 29.876 32.438 28.924 33.558L28.49 32.438C29.68 31.234 30.534 29.848 31.066 28.308H28.882V27.342ZM45.374 27.146C44.814 28.42 44.1 29.484 43.232 30.352L42.588 29.526C43.904 28.154 44.8 26.292 45.262 23.954L46.284 24.136C46.13 24.864 45.948 25.536 45.738 26.166H48.734V23.674H49.756V26.166H54.362V27.146H49.756V30.38H54.082V31.36H49.756V34.916H55.258V35.924H42.924V34.916H48.734V31.36H44.618V30.38H48.734V27.146H45.374ZM57.036 25.494H60.886C60.97 24.878 61.04 24.234 61.11 23.576H62.118C62.048 24.248 61.978 24.892 61.894 25.494H69.16V26.474H61.754C61.628 27.23 61.502 27.93 61.362 28.574H67.774V29.456C67.214 30.996 66.318 32.326 65.1 33.446C66.262 34.328 67.69 34.986 69.37 35.434L68.866 36.358C67.032 35.826 65.52 35.07 64.33 34.104C63.098 35.028 61.6 35.798 59.864 36.4L59.332 35.448C61.026 34.93 62.44 34.258 63.588 33.446C62.482 32.354 61.698 31.038 61.236 29.512H61.138C60.97 30.184 60.774 30.786 60.578 31.318C59.85 33.166 58.758 34.804 57.302 36.26L56.672 35.448C57.988 34.09 58.982 32.578 59.654 30.926C60.102 29.722 60.466 28.238 60.746 26.474H57.036V25.494ZM62.174 29.512C62.65 30.814 63.378 31.92 64.358 32.83C65.436 31.878 66.22 30.772 66.71 29.512H62.174ZM72.982 23.408L73.976 23.492C73.808 24.472 73.64 25.396 73.472 26.236H75.894V26.81C75.768 29.022 75.306 30.954 74.522 32.592C75.334 33.222 75.992 33.796 76.51 34.3L75.824 35.098C75.348 34.594 74.746 34.062 74.046 33.474C73.346 34.636 72.45 35.63 71.372 36.456L70.686 35.616C71.75 34.846 72.604 33.922 73.262 32.83C72.618 32.312 71.89 31.766 71.106 31.192C71.54 29.96 71.918 28.63 72.254 27.202H70.77V26.236H72.464C72.66 25.312 72.828 24.374 72.982 23.408ZM73.71 31.976C74.382 30.59 74.774 28.994 74.9 27.202H73.262C72.926 28.686 72.576 29.918 72.212 30.898C72.744 31.276 73.248 31.64 73.71 31.976ZM76.37 29.442H79.534V27.678C80.29 27.02 81.004 26.222 81.69 25.27H76.776V24.29H82.838V25.27C82.166 26.236 81.396 27.146 80.556 27.986V29.442H83.412V30.422H80.556V34.902C80.556 35.798 80.178 36.246 79.45 36.246H77.434L77.168 35.294C77.742 35.294 78.372 35.308 79.044 35.308C79.366 35.308 79.534 35.07 79.534 34.594V30.422H76.37V29.442ZM86.856 25.004H88.158L87.934 32.312H87.066L86.856 25.004ZM87.5 33.334C87.738 33.334 87.948 33.404 88.116 33.572C88.27 33.726 88.354 33.922 88.354 34.16C88.354 34.412 88.27 34.608 88.116 34.762C87.948 34.916 87.738 35 87.5 35C87.262 35 87.066 34.916 86.898 34.762C86.73 34.594 86.66 34.398 86.66 34.16C86.66 33.922 86.73 33.726 86.898 33.572C87.066 33.404 87.262 33.334 87.5 33.334ZM100.856 25.004H102.158L101.934 32.312H101.066L100.856 25.004ZM101.5 33.334C101.738 33.334 101.948 33.404 102.116 33.572C102.27 33.726 102.354 33.922 102.354 34.16C102.354 34.412 102.27 34.608 102.116 34.762C101.948 34.916 101.738 35 101.5 35C101.262 35 101.066 34.916 100.898 34.762C100.73 34.594 100.66 34.398 100.66 34.16C100.66 33.922 100.73 33.726 100.898 33.572C101.066 33.404 101.262 33.334 101.5 33.334ZM114.856 25.004H116.158L115.934 32.312H115.066L114.856 25.004ZM115.5 33.334C115.738 33.334 115.948 33.404 116.116 33.572C116.27 33.726 116.354 33.922 116.354 34.16C116.354 34.412 116.27 34.608 116.116 34.762C115.948 34.916 115.738 35 115.5 35C115.262 35 115.066 34.916 114.898 34.762C114.73 34.594 114.66 34.398 114.66 34.16C114.66 33.922 114.73 33.726 114.898 33.572C115.066 33.404 115.262 33.334 115.5 33.334ZM7.154 70.072V71.094C6.342 71.36 5.502 71.612 4.606 71.85V75C4.606 75.812 4.172 76.218 3.318 76.218H1.764L1.554 75.252C2.044 75.294 2.52 75.322 2.982 75.322C3.374 75.322 3.57 75.126 3.57 74.748V72.088C2.674 72.284 1.764 72.466 0.812 72.62L0.672 71.598C1.694 71.43 2.66 71.262 3.57 71.066V68.308H0.686V67.342H3.57V65.466C2.828 65.62 2.058 65.746 1.26 65.858L1.05 64.892C3.038 64.668 4.802 64.262 6.342 63.66L6.678 64.612C6.034 64.836 5.334 65.046 4.606 65.242V67.342H7.966C7.882 66.208 7.84 64.962 7.84 63.59H8.848C8.862 65.004 8.904 66.25 8.988 67.342H13.314V68.308H9.072C9.17 69.316 9.296 70.156 9.464 70.842C9.548 71.206 9.646 71.528 9.744 71.836C10.416 71.024 11.018 70.1 11.522 69.064L12.39 69.526C11.746 70.842 10.99 71.962 10.108 72.9C10.304 73.376 10.5 73.782 10.724 74.104C11.172 74.776 11.536 75.126 11.802 75.126C12.082 75.112 12.32 74.328 12.544 72.76L13.426 73.222C13.09 75.21 12.6 76.204 11.956 76.204C11.382 76.204 10.78 75.784 10.136 74.944C9.856 74.566 9.59 74.118 9.366 73.614C8.358 74.51 7.21 75.21 5.936 75.714L5.39 74.846C6.762 74.342 7.952 73.6 8.974 72.634C8.806 72.158 8.652 71.64 8.512 71.094C8.316 70.296 8.162 69.372 8.05 68.308H4.606V70.828C5.516 70.59 6.37 70.338 7.154 70.072ZM10.388 63.744C11.396 64.416 12.25 65.074 12.95 65.746L12.222 66.474C11.606 65.83 10.78 65.13 9.716 64.388L10.388 63.744ZM25.438 76.288H24.108L23.856 75.35L25.228 75.378C25.648 75.378 25.858 75.112 25.858 74.594V65.438H22.456V64.472H26.852V74.874C26.852 75.812 26.376 76.288 25.438 76.288ZM20.468 63.562C21.126 64.388 21.63 65.116 21.994 65.746L21.196 66.306C20.832 65.62 20.328 64.864 19.698 64.052L20.468 63.562ZM17.822 63.478L18.732 63.898C18.368 65.004 17.892 66.054 17.318 67.048V76.428H16.31V68.574C15.848 69.19 15.344 69.792 14.798 70.352L14.476 69.33C16.016 67.622 17.122 65.676 17.822 63.478ZM19.04 65.942H20.02V76.386H19.04V65.942ZM33.026 70.086H36.232V67.482H37.254V70.086H40.6V71.066H37.254V74.93H41.23V75.924H32.452V74.93H36.232V71.066H33.026V70.086ZM30.772 70.702C30.254 71.234 29.708 71.752 29.12 72.242L28.49 71.416C30.24 69.974 31.598 68.322 32.578 66.46H28.98V65.466H33.054C33.334 64.822 33.586 64.15 33.782 63.464L34.832 63.59C34.636 64.234 34.426 64.864 34.174 65.466H41.216V66.46H33.726C33.18 67.566 32.522 68.602 31.766 69.554V76.442H30.772V70.702ZM51.282 68.574C51.058 69.036 50.82 69.456 50.568 69.82L49.966 69.092C50.806 67.762 51.366 65.97 51.66 63.702L52.598 63.87C52.5 64.528 52.388 65.144 52.248 65.732H55.272V66.67H54.614C54.572 69.19 54.18 71.29 53.438 72.942C53.984 73.978 54.67 74.902 55.51 75.686L54.81 76.358C54.068 75.616 53.438 74.79 52.934 73.894C52.318 74.916 51.562 75.742 50.638 76.386L50.05 75.616C51.058 74.958 51.856 74.062 52.444 72.928C51.856 71.626 51.464 70.17 51.282 68.574ZM52.92 71.822C53.438 70.38 53.704 68.658 53.732 66.67H51.996L51.912 66.964C52.01 68.784 52.346 70.408 52.92 71.822ZM45.318 63.604L46.228 64.038C45.92 65.046 45.556 65.998 45.108 66.894V76.428H44.128V68.602C43.722 69.204 43.288 69.792 42.812 70.352L42.49 69.274C43.778 67.622 44.73 65.732 45.318 63.604ZM50.162 69.932V74.776H47.152V75.686H46.2V69.932H47.698V67.188H45.878V66.25H47.698V63.758H48.65V66.25H50.442V67.188H48.65V69.932H50.162ZM47.152 73.894H49.21V70.828H47.152V73.894ZM56.7 69.358H69.286V70.366H56.7V69.358ZM76.482 67.706H77.518V76.386H76.482V67.706ZM76.552 63.576H77.448C78.624 65.508 80.64 67.202 83.496 68.672L82.894 69.582C80.262 68.21 78.288 66.53 77 64.514C75.446 66.726 73.486 68.434 71.106 69.638L70.504 68.728C73.122 67.398 75.138 65.676 76.552 63.576ZM84.77 64.122H97.23V65.102H91.616C91.504 65.718 91.322 66.32 91.098 66.894H96.474V76.442H95.508V75.742H86.534V76.442H85.568V66.894H90.076C90.3 66.306 90.482 65.718 90.594 65.102H84.77V64.122ZM86.534 74.818H88.466V67.804H86.534V74.818ZM89.404 74.818H92.596V73.026H89.404V74.818ZM93.534 74.818H95.508V67.804H93.534V74.818ZM89.404 72.144H92.596V70.436H89.404V72.144ZM89.404 69.54H92.596V67.804H89.404V69.54ZM102.438 68.546H107.604V73.446H102.438V68.546ZM106.624 72.494V69.498H103.418V72.494H106.624ZM104.09 63.52L105.14 63.66C104.972 64.36 104.734 65.004 104.426 65.606H110.6V74.944C110.6 75.854 110.166 76.316 109.326 76.316H107.226L106.946 75.294L108.99 75.336C109.382 75.336 109.592 75.126 109.592 74.72V66.572H100.52V76.372H99.512V65.606H103.362C103.698 64.934 103.936 64.248 104.09 63.52ZM118.006 68.952H115.024V74.734C115.024 75.056 115.192 75.224 115.556 75.224H118.23C118.706 75.224 119.014 75.098 119.126 74.874C119.252 74.608 119.35 74.09 119.406 73.32L120.358 73.628C120.26 74.818 120.078 75.546 119.826 75.826C119.602 76.05 119.154 76.162 118.496 76.162H115.164C114.38 76.162 114.002 75.798 114.002 75.084V68.056H118.986V71.78C118.972 72.536 118.58 72.928 117.81 72.956C117.278 72.956 116.76 72.942 116.27 72.914L116.018 71.962C116.55 72.018 117.026 72.046 117.446 72.046C117.81 72.046 118.006 71.85 118.006 71.472V68.952ZM116.228 63.688H116.97C118.188 64.976 119.364 66.334 120.484 67.762L119.826 68.462C118.622 66.866 117.572 65.592 116.676 64.64C115.64 66.18 114.45 67.594 113.078 68.882L112.49 68.07C113.862 66.824 115.108 65.368 116.228 63.688ZM121.31 64.794H122.29V73.516H121.31V64.794ZM123.648 76.274H121.478L121.254 75.308C121.968 75.35 122.654 75.378 123.298 75.378C123.648 75.378 123.83 75.168 123.83 74.748V63.604H124.838V75C124.838 75.84 124.432 76.274 123.648 76.274ZM127.778 63.674C128.73 64.444 129.514 65.214 130.158 65.984L129.458 66.684C128.884 65.956 128.1 65.158 127.092 64.318L127.778 63.674ZM135.898 76.148C135.142 76.148 134.302 76.134 133.406 76.12C132.51 76.106 131.768 76.022 131.208 75.868C130.662 75.7 130.172 75.35 129.738 74.846C129.542 74.608 129.36 74.496 129.192 74.496C128.842 74.496 128.282 75.14 127.498 76.456L126.742 75.77C127.498 74.58 128.156 73.852 128.744 73.6V69.344H126.756V68.42H129.682V73.656C129.794 73.74 129.906 73.852 130.018 73.978C130.354 74.384 130.718 74.678 131.11 74.86C131.544 75.056 132.174 75.168 133.014 75.196C133.742 75.21 134.666 75.224 135.758 75.224C136.43 75.224 137.116 75.21 137.816 75.196C138.502 75.182 139.034 75.168 139.412 75.14L139.16 76.148H135.898ZM132.51 66.194C132.272 66.698 132.006 67.174 131.712 67.608L130.872 67.09C131.544 66.124 132.048 65.046 132.356 63.87L133.266 64.066C133.154 64.486 133.028 64.878 132.888 65.256H134.666V63.576H135.632V65.256H138.502V66.194H135.632V68.014H139.23V68.938H130.662V68.014H134.666V66.194H132.51ZM131.866 70.058H138.138V73.992H131.866V70.058ZM137.158 73.054V70.996H132.846V73.054H137.158ZM142.044 65.018H145.88V63.534H146.916V65.018H150.22V65.956H146.916V67.622H148.68C149.996 66.684 151.158 65.62 152.152 64.444L152.922 65.004C152.096 65.984 151.214 66.866 150.276 67.622H153.272V68.574H149.002C148.792 68.714 148.582 68.84 148.372 68.98C147.728 69.372 146.986 69.75 146.174 70.128H151.466V76.428H150.458V75.798H144.396V76.428H143.374V71.276C142.618 71.556 141.834 71.822 141.022 72.088L140.602 71.15C142.996 70.59 145.18 69.722 147.168 68.574H140.798V67.622H145.88V65.956H142.044V65.018ZM144.396 73.376V74.902H150.458V73.376H144.396ZM150.458 72.48V71.01H144.396V72.48H150.458ZM159.656 65.984V75.532H158.676V74.734H156.128V75.938H155.148V65.984H156.45C156.73 65.2 156.926 64.388 157.052 63.548L158.06 63.688C157.892 64.514 157.682 65.284 157.402 65.984H159.656ZM156.128 73.796H158.676V70.73H156.128V73.796ZM156.128 69.82H158.676V66.936H156.128V69.82ZM162.092 69.232C163.1 70.394 163.856 71.416 164.388 72.284L163.59 72.844C163.016 71.92 162.246 70.884 161.28 69.736L162.092 69.232ZM166.894 65.998C166.894 70.646 166.824 73.53 166.684 74.622C166.544 75.686 165.9 76.232 164.724 76.232C164.444 76.232 163.968 76.204 163.296 76.176L163.058 75.252C163.646 75.28 164.15 75.294 164.584 75.294C165.242 75.294 165.62 74.93 165.732 74.216C165.816 73.432 165.872 71.01 165.9 66.978H162.05C161.658 67.86 161.196 68.658 160.65 69.372L160.048 68.574C161.028 67.202 161.686 65.522 162.05 63.534L163.044 63.66C162.876 64.486 162.68 65.27 162.428 65.998H166.894ZM176.806 63.632H177.842V67.804H181.034V68.798H177.842V74.93H181.37V75.924H173.194V74.93H176.806V68.798H173.684V67.804H176.806V63.632ZM170.758 70.548C170.198 71.108 169.582 71.682 168.896 72.256L168.588 71.192C170.52 69.596 171.822 68.028 172.466 66.502H168.924V65.536H171.08C170.856 64.92 170.604 64.332 170.31 63.772L171.276 63.506C171.584 64.206 171.836 64.836 172.018 65.424L171.724 65.536H173.488V66.39C173.124 67.398 172.536 68.406 171.752 69.414C172.564 69.876 173.306 70.422 174.006 71.052L173.446 71.92C172.872 71.332 172.312 70.842 171.752 70.45V76.372H170.758V70.548ZM182.812 65.228H188.594C188.342 64.654 188.062 64.136 187.754 63.66L188.874 63.464C189.154 63.996 189.434 64.584 189.686 65.228H195.202V66.194H182.812V65.228ZM191.212 66.614C192.766 67.846 194.068 69.064 195.118 70.296L194.376 71.038C193.452 69.862 192.164 68.616 190.526 67.272L191.212 66.614ZM191.352 69.232L192.276 69.638C191.604 70.926 190.792 72.032 189.826 72.97C191.338 74.062 193.172 74.874 195.356 75.434L194.726 76.372C192.458 75.728 190.568 74.832 189.056 73.656C187.488 74.916 185.584 75.84 183.344 76.428L182.728 75.504C184.94 74.944 186.774 74.104 188.244 72.984C187.222 72.06 186.382 70.996 185.724 69.82L186.592 69.33C187.208 70.478 188.02 71.472 189.014 72.326C189.966 71.43 190.75 70.408 191.352 69.232ZM186.704 66.628L187.432 67.272C186.368 68.658 185.052 69.876 183.484 70.912L182.84 70.058C184.366 69.078 185.654 67.944 186.704 66.628ZM197.358 64.192H208.67V65.172H203.462V70.464H209.202V71.43H203.462V76.386H202.426V71.43H196.798V70.464H202.426V65.172H197.358V64.192ZM199.066 66.068C199.598 67.048 200.102 68.112 200.578 69.274L199.64 69.736C199.164 68.532 198.66 67.468 198.128 66.53L199.066 66.068ZM207.004 65.998L207.928 66.432C207.508 67.538 206.948 68.616 206.262 69.68L205.366 69.218C206.052 68.126 206.598 67.062 207.004 65.998ZM221.676 70.576V76.414H220.654V75.714H213.346V76.414H212.324V70.576H221.676ZM213.346 74.748H220.654V71.542H213.346V74.748ZM211.33 69.134L211.134 68.182C212.366 67.762 213.892 66.208 215.712 63.534L216.748 63.884C215.488 65.676 214.214 67.104 212.954 68.14C215.642 68.028 218.19 67.846 220.598 67.622C220.066 66.866 219.52 66.152 218.96 65.508L219.87 65.074C221.074 66.474 222.194 68.028 223.23 69.722L222.25 70.198C221.9 69.61 221.55 69.064 221.214 68.532C218.26 68.798 214.97 68.994 211.33 69.134ZM226.604 73.334C226.912 73.334 227.178 73.46 227.374 73.726C227.556 73.978 227.654 74.3 227.654 74.706C227.654 75.322 227.472 75.868 227.108 76.344C226.744 76.792 226.254 77.1 225.666 77.254V76.568C226.03 76.442 226.324 76.232 226.548 75.952C226.744 75.658 226.856 75.35 226.856 75.014C226.8 75.042 226.688 75.07 226.548 75.07C226.31 75.07 226.114 74.986 225.946 74.818C225.778 74.65 225.694 74.44 225.694 74.202C225.694 73.936 225.778 73.726 225.946 73.572C226.114 73.404 226.324 73.334 226.604 73.334ZM249.704 64.248V76.386H248.696V75.476H241.332V76.414H240.31V64.248H249.704ZM241.332 74.496H248.696V71.864H241.332V74.496ZM241.332 70.94H248.696V68.476H241.332V70.94ZM241.332 67.552H248.696V65.228H241.332V67.552ZM261.45 63.464L262.43 63.8C262.136 64.36 261.814 64.864 261.478 65.312H265.258V66.292H252.728V65.312H256.564C256.284 64.724 255.99 64.206 255.654 63.73L256.718 63.548C257.026 64.066 257.334 64.654 257.642 65.312H260.372C260.778 64.724 261.142 64.108 261.45 63.464ZM257.586 76.316H256.48L256.214 75.322L257.264 75.364C257.628 75.364 257.81 75.126 257.81 74.664V73.362H254.688V76.428H253.708V67.426H258.79V74.888C258.79 75.84 258.384 76.316 257.586 76.316ZM254.688 72.466H257.81V70.87H254.688V72.466ZM254.688 69.974H257.81V68.364H254.688V69.974ZM263.032 76.274H261.17L260.96 75.308C261.548 75.35 262.122 75.378 262.682 75.378C263.074 75.378 263.27 75.154 263.27 74.734V67.034H264.278V74.986C264.278 75.84 263.858 76.274 263.032 76.274ZM260.358 68.084H261.338V74.118H260.358V68.084ZM277.69 69.904H268.898V74.034C268.898 74.65 269.22 74.972 269.864 74.972H276.892C277.228 74.972 277.508 74.888 277.718 74.72C277.998 74.468 278.18 73.572 278.264 72.032L279.244 72.34C279.104 74.076 278.866 75.112 278.53 75.476C278.222 75.77 277.76 75.924 277.172 75.952H269.584C268.45 75.952 267.89 75.364 267.89 74.216V66.866H268.898V68.938H276.668V65.284H267.33V64.304H277.69V69.904ZM282.324 73.334C282.576 73.334 282.772 73.404 282.94 73.572C283.094 73.726 283.178 73.922 283.178 74.16C283.178 74.412 283.094 74.608 282.94 74.762C282.772 74.916 282.562 75 282.324 75C282.086 75 281.89 74.916 281.736 74.762C281.568 74.594 281.484 74.398 281.484 74.16C281.484 73.922 281.568 73.726 281.736 73.572C281.89 73.404 282.086 73.334 282.324 73.334ZM287 73.334C287.238 73.334 287.448 73.404 287.616 73.572C287.77 73.726 287.854 73.922 287.854 74.16C287.854 74.412 287.77 74.608 287.616 74.762C287.448 74.916 287.238 75 287 75C286.762 75 286.566 74.916 286.398 74.762C286.23 74.594 286.16 74.398 286.16 74.16C286.16 73.922 286.23 73.726 286.398 73.572C286.566 73.404 286.762 73.334 287 73.334ZM291.662 73.334C291.9 73.334 292.096 73.404 292.264 73.572C292.432 73.726 292.516 73.922 292.516 74.16C292.516 74.412 292.432 74.608 292.264 74.762C292.096 74.916 291.9 75 291.662 75C291.424 75 291.228 74.916 291.06 74.762C290.892 74.594 290.822 74.398 290.822 74.16C290.822 73.922 290.892 73.726 291.06 73.572C291.228 73.404 291.424 73.334 291.662 73.334Z" fill="black"/>
</g>
<defs>
<linearGradient id="paint0_linear_16021_897" x1="147.5" y1="55" x2="147.5" y2="81" gradientUnits="userSpaceOnUse">
<stop stop-color="white"/>
<stop offset="1" stop-color="white" stop-opacity="0"/>
</linearGradient>
</defs>
</svg>
