<svg width="16" height="16" viewBox="0 0 16 16" fill="none" xmlns="http://www.w3.org/2000/svg">
<path d="M8.3125 15.1648C7.13826 15.1648 6.09659 15.0038 5.1875 14.6818C4.2822 14.3636 3.51894 13.8939 2.89773 13.2727C2.27652 12.6553 1.80492 11.8977 1.48295 11C1.16098 10.1023 1 9.07765 1 7.92614C1 6.80493 1.16288 5.79735 1.48864 4.90341C1.81439 4.00947 2.28788 3.24811 2.90909 2.61932C3.53409 1.98674 4.29356 1.50379 5.1875 1.17046C6.08144 0.837123 7.09659 0.670456 8.23295 0.670456C9.32008 0.670456 10.2784 0.840911 11.108 1.18182C11.9375 1.52273 12.6345 1.99053 13.1989 2.58523C13.767 3.17993 14.1951 3.86174 14.483 4.63068C14.7708 5.39962 14.9148 6.21212 14.9148 7.06818C14.9148 7.66667 14.8769 8.2519 14.8011 8.82387C14.7254 9.39205 14.5852 9.9072 14.3807 10.3693C14.1799 10.8277 13.8883 11.1951 13.5057 11.4716C13.1269 11.7443 12.6345 11.8864 12.0284 11.8977C11.7064 11.9091 11.3939 11.8712 11.0909 11.7841C10.7879 11.697 10.5303 11.5568 10.3182 11.3636C10.1061 11.1667 9.97727 10.9167 9.93182 10.6136H9.86364C9.77273 10.8371 9.62121 11.0455 9.40909 11.2386C9.19697 11.428 8.92614 11.5795 8.59659 11.6932C8.27083 11.803 7.89205 11.8485 7.46023 11.8295C6.98295 11.8106 6.55303 11.7027 6.17045 11.5057C5.78788 11.3087 5.46023 11.036 5.1875 10.6875C4.91856 10.339 4.71212 9.92614 4.56818 9.44887C4.42424 8.97159 4.35227 8.44129 4.35227 7.85796C4.35227 7.29735 4.43371 6.79546 4.59659 6.35227C4.75947 5.9053 4.98106 5.52084 5.26136 5.19887C5.54545 4.87311 5.87121 4.61553 6.23864 4.42614C6.60606 4.23674 6.99432 4.11743 7.40341 4.06818C7.80114 4.02273 8.16667 4.03409 8.5 4.10227C8.83333 4.17046 9.10985 4.27462 9.32955 4.41477C9.55303 4.55493 9.69318 4.70834 9.75 4.875H9.82386C9.82386 4.52355 10.1088 4.23864 10.4602 4.23864H10.5227C10.9087 4.23864 11.2216 4.55153 11.2216 4.9375V9.51137C11.2216 9.81061 11.2992 10.0644 11.4545 10.2727C11.6136 10.4811 11.839 10.5852 12.1307 10.5852C12.4754 10.5852 12.7443 10.4583 12.9375 10.2045C13.1345 9.95076 13.2727 9.56061 13.3523 9.03409C13.4356 8.50758 13.4773 7.83334 13.4773 7.01137C13.4773 6.43561 13.3996 5.89394 13.2443 5.38637C13.0928 4.875 12.8674 4.41288 12.5682 4C12.2727 3.58334 11.9091 3.22538 11.4773 2.92614C11.0455 2.6269 10.553 2.39583 10 2.23296C9.45076 2.07008 8.8428 1.98864 8.17614 1.98864C7.27083 1.98864 6.46591 2.12879 5.76136 2.40909C5.05682 2.68561 4.46212 3.08523 3.97727 3.60796C3.49621 4.13068 3.13068 4.75758 2.88068 5.48864C2.63447 6.21591 2.51136 7.0322 2.51136 7.9375C2.51136 8.88068 2.63826 9.71781 2.89205 10.4489C3.14583 11.1761 3.52083 11.7898 4.01705 12.2898C4.51326 12.7898 5.12689 13.1686 5.85795 13.4261C6.58902 13.6875 7.43182 13.8182 8.38636 13.8182C8.81061 13.8182 9.22727 13.7803 9.63636 13.7045C10.0455 13.6326 10.4091 13.5492 10.7273 13.4545C10.7432 13.4501 10.7589 13.4456 10.7744 13.4412C11.1457 13.3357 11.5463 13.5378 11.6638 13.9054C11.7683 14.2324 11.6129 14.5861 11.2858 14.6905C11.1695 14.7276 11.044 14.7645 10.9091 14.8011C10.5227 14.9072 10.1023 14.9943 9.64773 15.0625C9.19697 15.1307 8.75189 15.1648 8.3125 15.1648ZM7.78977 10.4375C8.2822 10.4375 8.67803 10.339 8.97727 10.142C9.2803 9.94508 9.49811 9.65152 9.63068 9.26137C9.76705 8.86743 9.83523 8.375 9.83523 7.78409C9.83144 7.20834 9.75758 6.75 9.61364 6.40909C9.47349 6.0644 9.25379 5.81818 8.95455 5.67046C8.65909 5.51894 8.27841 5.44318 7.8125 5.44318C7.38447 5.44318 7.01894 5.54735 6.71591 5.75568C6.41667 5.96402 6.1875 6.24621 6.02841 6.60227C5.87311 6.95834 5.79356 7.35417 5.78977 7.78977C5.79356 8.24811 5.85795 8.67993 5.98295 9.08523C6.11174 9.48674 6.32008 9.8125 6.60795 10.0625C6.89962 10.3125 7.29356 10.4375 7.78977 10.4375Z" fill="black"/>
</svg>
