<svg width="20" height="20" viewBox="0 0 20 20" fill="none" xmlns="http://www.w3.org/2000/svg">
<path d="M16.6667 13.3334H10.8334V16.6667H14.1667C15.5474 16.6667 16.6667 15.5474 16.6667 14.1667V13.3334ZM3.33335 14.1667C3.33335 15.5474 4.45264 16.6667 5.83335 16.6667H9.16669V8.33335H3.33335V14.1667ZM16.6667 5.83335C16.6667 4.45264 15.5474 3.33335 14.1667 3.33335H10.8334V11.6667H16.6667V5.83335ZM3.33335 6.66669H9.16669V3.33335H5.83335C4.45264 3.33335 3.33335 4.45264 3.33335 5.83335V6.66669ZM18.3334 14.1667C18.3334 16.4679 16.4679 18.3334 14.1667 18.3334H5.83335C3.53217 18.3334 1.66669 16.4679 1.66669 14.1667V5.83335C1.66669 3.53217 3.53217 1.66669 5.83335 1.66669H14.1667C16.4679 1.66669 18.3334 3.53217 18.3334 5.83335V14.1667Z" fill="black"/>
</svg>
