<svg width="14" height="14" viewBox="0 0 14 14" fill="none" xmlns="http://www.w3.org/2000/svg">
<path d="M2.91667 5.83331C3.561 5.83331 4.08333 6.35565 4.08333 6.99998C4.08333 7.64431 3.561 8.16665 2.91667 8.16665C2.27233 8.16665 1.75 7.64431 1.75 6.99998C1.75 6.35565 2.27233 5.83331 2.91667 5.83331Z" fill="#8A8A8E"/>
<path d="M7 5.83331C7.64433 5.83331 8.16667 6.35565 8.16667 6.99998C8.16667 7.64431 7.64433 8.16665 7 8.16665C6.35567 8.16665 5.83333 7.64431 5.83333 6.99998C5.83333 6.35565 6.35567 5.83331 7 5.83331Z" fill="#8A8A8E"/>
<path d="M11.0833 5.83331C11.7277 5.83331 12.25 6.35565 12.25 6.99998C12.25 7.64431 11.7277 8.16665 11.0833 8.16665C10.439 8.16665 9.91667 7.64431 9.91667 6.99998C9.91667 6.35565 10.439 5.83331 11.0833 5.83331Z" fill="#8A8A8E"/>
</svg>
