<svg width="12" height="12" viewBox="0 0 12 12" fill="none" xmlns="http://www.w3.org/2000/svg">
<path fill-rule="evenodd" clip-rule="evenodd" d="M6 3C7.10457 3 8 3.89543 8 5C8 6.10457 7.10457 7 6 7C4.89543 7 4 6.10457 4 5C4 3.89543 4.89543 3 6 3ZM6 4C5.44772 4 5 4.44772 5 5C5 5.55228 5.44772 6 6 6C6.55228 6 7 5.55228 7 5C7 4.44772 6.55228 4 6 4Z" fill="#DCDCDD"/>
<path fill-rule="evenodd" clip-rule="evenodd" d="M6 0.5C7.19347 0.5 8.33822 0.973957 9.18213 1.81787C10.026 2.66178 10.5 3.80653 10.5 5C10.5 6.41684 9.72369 7.80149 8.89697 8.8877C8.05876 9.98901 7.10509 10.8654 6.62744 11.2778C6.61893 11.2852 6.61007 11.2926 6.60107 11.2993C6.42781 11.4296 6.21678 11.5 6 11.5C5.78322 11.5 5.57219 11.4296 5.39893 11.2993C5.38993 11.2926 5.38107 11.2852 5.37256 11.2778C4.89491 10.8654 3.94124 9.98901 3.10303 8.8877C2.27631 7.80149 1.5 6.41684 1.5 5C1.5 3.80653 1.97396 2.66178 2.81787 1.81787C3.66178 0.973957 4.80653 0.5 6 0.5ZM6 1.5C5.07174 1.5 4.18128 1.86853 3.5249 2.5249C2.86853 3.18128 2.5 4.07174 2.5 5C2.5 6.07966 3.10839 7.24356 3.89893 8.28223C4.66304 9.28614 5.53987 10.0992 6 10.4985C6.46013 10.0992 7.33696 9.28614 8.10107 8.28223C8.89161 7.24356 9.5 6.07966 9.5 5C9.5 4.07174 9.13147 3.18128 8.4751 2.5249C7.81872 1.86853 6.92826 1.5 6 1.5Z" fill="#DCDCDD"/>
</svg>
