<svg width="20" height="20" viewBox="0 0 20 20" fill="none" xmlns="http://www.w3.org/2000/svg">
<path d="M17.5 5.00002C17.5 4.07955 16.7538 3.33335 15.8333 3.33335H4.16665C3.24617 3.33335 2.49998 4.07955 2.49998 5.00002V12.5C2.49998 13.4205 3.24617 14.1667 4.16665 14.1667H9.99998C10.4602 14.1667 10.8333 14.5398 10.8333 15V16.3159L13.6889 14.3172L13.7988 14.2521C13.9127 14.1961 14.0386 14.1667 14.1666 14.1667H15.8333C16.7538 14.1667 17.5 13.4205 17.5 12.5V5.00002ZM19.1666 12.5C19.1666 14.341 17.6743 15.8334 15.8333 15.8334H14.4295L10.4777 18.5995C10.2231 18.7776 9.8906 18.7991 9.61505 18.6556C9.33953 18.5121 9.16665 18.2274 9.16665 17.9167V15.8334H4.16665C2.3257 15.8334 0.833313 14.341 0.833313 12.5V5.00002C0.833313 3.15907 2.3257 1.66669 4.16665 1.66669H15.8333C17.6743 1.66669 19.1666 3.15907 19.1666 5.00002V12.5Z" fill="#007AFF"/>
</svg>
