<svg width="20" height="20" viewBox="0 0 20 20" fill="none" xmlns="http://www.w3.org/2000/svg">
<g clip-path="url(#clip0_16021_4212)">
<path fill-rule="evenodd" clip-rule="evenodd" d="M9.99998 0.833313C10.177 0.833313 10.3528 0.839688 10.5273 0.849589C10.5357 0.850067 10.545 0.850716 10.5534 0.851217C10.8453 0.868604 11.1337 0.898278 11.4176 0.942362C11.4927 0.953946 11.567 0.968842 11.6414 0.982239C11.7121 0.995017 11.7829 1.0061 11.853 1.02049C11.9857 1.04764 12.1172 1.07873 12.2477 1.11163C16.2235 2.11393 19.1666 5.71293 19.1666 9.99998C19.1666 15.0626 15.0626 19.1666 9.99998 19.1666C4.93737 19.1666 0.833313 15.0626 0.833313 9.99998C0.833313 8.12584 1.39635 6.38346 2.36163 4.93162C2.36522 4.92623 2.36862 4.92072 2.37221 4.91534C2.42743 4.83268 2.48531 4.75195 2.54311 4.6712C2.57312 4.62926 2.60194 4.58647 2.63263 4.54506C4.30282 2.29304 6.98085 0.833313 9.99998 0.833313ZM12.605 13.6946L12.6041 13.6955L10.4223 17.487C12.5026 17.3715 14.3547 16.4078 15.6429 14.9365L13.7646 11.6699L12.605 13.6946ZM3.72963 14.1137C4.8205 15.7731 6.55127 16.9728 8.57176 17.3624L10.4411 14.1137H3.72963ZM13.3203 7.54718L14.4857 9.58169L16.6829 13.4017C17.2038 12.3804 17.5 11.2251 17.5 9.99998C17.5 9.14083 17.3542 8.31589 17.0882 7.54718H13.3203ZM3.31785 6.59422C2.79582 7.6164 2.49998 8.77345 2.49998 9.99998C2.49998 10.857 2.64541 11.68 2.91014 12.4471H6.68048L5.5143 10.4126L3.31785 6.59422ZM7.19643 9.99673L8.60105 12.4471H11.3989L12.8027 9.99673L11.3989 7.54718H8.60105L7.19643 9.99673ZM9.57111 2.513C7.49455 2.63008 5.64461 3.59173 4.35789 5.0602L6.23452 8.32273L7.395 6.29881L7.39581 6.29799L9.57111 2.513ZM9.55809 5.88051H16.2663C15.1743 4.22281 13.4436 3.02405 11.4233 2.63588L9.55809 5.88051Z" fill="black"/>
</g>
<defs>
<clipPath id="clip0_16021_4212">
<rect width="20" height="20" fill="white"/>
</clipPath>
</defs>
</svg>
