<svg width="12" height="12" viewBox="0 0 12 12" fill="none" xmlns="http://www.w3.org/2000/svg">
<g clip-path="url(#clip0_16021_4681)">
<path fill-rule="evenodd" clip-rule="evenodd" d="M6.00635 0.499977C6.31736 0.503852 6.62348 0.578014 6.90186 0.716774C7.1803 0.855597 7.42394 1.0556 7.61426 1.30174C7.80454 1.54783 7.93669 1.8338 8.00098 2.13816C8.06516 2.44215 8.06011 2.7569 7.98584 3.05857L7.98535 3.06004L7.63574 4.49998H9.91504C10.1479 4.49998 10.3777 4.55405 10.5859 4.65818C10.7942 4.76232 10.9755 4.91379 11.1152 5.10008C11.2549 5.28634 11.349 5.50286 11.3906 5.73191C11.4322 5.9609 11.4201 6.19646 11.355 6.4199L10.1899 10.4199C10.0991 10.7315 9.90955 11.0054 9.6499 11.2002C9.39028 11.3948 9.0745 11.5 8.75 11.5H2C1.60217 11.5 1.22076 11.3418 0.939453 11.0605C0.658161 10.7792 0.5 10.3978 0.5 9.99998V5.99998C0.50001 5.60217 0.658158 5.22073 0.939453 4.93943C1.22076 4.65814 1.60218 4.49998 2 4.49998H3.37988C3.47285 4.4999 3.56405 4.47378 3.64307 4.42478C3.72202 4.37579 3.78578 4.30583 3.82715 4.22263C3.82737 4.22218 3.8279 4.22162 3.82812 4.22117L5.55273 0.776345C5.63848 0.605099 5.81485 0.497606 6.00635 0.499977ZM4.72217 4.66843C4.59797 4.91792 4.40678 5.128 4.16992 5.27488C4.11521 5.3088 4.0582 5.33826 4 5.36472V10.5H8.75C8.85816 10.5 8.96327 10.4648 9.0498 10.3999C9.1363 10.335 9.19967 10.2439 9.22998 10.1401L10.395 6.14011C10.4168 6.0656 10.4206 5.98699 10.4067 5.91062C10.3929 5.83428 10.3615 5.76225 10.3149 5.70017C10.2684 5.63808 10.2081 5.58743 10.1387 5.55271C10.0693 5.518 9.99265 5.49998 9.91504 5.49998H7C6.84663 5.49998 6.70173 5.42962 6.60693 5.30906C6.51219 5.18856 6.47807 5.03127 6.51416 4.8823L7.01416 2.82224L7.01465 2.82078C7.05311 2.66499 7.05561 2.50171 7.02246 2.3447C6.9893 2.18782 6.92131 2.04041 6.82324 1.91355C6.72509 1.7866 6.59918 1.68339 6.45557 1.61179C6.40109 1.58465 6.34458 1.56229 6.28662 1.5449L4.72217 4.66843ZM2 5.49998C1.8674 5.49998 1.74025 5.55271 1.64648 5.64646C1.55273 5.74022 1.50001 5.86738 1.5 5.99998V9.99998C1.5 10.1326 1.55273 10.2597 1.64648 10.3535C1.74025 10.4473 1.86739 10.5 2 10.5H3V5.49998H2Z" fill="#C4C4C7"/>
</g>
<defs>
<clipPath id="clip0_16021_4681">
<rect width="12" height="12" fill="white"/>
</clipPath>
</defs>
</svg>
