<svg width="44" height="44" viewBox="0 0 44 44" fill="none" xmlns="http://www.w3.org/2000/svg">
<g clip-path="url(#clip0_15202_8068)">
<path d="M16.263 27.2165C16.6959 27.3948 17.0892 27.6569 17.4205 27.9877C17.7517 28.3185 18.0144 28.7115 18.1933 29.1441C18.3722 29.5767 18.4638 30.0404 18.4629 30.5086C18.462 30.9767 18.3687 31.4401 18.1881 31.872C17.4319 33.6889 15.3399 34.5434 13.513 33.7772L10.714 32.6182C11.2198 33.694 12.1096 34.5418 13.2085 34.9951C15.6837 36.0265 18.5219 34.8576 19.5533 32.3924C20.054 31.2041 20.054 29.8879 19.563 28.6896C19.0623 27.5013 18.1389 26.5682 16.9406 26.0672C15.7526 25.5762 14.4854 25.5958 13.3657 26.0182L16.263 27.2165ZM43.9985 0.00134277H-0.00146484L-0.00117151 20.4986L11.4506 25.2227C12.6292 24.4175 14.0237 24.0344 15.4478 24.113L20.8891 16.2362V16.1282C20.8891 11.3941 24.7488 7.53444 29.4923 7.53444C34.2361 7.53444 38.0961 11.3941 38.0961 16.1282C38.0961 20.9603 34.0789 24.8396 29.2961 24.722L21.5374 30.2513C21.6943 34.0327 18.6792 37.0086 15.0847 37.0086C11.9613 37.0086 9.33915 34.7789 8.74984 31.8327L-0.00146484 28.2086V44.0013H43.9985V0.00134277ZM23.7568 16.1282C23.7568 17.6495 24.3611 19.1084 25.4368 20.1841C26.5124 21.2598 27.9714 21.8641 29.4926 21.8641C31.0139 21.8641 32.4728 21.2598 33.5485 20.1841C34.6241 19.1084 35.2285 17.6495 35.2285 16.1282C35.2285 14.607 34.6241 13.148 33.5485 12.0724C32.4728 10.9967 31.0139 10.3924 29.4926 10.3924C27.9714 10.3924 26.5124 10.9967 25.4368 12.0724C24.3611 13.148 23.7568 14.607 23.7568 16.1282ZM25.1906 16.1182C25.1906 14.9747 25.6449 13.878 26.4535 13.0694C27.2621 12.2608 28.3588 11.8065 29.5023 11.8065C30.6458 11.8065 31.7425 12.2608 32.5511 13.0694C33.3597 13.878 33.814 14.9747 33.814 16.1182C33.814 17.2618 33.3597 18.3585 32.5511 19.1671C31.7425 19.9757 30.6458 20.43 29.5023 20.43C28.3588 20.43 27.2621 19.9757 26.4535 19.1671C25.6449 18.3585 25.1906 17.2618 25.1906 16.1182Z" fill="url(#paint0_linear_15202_8068)"/>
</g>
<defs>
<linearGradient id="paint0_linear_15202_8068" x1="43.9985" y1="0.00134277" x2="43.9985" y2="44.0013" gradientUnits="userSpaceOnUse">
<stop stop-color="#111D2E"/>
<stop offset="0.212" stop-color="#051839"/>
<stop offset="0.407" stop-color="#0A1B48"/>
<stop offset="0.581" stop-color="#132E62"/>
<stop offset="0.738" stop-color="#144B7E"/>
<stop offset="0.873" stop-color="#136497"/>
<stop offset="1" stop-color="#1387B8"/>
</linearGradient>
<clipPath id="clip0_15202_8068">
<rect width="44" height="44" fill="white"/>
</clipPath>
</defs>
</svg>
