<svg width="58" height="58" viewBox="0 0 58 58" fill="none" xmlns="http://www.w3.org/2000/svg">
<g filter="url(#filter0_d_15202_8204)">
<g clip-path="url(#clip0_15202_8204)">
<path d="M0 16C0 7.16345 7.16344 0 16 0H42C50.8366 0 58 7.16344 58 16V42C58 50.8366 50.8366 58 42 58H16C7.16345 58 0 50.8366 0 42V16Z" fill="white"/>
<path d="M43.4539 20.2361C39.3102 20.2361 35.9508 16.8891 35.9508 12.7606H29.6984V35.8103C29.6984 38.2188 27.7386 40.1711 25.3216 40.1711C22.9046 40.1711 20.9448 38.2188 20.9448 35.8103C20.9448 33.4018 22.9042 31.4496 25.3216 31.4496H27.1973V25.22H25.3216C19.4512 25.22 14.6923 29.9615 14.6923 35.8103C14.6923 41.6592 19.4512 46.4006 25.3216 46.4006C31.192 46.4006 35.9505 41.6592 35.9505 35.8103V24.2494C38.182 25.6995 40.7894 26.4697 43.4535 26.4657H44.079V20.2361H43.4539Z" fill="#FA1E5C"/>
<path d="M42.2924 19.0776C38.1485 19.0776 34.7896 15.7306 34.7896 11.6021H28.5369V34.6518C28.5369 37.06 26.5775 39.0125 24.1602 39.0125C21.7429 39.0125 19.7835 37.06 19.7835 34.6518C19.7835 32.2436 21.7432 30.291 24.1602 30.291H26.0362V24.0615H24.1602C18.2903 24.0615 13.5312 28.8029 13.5312 34.6518C13.5312 40.5007 18.2899 45.2421 24.1602 45.2421C30.0305 45.2421 34.7899 40.5007 34.7899 34.6518V23.0905C37.0213 24.5406 39.6287 25.3108 42.2928 25.3068H42.9179V19.0776H42.2924Z" fill="#5FFDFF"/>
<path d="M42.919 20.2303C40.7773 20.0543 38.8901 18.9854 37.6331 17.3987C36.1652 16.2482 35.1798 14.5948 34.8688 12.7606H29.7465V35.8712C29.7465 38.2861 27.7804 40.2435 25.3557 40.2435C24.6282 40.2439 23.912 40.0642 23.2716 39.7206C22.6312 39.3769 22.0867 38.88 21.687 38.2747C21.0793 37.8768 20.5804 37.3345 20.2353 36.6969C19.8903 36.0593 19.7099 35.3462 19.7103 34.6219C19.7103 32.2073 21.6763 30.2496 24.1011 30.2496H25.9831V25.2531H25.3557C19.4665 25.2531 14.6923 30.0068 14.6923 35.8712C14.6885 38.3826 15.5823 40.8135 17.2139 42.7287C19.1373 44.3539 21.5789 45.2444 24.1014 45.2406C29.9903 45.2406 34.7648 40.4866 34.7648 34.6219V23.0306C37.0034 24.4845 39.6192 25.2568 42.2919 25.2528H42.919V20.2303Z" fill="black"/>
</g>
<path d="M16 0.5H42C50.5604 0.5 57.5 7.43959 57.5 16V42C57.5 50.5604 50.5604 57.5 42 57.5H16C7.43959 57.5 0.5 50.5604 0.5 42V16C0.500001 7.43959 7.43959 0.5 16 0.5Z" stroke="#F2F2F7"/>
</g>
<defs>
<filter id="filter0_d_15202_8204" x="0" y="0" width="66" height="66" filterUnits="userSpaceOnUse" color-interpolation-filters="sRGB">
<feFlood flood-opacity="0" result="BackgroundImageFix"/>
<feColorMatrix in="SourceAlpha" type="matrix" values="0 0 0 0 0 0 0 0 0 0 0 0 0 0 0 0 0 0 127 0" result="hardAlpha"/>
<feOffset dx="4" dy="4"/>
<feGaussianBlur stdDeviation="2"/>
<feComposite in2="hardAlpha" operator="out"/>
<feColorMatrix type="matrix" values="0 0 0 0 0 0 0 0 0 0 0 0 0 0 0 0 0 0 0.02 0"/>
<feBlend mode="normal" in2="BackgroundImageFix" result="effect1_dropShadow_15202_8204"/>
<feBlend mode="normal" in="SourceGraphic" in2="effect1_dropShadow_15202_8204" result="shape"/>
</filter>
<clipPath id="clip0_15202_8204">
<path d="M0 16C0 7.16345 7.16344 0 16 0H42C50.8366 0 58 7.16344 58 16V42C58 50.8366 50.8366 58 42 58H16C7.16345 58 0 50.8366 0 42V16Z" fill="white"/>
</clipPath>
</defs>
</svg>
