<svg width="12" height="12" viewBox="0 0 12 12" fill="none" xmlns="http://www.w3.org/2000/svg">
<g clip-path="url(#clip0_15956_7112)">
<path fill-rule="evenodd" clip-rule="evenodd" d="M6.00635 0.500038C6.31736 0.503913 6.62348 0.578075 6.90186 0.716835C7.1803 0.855659 7.42394 1.05566 7.61426 1.3018C7.80454 1.54789 7.93669 1.83386 8.00098 2.13822C8.06516 2.44221 8.06011 2.75696 7.98584 3.05863L7.98535 3.0601L7.63574 4.50004H9.91504C10.1479 4.50004 10.3777 4.55411 10.5859 4.65824C10.7942 4.76238 10.9755 4.91385 11.1152 5.10014C11.2549 5.2864 11.349 5.50292 11.3906 5.73197C11.4322 5.96096 11.4201 6.19652 11.355 6.41996L10.1899 10.42C10.0991 10.7315 9.90955 11.0055 9.6499 11.2002C9.39028 11.3949 9.0745 11.5 8.75 11.5H2C1.60217 11.5 1.22076 11.3419 0.939453 11.0606C0.658161 10.7793 0.5 10.3979 0.5 10V6.00004C0.50001 5.60223 0.658158 5.22079 0.939453 4.93949C1.22076 4.6582 1.60218 4.50004 2 4.50004H3.37988C3.47285 4.49996 3.56405 4.47384 3.64307 4.42484C3.72202 4.37585 3.78578 4.30589 3.82715 4.22269C3.82737 4.22224 3.8279 4.22169 3.82812 4.22123L5.55273 0.776406C5.63848 0.60516 5.81485 0.497667 6.00635 0.500038ZM4.72217 4.6685C4.59797 4.91798 4.40678 5.12806 4.16992 5.27494C4.11521 5.30886 4.0582 5.33832 4 5.36478V10.5H8.75C8.85816 10.5 8.96327 10.4648 9.0498 10.3999C9.1363 10.3351 9.19967 10.244 9.22998 10.1402L10.395 6.14018C10.4168 6.06566 10.4206 5.98705 10.4067 5.91068C10.3929 5.83434 10.3615 5.76232 10.3149 5.70023C10.2684 5.63814 10.2081 5.58749 10.1387 5.55277C10.0693 5.51806 9.99265 5.50004 9.91504 5.50004H7C6.84663 5.50004 6.70173 5.42968 6.60693 5.30912C6.51219 5.18862 6.47807 5.03133 6.51416 4.88236L7.01416 2.8223L7.01465 2.82084C7.05311 2.66505 7.05561 2.50177 7.02246 2.34477C6.9893 2.18788 6.92131 2.04048 6.82324 1.91361C6.72509 1.78666 6.59918 1.68345 6.45557 1.61185C6.40109 1.58471 6.34458 1.56235 6.28662 1.54496L4.72217 4.6685ZM2 5.50004C1.8674 5.50004 1.74025 5.55277 1.64648 5.64652C1.55273 5.74028 1.50001 5.86744 1.5 6.00004V10C1.5 10.1326 1.55273 10.2598 1.64648 10.3536C1.74025 10.4473 1.86739 10.5 2 10.5H3V5.50004H2Z" fill="#C4C4C7"/>
</g>
<defs>
<clipPath id="clip0_15956_7112">
<rect width="12" height="12" fill="white"/>
</clipPath>
</defs>
</svg>
