<svg width="58" height="58" viewBox="0 0 58 58" fill="none" xmlns="http://www.w3.org/2000/svg">
<g filter="url(#filter0_d_15202_8062)">
<g clip-path="url(#clip0_15202_8062)">
<path d="M0 0H58V58H0V0Z" fill="black"/>
<path d="M44.3544 14.0181L43.9081 14.5083L17.1737 43.895L17.0868 43.9907H13.6444L14.0868 43.5015L40.6063 14.1147L40.6942 14.0181H44.3544Z" fill="white" stroke="white" stroke-width="0.586667"/>
<path d="M35.6371 43.1464L15.8339 15.4636H22.3637L42.5038 43.1464H35.6371Z" fill="white" stroke="white" stroke-width="2.34667"/>
</g>
</g>
<defs>
<filter id="filter0_d_15202_8062" x="0" y="0" width="66" height="66" filterUnits="userSpaceOnUse" color-interpolation-filters="sRGB">
<feFlood flood-opacity="0" result="BackgroundImageFix"/>
<feColorMatrix in="SourceAlpha" type="matrix" values="0 0 0 0 0 0 0 0 0 0 0 0 0 0 0 0 0 0 127 0" result="hardAlpha"/>
<feOffset dx="4" dy="4"/>
<feGaussianBlur stdDeviation="2"/>
<feComposite in2="hardAlpha" operator="out"/>
<feColorMatrix type="matrix" values="0 0 0 0 0 0 0 0 0 0 0 0 0 0 0 0 0 0 0.02 0"/>
<feBlend mode="normal" in2="BackgroundImageFix" result="effect1_dropShadow_15202_8062"/>
<feBlend mode="normal" in="SourceGraphic" in2="effect1_dropShadow_15202_8062" result="shape"/>
</filter>
<clipPath id="clip0_15202_8062">
<path d="M0 16C0 7.16345 7.16344 0 16 0H42C50.8366 0 58 7.16344 58 16V42C58 50.8366 50.8366 58 42 58H16C7.16345 58 0 50.8366 0 42V16Z" fill="white"/>
</clipPath>
</defs>
</svg>
