<svg width="20" height="20" viewBox="0 0 20 20" fill="none" xmlns="http://www.w3.org/2000/svg">
<path d="M11.3971 4.23742C12.6027 3.03186 14.5569 3.03186 15.7625 4.23742C16.968 5.44298 16.968 7.3972 15.7625 8.60276L7.90836 16.4569C7.77414 16.591 7.59205 16.6666 7.40227 16.6666H4.0491C3.65378 16.6666 3.33331 16.3461 3.33331 15.9508V12.5976L3.33681 12.5263C3.35313 12.3626 3.42571 12.2089 3.54302 12.0915L11.3971 4.23742ZM14.7503 5.24959C14.1038 4.6031 13.0558 4.6031 12.4093 5.24959L4.76489 12.894V15.235H7.10589L14.7503 7.59059C15.3968 6.9441 15.3968 5.89608 14.7503 5.24959Z" fill="#C4C4C7"/>
</svg>
