<svg width="12" height="12" viewBox="0 0 12 12" fill="none" xmlns="http://www.w3.org/2000/svg">
<g clip-path="url(#clip0_15302_6582)">
<path d="M6 2.5C6.27614 2.50001 6.5 2.72386 6.5 3V6C6.5 6.18938 6.39302 6.36257 6.22363 6.44727L4.22363 7.44727C3.97665 7.57076 3.67623 7.47062 3.55273 7.22363C3.42924 6.97664 3.52938 6.67623 3.77637 6.55273L5.5 5.69092V3C5.5 2.72386 5.72386 2.5 6 2.5Z" fill="#DCDCDD"/>
<path fill-rule="evenodd" clip-rule="evenodd" d="M6 0.5C9.03757 0.5 11.5 2.96243 11.5 6C11.5 9.03757 9.03757 11.5 6 11.5C2.96243 11.5 0.5 9.03757 0.5 6C0.5 2.96243 2.96243 0.5 6 0.5ZM6 1.5C3.51472 1.5 1.5 3.51472 1.5 6C1.5 8.48528 3.51472 10.5 6 10.5C8.48528 10.5 10.5 8.48528 10.5 6C10.5 3.51472 8.48528 1.5 6 1.5Z" fill="#DCDCDD"/>
</g>
<defs>
<clipPath id="clip0_15302_6582">
<rect width="12" height="12" fill="white"/>
</clipPath>
</defs>
</svg>
