<svg width="20" height="20" viewBox="0 0 20 20" fill="none" xmlns="http://www.w3.org/2000/svg">
<path fill-rule="evenodd" clip-rule="evenodd" d="M10 2C14.8754 2 19 5.27143 19 9.5C19 13.7286 14.8754 17 10 17C8.94247 17 7.92648 16.8471 6.98193 16.5674L4.72363 17.6973C4.56868 17.7747 4.3847 17.7663 4.2373 17.6753C4.08989 17.5842 4 17.4233 4 17.25V15.0913C2.17853 13.7335 1 11.7448 1 9.5C1 5.27143 5.12464 2 10 2ZM10 3C5.48652 3 2 5.99658 2 9.5C2 11.4455 3.05875 13.2178 4.78662 14.4268C4.92034 14.5203 5 14.6732 5 14.8364V16.4404L6.71338 15.584L6.75781 15.5645C6.86334 15.5239 6.98024 15.5201 7.08887 15.5547C7.98997 15.8415 8.97144 16 10 16C14.5135 16 18 13.0034 18 9.5C18 5.99658 14.5135 3 10 3Z" fill="#8E8E93"/>
<path fill-rule="evenodd" clip-rule="evenodd" d="M10 2C14.8754 2 19 5.27143 19 9.5C19 13.7286 14.8754 17 10 17C8.94247 17 7.92648 16.8471 6.98193 16.5674L4.72363 17.6973C4.56868 17.7747 4.3847 17.7663 4.2373 17.6753C4.08989 17.5842 4 17.4233 4 17.25V15.0913C2.17853 13.7335 1 11.7448 1 9.5C1 5.27143 5.12464 2 10 2Z" fill="#34C759"/>
</svg>
