<svg width="12" height="12" viewBox="0 0 12 12" fill="none" xmlns="http://www.w3.org/2000/svg">
<g clip-path="url(#clip0_15956_6811)">
<path fill-rule="evenodd" clip-rule="evenodd" d="M6.00635 0.499916C6.31736 0.503791 6.62348 0.577953 6.90186 0.716713C7.1803 0.855536 7.42394 1.05554 7.61426 1.30167C7.80454 1.54777 7.93669 1.83374 8.00098 2.1381C8.06516 2.44209 8.06011 2.75684 7.98584 3.05851L7.98535 3.05997L7.63574 4.49992H9.91504C10.1479 4.49992 10.3777 4.55398 10.5859 4.65812C10.7942 4.76226 10.9755 4.91372 11.1152 5.10001C11.2549 5.28628 11.349 5.5028 11.3906 5.73185C11.4322 5.96084 11.4201 6.1964 11.355 6.41984L10.1899 10.4198C10.0991 10.7314 9.90955 11.0054 9.6499 11.2001C9.39028 11.3948 9.0745 11.4999 8.75 11.4999H2C1.60217 11.4999 1.22076 11.3418 0.939453 11.0605C0.658161 10.7792 0.5 10.3977 0.5 9.99992V5.99992C0.50001 5.60211 0.658158 5.22067 0.939453 4.93937C1.22076 4.65808 1.60218 4.49992 2 4.49992H3.37988C3.47285 4.49984 3.56405 4.47372 3.64307 4.42472C3.72202 4.37573 3.78578 4.30577 3.82715 4.22257C3.82737 4.22212 3.8279 4.22156 3.82812 4.22111L5.55273 0.776284C5.63848 0.605038 5.81485 0.497545 6.00635 0.499916ZM4.72217 4.66837C4.59797 4.91786 4.40678 5.12794 4.16992 5.27482C4.11521 5.30874 4.0582 5.3382 4 5.36466V10.4999H8.75C8.85816 10.4999 8.96327 10.4647 9.0498 10.3998C9.1363 10.3349 9.19967 10.2438 9.22998 10.1401L10.395 6.14005C10.4168 6.06554 10.4206 5.98693 10.4067 5.91056C10.3929 5.83422 10.3615 5.76219 10.3149 5.70011C10.2684 5.63802 10.2081 5.58736 10.1387 5.55265C10.0693 5.51794 9.99265 5.49992 9.91504 5.49992H7C6.84663 5.49992 6.70173 5.42956 6.60693 5.309C6.51219 5.1885 6.47807 5.03121 6.51416 4.88224L7.01416 2.82218L7.01465 2.82072C7.05311 2.66493 7.05561 2.50165 7.02246 2.34464C6.9893 2.18776 6.92131 2.04035 6.82324 1.91349C6.72509 1.78654 6.59918 1.68333 6.45557 1.61173C6.40109 1.58459 6.34458 1.56222 6.28662 1.54484L4.72217 4.66837ZM2 5.49992C1.8674 5.49992 1.74025 5.55264 1.64648 5.6464C1.55273 5.74016 1.50001 5.86732 1.5 5.99992V9.99992C1.5 10.1325 1.55273 10.2597 1.64648 10.3534C1.74025 10.4472 1.86739 10.4999 2 10.4999H3V5.49992H2Z" fill="#C4C4C7"/>
</g>
<defs>
<clipPath id="clip0_15956_6811">
<rect width="12" height="12" fill="white"/>
</clipPath>
</defs>
</svg>
