<svg width="20" height="20" viewBox="0 0 20 20" fill="none" xmlns="http://www.w3.org/2000/svg">
<path fill-rule="evenodd" clip-rule="evenodd" d="M8.5 2C9.40119 2 10.1457 2.38658 10.689 2.89697C11.2263 3.40181 11.5896 4.04795 11.7349 4.62891C11.8722 5.17842 11.9375 5.84578 11.9375 6.46875C11.9375 7.08418 11.8739 7.70878 11.7241 8.1582C11.646 8.39253 11.4968 8.66357 11.3457 8.91846C11.1938 9.17469 11.0016 9.47756 10.8384 9.74561C10.6674 10.0265 10.5137 10.292 10.4038 10.5269C10.2871 10.7762 10.25 10.9287 10.25 11C10.25 11.3177 10.3024 11.54 10.4058 11.7261C10.511 11.9154 10.6937 12.1115 11.0273 12.334C11.1753 12.4326 11.5538 12.617 12.0981 12.8711C12.6204 13.1148 13.2607 13.4073 13.875 13.7065C14.4873 14.0048 15.0954 14.32 15.5547 14.6138C15.7824 14.7594 15.9932 14.9123 16.1528 15.0669C16.2328 15.1444 16.3129 15.2348 16.3755 15.3369C16.4368 15.4371 16.5 15.5792 16.5 15.75V16.5C16.5 17.0523 16.0523 17.5 15.5 17.5H1.5C0.947716 17.5 0.5 17.0523 0.5 16.5V15.75C0.5 15.5792 0.563164 15.4371 0.624512 15.3369C0.687083 15.2348 0.767201 15.1444 0.847168 15.0669C1.00683 14.9123 1.21758 14.7594 1.44531 14.6138C1.90462 14.32 2.5127 14.0048 3.125 13.7065C3.7393 13.4073 4.37964 13.1148 4.90186 12.8711C5.44625 12.617 5.82473 12.4326 5.97266 12.334C6.30634 12.1115 6.48902 11.9154 6.59424 11.7261C6.6976 11.54 6.75 11.3177 6.75 11C6.75 10.9287 6.71293 10.7762 6.59619 10.5269C6.48626 10.292 6.33263 10.0265 6.16162 9.74561C5.99844 9.47756 5.80617 9.17469 5.6543 8.91846C5.50322 8.66357 5.35401 8.39253 5.27588 8.1582C5.12607 7.70878 5.0625 7.08418 5.0625 6.46875C5.0625 5.84578 5.12777 5.17842 5.26514 4.62891C5.41038 4.04795 5.7737 3.40181 6.31104 2.89697C6.85434 2.38658 7.59881 2 8.5 2ZM8.5 3C7.90119 3 7.39167 3.25342 6.99561 3.62549C6.59371 4.00305 6.33217 4.48199 6.23486 4.87109C6.12225 5.32156 6.0625 5.90427 6.0625 6.46875C6.0625 7.04072 6.12396 7.5412 6.22412 7.8418C6.26459 7.96319 6.36228 8.15162 6.51465 8.40869C6.66621 8.66439 6.834 8.92643 7.01611 9.22559C7.19045 9.51196 7.3677 9.81624 7.50195 10.103C7.62938 10.3753 7.75 10.6963 7.75 11C7.75 11.4323 7.67736 11.835 7.46826 12.2114C7.26098 12.5845 6.94361 12.8885 6.52734 13.166C6.30027 13.3174 5.83499 13.5392 5.32471 13.7773C4.79232 14.0258 4.16686 14.3115 3.5625 14.606C2.95616 14.9014 2.3922 15.1957 1.98438 15.4565C1.77862 15.5882 1.63181 15.6991 1.54248 15.7856C1.52373 15.8038 1.5101 15.819 1.5 15.8306V16.5H15.5V15.8306C15.4899 15.819 15.4763 15.8038 15.4575 15.7856C15.3682 15.6991 15.2214 15.5882 15.0156 15.4565C14.6078 15.1957 14.0438 14.9014 13.4375 14.606C12.8331 14.3115 12.2077 14.0258 11.6753 13.7773C11.165 13.5392 10.6997 13.3174 10.4727 13.166C10.0564 12.8885 9.73902 12.5845 9.53174 12.2114C9.32264 11.835 9.25 11.4323 9.25 11C9.25 10.6963 9.37062 10.3753 9.49805 10.103C9.6323 9.81624 9.80955 9.51196 9.98389 9.22559C10.166 8.92643 10.3338 8.66439 10.4854 8.40869C10.6377 8.15162 10.7354 7.96319 10.7759 7.8418C10.876 7.5412 10.9375 7.04072 10.9375 6.46875C10.9375 5.90427 10.8778 5.32156 10.7651 4.87109C10.6678 4.48199 10.4063 4.00305 10.0044 3.62549C9.60833 3.25342 9.09881 3 8.5 3Z" fill="#8E8E93"/>
<path d="M19.75 12.75H17V11.75H19.75V12.75Z" fill="#8E8E93"/>
<path d="M19.75 10.25H15.25V9.25H19.75V10.25Z" fill="#8E8E93"/>
<path d="M19.75 7.75H13.5V6.75H19.75V7.75Z" fill="#8E8E93"/>
</svg>
