<svg width="58" height="58" viewBox="0 0 58 58" fill="none" xmlns="http://www.w3.org/2000/svg">
<g clip-path="url(#clip0_15202_8164)">
<path d="M0 0H58V58H0V0Z" fill="#B14B43"/>
<path d="M15.4667 17.4H29.3867V21.2667H15.4667V17.4ZM30.5467 15.08H41.76V18.56C41.76 22.04 40.5142 24.36 36.7763 24.36V20.88C37.3992 20.88 38.0221 19.72 38.0221 18.56H30.5467V15.08ZM30.5467 25.9067H41.76V29.6187C41.76 38.28 40.5142 41.3733 36.1533 44.4667C35.5304 42.6107 35.3355 41.992 34.9075 40.7547C38.0221 37.6613 38.0221 32.0933 38.0221 29.6187H30.5467V25.9067ZM15.4667 23.5867H29.3867V27.4533H15.4667V23.5867ZM15.4667 30.9333H29.3867V34.4133H15.4667V30.9333ZM15.4667 37.12H29.3867V40.6H15.4667V37.12Z" fill="white"/>
<path d="M24.36 13.5333V25.9067H20.88V13.5333H24.36ZM34.0267 18.1733V44.4667H30.5467V18.1733H34.0267Z" fill="white"/>
<path d="M36.1808 32.8667C37.4514 37.1405 40.6275 40.1928 42.5333 42.0245L40.6275 44.4667C37.4514 42.0245 34.2753 36.5299 33.64 33.4772L36.1808 32.8667ZM24.36 33.64V44.4667H20.88V33.64H24.36Z" fill="white"/>
<path d="M21.2667 23.5867V34.4133H18.1733V23.5867H21.2667ZM27.0667 23.5867V34.4133H23.9733V23.5867H27.0667Z" fill="white"/>
</g>
<defs>
<clipPath id="clip0_15202_8164">
<path d="M0 16C0 7.16345 7.16344 0 16 0H42C50.8366 0 58 7.16344 58 16V42C58 50.8366 50.8366 58 42 58H16C7.16345 58 0 50.8366 0 42V16Z" fill="white"/>
</clipPath>
</defs>
</svg>
