<svg width="48" height="48" viewBox="0 0 48 48" fill="none" xmlns="http://www.w3.org/2000/svg">
<path d="M28.6497 7.18892C28.6984 6.95258 29.0608 6.90438 29.1507 7.1347C30.1456 9.55423 30.033 12.3848 28.9032 14.7395C33.1268 14.1199 37.1021 11.9854 39.9748 8.83083C40.0731 8.69597 40.2775 8.63248 40.4058 8.76549C40.5518 8.94437 40.4777 9.19601 40.5045 9.40779C40.6366 13.9007 39.175 18.4093 36.457 21.9865C37.908 21.8303 39.339 21.5022 40.7154 21.0175C40.9124 20.9211 41.1436 21.1268 41.0778 21.3326C39.9735 24.7717 37.2254 27.6319 33.8363 28.8799C33.7261 28.9198 33.5796 28.9517 33.5907 29.1005C32.8126 32.9497 30.2351 36.3749 26.771 38.217C23.7082 39.8834 19.9874 40.2658 16.6424 39.294C13.7627 38.4709 11.1856 36.6469 9.43989 34.2144C6.7145 30.4885 6.08934 25.2898 7.99772 21.068C9.15859 18.4779 11.2959 16.4143 13.765 15.0625C15.8152 13.928 18.0851 13.2273 20.391 12.8469C22.1405 12.5572 23.8714 12.0099 25.3756 11.0543C26.8294 10.1432 28.0181 8.79144 28.6497 7.18892ZM25.7487 25.7504C23.0006 27.0832 20.1385 28.3326 17.0715 28.6626C16.9492 28.6565 16.775 28.7349 16.857 28.8804C17.3167 29.5306 18.0049 30 18.7422 30.2836C19.7538 30.6595 20.8809 30.6349 21.9101 30.3439C23.0029 30.013 23.9089 29.2456 24.6045 28.3604C25.1958 27.5837 25.6986 26.7287 26.0226 25.8056C25.9646 25.7018 25.8437 25.686 25.7487 25.7504ZM8.44446 26.6133C8.31748 26.6388 8.35548 26.7908 8.38514 26.8775C8.65068 27.7065 9.01493 28.5296 9.60997 29.1774C10.0335 29.6506 10.6661 29.9551 11.3079 29.8962C11.9303 29.8383 12.4341 29.3331 12.6319 28.7622C12.6676 28.632 12.5152 28.5968 12.4197 28.5903C11.009 28.4332 9.77865 27.6273 8.70722 26.7459C8.62519 26.6953 8.55197 26.5776 8.44446 26.6133Z" fill="#1A1A18"/>
</svg>
